<?xml version="1.0" encoding="UTF-8"?>
<svg id="Alcohol" xmlns="http://www.w3.org/2000/svg" viewBox="0 0 128 128">
  <defs>
    <style>
      .cls-1 {
        fill: #f9f9f9;
      }

      .cls-2 {
        fill: #68a159;
      }

      .cls-3 {
        fill: #333;
      }

      .cls-4 {
        fill: #39592e;
      }
    </style>
  </defs>
  <path class="cls-2" d="m17.2191,82.7525l-11.8199,11.7896c-.6298.6292-.3367,1.9301,1.1224,4.9708,3.5382,7.3764,14.2653,18.064,22.0728,21.9915,2.8499,1.4357,4.2772,1.7498,4.9359,1.0968l11.7925-11.7621c-5.2543-2.2852-11.5033-7.9144-15.6636-12.0634-7.28-7.2609-10.8828-12.3982-12.4401-16.0232Z"/>
  <path class="cls-2" d="m93.9621,25.0312c-.0233-.0571-.0366-.1127-.0586-.1696-4.6855.4965-21.5293,2.8773-30.7544,12.0789l-7.5601,7.5406c.3188,2.4036,6.056,10.6272,15.0974,19.0938,7.743,7.2516,11.8276,8.9686,12.9331,9.0637l.6835-.6807.0004.0004,6.9768-6.9587c9.3484-9.3254,11.5017-26.6508,11.9078-31.0739-1.9628-.7593-3.981-2.1888-5.7085-3.9119-1.1414-1.1384-2.6771-2.9268-3.5175-4.9827Z"/>
  <path class="cls-4" d="m111.3488,9.4823l-12.8865,12.8538c.0055.4336.5072,1.8889,2.3319,3.8029,2.098,2.1999,4.2196,3.2438,5.0026,3.2984l12.8889-12.8555c-1.5369-.8126-3.0619-1.978-4.4091-3.3222-.911-.9087-2.068-2.2347-2.9279-3.7774Z"/>
  <path class="cls-4" d="m115.6058,5.2362c-.5958.4885.1627,2.2363,1.9857,4.1494,2.0974,2.1995,4.5007,3.7744,5.2417,3.0596.3706-.3575-.2234-2.6048-2.5579-4.9321-1.6797-1.6765-4.22-2.6454-4.6696-2.2769Z"/>
  <path class="cls-3" d="m123.8723,3.9254c-4.2316-4.2178-8.9976-5.1333-11.8623-2.2759l-18.16,18.1126c-4.5564.425-23.4773,2.799-34.2966,13.5917l-7.2856,7.2668-.0004-.0004c-.0178.0179-.2107.2101-.5513.5499-.0168.0168-.0328.0327-.0497.0495-.012.0109-.0228.0228-.0338.0337-.9434.9413-2.8792,2.8722-5.3768,5.3636L1.8022,90.9553c-3.3981,3.3915-1.188,7.9957.1322,10.7471,4.0647,8.4762,15.4532,19.8465,24.3693,24.3318,1.4641.7361,3.9067,1.9658,6.3911,1.9658,1.5347,0,3.0852-.4697,4.4312-1.8122l39.2604-39.1593,10.5968-10.5694s.0004-.0005.0005-.0007l7.8925-7.8721c10.8243-10.7976,13.0236-29.8495,13.4039-34.4528l18.1492-18.1017c2.8199-2.8138,1.769-7.7916-2.5569-12.1064ZM33.5302,122.6012c-.6587.653-2.0861.3389-4.9359-1.0968-7.8075-3.9275-18.5345-14.6151-22.0728-21.9915-1.4591-3.0408-1.7522-4.3417-1.1224-4.9708l11.8199-11.7896c1.5573,3.625,5.16,8.7623,12.4401,16.0232,4.1603,4.1489,10.4093,9.7781,15.6636,12.0634l-11.7925,11.7621Zm15.8008-15.7604h-.0129c-1.4026,0-6.7815-2.585-15.2812-10.8809-8.4271-8.2263-12.8215-15.2357-12.811-17.2038l20.5679-20.5149,9.8855-9.86c2.4923,5.3929,8.5725,12.0341,13.0017,16.4521,4.7163,4.7032,10.3267,9.6156,14.9883,11.7468l-30.3381,30.2607Zm41.9492-41.8411l-6.9768,6.9587-.0004-.0004-.6835.6807c-1.1055-.0951-5.1901-1.8121-12.9331-9.0637-9.0414-8.4666-14.7786-16.6902-15.0974-19.0938l7.5601-7.5406c9.2251-9.2016,26.0688-11.5825,30.7544-12.0789.022.0569.0353.1125.0586.1696.8403,2.0559,2.3761,3.8442,3.5175,4.9827,1.7275,1.7231,3.7457,3.1526,5.7085,3.9119-.4061,4.4231-2.5594,21.7485-11.9078,31.0739Zm14.5166-35.5623c-.783-.0546-2.9045-1.0985-5.0026-3.2984-1.8247-1.9141-2.3264-3.3693-2.3319-3.8029l12.8865-12.8538c.8599,1.5427,2.0168,2.8687,2.9279,3.7774,1.3472,1.3442,2.8722,2.5096,4.4091,3.3222l-12.8889,12.8555Zm17.0364-16.9921c-.741.7148-3.1443-.8601-5.2417-3.0596-1.823-1.9131-2.5815-3.6609-1.9857-4.1494.4496-.3686,2.9899.6004,4.6696,2.2769,2.3345,2.3273,2.9285,4.5746,2.5579,4.9321Z"/>
  <path class="cls-1" d="m47.1413,71.0751c.8423-.0007,1.5625-.2986,2.1606-.8951.5988-.5972.8975-1.3156.8981-2.1558,0-.8409-.2993-1.5601-.8973-2.1566-.5981-.5965-1.3191-.8951-2.1621-.8951s-1.5634.2979-2.1621.8951c-.598.5965-.8923,1.3149-.8831,2.1566-.0093.8402.2858,1.5593.8838,2.1558s1.319.8951,2.1621.8951Z"/>
  <path class="cls-1" d="m50.458,88.0267c-.8423-.0007-1.5632.2979-2.1614.8944-.5986.5972-.8931,1.3156-.8838,2.1558-.0093.8417.2852,1.5601.8831,2.1566.5989.5972,1.3191.8951,2.1621.8951s1.5634-.2979,2.1621-.8951c.598-.5965.8975-1.3156.8967-2.1558,0-.8409-.2987-1.5593-.8975-2.1566-.598-.5965-1.3182-.8944-2.1614-.8944Z"/>
  <path class="cls-1" d="m64.6809,64.8332c-4.4292-4.418-10.5094-11.0592-13.0017-16.4521l-9.8855,9.86-20.5679,20.5149c-.0105,1.9681,4.3839,8.9775,12.811,17.2038,8.4998,8.2958,13.8787,10.8809,15.2812,10.8809h.0129l30.3381-30.2607c-4.6616-2.1312-10.272-7.0435-14.9883-11.7468Zm-22.5981-1.8541c1.396-1.3926,3.0823-2.0881,5.0579-2.0888,1.9756.0007,3.6619.6962,5.0579,2.0888,1.3955,1.3918,2.0935,3.0745,2.0935,5.0443,0,1.9713-.698,3.6525-2.0942,5.045-1.3953,1.3918-3.0793,2.091-5.05,2.0953-1.9719.0043-3.6597-.6942-5.0643-2.0953-1.3961-1.3926-2.0941-3.0738-2.0941-5.045,0-1.9698.698-3.6525,2.0935-5.0443Zm13.4332,33.1429c-1.3961,1.3925-3.0824,2.0881-5.058,2.0888-1.9763,0-3.6619-.6963-5.0579-2.0888-1.3955-1.3918-2.0935-3.0731-2.0935-5.0443s.698-3.6525,2.0942-5.045c1.4047-1.4011,3.0945-2.1017,5.0708-2.1017,1.967.0093,3.6482.7098,5.0436,2.1017,1.3961,1.3926,2.0941,3.0738,2.0941,5.045-.0006,1.9705-.698,3.6525-2.0934,5.0443Zm8.6292-19.8527l-29.5781,8.7375c-.2638.0779-.5492.0056-.7438-.1885l-1.571-1.5669c-.4026-.4017-.2275-1.0869.3188-1.2474l29.6166-8.699c.2635-.0775.5485-.005.7427.1887l1.5323,1.5284c.4023.4014.228,1.0859-.3175,1.2471Z"/>
  <path class="cls-3" d="m47.1477,75.1637c1.9707-.0043,3.6548-.7034,5.05-2.0953,1.3962-1.3926,2.0942-3.0738,2.0942-5.045,0-1.9698-.698-3.6525-2.0935-5.0443-1.396-1.3926-3.0823-2.0881-5.0579-2.0888-1.9756.0007-3.6619.6962-5.0579,2.0888-1.3955,1.3918-2.0935,3.0745-2.0935,5.0443,0,1.9713.698,3.6525,2.0941,5.045,1.4047,1.4011,3.0924,2.0995,5.0643,2.0953Zm-2.1692-9.2961c.5988-.5972,1.319-.8951,2.1621-.8951s1.564.2986,2.1621.8951c.598.5965.8973,1.3156.8973,2.1566-.0006.8402-.2993,1.5586-.8981,2.1558-.5981.5965-1.3184.8944-2.1606.8951-.8431,0-1.5641-.2986-2.1621-.8951s-.8931-1.3156-.8838-2.1558c-.0093-.8417.285-1.5601.8831-2.1566Z"/>
  <path class="cls-3" d="m62.9303,73.4939c-.1942-.1937-.4791-.2662-.7427-.1887l-29.6166,8.699c-.5464.1605-.7214.8457-.3188,1.2474l1.571,1.5669c.1946.1941.48.2664.7438.1885l29.5781-8.7375c.5455-.1612.7198-.8457.3175-1.2471l-1.5323-1.5284Z"/>
  <path class="cls-3" d="m50.4717,83.931c-1.9763,0-3.6661.7006-5.0708,2.1017-1.3962,1.3926-2.0942,3.0738-2.0942,5.045s.698,3.6525,2.0935,5.0443c1.396,1.3925,3.0815,2.0888,5.0579,2.0888,1.9756-.0007,3.6619-.6963,5.058-2.0888,1.3954-1.3918,2.0928-3.0738,2.0934-5.0443,0-1.9713-.698-3.6525-2.0941-5.045-1.3954-1.3918-3.0765-2.0924-5.0436-2.1017Zm2.1484,9.3026c-.5988.5972-1.319.8951-2.1621.8951s-1.5632-.2979-2.1621-.8951c-.5979-.5965-.8923-1.3149-.8831-2.1566-.0093-.8402.2852-1.5586.8838-2.1558.5981-.5965,1.3191-.8951,2.1614-.8944.8431,0,1.5634.2979,2.1614.8944.5988.5972.8975,1.3156.8975,2.1566.0007.8402-.2987,1.5593-.8967,2.1558Z"/>
</svg>