<?xml version="1.0" encoding="UTF-8"?>
<svg id="Beef" xmlns="http://www.w3.org/2000/svg" viewBox="0 0 128 128">
  <defs>
    <style>
      .cls-1 {
        fill: #fff;
      }

      .cls-2 {
        fill: #ee78a1;
      }

      .cls-3 {
        fill: #3a3a3a;
      }
    </style>
  </defs>
  <ellipse class="cls-3" cx="78.6188" cy="64.1968" rx="4.6495" ry="5.0091"/>
  <path class="cls-1" d="m96.1111,52.7472c-.0011-.0214-.0013-.0416-.0025-.063-.1418-2.6688-.3107-5.8433-1.1646-9.028-.2415-.9008-.5396-1.8021-.9057-2.6933-.3544-.8626-.7725-1.7159-1.2709-2.5488-.9083-1.518-2.0908-2.9652-3.6044-4.2894-2.0093-1.7578-4.6241-3.2903-8.0325-4.4553-4.3117-1.4738-9.895-2.3587-17.1469-2.359-7.2235,0-12.7919.8699-17.1002,2.3195-3.4541,1.1622-6.1002,2.6961-8.1264,4.4597-1.5201,1.323-2.704,2.77-3.6122,4.288-.5111.8544-.936,1.7301-1.294,2.6156-.3719.9201-.6714,1.8509-.9111,2.7806-.8094,3.1397-.9602,6.2633-1.085,8.8947-.002.0425-.0023.0829-.0043.1254-.7919,17.0192,1.5903,30.3275,7.0713,39.709,4.8095-2.8546,12.618-4.3385,25.078-4.3385,12.5243,0,20.3507,1.4985,25.1539,4.3819,5.5118-9.3924,7.8577-22.7301,6.9575-39.799Zm-46.73,16.4587c-2.5679,0-4.6495-2.2426-4.6495-5.009s2.0817-5.0091,4.6495-5.0091,4.6496,2.2427,4.6496,5.0091-2.0817,5.009-4.6496,5.009Zm29.2377,0c-2.5679,0-4.6495-2.2426-4.6495-5.009s2.0817-5.0091,4.6495-5.0091,4.6495,2.2427,4.6495,5.0091-2.0817,5.009-4.6495,5.009Z"/>
  <ellipse class="cls-3" cx="49.3811" cy="64.1968" rx="4.6496" ry="5.0091"/>
  <path id="OhrLinks" class="cls-1" d="m6.3352,53.0693c2.3677,1.5834,6.2593,3.6612,10.373,3.6612,3.773,0,7.8607-3.4803,10.4199-6.3449.2791-3.6851.8856-7.3424,2.1262-10.7497-.8961-.7235-1.7197-1.4637-2.5028-2.2119-5.4003,2.5177-14.3192,9.9473-20.4163,15.6452Z"/>
  <path class="cls-3" d="m126.9905,50.9504c-1.7415-1.6902-13.3304-12.7958-22.0758-17.5907,10.0923-13.0982,6.4199-27.9025,5.4196-31.173-.3599-1.172-1.3271-2.0221-2.4644-2.1662-1.1323-.1399-2.2568.4419-2.8564,1.4908-1.7407,3.0384-10.979,18.4239-21.916,22.8584-.1888.0765-.3653.1699-.5343.2722-4.8288-1.6272-10.902-2.5665-18.5795-2.5668-7.6761,0-13.7506.9303-18.5821,2.5426-.158-.0932-.3236-.1771-.4985-.248C33.9656,19.9353,24.7273,4.5498,22.9871,1.5124c-.6006-1.051-1.7241-1.6297-2.8589-1.4918-1.1377.1452-2.1045.9963-2.4634,2.1694-.9999,3.2678-4.6758,18.0713,5.4196,31.1701C14.3402,38.1545,2.7526,49.2587,1.01,50.9504.386,51.5196.0115,52.3655.0003,53.2492c-.0122.9605.3828,1.8516,1.0869,2.4482,1.7856,1.5055,8.1885,6.4197,15.6211,6.4197,3.8069,0,7.3577-2.0317,10.1516-4.3027-.1406,15.8996,2.6149,28.6195,8.2253,37.9589-2.5378,3.1688-3.3218,7.2899-3.3218,12.3089,0,12.9173,5.1372,19.9178,32.2363,19.9178s32.2368-7.0005,32.2368-19.9178c0-4.9824-.7719-9.0802-3.2658-12.2398,5.6506-9.3507,8.3868-22.0938,8.1611-38.0341,2.795,2.2737,6.3489,4.3089,10.1599,4.3089,7.4346,0,13.8359-4.9142,15.6211-6.4208.7017-.5923,1.0981-1.4824,1.0869-2.4429-.0103-.8848-.3848-1.7328-1.0093-2.303Zm-99.8624-.5648c-2.5592,2.8645-6.6469,6.3449-10.4199,6.3449-4.1138,0-8.0054-2.0778-10.373-3.6612,6.0971-5.6979,15.016-13.1275,20.4163-15.6452.7831.7482,1.6067,1.4883,2.5028,2.2119-1.2407,3.4073-1.8471,7.0647-2.1262,10.7497Zm36.8716,72.5876c-27.5713,0-27.5713-7.5697-27.5713-14.891,0-2.8109.0065-5.6565,1.5666-8.0981.7877-1.2328,1.9783-2.3606,3.7621-3.3295,3.886-2.1107,10.6005-3.4634,22.2426-3.4634,11.7084,0,18.4335,1.368,22.3093,3.4993,1.7773.9775,2.9597,2.114,3.7375,3.356,1.5203,2.4275,1.525,5.2491,1.525,8.0357,0,7.3214,0,14.891-27.5718,14.891Zm25.1539-30.427c-4.8032-2.8835-12.6296-4.3819-25.1539-4.3819-12.46,0-20.2685,1.4839-25.078,4.3385-5.481-9.3816-7.8632-22.6898-7.0713-39.709.002-.0425.0023-.083.0043-.1253.1248-2.6315.2755-5.7551,1.085-8.8947.2397-.9298.5392-1.8606.9111-2.7806.358-.8856.7829-1.7612,1.294-2.6156.9081-1.518,2.0921-2.9651,3.6122-4.2881,2.0262-1.7635,4.6723-3.2975,8.1264-4.4596,4.3083-1.4496,9.8767-2.3194,17.1002-2.3194,7.252.0003,12.8352.8851,17.1469,2.359,3.4083,1.1649,6.0232,2.6975,8.0325,4.4553,1.5136,1.3243,2.6961,2.7714,3.6044,4.2894.4985.833.9166,1.6862,1.2709,2.5488.3661.8914.6642,1.7925.9057,2.6933.8539,3.1848,1.0227,6.3593,1.1646,9.0281.0012.0213.0014.0416.0025.0629.9003,17.0691-1.4456,30.4067-6.9575,39.7991Zm22.1381-35.8157c-3.7996,0-7.9183-3.5281-10.4734-6.4034-.2987-3.6428-.9164-7.258-2.1488-10.6296.9235-.7422,1.7719-1.5018,2.5761-2.2701,5.4142,2.5243,14.3259,9.9481,20.4191,15.6419-2.3682,1.5844-6.2588,3.6612-10.373,3.6612Z"/>
  <path id="OhrRechts" class="cls-1" d="m98.6695,39.6975c1.2324,3.3717,1.8501,6.9869,2.1488,10.6297,2.5551,2.8753,6.6738,6.4033,10.4734,6.4033,4.1143,0,8.0049-2.0768,10.373-3.6612-6.0933-5.6938-15.0049-13.1176-20.4191-15.6419-.8043.7683-1.6526,1.5279-2.5761,2.2702Z"/>
  <path class="cls-2" d="m90.0466,100.0465c-.7778-1.242-1.9603-2.3786-3.7375-3.356-3.8758-2.1314-10.6009-3.4994-22.3093-3.4994-11.6421,0-18.3566,1.3528-22.2426,3.4635-1.7838.9689-2.9744,2.0968-3.7621,3.3295-1.5601,2.4416-1.5666,5.2873-1.5666,8.0981,0,7.3214,0,14.891,27.5713,14.891s27.5718-7.5697,27.5718-14.891c0-2.7867-.0046-5.6081-1.525-8.0356Zm-33.7276,12.723c0,2.5961-1.9716,4.7202-4.3814,4.7202h-.0718c-2.4098,0-4.3815-2.1241-4.3815-4.7202v-7.2026c0-2.5961,1.9717-4.7203,4.3815-4.7203h.0718c2.4098,0,4.3814,2.1241,4.3814,4.7203v7.2026Zm24.1968,0c0,2.5961-1.9717,4.7202-4.3815,4.7202h-.0718c-2.4098,0-4.3815-2.1241-4.3815-4.7202v-7.2026c0-2.5961,1.9717-4.7203,4.3815-4.7203h.0718c2.4098,0,4.3815,2.1241,4.3815,4.7203v7.2026Z"/>
  <path class="cls-3" d="m51.9375,100.8467h-.0718c-2.4098,0-4.3815,2.1241-4.3815,4.7203v7.2026c0,2.5961,1.9717,4.7202,4.3815,4.7202h.0718c2.4098,0,4.3814-2.1241,4.3814-4.7202v-7.2026c0-2.5961-1.9716-4.7203-4.3814-4.7203Z"/>
  <path class="cls-3" d="m76.1343,100.8467h-.0718c-2.4098,0-4.3815,2.1241-4.3815,4.7203v7.2026c0,2.5961,1.9717,4.7202,4.3815,4.7202h.0718c2.4098,0,4.3815-2.1241,4.3815-4.7202v-7.2026c0-2.5961-1.9717-4.7203-4.3815-4.7203Z"/>
</svg>