<?xml version="1.0" encoding="UTF-8"?>
<svg id="Caffeine" xmlns="http://www.w3.org/2000/svg" viewBox="0 0 128 128">
  <defs>
    <style>
      .cls-1 {
        fill: #99663b;
      }

      .cls-2 {
        fill: #3a3a3a;
      }
    </style>
  </defs>
  <path class="cls-1" d="m32.5701,55.3857c-10.1246-2.474-21.4839-5.2571-26.466-17.4193-3.9454,13.2222,8.5158,30.1,28.7374,38.3641,2.6998,1.1032,5.4282,2.0043,8.1508,2.7087,1.2628-5.3814,3.9008-10.8939,7.7351-16.1053-4.6744-4.2375-11.2727-5.8669-18.1573-7.5482Z"/>
  <path class="cls-1" d="m68.2095,46.9201c2.6354-1.6539,5.3223-3.0891,8.0256-4.3165-5.3183-6.1835-12.7895-11.417-21.4905-14.9728-7.3278-2.9951-14.869-4.5355-21.921-4.5355-2.9307,0-5.7758.2662-8.4867.804-5.0975,1.0112-9.3383,2.922-12.5146,5.5656,3.3533,11.8361,13.0735,14.2095,24.324,16.9396,7.6511,1.8568,15.4762,3.7774,21.1999,8.9867,3.1887-3.0742,6.8249-5.9367,10.8633-8.4711Z"/>
  <path class="cls-1" d="m84.0304,74.2693c15.4912-2.9617,30.1275-5.7712,35.9081-22.4364-3.9071-6.1796-11.4243-9.2793-20.3841-9.2793-8.7847,0-18.9544,2.9772-28.4691,8.9474-17.2487,10.8254-26.5664,27.8655-22.767,40.1298,8.2501-12.1086,22.1888-14.7765,35.7121-17.3615Z"/>
  <path class="cls-1" d="m88.0038,84.9483c-13.0434,2.5149-25.3974,4.9033-32.2407,16.2848,10.095,6.3828,27.5838,4.6848,43.2863-5.1685,11.3429-7.1181,19.2555-16.9254,22.267-26.295-8.1975,10.3277-20.9158,12.7891-33.3125,15.1786Z"/>
  <path class="cls-2" d="m124.5518,49.0045c-7.4395-11.8565-25.1192-14.8126-43.0457-8.5158-5.9382-7.4495-14.5864-13.7268-24.7162-17.8657-11.3414-4.6348-23.2437-6.0684-33.5053-4.0294-10.6705,2.1172-18.3564,7.7113-21.6431,15.7532-6.6146,16.1864,7.3605,37.2664,31.1547,46.9914,3.1095,1.2706,6.2605,2.2924,9.4085,3.076-.3022,5.1123.753,9.9642,3.3781,14.1469,1.2952,2.0642,2.9085,3.8508,4.7716,5.374.1421.14.2969.2603.4641.3646,5.1364,3.9878,12.1041,6.0116,19.8918,6.0116,9.8105,0,20.9068-3.1969,31.2149-9.6658,21.772-13.6625,31.9227-36.828,22.6267-51.641Zm-89.7103,27.326C14.6199,68.0664,2.1586,51.1886,6.1041,37.9664c4.9821,12.1622,16.3414,14.9454,26.466,17.4193,6.8846,1.6813,13.4829,3.3107,18.1573,7.5482-3.8342,5.2114-6.4723,10.7239-7.7351,16.1053-2.7226-.7043-5.4509-1.6055-8.1508-2.7087Zm1.3048-29.926c-11.2505-2.7302-20.9707-5.1035-24.324-16.9396,3.1763-2.6436,7.417-4.5544,12.5146-5.5656,2.7109-.5378,5.5561-.804,8.4867-.804,7.052,0,14.5932,1.5404,21.921,4.5355,8.7009,3.5559,16.1721,8.7894,21.4905,14.9728-2.7033,1.2274-5.3902,2.6626-8.0256,4.3165-4.0384,2.5344-7.6746,5.3969-10.8633,8.4711-5.7238-5.2093-13.5489-7.1298-21.1999-8.9867Zm12.172,45.2263c-3.7994-12.2643,5.5183-29.3044,22.767-40.1298,9.5147-5.9702,19.6844-8.9474,28.4691-8.9474,8.9598,0,16.4769,3.0997,20.3841,9.2793-5.7806,16.6651-20.4168,19.4746-35.9081,22.4364-13.5233,2.585-27.462,5.2528-35.7121,17.3615Zm50.7311,4.4338c-15.7025,9.8534-33.1913,11.5513-43.2863,5.1685,6.8434-11.3815,19.1974-13.77,32.2407-16.2848,12.3968-2.3896,25.115-4.8509,33.3125-15.1786-3.0115,9.3696-10.924,19.1768-22.267,26.295Z"/>
</svg>