<?xml version="1.0" encoding="UTF-8"?>
<svg id="Honey" xmlns="http://www.w3.org/2000/svg" viewBox="0 0 128 128">
  <defs>
    <style>
      .cls-1 {
        fill: #eabb39;
      }

      .cls-2 {
        fill: #333;
      }
    </style>
  </defs>
  <path class="cls-2" d="m126.4334,58.2061l-12.6765-21.6946c-2.0876-3.574-5.9797-5.7941-10.157-5.7941h-25.354c-1.4734,0-2.906.2896-4.2419.8041-.2168-1.4006-.6794-2.7715-1.4163-4.0325l-12.6777-21.6951c-2.0884-3.574-5.9797-5.7941-10.1558-5.7941h-25.3542c-4.1763,0-8.0684,2.22-10.157,5.7941L1.5664,27.4891c-2.0886,3.5736-2.0886,8.0142,0,11.5883l12.6765,21.6945c.7368,1.2612,1.707,2.3427,2.8264,3.2286-1.1191.8858-2.0896,1.9671-2.8264,3.228L1.5664,88.9236c-2.0876,3.5731-2.0886,8.0131,0,11.5883l12.6765,21.694c2.0876,3.5741,5.9797,5.7941,10.157,5.7941h25.3542c4.1772,0,8.0684-2.22,10.1558-5.7941l12.6777-21.694c.7366-1.2612,1.1992-2.6321,1.416-4.0327,1.3359.5147,2.7686.8043,4.2422.8043h25.354c4.1763,0,8.0684-2.22,10.157-5.7941l12.6765-21.6951c2.0889-3.574,2.0889-8.0141,0-11.5882ZM6.0642,36.5115c-1.1636-1.9915-1.1636-4.4656,0-6.4566l12.6765-21.6951c1.1633-1.9915,3.3323-3.2283,5.6592-3.2283h25.3542c2.3259,0,4.4946,1.2368,5.6582,3.2283l12.6775,21.6951c1.1636,1.991,1.1636,4.4651,0,6.4566l-12.6775,21.6946c-1.1636,1.9915-3.3313,3.2283-5.6582,3.2283h-25.3542c-2.3269,0-4.4958-1.2368-5.6592-3.2283l-12.6765-21.6946Zm62.0256,61.4344l-12.6775,21.6941c-1.1636,1.9915-3.3313,3.2283-5.6582,3.2283h-25.3542c-2.3279,0-4.4958-1.2368-5.6592-3.2283l-12.6765-21.6941c-1.1636-1.9915-1.1636-4.4661,0-6.4566l12.6765-21.6951c1.1633-1.9915,3.3323-3.2283,5.6592-3.2283h25.3542c2.3259,0,4.4946,1.2368,5.6582,3.2283l12.6775,21.6951c1.1636,1.9905,1.1636,4.4651,0,6.4566Zm53.8459-30.7175l-12.6768,21.6951c-1.1633,1.9915-3.332,3.2283-5.6592,3.2283h-25.354c-2.3262,0-4.4946-1.2368-5.6582-3.2283l-12.6777-21.6951c-1.1633-1.9915-1.1633-4.4651,0-6.4566l12.6777-21.6945c1.1636-1.9915,3.3311-3.2283,5.6582-3.2283h25.354c2.3271,0,4.4958,1.2368,5.6592,3.2283l12.6768,21.6945c1.1636,1.9915,1.1636,4.4651,0,6.4566Z"/>
  <path class="cls-1" d="m24.3999,61.4344h25.3542c2.3269,0,4.4946-1.2368,5.6582-3.2283l12.6775-21.6946c1.1636-1.9915,1.1636-4.4656,0-6.4566l-12.6775-21.6951c-1.1636-1.9915-3.3323-3.2283-5.6582-3.2283h-25.3542c-2.3269,0-4.4958,1.2368-5.6592,3.2283L6.0642,30.0549c-1.1636,1.991-1.1636,4.4651,0,6.4566l12.6765,21.6946c1.1633,1.9915,3.3323,3.2283,5.6592,3.2283Zm-7.7366-33.0753c-1.2417-.7086-1.6677-2.2776-.9507-3.5049l4.8396-8.2827c2.1423-3.6673,6.136-5.9454,10.4226-5.9454h9.6792c1.4343,0,2.5969,1.1486,2.5969,2.5658s-1.1626,2.5658-2.5969,2.5658h-9.6792c-2.4365,0-4.7065,1.2949-5.9248,3.3796l-4.8396,8.2827c-.4807.8229-1.3542,1.2834-2.2507,1.2834-.4414,0-.8877-.1108-1.2964-.3443Z"/>
  <path class="cls-1" d="m55.4124,69.7943c-1.1636-1.9915-3.3323-3.2283-5.6582-3.2283h-25.3542c-2.3269,0-4.4958,1.2368-5.6592,3.2283l-12.6765,21.6951c-1.1636,1.9905-1.1636,4.4651,0,6.4566l12.6765,21.6941c1.1633,1.9915,3.3313,3.2283,5.6592,3.2283h25.3542c2.3269,0,4.4946-1.2368,5.6582-3.2283l12.6775-21.6941c1.1636-1.9915,1.1636-4.4661,0-6.4566l-12.6775-21.6951Zm-14.7583,6.6561h-9.6792c-2.4365,0-4.7065,1.2949-5.9248,3.3796l-4.8396,8.2828c-.4807.8228-1.3542,1.2829-2.2507,1.2829-.4414,0-.8877-.1103-1.2964-.3438-1.2417-.7086-1.6677-2.2781-.9507-3.5049l4.8396-8.2828c2.1423-3.6673,6.136-5.9454,10.4226-5.9454h9.6792c1.4343,0,2.5969,1.1486,2.5969,2.5658s-1.1626,2.5658-2.5969,2.5658Z"/>
  <path class="cls-1" d="m109.2591,39.0774c-1.1633-1.9915-3.332-3.2283-5.6592-3.2283h-25.354c-2.3271,0-4.4946,1.2368-5.6582,3.2283l-12.6777,21.6945c-1.1633,1.9915-1.1633,4.4651,0,6.4566l12.6777,21.6951c1.1636,1.9915,3.332,3.2283,5.6582,3.2283h25.354c2.3271,0,4.4958-1.2368,5.6592-3.2283l12.6768-21.6951c1.1636-1.9915,1.1636-4.4651,0-6.4566l-12.6768-21.6945Zm-14.9722,7.0264h-9.679c-2.4365,0-4.7068,1.2949-5.925,3.3801l-4.8396,8.2822c-.4807.8234-1.3542,1.2834-2.2507,1.2834-.4414,0-.8877-.1108-1.2964-.3443-1.2417-.7086-1.6677-2.2776-.9504-3.5049l4.8396-8.2822c2.1421-3.6678,6.1367-5.9459,10.4226-5.9459h9.679c1.4346,0,2.5969,1.1486,2.5969,2.5658s-1.1624,2.5658-2.5969,2.5658Z"/>
  <path class="cls-2" d="m20.2105,27.42l4.8396-8.2827c1.2183-2.0847,3.4883-3.3796,5.9248-3.3796h9.6792c1.4343,0,2.5969-1.1486,2.5969-2.5658s-1.1626-2.5658-2.5969-2.5658h-9.6792c-4.2866,0-8.2803,2.2781-10.4226,5.9454l-4.8396,8.2827c-.717,1.2273-.291,2.7963.9507,3.5049.4087.2335.855.3443,1.2964.3443.8965,0,1.77-.4606,2.2507-1.2834Z"/>
  <path class="cls-2" d="m40.6541,71.3188h-9.6792c-4.2866,0-8.2803,2.2781-10.4226,5.9454l-4.8396,8.2828c-.717,1.2267-.291,2.7963.9507,3.5049.4087.2335.855.3438,1.2964.3438.8965,0,1.77-.4601,2.2507-1.2829l4.8396-8.2828c1.2183-2.0847,3.4883-3.3796,5.9248-3.3796h9.6792c1.4343,0,2.5969-1.1486,2.5969-2.5658s-1.1626-2.5658-2.5969-2.5658Z"/>
  <path class="cls-2" d="m94.2869,40.9722h-9.679c-4.2859,0-8.2805,2.2781-10.4226,5.9459l-4.8396,8.2822c-.7173,1.2273-.2913,2.7963.9504,3.5049.4087.2335.855.3443,1.2964.3443.8965,0,1.77-.4601,2.2507-1.2834l4.8396-8.2822c1.2183-2.0852,3.4885-3.3801,5.925-3.3801h9.679c1.4346,0,2.5969-1.1486,2.5969-2.5658s-1.1624-2.5658-2.5969-2.5658Z"/>
</svg>