<?xml version="1.0" encoding="UTF-8"?>
<svg xmlns="http://www.w3.org/2000/svg" viewBox="0 0 128 128">
  <defs>
    <style>
      .cls-1 {
        fill: #333;
      }
    </style>
  </defs>
  <g id="Kosher_old">
    <g>
      <path class="cls-1" d="m13.6748,104.7119l-2.7295,3.2998v5.8203h-4.5605v-20.9404h4.5605v9.96h.1797l2.9697-4.0498,4.7109-5.9102h5.1592l-7.0498,8.6104,7.6797,12.3301h-5.3691l-5.5508-9.1201Z"/>
      <path class="cls-1" d="m34.4658,114.1924c-1.3799,0-2.6396-.2305-3.7803-.6904-1.1396-.46-2.1104-1.1445-2.9102-2.0547s-1.4199-2.04-1.8594-3.3906c-.4404-1.3496-.6602-2.9141-.6602-4.6943s.2197-3.3457.6602-4.6953c.4395-1.3496,1.0596-2.4795,1.8594-3.3896.7998-.9102,1.7705-1.5947,2.9102-2.0557,1.1406-.46,2.4004-.6895,3.7803-.6895s2.6396.2295,3.7803.6895c1.1396.4609,2.1094,1.1455,2.9102,2.0557.7988.9102,1.4199,2.04,1.8594,3.3896s.6602,2.915.6602,4.6953-.2207,3.3447-.6602,4.6943c-.4395,1.3506-1.0605,2.4805-1.8594,3.3906-.8008.9102-1.7705,1.5947-2.9102,2.0547-1.1406.46-2.4004.6904-3.7803.6904Zm0-4.0508c1.3799,0,2.4551-.4492,3.2246-1.3496.7705-.9004,1.1553-2.1904,1.1553-3.8701v-3.1201c0-1.6797-.3848-2.9697-1.1553-3.8701-.7695-.8994-1.8447-1.3496-3.2246-1.3496s-2.4551.4502-3.2246,1.3496c-.7705.9004-1.1553,2.1904-1.1553,3.8701v3.1201c0,1.6797.3848,2.9697,1.1553,3.8701.7695.9004,1.8447,1.3496,3.2246,1.3496Z"/>
      <path class="cls-1" d="m54.1445,114.1924c-1.8398,0-3.4004-.3154-4.6797-.9463-1.2803-.6309-2.3701-1.4473-3.2705-2.4492l3-3.0332c1.4199,1.5859,3.1699,2.3779,5.25,2.3779,1.1201,0,1.9502-.2275,2.4902-.6826.54-.4561.8105-1.0605.8105-1.8145,0-.5742-.1611-1.0547-.4805-1.4414-.3203-.3867-.9707-.6494-1.9502-.7881l-2.0693-.2676c-2.2207-.2803-3.8457-.9512-4.875-2.0127-1.0303-1.0605-1.5459-2.4727-1.5459-4.2344,0-.9414.1807-1.8027.54-2.584.3604-.7803.875-1.4512,1.5459-2.0117.6689-.5605,1.4893-.9971,2.46-1.3076.9697-.3096,2.0742-.4648,3.3145-.4648,1.5801,0,2.9697.251,4.1699.751,1.2002.501,2.2305,1.2324,3.0898,2.1934l-3.0293,3.0654c-.501-.5742-1.1055-1.0439-1.8154-1.4102s-1.6045-.5498-2.6846-.5498c-1.0205,0-1.7803.1777-2.2803.5342s-.75.8516-.75,1.4844c0,.7129.1953,1.2275.585,1.5449.3896.3164,1.0244.5439,1.9053.6826l2.0693.3301c2.1602.3408,3.7598,1.0068,4.8008,1.998,1.0391.9902,1.5596,2.3975,1.5596,4.2188,0,1.001-.1797,1.9219-.54,2.7627s-.8848,1.5615-1.5752,2.1621c-.6895.6016-1.5449,1.0664-2.5645,1.3965-1.0205.3301-2.1807.4961-3.4805.4961Z"/>
      <path class="cls-1" d="m78.625,105.252h-7.9795v8.5801h-4.5605v-20.9404h4.5605v8.3105h7.9795v-8.3105h4.5605v20.9404h-4.5605v-8.5801Z"/>
      <path class="cls-1" d="m87.8047,113.832v-20.9404h14.25v4.0508h-9.6895v4.2598h8.3096v4.0498h-8.3096v4.5303h9.6895v4.0498h-14.25Z"/>
      <path class="cls-1" d="m110.5752,113.832h-4.5605v-20.9404h9.9307c.96,0,1.8301.1611,2.6094.4805.7803.3203,1.4453.7754,1.9951,1.3652s.9756,1.2949,1.2754,2.1143c.2998.8203.4502,1.7305.4502,2.7305,0,1.4199-.3154,2.6602-.9453,3.7197-.6299,1.0605-1.585,1.8301-2.8652,2.3105l4.1104,8.2197h-5.0703l-3.6602-7.6797h-3.2695v7.6797Zm4.7998-11.5195c.6797,0,1.2148-.1758,1.6055-.5254.3896-.3496.585-.8652.585-1.5449v-1.3203c0-.6797-.1953-1.1943-.585-1.5449-.3906-.3496-.9258-.5254-1.6055-.5254h-4.7998v5.4609h4.7998Z"/>
    </g>
  </g>
  <g id="Kosher">
    <g>
      <path class="cls-1" d="m95.3134,78.5505h21.4411c1.2696,0,2.4575-.6096,3.2262-1.6199,13.5203-17.7709,8.2145-38.4066-3.1441-40.479-2.4602-.4489-8.0222-.5649-10.0912-.6467-.9572-.0378-1.7786-.2569-1.8115-1.7957l.0046-1.9251c-.0293-.5553-.6835-.8346-1.1081-.4754-4.8891,4.1352-8.0035,12.6448-8.8728,15.321-.14.4309.1797.87.6328.8719l14.6708.0626c1.1907.0051,2.39.1946,3.4689.6984,8.0172,3.7438,4.1056,17.8443-.3708,17.7894l-13.3722.0388c-.5226.0015-.9995.2978-1.2324.7657l-4.6776,9.3976c-.457.9182.2108,1.9965,1.2364,1.9965Z"/>
      <path class="cls-1" d="m83.7473,32.9798l-6.2559,8.7088c-.3369.469-.4304,1.0758-.2529,1.6254,3.3088,10.2469,6.0527,17.627-7.4294,23.4625-11.0073,4.7644-12.7691-3.8245-11.3053-5.1633,4.638-4.2422,14.1242-11.0979,9.0545-28.632-.2121-.7336-1.1699-.9223-1.633-.3151l-6.5559,8.5964c-.3766.4938-.479,1.1433-.2627,1.7255.5249,1.4131,1.4346,4.2256,1.3928,6.6478-.0548,3.1762-4.162,9.1454-5.3668,2.4096-1.0839-6.0599-4.9689-15.775-6.4682-19.3924-.2682-.647-1.127-.7677-1.57-.2253l-7.1507,8.7542c-.5218.6388-.5317,1.5365-.0654,2.2168,4.9074,7.1586,11.3571,28.9972,13.7757,33.6733,2.4643,4.7644,21.6675-.7017,27.71-9.2549,7.4544-10.5516,8.3208-21.7071,4.0094-34.6024-.2376-.7108-1.1889-.8435-1.6261-.2348Z"/>
      <path class="cls-1" d="m8.6389,32.0168c-2.0304,1.7129-6.8016,6.7052-8.6164,15.1427-.1372.638.3716,1.2364,1.0242,1.2283l16.3317-.2034c3.1597-.0168,5.7394,2.5222,5.7726,5.6818l.0731,22.8023c.0031.9599,1.2035,1.3921,1.8177.6544l5.3989-6.4846c.2261-.2716.3513-.6131.3543-.9665l.1866-22.0732c.0529-6.2557-5.036-11.3381-11.2917-11.2773l-8.8741.0863c-.4388.0005-.8949-.4556-.9208-.8541l-.1607-3.2911c-.0524-.5374-.6829-.7938-1.0956-.4456Z"/>
    </g>
  </g>
</svg>