<?xml version="1.0" encoding="UTF-8"?>
<svg id="Lamb" xmlns="http://www.w3.org/2000/svg" viewBox="0 0 128 128">
  <defs>
    <style>
      .cls-1 {
        fill: #f9f9f9;
      }

      .cls-2 {
        fill: #ffd3b6;
      }

      .cls-3 {
        fill: #333;
      }
    </style>
  </defs>
  <path class="cls-3" d="m127.5875,49.4124c-1.0785-4.5178-4.2783-8.4381-9.2935-11.4149.9829-11.7721-4.4735-18.572-16.6321-20.7242-1.9449-5.8424-5.549-10.1289-10.2695-12.1641-4.3878-1.8922-9.3771-1.7563-14.2191.3533C73.0495,1.8397,68.4406-.0873,63.8098.003c-4.579.0427-9.0893,1.9438-13.1326,5.517-5.2891-2.0471-10.5911-1.9964-15.0925.1727-4.3021,2.0728-7.5228,5.9704-9.2247,11.1003-5.4285-.2242-10.4517,1.8982-13.8138,5.9039-3.4875,4.1555-4.6378,9.6308-3.2824,15.2966-4.324,2.2396-7.3445,5.771-8.6103,10.129-1.5008,5.1686-.3884,11.016,3.0464,16.2531C.6794,70.6427-.0217,76.5128,1.6772,81.4285c1.3026,3.7676,4.0263,6.8475,7.9282,8.9918-.5348,6.2473.7579,11.2522,3.854,14.8958,2.905,3.4193,7.2032,5.4028,12.793,5.9108,1.5764,5.0179,4.5979,8.7706,8.8164,10.9178,4.5093,2.2951,10.1022,2.5015,15.5645.6192,3.8571,3.3469,8.4809,5.1934,13.1824,5.2351.0568,0,.1125.001.1693.001,4.8469-.001,9.4468-1.8327,13.3975-5.3205,5.7322,1.5698,11.0134,1.2195,15.3464-1.029,3.9894-2.0688,7.0189-5.6688,8.8334-10.4683,5.6924-.6658,10.0275-2.7476,12.9025-6.2016,3.0215-3.6297,4.2972-8.6098,3.8013-14.8203,9.4877-6.9786,11.6497-16.2949,6.028-25.9296,3.2645-5.0774,4.4028-10.1716,3.2933-14.8184Zm-8.4599,16.1569c5.4663,8.2397,3.7943,15.3928-4.9694,21.2601-.7957.5328-1.2249,1.4666-1.1084,2.4151.6692,5.4852-.1753,9.6884-2.5096,12.4935-2.2267,2.6751-5.9364,4.1992-11.0243,4.5286-1.0596.0695-1.9659.7849-2.2746,1.798-1.3046,4.2866-3.6797,7.427-6.8665,9.0801-3.4577,1.793-7.9092,1.8843-12.8746.2659-.9103-.2947-1.9151-.0596-2.5953.6182-3.2137,3.201-6.9871,4.8908-10.9227,4.8908-.0408,0-.0807-.001-.1215-.001-3.9227-.0347-7.6742-1.7255-10.85-4.8898-.488-.4862-1.1392-.7442-1.8035-.7442-.3336,0-.6712.0655-.9908.2004-4.5562,1.916-9.2318,1.9677-12.8268.1359-3.3392-1.6997-5.6456-4.9464-6.6714-9.3887-.2599-1.1252-1.2478-1.9339-2.406-1.9696-5.0202-.1538-8.7079-1.5767-10.9606-4.229-2.419-2.8467-3.2565-7.1373-2.4897-12.7534.1523-1.1173-.4531-2.2018-1.4869-2.6613-3.5373-1.5747-5.8507-3.8777-6.8765-6.8446-1.3345-3.8599-.4771-8.9799,2.415-14.4174.4601-.8663.3804-1.918-.2062-2.7049-3.1858-4.2717-4.336-9.0524-3.1549-13.1176,1.0267-3.5384,3.6907-6.2244,7.7011-7.7674,1.2867-.4951,1.9449-1.92,1.4858-3.2149-1.6711-4.7132-1.0437-9.3044,1.7189-12.5957,2.665-3.1752,6.9144-4.6407,11.3649-3.9154,1.3245.2064,2.5873-.6301,2.8931-1.929,1.1124-4.743,3.5642-8.1474,7.0896-9.8461,3.5483-1.7117,7.9241-1.5192,12.316.5427.973.4554,2.1282.255,2.889-.5021,3.395-3.3826,7.1454-5.1885,10.8471-5.2232.0388-.001.0767-.001.1145-.001,3.7753,0,7.4531,1.7573,10.9327,5.2242.7947.7928,2.0157.9744,3.0076.4426,3.9526-2.1105,8.0217-2.4568,11.4545-.9784,3.7375,1.6124,6.4523,5.2153,7.8514,10.4197.2659.9873,1.0994,1.7206,2.1152,1.8595,11.2703,1.5449,15.1163,6.3167,13.7181,17.0201-.1374,1.0568.4014,2.0877,1.3504,2.5799,4.6139,2.3953,7.3804,5.4018,8.2249,8.9373.8594,3.6038-.3306,7.7872-3.4417,12.0975-.6185.8563-.6414,2.0044-.0577,2.8845Z"/>
  <path class="cls-1" d="m122.627,50.5872c-.8445-3.5355-3.611-6.542-8.2249-8.9373-.949-.4922-1.4878-1.5231-1.3504-2.5799,1.3982-10.7034-2.4478-15.4752-13.7181-17.0201-1.0158-.1389-1.8493-.8722-2.1152-1.8595-1.3992-5.2043-4.114-8.8073-7.8514-10.4197-3.4328-1.4785-7.502-1.1321-11.4545.9784-.9919.5319-2.2128.3503-3.0076-.4426-3.4796-3.4669-7.1573-5.2242-10.9327-5.2242-.0378,0-.0757,0-.1145.001-3.7017.0347-7.4521,1.8406-10.8471,5.2232-.7608.7571-1.916.9575-2.889.5021-4.3918-2.0619-8.7677-2.2544-12.316-.5427-3.5254,1.6987-5.9772,5.1031-7.0896,9.8461-.3058,1.2988-1.5685,2.1353-2.8931,1.929-4.4505-.7253-8.6999.7402-11.3649,3.9154-2.7626,3.2913-3.39,7.8825-1.7189,12.5957.4591,1.2949-.1992,2.7198-1.4858,3.2149-4.0104,1.543-6.6744,4.229-7.7011,7.7674-1.1811,4.0652-.0309,8.8459,3.1549,13.1176.5866.7869.6663,1.8386.2062,2.7049-2.892,5.4376-3.7495,10.5576-2.415,14.4174,1.0258,2.9669,3.3392,5.2699,6.8765,6.8446,1.0338.4594,1.6392,1.5439,1.4869,2.6613-.7668,5.6161.0707,9.9067,2.4897,12.7534,2.2526,2.6523,5.9404,4.0752,10.9606,4.229,1.1582.0357,2.1461.8444,2.406,1.9696,1.0258,4.4423,3.3322,7.689,6.6714,9.3887,3.5951,1.8317,8.2707,1.7801,12.8268-.1359.3196-.1349.6572-.2004.9908-.2004.6643,0,1.3156.258,1.8035.7442,3.1758,3.1643,6.9273,4.8551,10.85,4.8898.0408,0,.0807.001.1215.001,3.9357,0,7.709-1.6898,10.9227-4.8908.6802-.6777,1.685-.9129,2.5953-.6182,4.9654,1.6183,9.4169,1.527,12.8746-.2659,3.1868-1.6531,5.562-4.7936,6.8665-9.0801.3087-1.0131,1.215-1.7285,2.2746-1.798,5.0879-.3294,8.7975-1.8535,11.0243-4.5286,2.3344-2.8051,3.1788-7.0083,2.5096-12.4935-.1165-.9485.3127-1.8823,1.1084-2.4151,8.7637-5.8672,10.4357-13.0204,4.9694-21.2601-.5836-.8801-.5607-2.0282.0577-2.8845,3.1111-4.3104,4.3011-8.4937,3.4417-12.0975Zm-9.8014,22.6353c-1.8284,2.6196-4.6925,4.0901-7.7767,4.0901-.6663,0-1.3425-.0685-2.0216-.2094-2.5793-.5345-4.8737-1.9696-6.7575-4.1165-2.5475,18.7135-16.0449,33.0388-32.2698,33.0388s-29.7214-14.3664-32.2724-33.1345c-1.899,2.1998-4.2225,3.6699-6.8395,4.2122-.6792.1409-1.3554.2094-2.0226.2094-3.0833,0-5.9474-1.4705-7.7758-4.0891-1.8025-2.5809-5.0839-10.0287,3.3422-23.4212,6.7924-10.7946,17.1744-14.6022,23.3159-15.9414-.8996-1.1157-1.7854-2.4328-2.523-3.9692-.6075-1.2661-.0707-2.7823,1.199-3.3876,1.2727-.6093,2.7934-.0704,3.3999,1.1947,1.9877,4.1396,5.4743,6.2928,5.5092,6.3137.006.0037.0105.0087.0165.0125.603.328,1.2601.5005,1.9324.5005,1.2588,0,2.428-.5805,3.2933-1.6353.5079-.6191,1.2837-.9466,2.0804-.9307.8017.0338,1.5406.4415,1.9948,1.1004,1.2936,1.8763,3.2426,2.952,5.3499,2.952,2.0405,0,3.9496-1.0161,5.2393-2.7863.4542-.6241,1.1682-1.0092,1.941-1.0458.7678-.0367,1.5197.2769,2.0326.8553,1.5187,1.7107,4.0183,1.9557,5.7731.5418.1215-.0983.2504-.1825.3839-.2552,1.1212-.8458,3.3707-2.8057,4.8226-5.8323.6075-1.2651,2.1301-1.801,3.3999-1.1967,1.2708.6053,1.8075,2.1224,1.201,3.3876-.7814,1.6281-1.729,3.0118-2.6833,4.1677,6.1343,1.3283,16.5604,5.127,23.3726,15.9543,8.4271,13.3925,5.1457,20.8403,3.3431,23.4202Z"/>
  <path class="cls-3" d="m86.1099,33.848c.9543-1.1559,1.902-2.5396,2.6833-4.1677.6065-1.2651.0698-2.7823-1.201-3.3876-1.2698-.6042-2.7924-.0684-3.3999,1.1967-1.4519,3.0266-3.7014,4.9865-4.8226,5.8323-.1335.0727-.2623.1569-.3839.2552-1.7548,1.4139-4.2544,1.1689-5.7731-.5418-.5129-.5784-1.2648-.892-2.0326-.8553-.7728.0367-1.4868.4217-1.941,1.0458-1.2896,1.7702-3.1987,2.7863-5.2393,2.7863-2.1073,0-4.0562-1.0756-5.3499-2.952-.4541-.6589-1.1931-1.0667-1.9948-1.1004-.7967-.0159-1.5724.3116-2.0804.9307-.8654,1.0547-2.0345,1.6353-3.2933,1.6353-.6724,0-1.3295-.1725-1.9324-.5005-.006-.0037-.0104-.0088-.0165-.0125-.0349-.0209-3.5214-2.1741-5.5092-6.3137-.6065-1.2651-2.1272-1.804-3.3999-1.1947-1.2698.6053-1.8065,2.1215-1.199,3.3876.7376,1.5364,1.6234,2.8535,2.523,3.9692-6.1414,1.3392-16.5235,5.1468-23.3159,15.9414-8.4261,13.3925-5.1447,20.8403-3.3422,23.4212,1.8284,2.6186,4.6926,4.0891,7.7758,4.0891.6672,0,1.3434-.0685,2.0226-.2094,2.6171-.5424,4.9406-2.0125,6.8395-4.2122,2.551,18.7681,16.0482,33.1345,32.2724,33.1345s29.7223-14.3253,32.2698-33.0388c1.8839,2.1469,4.1782,3.5819,6.7575,4.1165.6791.1409,1.3553.2094,2.0216.2094,3.0842,0,5.9484-1.4705,7.7767-4.0901,1.8026-2.5799,5.084-10.0278-3.3431-23.4202-6.8123-10.8273-17.2383-14.626-23.3726-15.9543Zm-54.7725,27.9268c-1.3624,6.7722-4.7613,9.7896-7.488,10.3542-1.8404.384-3.5065-.2788-4.575-1.8079-1.9669-2.816-2.0864-8.9769,3.4775-17.8199,5.1597-8.2,12.9464-11.7076,18.2902-13.199-.4677.7047-.9606,1.4778-1.4651,2.3014-2.991,4.5688-6.3923,10.8481-7.7053,17.8414-.1931.7681-.3759,1.5425-.5344,2.3298Zm32.6627,39.1703c-15.2259,0-27.6136-15.4742-27.6136-34.4948,0-1.6878.0667-3.0303.2111-4.226.0707-.5876.1641-1.171.2711-1.751,1.6901-6.5784,4.7206-12.4156,7.3092-16.5858,1.282-1.925,2.4714-3.5191,3.3226-4.6558.0876-.1161.1713-.2292.252-.3364,2.7585,1.158,6.0559.8414,8.5754-.8116,2.1232,1.917,4.845,3.0085,7.6722,3.0085,2.8033,0,5.4464-1.026,7.5457-2.8785,2.5624,1.5837,5.8488,1.8119,8.5546.6003,2.7576,3.7715,10.2505,14.2518,11.4406,26.0219.0608.5993.0687,1.1897.0687,1.7394,0,18.9511-12.3857,34.3698-27.6096,34.3698Zm44.64-30.624c-1.0686,1.53-2.7337,2.1929-4.5751,1.8079-2.7257-.5646-6.1246-3.5811-7.488-10.3542-1.8882-9.3857-6.3925-17.4835-9.7048-22.4726,5.3439,1.4914,13.1316,4.999,18.2902,13.199,5.5639,8.843,5.4454,15.0039,3.4776,17.8199Z"/>
  <path class="cls-2" d="m41.0421,39.3023c-5.3439,1.4914-13.1306,4.999-18.2902,13.199-5.5639,8.843-5.4444,15.0039-3.4775,17.8199,1.0685,1.5291,2.7346,2.1919,4.575,1.8079,2.7267-.5646,6.1256-3.582,7.488-10.3542.1584-.7873.3413-1.5617.5344-2.3298,1.313-6.9932,4.7143-13.2725,7.7053-17.8414.5046-.8236.9974-1.5967,1.4651-2.3014Z"/>
  <path class="cls-2" d="m80.1003,38.8141c-2.7058,1.2115-5.9922.9833-8.5546-.6003-2.0993,1.8525-4.7424,2.8785-7.5457,2.8785-2.8273,0-5.549-1.0915-7.6722-3.0085-2.5195,1.6531-5.8169,1.9696-8.5754.8116-.0807.1072-.1643.2203-.252.3364-.8512,1.1367-2.0405,2.7307-3.3226,4.6558-2.5886,4.1701-5.6191,10.0073-7.3092,16.5858-.1069.5801-.2004,1.1635-.2711,1.751-.1444,1.1957-.2111,2.5382-.2111,4.226,0,19.0206,12.3877,34.4948,27.6136,34.4948s27.6096-15.4186,27.6096-34.3698c0-.5497-.0079-1.1401-.0687-1.7394-1.1901-11.7701-8.683-22.2504-11.4406-26.0219Z"/>
  <path class="cls-2" d="m86.8722,39.3023c3.3123,4.9891,7.8166,13.0869,9.7048,22.4726,1.3633,6.7731,4.7623,9.7896,7.488,10.3542,1.8414.385,3.5065-.2778,4.5751-1.8079,1.9678-2.816,2.0863-8.9769-3.4776-17.8199-5.1586-8.2-12.9464-11.7076-18.2902-13.199Z"/>
  <ellipse class="cls-3" cx="76.2112" cy="59.272" rx="4.8325" ry="4.7288"/>
  <ellipse class="cls-3" cx="51.7038" cy="59.272" rx="4.8325" ry="4.7288"/>
  <path class="cls-3" d="m70.1395,82.5498c-.4551-.7859-1.2966-1.2701-2.2078-1.2701h-7.9391c-.9113,0-1.7527.4843-2.2079,1.2701-.4551.7858-.4551,1.7543,0,2.5402l3.9695,6.8505c.4551.7859,1.2966,1.2701,2.2079,1.2701s1.7527-.4842,2.2078-1.2701l3.9695-6.8505c.4551-.7859.4551-1.7543,0-2.5402Z"/>
</svg>