<?xml version="1.0" encoding="UTF-8"?>
<svg id="LocallyGrown" xmlns="http://www.w3.org/2000/svg" viewBox="0 0 128 128">
  <defs>
    <style>
      .cls-1 {
        fill: #f33;
      }

      .cls-2 {
        fill: #ff7f00;
      }

      .cls-3 {
        fill: #333;
      }

      .cls-4 {
        fill: #9b6743;
      }

      .cls-5 {
        fill: #39ff47;
      }
    </style>
  </defs>
  <path class="cls-4" d="m121.3507,79.9955H6.6493c-.8893,0-1.6124.7226-1.6124,1.6113v14.3722c0,.8887.7231,1.6113,1.6124,1.6113h114.7014c.8893,0,1.6124-.7226,1.6124-1.6113v-14.3722c0-.8887-.7231-1.6113-1.6124-1.6113Zm-108.5898,12.2713c-1.9549,0-3.5396-1.5553-3.5396-3.474s1.5847-3.474,3.5396-3.474,3.5397,1.5554,3.5397,3.474-1.5847,3.474-3.5397,3.474Zm102.4781,0c-1.955,0-3.5397-1.5553-3.5397-3.474s1.5847-3.474,3.5397-3.474,3.5396,1.5554,3.5396,3.474-1.5847,3.474-3.5396,3.474Z"/>
  <path class="cls-3" d="m12.7609,85.3187c-1.9549,0-3.5396,1.5554-3.5396,3.474s1.5847,3.474,3.5396,3.474,3.5397-1.5553,3.5397-3.474-1.5847-3.474-3.5397-3.474Z"/>
  <path class="cls-3" d="m115.2391,85.3187c-1.955,0-3.5397,1.5554-3.5397,3.474s1.5847,3.474,3.5397,3.474,3.5396-1.5553,3.5396-3.474-1.5847-3.474-3.5396-3.474Z"/>
  <path class="cls-4" d="m121.3507,105.3716H6.6493c-.8893,0-1.6124.7226-1.6124,1.6113v14.3722c0,.8887.7231,1.6113,1.6124,1.6113h114.7014c.8893,0,1.6124-.7226,1.6124-1.6113v-14.3722c0-.8887-.7231-1.6113-1.6124-1.6113Zm-108.5898,12.2714c-1.9549,0-3.5396-1.5553-3.5396-3.474s1.5847-3.474,3.5396-3.474,3.5397,1.5553,3.5397,3.474-1.5847,3.474-3.5397,3.474Zm102.4781,0c-1.955,0-3.5397-1.5553-3.5397-3.474s1.5847-3.474,3.5397-3.474,3.5396,1.5553,3.5396,3.474-1.5847,3.474-3.5396,3.474Z"/>
  <path class="cls-3" d="m12.7609,110.695c-1.9549,0-3.5396,1.5553-3.5396,3.474s1.5847,3.474,3.5396,3.474,3.5397-1.5553,3.5397-3.474-1.5847-3.474-3.5397-3.474Z"/>
  <path class="cls-3" d="m115.2391,110.695c-1.955,0-3.5397,1.5553-3.5397,3.474s1.5847,3.474,3.5397,3.474,3.5396-1.5553,3.5396-3.474-1.5847-3.474-3.5396-3.474Z"/>
  <path class="cls-1" d="m10.1926,74.9619c.8682-8.6773,4.5866-15.8981,9.9658-18.9702,2.0423-1.166,4.3237-1.747,6.7988-1.747,3.7383,0,7.9203,1.3252,12.3866,3.9551l1.4117.8317,1.332-.9526c6.4171-4.5852,12.5175-5.6165,17.639-2.9838,5.9309,3.0473,10.2969,10.9077,11.3023,19.8668H10.1926Z"/>
  <path class="cls-5" d="m45.0241,40.0485c1.7787-2.1314,7.0802-4.6049,10.6768-5.9537-.6719,3.786-2.1377,9.3887-3.9488,11.5605-1.2592,1.5081-2.6473,2.4194-4.0148,2.6338-1.1215.174-2.2046-.1376-3.1294-.9084-.9238-.7698-1.4265-1.7775-1.455-2.913-.0344-1.3832.6129-2.911,1.8711-4.4191Z"/>
  <path class="cls-3" d="m128,95.979v-14.3722c0-3.6641-2.9828-6.6448-6.6493-6.6448h-14.8287c3.9353-7.0571,7.6565-13.8328,10.7009-19.4166,2.0708-3.7977,2.3403-8.1805.7614-12.342-1.2345-3.2503-3.4972-6.0178-6.423-8.0212,1.9374-2.6526,6.2081-7.2883,13.4894-9.325,1.339-.3746,2.121-1.7627,1.7462-3.1017-.3748-1.3381-1.762-2.1226-3.1038-1.7451-3.8446,1.0752-6.9746,2.7398-9.49,4.5457,2.7402-6.9454,6.9746-15.6158,12.6389-21.2567.9849-.9811.9878-2.5738.006-3.5589-.9818-.985-2.5756-.988-3.5613-.0059-6.6335,6.6052-11.3583,16.5936-14.2472,24.1603.4839-5.7751-.1707-13.2841-4.4424-20.9367-.6788-1.2132-2.2106-1.6497-3.4265-.9723-1.2148.6774-1.6497,2.21-.9729,3.4242,5.9983,10.7448,3.6198,21.4376,2.3698,25.4232-3.5773-.408-7.1669.2162-10.2762,1.8839-3.8672,2.0743-6.5471,5.4779-7.5476,9.5834-2.1367,8.7703-4.843,20.2498-7.2703,31.6613h-1.3898c-1.0551-10.9227-6.4293-20.425-14.0531-24.343-1.719-.8839-3.8276-1.6324-6.2896-1.9018,3.3521-4.2016,5.1187-13.9574,5.3521-16.8953.0835-1.0638-.3542-2.1058-1.1727-2.7881-.8175-.6832-1.9232-.9271-2.9581-.6528-2.8855.7668-12.3768,4.3336-15.8062,8.443-.0914.1095-.17.2217-.2573.332-1.1447-3.4019-2.8635-7.0071-5.4417-10.3303-.8501-1.0962-2.4329-1.2977-3.5337-.4464-1.0989.8514-1.2986,2.4323-.4468,3.5314,7.0518,9.0879,6.6366,21.1674,6.6306,21.3356-.0103.232.0215.4542.0708.6702-9.4941-4.3716-16.3154-2.6946-20.5183-.2946-7.0269,4.0124-11.6538,12.8386-12.5352,23.5234.0001,0,.0002,0,.0002,0-2.9329.6914-5.1248,3.3226-5.1248,6.4617v14.3722c0,2.2861,1.1614,4.3059,2.9255,5.502-1.7642,1.196-2.9255,3.2158-2.9255,5.502v14.3722c0,3.6641,2.9828,6.6449,6.6493,6.6449h114.7014c3.6665,0,6.6493-2.9808,6.6493-6.6449v-14.3722c0-2.2861-1.1614-4.3059-2.9255-5.502,1.7642-1.1961,2.9255-3.2159,2.9255-5.502Zm-40.2932-43.463l8.3828,2.7532c.2606.0855.5253.1268.7859.1268,1.0586,0,2.0443-.6724,2.3926-1.7322.4338-1.3203-.2853-2.7429-1.6064-3.1765l-8.7783-2.8831c.248-1.0279.4969-2.0585.7537-3.1119.6582-2.6986,2.4467-4.95,5.0369-6.3401,1.7649-.9467,3.762-1.4255,5.8092-1.4255,1.5455,0,3.1205.2733,4.6454.8239l.4889.177.002.001c3.6075,1.3016,6.3975,3.9482,7.6547,7.2603,1.0508,2.7675.8826,5.6608-.4741,8.1481-3.2504,5.9619-6.2688,11.4482-9.0669,16.4868l-9.6423-2.5885c-1.338-.3598-2.7241.4355-3.0852,1.7775-.3611,1.342.4348,2.7233,1.7787,3.0831l8.4227,2.2611c-.1521.2723-.3.5357-.4507.8052h-18.134c1.4155-6.6206,3.0979-14.0774,5.0847-22.446Zm-42.6826-12.4674c1.7786-2.1314,7.0801-4.6049,10.6768-5.9537-.6719,3.7859-2.1377,9.3887-3.9489,11.5604-1.2592,1.5081-2.6473,2.4194-4.0148,2.6338-1.1215.174-2.2046-.1376-3.1294-.9084-.9237-.7698-1.4264-1.7775-1.455-2.913-.0344-1.3832.6129-2.911,1.8712-4.4191Zm-24.8657,15.9432c2.0422-1.166,4.3236-1.747,6.7988-1.747,3.7383,0,7.9202,1.3253,12.3865,3.9551l1.4119.8317,1.332-.9526c6.417-4.5853,12.5173-5.6165,17.6389-2.9838,5.9309,3.0473,10.2969,10.9077,11.3022,19.8668H10.1926c.8682-8.6773,4.5864-15.8981,9.9658-18.9702Zm-14.2745,19.0178c-.0145.0017-.0288.0049-.0433.0067.0145-.0018.0287-.0049.0433-.0067Zm117.0792,46.3456c0,.8887-.7231,1.6113-1.6124,1.6113H6.6493c-.8893,0-1.6124-.7226-1.6124-1.6113v-14.3722c0-.8887.7231-1.6113,1.6124-1.6113h114.7014c.8893,0,1.6124.7226,1.6124,1.6113v14.3722Zm0-25.3762c0,.8887-.7231,1.6113-1.6124,1.6113H6.6493c-.8893,0-1.6124-.7226-1.6124-1.6113v-14.3722c0-.8887.7231-1.6113,1.6124-1.6113h114.7014c.8893,0,1.6124.7226,1.6124,1.6113v14.3722Z"/>
  <path class="cls-2" d="m105.6173,37.7274l-.4889-.177c-1.5248-.5505-3.0999-.8239-4.6454-.8239-2.0472,0-4.0443.4788-5.8091,1.4255-2.5903,1.3901-4.3788,3.6415-5.0369,6.3401-.2568,1.0535-.5057,2.084-.7537,3.1119l8.7783,2.8831c1.3212.4336,2.0403,1.8561,1.6065,3.1764-.3483,1.0598-1.334,1.7322-2.3925,1.7322-.2607,0-.5253-.0413-.786-.1268l-8.3827-2.7532c-1.9868,8.3686-3.6693,15.8253-5.0848,22.4459h18.134c.1508-.2695.2986-.5328.4508-.8052l-8.4228-2.2611c-1.3438-.3598-2.1397-1.7411-1.7787-3.083s1.7472-2.1373,3.0851-1.7775l9.6424,2.5885c2.7981-5.0386,5.8165-10.5249,9.0669-16.4868,1.3566-2.4873,1.5248-5.3806.4742-8.1481-1.2573-3.3121-4.0472-5.9587-7.6547-7.2603l-.002-.001"/>
</svg>