<?xml version="1.0" encoding="UTF-8"?>
<svg id="Mushroom" xmlns="http://www.w3.org/2000/svg" viewBox="0 0 128 128">
  <defs>
    <style>
      .cls-1 {
        fill: #ffecd7;
      }

      .cls-2 {
        fill: #333;
      }

      .cls-3 {
        fill: #d3986c;
      }

      .cls-4 {
        fill: #96603b;
      }
    </style>
  </defs>
  <path class="cls-2" d="m120.5663,59.483C120.5663,35.9962,90.2259,0,63.9995,0S7.4337,35.9962,7.4337,59.483c0,16.8608,14.5131,26.3941,43.1313,28.3608-1.1331,9.7952-2.2479,20.0671-2.5534,25.0216-.2279,3.6983-.0632,7.9016,2.8842,11.0367,2.593,2.7577,6.8796,4.0978,13.1047,4.0978,6.208,0,10.4855-1.3342,13.0756-4.0778,2.9484-3.1211,3.1281-7.3354,2.9153-11.0467-.2688-4.6761-1.2122-14.8812-2.206-25.0526,28.3905-2.0212,42.7809-11.5482,42.7809-28.3399Zm-91.673,19.3018c-3.5419-1.2395-6.5009-2.7481-8.8818-4.5302-.1631-.122-.0873-.384.1157-.4007,2.6568-.2182,13.7597-1.1587,18.5974-2.0331.3637-.0658.5521.4153.2397.6126,0,0-8.8993,5.6576-9.8736,6.3288-.0591.0407-.1298.0464-.1974.0227Zm18.1821-6.5777l-4.7958,9.4672c-.0479.0944-.1531.148-.258.1331-2.0954-.2967-4.08-.6431-5.9493-1.0421-.2029-.0433-.2595-.3046-.098-.4348l10.5916-8.5359c.2811-.2266.6726.0904.5095.4125Zm4.1139,10.3032c-.0158.1299-.1314.2171-.262.2082-.9479-.0641-1.88-.1351-2.7923-.2149-.1724-.0151-.2728-.1994-.1965-.3549l3.7312-7.6092c.1682-.3428.6877-.1857.6334.1921-.3514,2.444-.8602,5.7045-1.1138,7.7786Zm22.1504,37.8832c-1.546,1.6363-4.6871,2.4665-9.3391,2.4665-4.664,0-7.8132-.8342-9.3602-2.4786-1.2779-1.3593-1.7257-3.5126-1.4988-7.1998.5595-9.0681,4.011-37.3384,5.0282-45.5721.0397-.3201.2713-.5813.5838-.6606l10.5882-2.6832c.4623-.1171.9204.1983.9695.6727,1.087,10.523,4.0503,39.5506,4.5483,48.2321.2128,3.7093-.2419,5.8697-1.5199,7.2229Zm9.6819-38.2095c-1.7621.2008-3.5908.3719-5.4998.5073-.1324.0094-.2507-.0845-.2643-.2166-.4674-4.5625-1.4191-9.8156-1.927-13.6635-.0484-.3669.4492-.525.6273-.2005l7.2484,13.2087c.0843.1537-.0105.3448-.1847.3646Zm15.7443-3.2798c-2.8795.9838-6.1323,1.7954-9.7717,2.4322-.1024.0179-.2083-.0298-.2604-.1197l-8.3918-14.4582c-.1787-.3079.1825-.6452.4776-.446l17.9984,12.1512c.1689.1141.1408.3745-.0521.4405Zm11.7429-6.8474c-1.5149,1.562-3.3877,2.953-5.6098,4.1802-.0509-.0371-.0944-.0809-.1488-.1148l-21.2848-13.2388c-.2851-.1772-.165-.6283.1707-.6286,11.6724-.0107,24.4784,8.1552,26.8057,9.4077.1461.0786.1827.2751.0671.3943Zm2.8266-4.9786c-.514.1466-1.3793-.3022-1.7096-.5541-.0592-.0472-.1215-.0934-.1857-.1355-9.2327-6.1086-19.644-9.3381-30.1084-9.3381-2.4869,0-4.8791.224-7.2461.5814-.1291.0092-.2566.0292-.3831.0577-5.0754.802-10.0368,2.2726-15.4942,3.9095-10.0288,3.0076-21.3947,6.4168-38.282,7.1235-.3253.0141-.6887.0432-1.0792.0753-2.0196.1621-3.5163.1953-4.2732-.7401-1.3328-2.5317-2.0001-5.3866-2.0001-8.5749,0-10.2316,6.6337-23.7659,17.3119-35.3196C40.8941,12.2514,53.6475,5.1399,63.9995,5.1399s23.1054,7.1115,34.1139,19.0236c10.6793,11.5537,17.313,25.088,17.313,35.3196,0,2.2139-.3207,4.2676-.9622,6.1642-.3519.7942-.7648,1.3315-1.1289,1.4312Z"/>
  <path class="cls-3" d="m98.1134,24.1634c-11.0086-11.9121-23.7619-19.0236-34.1139-19.0236s-23.1054,7.1115-34.1139,19.0236c-10.6783,11.5537-17.3119,25.088-17.3119,35.3196,0,3.1883.6673,6.0432,2.0001,8.5749.7568.9354,2.2536.9022,4.2732.7401.3905-.0321.7539-.0612,1.0792-.0753,16.8873-.7067,28.2533-4.1159,38.282-7.1235,5.4574-1.6369,10.4188-3.1075,15.4942-3.9095.1265-.0285.254-.0486.3831-.0577,2.367-.3574,4.7593-.5814,7.2461-.5814,10.4645,0,20.8757,3.2295,30.1084,9.3381.0642.0422.1265.0883.1857.1355.3303.252,1.1956.7007,1.7096.5541.364-.0998.777-.637,1.1289-1.4312.6415-1.8966.9622-3.9503.9622-6.1642,0-10.2316-6.6337-23.7659-17.313-35.3196Z"/>
  <path class="cls-4" d="m80.8195,66.3126c-.2951-.1992-.6563.1382-.4776.446l8.3918,14.4582c.0521.0899.158.1377.2604.1197,3.6393-.6368,6.8922-1.4484,9.7717-2.4322.1929-.0659.221-.3264.0521-.4405l-17.9984-12.1512Z"/>
  <path class="cls-4" d="m46.5658,71.7946l-10.5916,8.5359c-.1615.1302-.1049.3915.098.4348,1.8692.399,3.8539.7454,5.9493,1.0421.1049.0149.2101-.0387.258-.1331l4.7958-9.4672c.1631-.3221-.2284-.6391-.5095-.4125Z"/>
  <path class="cls-4" d="m38.7245,71.8208c-4.8377.8744-15.9406,1.815-18.5974,2.0331-.203.0167-.2788.2787-.1157.4007,2.381,1.7821,5.3399,3.2907,8.8818,4.5302.0676.0237.1383.018.1974-.0227.9743-.6712,9.8736-6.3288,9.8736-6.3288.3125-.1973.124-.6783-.2397-.6126Z"/>
  <path class="cls-4" d="m51.6696,74.5397l-3.7312,7.6092c-.0763.1555.0241.3398.1965.3549.9123.0798,1.8444.1508,2.7923.2149.1306.0088.2462-.0784.262-.2082.2536-2.0741.7624-5.3346,1.1138-7.7786.0542-.3778-.4653-.5349-.6334-.1921Z"/>
  <path class="cls-1" d="m70.3112,64.9385c-.0491-.4743-.5072-.7898-.9695-.6727l-10.5882,2.6832c-.3125.0792-.5441.3405-.5838.6606-1.0172,8.2337-4.4687,36.504-5.0282,45.5721-.2269,3.6873.2209,5.8406,1.4988,7.1998,1.547,1.6444,4.6962,2.4786,9.3602,2.4786,4.652,0,7.7931-.8302,9.3391-2.4665,1.2779-1.3532,1.7327-3.5136,1.5199-7.2229-.4981-8.6815-3.4614-37.7091-4.5483-48.2321Z"/>
  <path class="cls-4" d="m75.9579,68.6108c-.1781-.3244-.6757-.1664-.6273.2005.5078,3.8478,1.4595,9.1009,1.927,13.6635.0136.1321.1319.226.2643.2166,1.909-.1354,3.7377-.3064,5.4998-.5073.1742-.0198.269-.2109.1847-.3646l-7.2484-13.2087Z"/>
  <path class="cls-4" d="m83.6359,62.255c-.3357.0003-.4558.4514-.1707.6286l21.2848,13.2388c.0545.0338.0979.0776.1488.1148,2.2221-1.2272,4.095-2.6182,5.6098-4.1802.1156-.1191.0789-.3157-.0671-.3943-2.3272-1.2525-15.1333-9.4184-26.8057-9.4077Z"/>
</svg>