<?xml version="1.0" encoding="UTF-8"?>
<svg id="Organic" xmlns="http://www.w3.org/2000/svg" viewBox="0 0 128 128">
  <defs>
    <style>
      .cls-1 {
        fill: #ffdd46;
      }

      .cls-2 {
        fill: #8c775f;
      }

      .cls-3 {
        fill: #3a3a3a;
      }

      .cls-4 {
        fill: #5fbb3d;
      }
    </style>
  </defs>
  <path class="cls-2" d="m67.5126,86.9859c.9292.4902,1.8032.9512,2.6133,1.3672,6.4077,3.29,7.4614,8.1865,6.417,11.3799-.1744.5334-.4257,1.054-.7369,1.5545-.1713.2756-.3557.5468-.5677.8068,2.0038-.0739,4.4781-.6799,7.2071-1.6416,7.1261-2.5114,16.0031-7.474,22.915-11.9221-.3782-1.1935-.981-2.57-1.9209-3.9783-2.0664-3.0977-6.2817-7.0693-14.6289-8.4033-2.9272-.4678-5.5669-1.7344-7.6338-3.6621-4.2502-3.9619-8.9302-6.2033-13.6232-6.7449-.9267-.1069-1.8531-.1446-2.7776-.1174-4.7164.1388-9.3632,2.0042-13.5123,5.6553-2.48,2.1826-5.4004,3.4697-8.4448,3.7197-6.0069.494-9.8322,2.3982-12.2659,4.5054,3.7159-1.2214,6.9404-2.0425,8.8953-2.0425,10.0029,0,20.8721,5.7314,28.0645,9.5234Z"/>
  <path class="cls-3" d="m126.3519,84.6842c-2.8599-3.3818-9.1699-4.3721-15.6978.2754-.3147.2241-.6412.4534-.9749.6857-2.3241-5.8366-8.1833-12.5331-20.0793-14.4338-1.9424-.3105-3.6763-1.1338-5.0142-2.3809-5.0921-4.7481-10.8277-7.4427-16.6021-8.0775l.7075-9.918c2.9045,1.4206,8.2202,3.3001,16.0762,3.3001,3.395,0,7.2622-.3525,11.6055-1.2471,10.1978-2.0996,14.7075-10.5039,19.0684-18.6318,2.7964-5.2109,5.6885-10.6006,10.0854-14.4111.9341-.8096,1.3018-2.0586.9585-3.2607-.4248-1.4883-1.9614-2.8047-3.5742-3.0605-21.3833-3.3994-37.2905-.5088-47.2788,8.584-5.1542,4.6915-7.8085,10.2181-9.1686,14.9149-2.1678-7.0333-7.3817-19.1207-19.0521-27.621C35.9813,1.0777,21.2152-1.7182,3.5179,1.0904c-1.3472.2148-2.5498,1.0947-3.1382,2.2969-.5137,1.0488-.4946,2.2217.0522,3.2178,2.9868,5.4385,5.0962,11.0488,7.1362,16.4736,5.1938,13.8145,10.1001,26.8623,27.9282,30.4756,2.6284.5332,5.1206.7627,7.4707.7627,9.3979,0,16.464-3.6837,20.4725-6.4706l.9117,12.7805c-5.7512.2329-11.4153,2.521-16.3911,6.9001-1.667,1.4668-3.5869,2.3281-5.5518,2.4902-11.4338.9394-17.5916,6.4875-20.0671,12.4791-2.3206.9089-4.6254,1.8538-6.7659,2.7552-3.0596,1.2881-5.0366,4.2666-5.0366,7.5879v24.1895c0,4.1357,3.0913,7.6475,7.1909,8.1689,8.5151,1.0811,24.1045,2.7686,38.4902,2.7686,10.3979-.001,20.168-.8818,26.1802-3.5098,7.9644-3.4805,26.4512-14.1826,42.1543-28.0859l.1108-.1045c4.2974-4.2979,3.9434-8.9141,1.6865-11.582Zm-47.354-58.8789c8.5029-7.7383,22.3193-10.3086,41.0781-7.6514-3.854,4.0732-6.4844,8.9746-9.0405,13.7393-4.166,7.7646-7.7642,14.4697-15.6709,16.0986-11.5643,2.3778-19.2285.5085-23.1542-1.0742,4.6202-3.3489,13.9913-9.4768,24.3158-12.4317,1.3271-.3799,2.0952-1.7637,1.7153-3.0908-.3794-1.3271-1.7651-2.0996-3.0913-1.7158-10.2979,2.9465-19.477,8.6529-24.6824,12.3207.7386-4.4574,2.8052-10.9839,8.5301-16.1948Zm-42.5083,22.8486c-15.1152-3.0635-19.1426-13.7744-24.2412-27.335-1.9043-5.0645-3.8672-10.2842-6.5684-15.498,20.6714-2.957,36.5259,2.3145,47.1304,15.668,4.2855,5.3971,6.8413,11.1242,8.313,15.3806-7.2797-5.0961-20.0151-13.3303-30.0488-16.2018-1.3267-.3828-2.7109.3877-3.0913,1.7158-.3799,1.3271.3882,2.7109,1.7153,3.0908,10.8528,3.1061,25.8119,13.4675,31.6654,17.72-3.9061,2.9167-12.7155,7.9214-24.8744,5.4597Zm6.3291,26.3457c3.0444-.25,5.9648-1.5371,8.4448-3.7197,4.1492-3.6512,8.7959-5.5165,13.5123-5.6553.9245-.0272,1.8509.0105,2.7776.1174,4.6929.5416,9.373,2.7831,13.6232,6.7449,2.0669,1.9277,4.7065,3.1943,7.6338,3.6621,8.3472,1.334,12.5625,5.3057,14.6289,8.4033.9399,1.4083,1.5427,2.7847,1.9209,3.9783-6.9119,4.4481-15.7889,9.4108-22.915,11.9221-2.7289.9617-5.2033,1.5677-7.2071,1.6416.212-.26.3964-.5312.5677-.8068.3113-.5005.5625-1.0211.7369-1.5545,1.0444-3.1934-.0093-8.0898-6.417-11.3799-.8101-.416-1.6841-.877-2.6133-1.3672-7.1924-3.792-18.0615-9.5234-28.0645-9.5234-1.955,0-5.1794.8211-8.8953,2.0425,2.4337-2.1072,6.259-4.0115,12.2659-4.5054Zm78.3618,17.6797c-15.8271,13.998-34.3052,24.3652-40.7827,27.1953-13.5581,5.9297-50.9121,1.7764-62.0376.3623-1.6084-.2041-2.8213-1.583-2.8213-3.208v-24.1895c0-1.3047.7759-2.4746,1.9771-2.9805,1.2072-.5083,2.3786-.9914,3.5209-1.4553,1.8687-.7588,3.6416-1.4548,5.3046-2.0839,6.4453-2.4384,11.205-3.8574,13.1067-3.8574,8.7651,0,18.9761,5.3838,25.7324,8.9463.9458.499,1.8359.9678,2.6616,1.3916,3.3755,1.7334,4.4155,3.9502,3.9482,5.3779-.5093,1.5586-2.9634,2.9365-7.1553,2.2676-9.0566-2.2725-19.0981-6.0859-19.2412-6.1406-1.031-.3909-2.1519-.0505-2.8153.7567-.167.2032-.3127.4282-.4117.6877-.4927,1.29.1538,2.7344,1.4438,3.2275.6001.2285,10.5776,4.0176,19.9302,6.3398.0542.0156.1094.0293.1655.041.0602.0148.1196.0281.1797.0428,4.0643.9952,7.988,1.7013,10.9424,1.7013,2.5344,0,5.5806-.6861,8.864-1.8079,9.1505-3.1262,20.1602-9.6685,27.2163-14.4314.959-.6473,1.8471-1.2628,2.6453-1.8311,4.2739-3.04,7.8242-2.4854,8.98-1.1191.9561,1.1299.4365,2.9521-1.3535,4.7666Z"/>
  <path class="cls-4" d="m27.9833,22.3834c.3804-1.3281,1.7646-2.0986,3.0913-1.7158,10.0338,2.8716,22.7692,11.1057,30.0488,16.2018-1.4717-4.2563-4.0275-9.9835-8.313-15.3806C42.2059,8.1353,26.3514,2.8639,5.6801,5.8209c2.7012,5.2139,4.6641,10.4336,6.5684,15.498,5.0986,13.5605,9.126,24.2715,24.2412,27.335,12.1589,2.4617,20.9683-2.5429,24.8744-5.4597-5.8535-4.2526-20.8126-14.6139-31.6654-17.72-1.3271-.3799-2.0952-1.7637-1.7153-3.0908Z"/>
  <path class="cls-4" d="m98.2416,31.3951c.3799,1.3271-.3882,2.7109-1.7153,3.0908-10.3245,2.9549-19.6956,9.0828-24.3158,12.4317,3.9257,1.5827,11.5898,3.452,23.1542,1.0742,7.9067-1.6289,11.5049-8.334,15.6709-16.0986,2.5562-4.7646,5.1865-9.666,9.0405-13.7393-18.7588-2.6572-32.5752-.0869-41.0781,7.6514-5.7249,5.2109-7.7914,11.7374-8.5301,16.1948,5.2054-3.6678,14.3846-9.3743,24.6824-12.3207,1.3262-.3838,2.7119.3887,3.0913,1.7158Z"/>
  <path class="cls-1" d="m113.5541,89.0318c-.7982.5683-1.6862,1.1837-2.6453,1.8311-7.0561,4.7629-18.0658,11.3052-27.2163,14.4314-3.2834,1.1218-6.3296,1.8079-8.864,1.8079-2.9543,0-6.8781-.7061-10.9424-1.7013-.0601-.0147-.1195-.028-.1797-.0428-.0562-.0117-.1113-.0254-.1655-.041-9.3525-2.3223-19.3301-6.1113-19.9302-6.3398-1.29-.4932-1.9365-1.9375-1.4438-3.2275.099-.2595.2448-.4845.4117-.6877.6634-.8072,1.7843-1.1475,2.8153-.7567.1431.0547,10.1846,3.8682,19.2412,6.1406,4.1919.6689,6.646-.709,7.1553-2.2676.4673-1.4277-.5728-3.6445-3.9482-5.3779-.8257-.4238-1.7158-.8926-2.6616-1.3916-6.7563-3.5625-16.9673-8.9463-25.7324-8.9463-1.9017,0-6.6614,1.419-13.1067,3.8574-1.663.6291-3.4359,1.3251-5.3046,2.0839-1.1423.4639-2.3137.947-3.5209,1.4553-1.2012.5059-1.9771,1.6758-1.9771,2.9805v24.1895c0,1.625,1.2129,3.0039,2.8213,3.208,11.1255,1.4141,48.4795,5.5674,62.0376-.3623,6.4775-2.8301,24.9556-13.1973,40.7827-27.1953,1.79-1.8145,2.3096-3.6367,1.3535-4.7666-1.1558-1.3662-4.7061-1.9209-8.98,1.1191Z"/>
</svg>