<?xml version="1.0" encoding="UTF-8"?>
<svg id="Palmoil_free" data-name="Palmoil free" xmlns="http://www.w3.org/2000/svg" viewBox="0 0 128 128">
  <defs>
    <style>
      .cls-1 {
        fill: none;
      }

      .cls-2 {
        fill: #68a159;
      }

      .cls-3 {
        fill: #fff;
      }

      .cls-4 {
        fill: #ffc943;
      }

      .cls-5 {
        fill: #333;
      }

      .cls-6 {
        fill: #c1272d;
      }

      .cls-7 {
        fill: #9b6743;
      }
    </style>
  </defs>
  <path class="cls-5" d="m114.4934,24.818C106.2806,13.4965,90.8535,0,64,0,28.7102,0,0,28.7109,0,64.0005c0,20.8812,15.6436,63.9995,64,63.9995,35.2898,0,64-28.7099,64-63.9995,0-9.4858-3.5378-25.4396-13.5066-39.1825Zm-50.4934,98.0739c-24.7005,0-38.8436-12.3492-46.3591-22.709-9.2505-12.7522-12.5328-27.4619-12.5328-36.1825C5.1081,31.5274,31.5266,5.1081,64,5.1081c24.7005,0,38.8436,12.3492,46.3591,22.709,9.2505,12.7532,12.5328,27.4628,12.5328,36.1835,0,32.4731-26.4185,58.8914-58.8919,58.8914Z"/>
  <path class="cls-6" d="m69.8333,61.8632l5.0844-5.0844c-.6029-.3746-1.2221-.7317-1.8625-1.0623-.7965,1.3994-1.9437,3.5118-3.2219,6.1466Z"/>
  <path class="cls-6" d="m110.3591,27.817c-7.5155-10.3598-21.6586-22.709-46.3591-22.709C31.5266,5.1081,5.1081,31.5274,5.1081,64.0005c0,8.7206,3.2824,23.4303,12.5328,36.1825,7.5155,10.3598,21.6586,22.709,46.3591,22.709,32.4734,0,58.8919-26.4183,58.8919-58.8914,0-8.7206-3.2824-23.4303-12.5328-36.1835Zm-46.3591,89.8471c-12.3283,0-24.3723-4.29-33.913-12.0798l-2.1889-1.7868,13.4813-13.481c.9121-3.8141,1.9749-7.3205,3.1404-10.5336l-20.3181,20.3173-1.7868-2.1879c-7.7889-9.5397-12.0789-21.5826-12.0789-33.9118,0-29.5899,24.074-53.6636,53.6641-53.6636,9.3219,0,18.4791,2.4565,26.5166,7.0201,4.6611-.4357,8.5974.5046,10.7242,2.6314.6062.6051.8733,1.4713.7134,2.3131-.1589.841-.7235,1.5493-1.5087,1.8923-.0169.0075-.2535.1145-.6309.2962l-10.5684,10.5679c2.49-.089,4.7368.1686,6.7425.6505l7.8088-7.8085,1.7868,2.1879c7.7899,9.5397,12.0799,21.5836,12.0799,33.9128,0,29.5899-24.074,53.6636-53.6641,53.6636Z"/>
  <path class="cls-7" d="m68.0985,53.7973c-2.0258,1.5446-7.4242,6.197-12.6686,15.0757-2.2362,3.7859-4.4452,8.3261-6.3515,13.7445-1.0883,3.0933-2.0757,6.4681-2.9162,10.1401-.9576,4.184-1.7283,8.7408-2.2227,13.7227h12.2947c-1.4762-7.4116-1.1602-15.6845.92-24.7145.7619-3.3073,1.7627-6.7168,2.9999-10.2236.1572-.4456.308-.8885.4728-1.3374,1.6352-4.4496,3.4036-8.3618,4.9509-11.4793.9832-1.981,1.8778-3.6434,2.59-4.911-.0228-.0061-.0463-.0111-.0693-.0171Z"/>
  <path class="cls-1" d="m69.8335,61.863l5.0842-5.0842c-.603-.3746-1.2222-.7316-1.8625-1.0623-.7964,1.3992-1.9436,3.5115-3.2217,6.1464Z"/>
  <g id="inner_BG_left">
    <path class="cls-3" d="m65.0985,25.9706c1.5806,1.5806,2.9639,3.3819,4.1154,5.3459.5071-.9349,1.0676-1.8395,1.6798-2.7098.8693-1.2356,1.8438-2.3951,2.8961-3.4477,2.5366-2.5373,5.6233-4.546,9.0006-5.9107-5.9142-2.4832-12.3066-3.8033-18.7904-3.8033-5.5712,0-10.9207.9553-15.9082,2.6902.645.0532,1.3046.1329,1.9758.2402,5.7051.9106,11.0439,3.6083,15.0309,7.5952Z"/>
    <path class="cls-3" d="m56.5554,57.9652c-1.8049,1.2336-3.6382,2.6715-5.3444,4.2709-7.2504,6.7939-13.3834,15.3049-13.4452,15.3898-.4806.671-1.2537,1.0728-2.0795,1.0807h-.0253c-.8167,0-1.5857-.3855-2.0754-1.0402-2.1604-2.8909-2.4246-10.7706.6255-17.8923,2.0206-4.7185,5.1677-8.4514,9.2092-11.0298-7.6895,1.0251-14.4794,5.012-14.5785,5.0707-.7994.4786-1.7931.4887-2.6057.0273-.8094-.4604-1.3104-1.3205-1.3104-2.2524,0-3.6489,3.9009-8.9473,9.0737-12.325,3.7664-2.4579,10.9287-5.6979,20.6066-3.6711-4.7054-4.8045-12.6296-9.0202-16.1774-10.5947-.6174-.2737-1.0869-.7787-1.3373-1.392-13.0399,8.7154-21.6473,23.5662-21.6473,40.3934,0,10.2072,3.2494,20.1978,9.2006,28.4335l26.2097-26.2091c1.9154-3.2528,3.8634-5.9937,5.701-8.2597Z"/>
  </g>
  <path class="cls-5" d="m105.5842,30.0877l-1.7869-2.1879-7.8087,7.8085h-.0001c-2.0056-.4819-4.2524-.7396-6.7424-.6505l10.5684-10.5679c.3774-.1817.614-.2887.6309-.2961.7854-.3431,1.35-1.0513,1.5088-1.8923.1599-.8418-.1072-1.708-.7134-2.3131-2.1267-2.1268-6.063-3.0671-10.7241-2.6313-8.0375-4.5636-17.1947-7.0201-26.5166-7.0201-29.5901,0-53.6641,24.0738-53.6641,53.6637,0,12.3292,4.29,24.3721,12.0789,33.9117l1.7869,2.1879,20.318-20.3172c-1.1654,3.2133-2.2281,6.7194-3.1403,10.5335l-13.4813,13.481,2.1888,1.7869c9.5408,7.7898,21.5847,12.0798,33.9131,12.0798,29.5901,0,53.6641-24.0738,53.6641-53.6636,0-12.3292-4.29-24.3731-12.0798-33.9128Zm-56.5076,52.5315c1.8984-5.3931,4.0938-9.939,6.3208-13.7138l.0325-.0325c5.2444-8.8786,10.6428-13.531,12.6686-15.0756.0229.006.0465.011.0692.0171-.1609.2862-.334.5995-.5122.9249-.0317.0579-.0627.1145-.095.1736-.3835.7033-.8025,1.4915-1.2479,2.358-.0082.0159-.0162.0313-.0244.0474-.2305.4489-.4669.9167-.7098,1.406-.0002.0004-.0004.0007-.0005.0011-1.5474,3.1175-3.3157,7.0297-4.9509,11.4793-.1649.4487-.3157.8917-.4729,1.3374h0c-.3092.8764-.6038,1.7466-.8832,2.6109-.0001.0005-.0004.001-.0006.0016-.0781.2421-.1465.4799-.2224.721-.1936.6141-.3884,1.2288-.5669,1.8367-.0027.0092-.0055.0184-.0083.0276-.2468.842-.4794,1.6781-.6971,2.5079-.0026.0096-.0052.0193-.0077.0289-2.6226,10.004-3.1443,19.1161-1.5337,27.2034h-12.2947c.4944-4.9814,1.2637-9.5391,2.2212-13.7212l.0016-.0015c.5977-2.6111,1.2726-5.0651,2.0023-7.3813.2964-.941.5995-1.8651.9138-2.7587l-.0017.0017Zm20.7568-20.7562c1.2781-2.6349,2.4253-4.7472,3.2217-6.1464.6404.3306,1.2595.6876,1.8625,1.0623l-5.0842,5.0842Zm-30.2073,37.4305c-.3086,2.0016-.5723,4.0785-.7921,6.2238-1.1162-.6759-2.2076-1.396-3.2689-2.1628l4.061-4.061Zm15.1411,12.3676h4.7495c.8115,0,1.5756-.3794,2.0653-1.0261.4896-.6465.6476-1.4854.428-2.2665-3.193-11.3392-.7711-23.947,2.7294-34.188l14.3079-14.3076c7.1685,6.3307,10.6871,14.7828,10.7366,14.9047.3491.8682,1.1404,1.4793,2.0684,1.6008.937.1185,1.8497-.2691,2.4094-1.019,2.3242-3.1116,2.4204-10.9639.2155-17.5048-1.1809-3.5033-2.9164-6.3569-5.0778-8.4221,9.5039-1.3773,18.5229,4.2712,18.6262,4.3369.7983.5131,1.8123.5475,2.6421.0943.2659-.1453.4851-.3445.6802-.564.792,3.4948,1.208,7.0833,1.208,10.7008,0,26.7734-21.7822,48.5555-48.5559,48.5555-3.1124,0-6.2039-.306-9.2327-.8949Zm48.8201-72.5977c-.7041-.4777-1.5057-.9366-2.3535-1.3771l2.1205-2.1205c1.5682,2.1701,2.943,4.4646,4.126,6.8499-1.1077-1.1961-2.4034-2.3417-3.8929-3.3523Zm-39.5874-23.6186c6.4838,0,12.8762,1.3202,18.7904,3.8033-3.3773,1.3647-6.464,3.3734-9.0006,5.9107-1.0524,1.0526-2.0269,2.2121-2.8961,3.4477-.6122.8702-1.1727,1.7748-1.6798,2.7098-1.1515-1.964-2.5348-3.7653-4.1154-5.3459-3.9869-3.9869-9.3258-6.6846-15.0309-7.5952-.6713-.1074-1.3308-.1871-1.9758-.2402,4.9875-1.7349,10.337-2.6902,15.9082-2.6902Zm-2.5646,14.1888c2.4619,2.4629,4.335,5.6059,5.4166,9.0898.337,1.0847,1.3408,1.8225,2.4741,1.8225h.0436c1.1505-.0192,2.1503-.7954,2.455-1.9055.6921-2.5237,1.8356-4.9623,3.3069-7.0529.6982-.9927,1.4784-1.9226,2.3213-2.7655,3.6337-3.6329,8.1887-5.463,12.0852-6.108h.0001c.5658-.0937,1.1179-.1631,1.6517-.2099.0093-.0009.0183-.0011.0278-.002.5292-.0455,1.0405-.069,1.527-.0692-5.2679,3.1793-12.8097,8.8105-16.235,16.5212-.3347.7545-.2808,1.6068.1077,2.3066.009.0162.0194.0314.0287.0477.1019.1746.2191.3422.3635.4922.7296.7578,1.8436,1.0018,2.8253.6122.5798-.2306,1.1458-.435,1.7039-.6251.2703-.0918.5334-.1703.7988-.2532,3.6547-1.144,6.822-1.4325,9.5403-1.2129.27.0222.5365.0482.7974.0801.21.0254.4204.0504.6245.0818.3936.0612.7786.1312,1.1509.2128.006.0013.0117.0029.0178.0043.1392.0306.274.0649.4105.098.3312.0809.6561.1674.9698.2624.1357.0411.2686.0843.4011.1277.3179.1048.6279.2147.9272.3317,1.351.5266,2.5201,1.165,3.5009,1.8305,1.265.858,2.3132,1.8073,3.1632,2.7523-3.4988-1.2516-8.0151-2.3167-12.8521-2.0458-2.941.1647-6.0002.8221-9.0222,2.2352-.9785.4573-1.5706,1.4743-1.4846,2.552.0862,1.0766.8308,1.9874,1.8691,2.2848.3303.0946.6432.2153.9485.347,3.4055,1.4691,5.2811,5.1072,6.2673,8.0326.7246,2.1492,1.106,4.3299,1.2507,6.2748-1.9172-2.992-4.6-6.4874-8.0845-9.5974l.0095-.0096c-.1302-.1165-.275-.2247-.4077-.34-.3779-.3284-.7651-.651-1.1616-.9686-.2166-.1731-.4316-.3457-.6538-.515-.0374-.0286-.0779-.0549-.1155-.0833-.4553-.3448-.9211-.6819-1.3993-1.0092-.113-.0775-.2164-.1624-.3308-.2387l-.009.009c-1.4772-.9857-3.0564-1.8836-4.7532-2.6398l.0006-.0005c-.2659-.1187-.5275-.2427-.799-.3544-.0812-.0381-.1627-.0718-.2461-.101-1.4911-.5977-3.0551-1.1004-4.7122-1.4573-.0062-.0015-.0123-.0032-.0187-.0048-.0123-.0027-.0239-.0066-.0361-.0092-5.8276-1.2396-15.4185,5.2923-20.4333,9.9916-4.1945,3.9312-7.9617,8.3097-10.5482,11.5175.0951-2.3719.6224-5.3682,1.949-8.3776,2.047-4.6415,6.5137-10.4185,16.1703-11.5811,1.1656-.1407,2.0916-1.0474,2.2555-2.2101.1639-1.1637-.4746-2.291-1.5563-2.7484-2.9325-1.2396-6.0178-1.7232-9.0475-1.7232-4.6831,0-9.2316,1.1545-12.8674,2.4547.8014-.7406,1.7345-1.4822,2.8091-2.1846,4.5789-2.9901,12.2379-5.5877,22.7133-.9824.9158.4017,1.9812.2428,2.7393-.4149.7559-.6557,1.0675-1.6879.7983-2.6522-1.9377-6.9557-10.6118-12.9008-16.6681-16.3068,4.3441.0718,10.4237,1.7911,15.0208,6.3872Zm-36.7908,62.8003c-5.9512-8.2357-9.2006-18.2264-9.2006-28.4335,0-16.8272,8.6074-31.678,21.6473-40.3934.2504.6133.7198,1.1183,1.3373,1.392,3.5477,1.5745,11.4719,5.7902,16.1774,10.5947-9.6779-2.0269-16.8402,1.2132-20.6066,3.6711-5.1729,3.3777-9.0737,8.6761-9.0737,12.325,0,.9319.501,1.7921,1.3104,2.2524.8126.4614,1.8063.4514,2.6057-.0273.0991-.0587,6.889-4.0455,14.5785-5.0707-4.0415,2.5784-7.1886,6.3113-9.2092,11.0298-3.05,7.1217-2.7859,15.0014-.6255,17.8923.4897.6547,1.2588,1.0402,2.0754,1.0402h.0253c.8258-.008,1.5989-.4098,2.0795-1.0807.0618-.0849,6.1948-8.5959,13.4452-15.3898,1.7062-1.5994,3.5394-3.0373,5.3444-4.2709-1.8376,2.2661-3.7856,5.0069-5.701,8.2597l-26.2097,26.2091Z"/>
  <path class="cls-2" d="m100.6781,43.351c-.9418-.639-2.0549-1.2559-3.337-1.7719-1.6733-.6734-3.6415-1.1686-5.9203-1.3031-2.4525-.1448-5.2641.1321-8.4519,1.0588-1.0074.2929-2.0504.6471-3.1341,1.0781-.9815.3896-2.0956.1457-2.8252-.6122-.3052-.3174-.5111-.7004-.6233-1.1073-.1561-.5659-.125-1.1794.1234-1.7392,3.0446-6.8535,9.3379-12.0593,14.3995-15.3657.633-.4134,1.25-.802,1.8355-1.1554-.9851.0005-2.0692.0928-3.2065.2811-3.8965.645-8.4517,2.4751-12.0854,6.108-.8429.8429-1.6231,1.7729-2.3213,2.7655-1.4713,2.0906-2.6147,4.5292-3.3069,7.0529-.3046,1.11-1.3043,1.8862-2.4549,1.9054h-.0435c-1.1333,0-2.1371-.7378-2.4741-1.8225-1.0817-3.4839-2.9547-6.6269-5.4167-9.0898-4.5971-4.5961-10.6766-6.3154-15.0207-6.3872,6.0562,3.406,14.7303,9.351,16.6681,16.3068.2692.9642-.0425,1.9965-.7984,2.6522-.7579.6577-1.8234.8166-2.7392.4149-10.4753-4.6052-18.1344-2.0077-22.7132.9825-1.0747.7024-2.0076,1.444-2.8091,2.1846,3.6358-1.3002,8.1843-2.4548,12.8674-2.4548,3.0296,0,6.115.4836,9.0474,1.7232,1.0817.4574,1.7202,1.5847,1.5563,2.7483-.1639,1.1627-1.0898,2.0694-2.2556,2.2101-9.6566,1.1625-14.1232,6.9395-16.1702,11.5811-1.3266,3.0093-1.8538,6.0056-1.949,8.3776,2.5865-3.2078,6.3538-7.5863,10.5481-11.5175,5.015-4.6993,14.6059-11.2311,20.4334-9.9915.0123.0026.0238.0065.0361.0092.0064.0015.0124.0032.0187.0047.1209.0261.233.0656.3529.0932,1.5238.3503,2.9771.81,4.3593,1.3642.0834.0292.1649.0629.2461.101.2715.1117.533.2357.7989.3544,1.6959.7572,3.2849,1.6449,4.7617,2.6314,1.4602.9755,2.8191,2.0377,4.0688,3.1548,3.4828,3.113,6.1574,6.6147,8.0749,9.6069-.1447-1.945-.5262-4.1256-1.2507-6.2748-.7134-2.1161-1.8941-4.6039-3.7793-6.377-.9546-.8979-2.0865-1.6159-3.4366-2.0026-.4343-.1243-.8125-.3605-1.1173-.6669-.424-.4259-.7016-.9916-.7517-1.6178-.086-1.0777.5059-2.0947,1.4845-2.552,1.7141-.8015,3.4394-1.3484,5.1493-1.7121,2.6389-.5613,5.2367-.6637,7.6925-.469,3.372.2673,6.4754,1.0771,9.0326,1.9918-.85-.945-1.8983-1.8943-3.1633-2.7523Z"/>
  <g id="inner_BG_right">
    <path class="cls-3" d="m39.6262,99.2936l-4.061,4.061c1.0613.7668,2.1527,1.4869,3.2689,2.1628.2198-2.1453.4835-4.2222.7921-6.2238Z"/>
    <path class="cls-3" d="m101.2339,37.6864c.8478.4405,1.6494.8994,2.3535,1.3771,1.4895,1.0106,2.7853,2.1562,3.8929,3.3523-1.183-2.3853-2.5577-4.6798-4.126-6.8499l-2.1205,2.1205Z"/>
    <path class="cls-3" d="m111.3479,53.2997c-.1951.2195-.4143.4187-.6802.564-.8298.4532-1.8438.4188-2.6421-.0943-.1033-.0656-9.1223-5.7141-18.6262-4.3369,2.1614,2.0652,3.8969,4.9188,5.0778,8.4221,2.205,6.5408,2.1088,14.3931-.2155,17.5048-.5597.7499-1.4724,1.1375-2.4094,1.019-.928-.1215-1.7192-.7325-2.0684-1.6008-.0494-.1218-3.5681-8.574-10.7366-14.9047l-14.3079,14.3076c-3.5005,10.2411-5.9224,22.8489-2.7294,34.188.2196.7811.0616,1.6201-.428,2.2665-.4897.6467-1.2538,1.0261-2.0653,1.0261h-4.7495c3.0288.5889,6.1202.8949,9.2327.8949,26.7737,0,48.5559-21.7821,48.5559-48.5555,0-3.6176-.416-7.2061-1.208-10.7008Zm-29.45,52.5933c-7.576,1.2269-14.738-3.9387-15.9648-11.5146-1.0952-6.7621,6.6521-25.6824,7.5386-27.8167.3174-.7638,1.0067-1.3091,1.8234-1.4413.8165-.1322,1.6427.1677,2.1852.7922,1.5146,1.7454,14.8374,17.2535,15.9325,24.0157,1.2269,7.576-3.9387,14.7379-11.5148,15.9648Z"/>
  </g>
  <g id="Drop">
    <path class="cls-5" d="m77.4802,65.9125c-.5425-.6245-1.3687-.9244-2.1852-.7922-.8167.1323-1.506.6776-1.8234,1.4413-.8865,2.1342-8.6338,21.0545-7.5386,27.8167,1.2268,7.576,8.3888,12.7415,15.9648,11.5146,7.576-1.2269,12.7417-8.3888,11.5148-15.9648-1.0951-6.7621-14.4178-22.2703-15.9325-24.0157Zm3.6543,35.2667c-4.9771.806-9.6816-2.5873-10.4878-7.5643-.5652-3.4902,2.8121-13.8771,5.7716-21.5585,5.2323,6.3538,11.715,15.1422,12.2806,18.6351.8059,4.977-2.5874,9.6817-7.5645,10.4877Z"/>
    <path class="cls-4" d="m76.4183,72.0565c-2.9595,7.6814-6.3368,18.0683-5.7716,21.5585.8062,4.977,5.5107,8.3703,10.4878,7.5643,4.9771-.806,8.3704-5.5107,7.5645-10.4877-.5657-3.4929-7.0483-12.2812-12.2806-18.6351Z"/>
  </g>
</svg>