<?xml version="1.0" encoding="UTF-8"?>
<svg id="Pork" xmlns="http://www.w3.org/2000/svg" viewBox="0 0 128 128">
  <defs>
    <style>
      .cls-1 {
        fill: #ffbdf9;
      }

      .cls-2 {
        fill: #333;
      }

      .cls-3 {
        fill: #e051d3;
      }
    </style>
  </defs>
  <path class="cls-2" d="m58.5436,77.9367c-1.3714,0-2.4829,1.1199-2.4829,2.5017v6.5649c0,1.3818,1.1115,2.5017,2.4829,2.5017s2.4829-1.1199,2.4829-2.5017v-6.5649c0-1.3818-1.1115-2.5017-2.4829-2.5017Z"/>
  <path class="cls-2" d="m69.4569,77.9367c-1.3714,0-2.4829,1.1199-2.4829,2.5017v6.5649c0,1.3818,1.1115,2.5017,2.4829,2.5017s2.4829-1.1199,2.4829-2.5017v-6.5649c0-1.3818-1.1115-2.5017-2.4829-2.5017Z"/>
  <path class="cls-2" d="m64.0003,64.4961c-13.8821,0-25.1756,8.6239-25.1756,19.2247s11.2935,19.2237,25.1756,19.2237,25.1756-8.6239,25.1756-19.2237-11.2935-19.2247-25.1756-19.2247Zm0,33.445c-11.1441,0-20.2097-6.3792-20.2097-14.2204s9.0656-14.2213,20.2097-14.2213,20.2097,6.3792,20.2097,14.2213-9.0656,14.2204-20.2097,14.2204Z"/>
  <path class="cls-2" d="m115.5415,45.9896c15.8345-15.9539,13.1062-42.4569,10.3294-45.2566-.7759-.7798-1.9669-.9586-2.933-.4339-5.5672,3.0176-11.8444,4.1737-17.9149,5.2926-8.0821,1.4883-15.7162,2.8945-21.2097,8.4304-.0156.0158-.0259.0345-.041.0506-6.4265-3.0066-13.135-4.5741-19.7721-4.5741s-13.3483,1.5681-19.7761,4.576c-.0137-.0145-.0229-.0315-.037-.0456-5.4945-5.5359-13.1285-6.9441-21.2107-8.4353C16.906,4.4737,10.6288,3.3167,5.0626.2991,4.0976-.2257,2.9046-.0468,2.1296.733-.6472,3.5337-3.3774,30.0405,12.459,45.9964c.3349.3374.7431.5499,1.1718.6544-4.9503,9.4345-7.737,19.5516-7.737,28.7313,0,13.5314,6.5196,27.0218,17.8888,37.0119,11.2867,9.9177,26.4888,15.6061,41.7094,15.6061,31.2171,0,56.6148-23.6045,56.6148-52.6179,0-9.1813-2.7881-19.3004-7.7406-28.7371.43-.1041.8396-.3171,1.1753-.6554Zm1.5994,29.3925c0,26.2547-23.1698,47.6146-51.6489,47.6146-29.1037,0-54.6323-22.2501-54.6323-47.6146,0-12.2454,5.4838-26.4052,14.6687-37.8786.8603-1.0749.6935-2.6502-.3744-3.518-1.0679-.8668-2.6304-.6968-3.4916.3772-2.0741,2.5908-3.9608,5.3193-5.666,8.1287-.0098-.0103-.0163-.0224-.0264-.0326C3.856,30.2516,4.5156,12.3755,5.4748,6.0588c5.4334,2.3951,11.1005,3.4408,16.6075,4.4571,6.9925,1.2892,13.1042,2.4251,17.4638,6.0312-1.1685.6917-2.3248,1.43-3.4653,2.2194-1.1299.7827-1.417,2.3394-.6401,3.4789.7759,1.1385,2.3229,1.4267,3.4528.645,7.927-5.488,16.6095-8.3884,25.1067-8.3884s17.1798,2.9004,25.1067,8.3884c.4297.2971.9195.4397,1.4044.4397.7905,0,1.5674-.3792,2.0484-1.0847.7769-1.1394.4898-2.6961-.6401-3.4789-1.1421-.7904-2.3-1.5296-3.4702-2.2222,4.3598-3.6081,10.4726-4.7426,17.4658-6.0313,5.508-1.0143,11.1761-2.059,16.6104-4.4541.9592,6.3157,1.6178,24.1869-10.4952,36.3933-.011.0111-.0181.0244-.0288.0355-1.7038-2.807-3.5887-5.5331-5.6606-8.122-.8613-1.0749-2.4238-1.243-3.4916-.3772-1.0679.8678-1.2347,2.442-.3744,3.518,9.183,11.4734,14.6658,25.6322,14.6658,37.8757Z"/>
  <g>
    <ellipse class="cls-2" cx="80.3998" cy="55.2338" rx="4.7995" ry="4.732"/>
    <ellipse class="cls-2" cx="47.6007" cy="55.2338" rx="4.7995" ry="4.732"/>
  </g>
  <path class="cls-3" d="m64,69.4999c-11.1441,0-20.2097,6.3793-20.2097,14.2214s9.0656,14.2203,20.2097,14.2203,20.2097-6.3792,20.2097-14.2203-9.0656-14.2214-20.2097-14.2214Zm-2.9734,17.5033c0,1.3818-1.1115,2.5017-2.4829,2.5017s-2.483-1.1199-2.483-2.5017v-6.5649c0-1.3818,1.1115-2.5016,2.483-2.5016s2.4829,1.1199,2.4829,2.5016v6.5649Zm10.9133,0c0,1.3818-1.1115,2.5017-2.4829,2.5017s-2.483-1.1199-2.483-2.5017v-6.5649c0-1.3818,1.1115-2.5016,2.483-2.5016s2.4829,1.1199,2.4829,2.5016v6.5649Z"/>
  <path class="cls-1" d="m102.475,37.5064c-.8603-1.0759-.6934-2.6502.3744-3.5179,1.0679-.8658,2.6304-.6978,3.4916.3772,2.072,2.5889,3.9568,5.315,5.6606,8.1219.0107-.0112.0178-.0245.0287-.0355,12.113-12.2064,11.4545-30.0776,10.4952-36.3933-5.4343,2.3951-11.1024,3.4398-16.6104,4.4542-6.9932,1.2888-13.106,2.4232-17.4658,6.0313,1.1702.6926,2.3281,1.4318,3.4702,2.2222,1.1299.7827,1.4171,2.3394.6401,3.4788-.4811.7056-1.2579,1.0847-2.0484,1.0847-.485,0-.9747-.1426-1.4044-.4398-7.9269-5.488-16.6095-8.3884-25.1068-8.3884s-17.1797,2.9004-25.1067,8.3884c-1.1299.7818-2.6769.4935-3.4528-.645-.7769-1.1394-.4898-2.6961.6401-3.4788,1.1404-.7894,2.2968-1.5277,3.4653-2.2195-4.3596-3.6061-10.4714-4.7419-17.4638-6.0311-5.5071-1.0163-11.1742-2.062-16.6075-4.4571-.9592,6.3167-1.6187,24.1928,10.4952,36.4001.0101.0101.0165.0223.0264.0325,1.7052-2.8094,3.5919-5.5379,5.666-8.1287.8613-1.074,2.4238-1.244,3.4916-.3772,1.0679.8677,1.2347,2.443.3744,3.5179-1.2908,1.6124-2.4998,3.2821-3.6393,4.9877-6.9698,10.4319-11.0294,22.3663-11.0294,32.8909,0,25.3644,25.5286,47.6146,54.6323,47.6146,28.4791,0,51.6489-21.3599,51.6489-47.6146,0-10.525-4.0604-22.4611-11.0314-32.8943-1.1382-1.7034-2.3456-3.371-3.6345-4.9814Zm-22.0677,12.9954c2.6507,0,4.7996,2.1186,4.7996,4.732s-2.1489,4.732-4.7996,4.732-4.7995-2.1186-4.7995-4.732,2.1488-4.732,4.7995-4.732Zm-32.7991,0c2.6508,0,4.7996,2.1186,4.7996,4.732s-2.1488,4.732-4.7996,4.732-4.7995-2.1186-4.7995-4.732,2.1489-4.732,4.7995-4.732Zm16.392,52.4427c-13.8821,0-25.1755-8.6239-25.1755-19.2237s11.2935-19.2247,25.1755-19.2247,25.1756,8.6239,25.1756,19.2247-11.2935,19.2237-25.1756,19.2237Z"/>
</svg>