<?xml version="1.0" encoding="UTF-8"?>
<svg id="Rabbit" xmlns="http://www.w3.org/2000/svg" viewBox="0 0 128 128">
  <defs>
    <style>
      .cls-1 {
        fill: #ffbdf9;
      }

      .cls-2 {
        fill: #333;
      }

      .cls-3 {
        fill: #d1a384;
      }
    </style>
  </defs>
  <path class="cls-2" d="m76.9082,83.1792c-2.7248,0-4.9337,2.1695-4.9337,4.8457s2.2089,4.8457,4.9337,4.8457,4.9342-2.1695,4.9342-4.8457-2.2092-4.8457-4.9342-4.8457Z"/>
  <ellipse class="cls-2" cx="51.8863" cy="88.0249" rx="4.934" ry="4.8457"/>
  <path class="cls-2" d="m93.2697,86.717l.1266-10.7583c0-4.2581-1.3502-8.3507-3.8148-11.7606,10.3965-12.9516,14.7942-47.6047,7.4294-62.7448-.3318-.6828-.948-1.184-1.6832-1.3716-.7342-.1906-1.5148-.0434-2.1351.3974-13.7766,9.7973-26.7871,38.2566-25.79,55.0952h-7.0918c1.0358-16.8731-11.8296-45.3001-25.5033-55.0246-.6192-.4397-1.3998-.586-2.1351-.3974-.7352.1876-1.3514.6888-1.6832,1.3716-7.2592,14.9193-2.9548,49.4751,7.2688,62.5414-2.5266,3.4363-3.9103,7.5763-3.9103,11.8934v11.0591c-5.4176,4.3552-8.6149,10.9706-8.6149,17.9584,0,12.6954,10.3284,23.0238,23.0238,23.0238,5.6372,0,11.0578-2.0819,15.2435-5.7777,4.1859,3.6963,9.6068,5.7777,15.2435,5.7777,12.6954,0,23.0238-10.3284,23.0238-23.0238,0-7.1848-3.3382-13.9096-8.9976-18.2592Zm-14.0262,36.1194c-4.8669,0-9.5155-2.0135-12.8772-5.5157l3.8892-6.736c.4609-.7988.4609-1.7831,0-2.5818s-1.3131-1.2909-2.2359-1.2909h-8.2952c-.9228,0-1.775.4922-2.2359,1.2909s-.4609,1.7831,0,2.5818l3.9832,6.8974c-3.3481,3.401-7.9248,5.3543-12.7151,5.3543-9.8483,0-17.8601-8.0118-17.8601-17.8601,0-5.7749,2.8148-11.2219,7.5287-14.5713.0512-.0364.0908-.0819.1387-.1212.0751-.062.1515-.1218.2194-.1919.0585-.0605.1069-.127.1583-.1921.0524-.0657.1069-.1291.1528-.1999.0456-.0709.0812-.1459.1195-.2204.0386-.0745.0792-.1471.1104-.2256.0313-.0787.0517-.1599.0749-.241.0229-.0794.0492-.1567.0643-.239.0187-.0983.0232-.1977.0303-.2975.004-.0594.0176-.1159.0176-.1763v-12.3414c0-3.7921,1.422-7.4077,4.0029-10.1822.0456-.049.0777-.105.1185-.1564.0585-.0732.1193-.1445.1687-.2221.0431-.0679.0756-.1396.1117-.2103.0408-.0799.0842-.1582.116-.241.029-.0751.0471-.1523.0688-.2293.0234-.083.0494-.1648.0643-.2494.0141-.0798.0174-.16.024-.2406.0068-.084.0164-.1672.0151-.2514-.0013-.082-.0134-.1626-.0224-.2441-.0093-.0824-.0154-.1646-.0325-.2461-.0174-.0828-.0456-.1624-.0714-.2435-.0242-.0772-.0451-.1546-.0769-.2296-.035-.0827-.0812-.1604-.1251-.2397-.0378-.0682-.0716-.1373-.1162-.2026-.0537-.0791-.119-.1513-.1825-.2252-.0408-.0475-.0726-.0998-.1175-.1449-9.104-9.1726-13.7877-40.1084-9.0324-55.3231,12.059,10.993,22.9593,37.3036,20.448,50.8069-.0151.0809-.0129.1604-.0202.2407-.0068.0774-.0232.152-.0232.2313,0,.0075.002.0144.0023.0219.0008.1085.0179.2134.032.3191.0088.0649.0098.1321.0232.1953.0184.0864.0509.1674.0777.2507.0252.0774.0434.1575.0751.2315.0275.0637.0666.1209.0988.182.0451.0855.086.1737.1402.2532.0398.0584.0905.1085.1351.1635.059.0728.1135.1493.18.2152.0565.0561.123.1015.1846.1524.0661.0545.1281.1137.1992.1615.0605.0404.1288.0693.1931.1046.0832.0461.1639.0964.2526.1332.0582.0241.1223.0368.183.0568.1024.0338.2032.0702.3109.091.0078.0015.0144.005.0219.0064.0759.014.1503.0113.2257.0185.0822.0079.1619.0248.2463.0248h12.887c.0855,0,.1662-.017.2496-.0252.0736-.0072.1462-.0045.2204-.0182.0073-.0013.0136-.0047.0209-.0061.1107-.0213.2148-.0582.32-.0932.058-.0192.1198-.0314.1755-.0545.0888-.0367.1694-.0869.2529-.1329.0643-.0355.1329-.0646.1936-.1051.0681-.0455.1268-.1021.1899-.1536.0653-.0532.1351-.1014.1944-.1604.061-.0604.1107-.1308.1654-.1971.0502-.0607.1056-.1167.15-.1817.0502-.0738.0877-.156.1304-.235.0361-.0669.0784-.13.1087-.2001.0303-.0703.0474-.1466.0714-.22.0287-.0871.0623-.172.0814-.2624.0134-.0627.0141-.1291.0229-.1933.0144-.106.0313-.211.0323-.3197,0-.008.0023-.0154.0023-.0234,0-.0836-.0169-.1624-.0247-.2439-.0071-.0755-.0045-.15-.0187-.226-2.4386-13.1725,8.7833-39.9046,20.7455-50.8765,4.843,15.3751.0766,46.4167-9.1777,55.4582-.0529.0516-.0918.1114-.1392.1663-.0582.0674-.1203.1322-.1704.204-.0489.0698-.0857.1443-.1271.2177-.0416.0743-.087.1463-.1208.2235-.034.0774-.0557.1578-.0817.2375-.0255.0785-.055.1554-.0729.2357-.0182.0816-.0242.1642-.0345.247-.0098.0815-.024.1621-.0262.2441-.0023.0824.0073.1638.0129.246.0055.083.0073.1655.0209.2477.0134.0814.0386.1602.0598.2402.0217.0807.0388.1617.0683.2405.0295.0792.0711.1538.1087.2304.0371.0753.0698.1517.1147.2241.0456.0733.1031.1401.1566.2096.0451.0586.0812.1215.1321.177,2.5324,2.7624,3.9272,6.3487,3.9272,10.0692l-.1422,12.0661c0,.0043.001.0082.001.0125-.0008.1513.0151.3014.0403.4501.0111.0665.0295.1298.0456.1945.029.116.0572.2323.1024.3435.029.0715.0708.1355.1059.2037.0416.081.0769.1645.1273.2412.056.0855.1256.1604.1911.2385.0542.0645.1061.1298.1674.1895.1079.1054.2224.2038.3474.2892.003.002.005.0048.0081.0068,4.9317,3.3322,7.8766,8.87,7.8766,14.8123,0,9.8483-8.0118,17.8601-17.8601,17.8601Z"/>
  <path class="cls-3" d="m89.2269,90.1639c-.003-.002-.005-.0048-.0081-.0068-.1251-.0854-.2395-.1838-.3474-.2892-.0613-.0597-.1132-.1249-.1674-.1895-.0656-.078-.1351-.153-.1911-.2385-.0504-.0767-.0857-.1602-.1273-.2412-.035-.0681-.0769-.1321-.1059-.2037-.0451-.1112-.0734-.2276-.1024-.3435-.0161-.0647-.0345-.128-.0456-.1945-.0252-.1486-.0411-.2988-.0403-.4501,0-.0043-.001-.0082-.001-.0125l.1422-12.0661c0-3.7205-1.3948-7.3068-3.9272-10.0692-.0509-.0555-.087-.1184-.1321-.177-.0535-.0695-.1109-.1363-.1566-.2096-.0449-.0724-.0777-.1488-.1147-.2241-.0376-.0766-.0792-.1512-.1087-.2304-.0295-.0788-.0466-.1598-.0683-.2405-.0212-.0801-.0464-.1588-.0598-.2402-.0136-.0823-.0154-.1648-.0209-.2477-.0055-.0822-.0151-.1636-.0129-.246.0023-.0821.0164-.1626.0262-.2441.0103-.0828.0164-.1654.0345-.247.0179-.0802.0474-.1572.0729-.2357.026-.0797.0477-.1601.0817-.2375.0338-.0772.0792-.1493.1208-.2235.0413-.0733.0782-.1479.1271-.2177.0502-.0719.1122-.1366.1704-.204.0474-.0549.0862-.1147.1392-.1663,9.2543-9.0415,14.0206-40.0831,9.1777-55.4582-11.9622,10.9718-23.1842,37.704-20.7455,50.8765.0141.076.0116.1505.0187.226.0078.0815.0247.1604.0247.2439,0,.008-.0023.0154-.0023.0234-.001.1087-.0179.2137-.0323.3197-.0088.0642-.0096.1307-.0229.1933-.0192.0904-.0527.1753-.0814.2624-.024.0734-.0411.1496-.0714.22-.0303.07-.0726.1332-.1087.2001-.0426.079-.0802.1612-.1304.235-.0444.0649-.0998.121-.15.1817-.0547.0663-.1044.1367-.1654.1971-.0593.0591-.1291.1072-.1944.1604-.063.0516-.1218.1081-.1899.1536-.0608.0405-.1293.0697-.1936.1051-.0835.046-.1641.0961-.2529.1329-.0557.0231-.1175.0352-.1755.0545-.1051.035-.2093.0719-.32.0932-.0073.0014-.0136.0048-.0209.0061-.0741.0137-.1467.011-.2204.0182-.0835.0081-.1641.0252-.2496.0252h-12.887c-.0845,0-.1641-.0169-.2463-.0248-.0754-.0072-.1498-.0045-.2257-.0185-.0076-.0014-.0141-.0049-.0219-.0064-.1077-.0209-.2085-.0572-.3109-.091-.0608-.02-.1248-.0327-.183-.0568-.0888-.0368-.1694-.087-.2526-.1332-.0643-.0354-.1326-.0642-.1931-.1046-.0711-.0478-.1331-.107-.1992-.1615-.0615-.0509-.1281-.0963-.1846-.1524-.0666-.0659-.121-.1424-.18-.2152-.0446-.055-.0953-.1051-.1351-.1635-.0542-.0795-.0951-.1677-.1402-.2532-.0323-.0611-.0714-.1184-.0988-.182-.0318-.074-.0499-.1541-.0751-.2315-.0267-.0834-.0593-.1644-.0777-.2507-.0134-.0633-.0144-.1304-.0232-.1953-.0141-.1058-.0313-.2106-.032-.3191-.0003-.0075-.0023-.0144-.0023-.0219,0-.0792.0164-.1539.0232-.2313.0073-.0804.005-.1598.0202-.2407,2.5112-13.5033-8.389-39.8139-20.448-50.8069-4.7552,15.2147-.0716,46.1505,9.0324,55.3231.0449.0451.0766.0974.1175.1449.0635.0739.1288.1461.1825.2252.0446.0653.0784.1344.1162.2026.0439.0793.09.157.1251.2397.0318.0751.0527.1525.0769.2296.0257.0811.054.1607.0714.2435.0171.0815.0232.1636.0325.2461.0091.0816.0212.1621.0224.2441.0013.0842-.0083.1674-.0151.2514-.0066.0806-.0098.1608-.024.2406-.0149.0846-.0408.1663-.0643.2494-.0217.077-.0398.1542-.0688.2293-.0318.0828-.0751.1612-.116.241-.0361.0708-.0686.1424-.1117.2103-.0494.0777-.1102.1489-.1687.2221-.0408.0514-.0729.1074-.1185.1564-2.5808,2.7745-4.0029,6.3901-4.0029,10.1822v12.3414c0,.0604-.0136.1169-.0176.1763-.0071.0998-.0116.1992-.0303.2975-.0151.0823-.0413.1597-.0643.239-.0232.0811-.0436.1623-.0749.241-.0313.0785-.0719.1511-.1104.2256-.0383.0745-.0739.1495-.1195.2204-.0459.0708-.1003.1341-.1528.1999-.0514.0651-.0998.1316-.1583.1921-.0678.07-.1442.1298-.2194.1919-.0479.0393-.0875.0848-.1387.1212-4.7139,3.3493-7.5287,8.7964-7.5287,14.5713,0,9.8483,8.0118,17.8601,17.8601,17.8601,4.7903,0,9.367-1.9533,12.7151-5.3543l-3.9832-6.8974c-.4609-.7988-.4609-1.7831,0-2.5818s1.3131-1.2909,2.2359-1.2909h8.2952c.9228,0,1.775.4922,2.2359,1.2909s.4609,1.7831,0,2.5818l-3.8892,6.736c3.3617,3.5022,8.0103,5.5157,12.8772,5.5157,9.8483,0,17.8601-8.0118,17.8601-17.8601,0-5.9423-2.9449-11.4801-7.8766-14.8123ZM37.4831,24.9131c.2718-1.0634,1.5854-1.4162,2.3895-.6692,7.6777,7.1325,15.8156,32.2893,8.5077,34.3584-6.7632,1.915-13.36-24.0536-10.8972-33.6892Zm14.4031,67.9575c-2.7251,0-4.934-2.1695-4.934-4.8457s2.2089-4.8457,4.934-4.8457,4.934,2.1695,4.934,4.8457-2.2092,4.8457-4.934,4.8457Zm25.022,0c-2.7248,0-4.9337-2.1695-4.9337-4.8457s2.2089-4.8457,4.9337-4.8457,4.9342,2.1695,4.9342,4.8457-2.2092,4.8457-4.9342,4.8457Zm2.4812-34.1687c-7.356-1.8913.3656-27.1413,7.8681-34.4579.7859-.7664,2.1073-.4455,2.4048.611,2.6961,9.5731-3.4651,35.5973-10.2729,33.8469Z"/>
  <path class="cls-1" d="m89.6624,24.8549c-.2975-1.0565-1.6189-1.3773-2.4048-.611-7.5025,7.3167-15.2241,32.5666-7.8681,34.4579,6.8079,1.7504,12.969-24.2738,10.2729-33.8469Z"/>
  <path class="cls-1" d="m48.3803,58.6023c7.3078-2.0691-.83-27.2259-8.5077-34.3584-.8041-.7471-2.1177-.3943-2.3895.6692-2.4628,9.6357,4.134,35.6042,10.8972,33.6892Z"/>
</svg>