<?xml version="1.0" encoding="UTF-8"?>
<svg id="Salt_reduced" data-name="Salt reduced" xmlns="http://www.w3.org/2000/svg" viewBox="0 0 128 128">
  <defs>
    <style>
      .cls-1 {
        fill: #e3fbff;
      }

      .cls-2 {
        fill: #c1c1c1;
      }

      .cls-3 {
        fill: #333;
      }

      .cls-4 {
        fill: #377abe;
      }
    </style>
  </defs>
  <path class="cls-3" d="m65.2029,80.7393c0,1.5514-.2898,2.9526-.8696,4.2137-.5799,1.2511-1.4295,2.332-2.5391,3.2528-1.1197.9107-2.4791,1.6112-4.0886,2.1117-1.6093.5004-3.4587.7406-5.558.7406-2.9889,0-5.5181-.4904-7.5973-1.4813-1.7294-.8307-3.2589-1.8715-4.5785-3.1326-.4398-.4104-.3998-1.1111.04-1.5113l2.879-2.6023c.3999-.3503,1.0097-.3602,1.3995,0,1.0197.9708,2.1391,1.7315,3.3488,2.282,1.4795.6806,3.1189,1.0209,4.9083,1.0209,2.0293,0,3.5588-.4103,4.5883-1.221,1.0297-.8208,1.5394-1.9117,1.5394-3.2929,0-1.0809-.3297-1.9516-.9896-2.6323-.6697-.6706-1.9192-1.161-3.7387-1.4712l-3.2887-.4605c-6.9476-1.0208-10.4163-4.1735-10.4163-9.438,0-1.4512.2899-2.7724.8797-3.9533.5798-1.171,1.4195-2.1819,2.5091-3.0126,1.0996-.8408,2.4192-1.4813,3.9587-1.9317,1.5494-.4503,3.2988-.6806,5.2581-.6806,2.6189,0,4.9182.4105,6.8774,1.2111,1.5895.6606,2.9989,1.5713,4.2185,2.7423.4499.4304.4599,1.151-.01,1.5613l-2.9189,2.5823c-.3999.3503-.9996.3503-1.3895-.01-.7197-.6805-1.5494-1.2611-2.4891-1.7315-1.2295-.6106-2.7789-.9208-4.6384-.9208-1.8892,0-3.3089.3302-4.2585.9908-.9396.6606-1.4194,1.5913-1.4194,2.7824,0,1.231.3797,2.1318,1.1495,2.7223.7597.5805,1.9893,1.0109,3.6888,1.2811l3.2288.5604c3.5288.5906,6.1278,1.6315,7.7972,3.1328,1.6795,1.5113,2.5191,3.6029,2.5191,6.2953Z"/>
  <path class="cls-1" d="m76.409,38.1629c.0099-1.8116-.7597-3.5331-2.1493-4.8342-1.4394-1.3511-3.3688-2.1018-5.438-2.1118l-32.9883-.1101h-.02c-4.1886,0-7.6074,3.0926-7.6174,6.9058l-.01.2203-6.6475,70.6206c.02,1.7816.7798,3.453,2.1393,4.734,1.4494,1.3513,3.3788,2.1019,5.448,2.1119l38.0965.1201-7.4473-7.6967c-2.1192-2.1818-2.719-5.4146-1.5295-8.217,1.1795-2.8025,3.9187-4.6139,6.9575-4.6139h2.0393v-30.196c0-4.1835,3.3888-7.5666,7.5574-7.5666h3.2789l-1.6695-19.3665Zm-12.0757,46.7902c-.5799,1.2511-1.4295,2.332-2.5391,3.2528-1.1197.9107-2.4791,1.6112-4.0886,2.1117-1.6093.5004-3.4587.7406-5.558.7406-2.9889,0-5.5181-.4904-7.5973-1.4813-1.7294-.8307-3.2589-1.8715-4.5785-3.1326-.4398-.4104-.3998-1.1111.04-1.5113l2.879-2.6023c.3999-.3503,1.0097-.3602,1.3995,0,1.0197.9708,2.1391,1.7315,3.3488,2.282,1.4795.6806,3.1189,1.0209,4.9083,1.0209,2.0293,0,3.5588-.4103,4.5883-1.221,1.0297-.8208,1.5394-1.9117,1.5394-3.2929,0-1.0809-.3297-1.9516-.9896-2.6323-.6697-.6706-1.9192-1.161-3.7387-1.4712l-3.2887-.4605c-6.9476-1.0208-10.4163-4.1735-10.4163-9.438,0-1.4512.2899-2.7724.8797-3.9533.5798-1.171,1.4195-2.1819,2.5091-3.0126,1.0996-.8408,2.4192-1.4813,3.9587-1.9317,1.5494-.4503,3.2988-.6806,5.2581-.6806,2.6189,0,4.9182.4105,6.8774,1.2111,1.5895.6606,2.9989,1.5713,4.2185,2.7423.4499.4304.4599,1.151-.01,1.5613l-2.9189,2.5823c-.3999.3503-.9996.3503-1.3895-.01-.7197-.6805-1.5494-1.2611-2.4891-1.7315-1.2295-.6106-2.7789-.9208-4.6384-.9208-1.8892,0-3.3089.3302-4.2585.9908-.9396.6606-1.4194,1.5913-1.4194,2.7824,0,1.231.3797,2.1318,1.1495,2.7223.7597.5805,1.9893,1.0109,3.6888,1.2811l3.2288.5604c3.5288.5906,6.1278,1.6315,7.7972,3.1328,1.6795,1.5113,2.5191,3.6029,2.5191,6.2953,0,1.5514-.2898,2.9526-.8696,4.2137Z"/>
  <path class="cls-3" d="m81.4471,38.0627c-.02-3.1827-1.3395-6.1752-3.7387-8.4171-1.0796-1.0209-2.3391-1.8216-3.6886-2.4021l.02-5.6148c2.1992-.9608,3.7287-3.0727,3.7387-5.5248l.03-7.1361-.02-.1401c-.2199-2.0518-2.719-8.7475-25.7108-8.8276h-.38c-22.6219,0-25.151,6.6158-25.3909,8.6576l-.04,7.2761c-.01,1.6615.6697,3.2128,1.9094,4.3737.5898.5505,1.2694.9808,2.0092,1.2711l-.0299,5.765c-4.0885,1.9416-6.9376,5.915-6.9975,10.5291l-6.6477,70.6306-.01.2303c-.02,3.2328,1.3096,6.2654,3.7387,8.5372,2.3693,2.232,5.5181,3.4631,8.867,3.4731l43.0146.14-4.8983-5.0643-38.0965-.1201c-2.0692-.01-3.9986-.7607-5.448-2.1119-1.3595-1.281-2.1192-2.9525-2.1393-4.734l6.6475-70.6206.01-.2203c.01-3.8132,3.4288-6.9058,7.6174-6.9058h.02l32.9883.1101c2.0692.01,3.9986.7607,5.438,2.1118,1.3895,1.3012,2.1591,3.0226,2.1493,4.8342l1.6695,19.3665h5.0481l-1.6795-19.4667Zm-12.4655-11.9602l-33.7781-.1002.02-3.8232,33.7781.1001-.02,3.8233Zm3.7587-10.0186c0,.5706-.5998,1.0409-1.3096,1.0409l-38.8261-.1202c-.38-.01-.7298-.14-.9798-.3802-.15-.1302-.3198-.3604-.3198-.6706l.03-6.5455c.3198-.4505,1.8492-2.1219,7.2474-3.2528.0799.6605.3898,1.3111.9396,1.8314,1.3096,1.2312,3.4487,1.2312,4.7683.01.7998-.7406,1.1096-1.7615.9496-2.7323,1.1097-.08,2.2992-.14,3.5888-.1801-.2599,1.0209.03,2.1318.8796,2.9324,1.3096,1.231,3.4488,1.2411,4.7683.01.8598-.7907,1.1496-1.9015.9097-2.9124,1.4396.05,2.769.13,3.9886.2302-.2299,1.061.0899,2.1918.9597,3.0126,1.3794,1.3012,3.6386,1.3111,5.0381.02.5798-.5505.9097-1.231,1.0097-1.9417,4.6984,1.151,6.0778,2.6723,6.3777,3.1127l-.02,6.5356Z"/>
  <path class="cls-2" d="m72.7603,9.5482l-.02,6.5356c0,.5706-.5998,1.0409-1.3096,1.0409l-38.8261-.1202c-.38-.01-.7298-.14-.9798-.3802-.15-.1302-.3198-.3604-.3198-.6706l.03-6.5455c.3198-.4505,1.8492-2.1219,7.2474-3.2528.0799.6605.3898,1.3111.9396,1.8314,1.3096,1.2312,3.4487,1.2312,4.7683.01.7998-.7406,1.1096-1.7615.9496-2.7323,1.1097-.08,2.2992-.14,3.5888-.1801-.2599,1.0209.03,2.1318.8796,2.9324,1.3096,1.231,3.4488,1.2411,4.7683.01.8598-.7907,1.1496-1.9015.9097-2.9124,1.4396.05,2.769.13,3.9886.2302-.2299,1.061.0899,2.1918.9597,3.0126,1.3794,1.3012,3.6386,1.3111,5.0381.02.5798-.5505.9097-1.231,1.0097-1.9417,4.6984,1.151,6.0778,2.6723,6.3777,3.1127Z"/>
  <polygon class="cls-2" points="69.0016 22.2791 68.9816 26.1025 35.2035 26.0023 35.2236 22.1791 69.0016 22.2791"/>
  <path class="cls-3" d="m111.2967,101.8775c-.39-.9407-1.3096-1.5414-2.3192-1.5414h-7.0774v-35.2402c0-1.3911-1.1296-2.5222-2.5191-2.5222h-24.5812c-1.3895,0-2.5191,1.1311-2.5191,2.5222v35.2402h-7.0776c-1.0097,0-1.9292.6006-2.3191,1.5414-.3999.9309-.2,2.0117.5098,2.7323l10.8661,11.2396,4.3684,4.5139,6.6477,6.876c.4798.4904,1.1296.7607,1.8194.7607.6797,0,1.3294-.2703,1.8093-.7607l21.8822-22.6295c.7097-.7206.9096-1.8015.5098-2.7323Zm-24.2014,19.9771l-3.8287-3.9533-3.5088-3.6231-8.6069-8.8977h3.6487c1.3994,0,2.5191-1.131,2.5191-2.5222v-35.2402h19.543v35.2402c0,1.3912,1.1296,2.5222,2.5191,2.5222h3.6487l-15.9343,16.4741Z"/>
  <path class="cls-4" d="m103.0296,105.3805l-15.9343,16.4741-3.8287-3.9533-3.5088-3.6231-8.6069-8.8977h3.6487c1.3994,0,2.5191-1.131,2.5191-2.5222v-35.2402h19.543v35.2402c0,1.3912,1.1296,2.5222,2.5191,2.5222h3.6487Z"/>
</svg>