<?xml version="1.0" encoding="UTF-8"?>
<svg id="Spicy" xmlns="http://www.w3.org/2000/svg" viewBox="0 0 128 128">
  <defs>
    <style>
      .cls-1 {
        fill: #e9470f;
      }

      .cls-2 {
        fill: #ef8000;
      }

      .cls-3 {
        fill: #41ba54;
      }

      .cls-4 {
        fill: #3a3a3a;
      }
    </style>
  </defs>
  <path class="cls-4" d="m49.9214,39.8193c-3.1396-1.874-10.4912-3.834-15.8452,2.168-6.4077,7.1807.9331,19.1914,1.249,19.6992.459.7383,1.2651,1.1797,2.1226,1.1797.0884,0,.1777-.0049.2671-.0146.9546-.1025,1.7661-.7422,2.0884-1.6465,3.3975-9.5332,5.5503-13.0996,10.4697-17.3467.6079-.5244.9268-1.3096.8574-2.1094-.0698-.7998-.5195-1.5176-1.209-1.9297Zm-12.6714,14.042c-.937-2.9004-1.394-6.3594.5566-8.5449.291-.3262,2.2827-2.4219,5.3882-2.4219.2598,0,.5273.0146.8022.0469-2.959,3.1543-4.8755,6.4336-6.7471,10.9199Z"/>
  <path class="cls-2" d="m37.8066,45.3163c-1.9507,2.1855-1.4937,5.6445-.5566,8.5449,1.8716-4.4863,3.7881-7.7656,6.7471-10.9199-.2749-.0322-.5425-.0469-.8022-.0469-3.1055,0-5.0972,2.0957-5.3882,2.4219Z"/>
  <path class="cls-2" d="m48.6421,71.9511c.8003,4.54,1.7065,9.6846.0151,15.04-2.79,8.834-12.9907,10.4277-13.4238,10.4912-.6694.0986-1.3555-.0801-1.8931-.4961-.5371-.416-.8818-1.0332-.9551-1.708-.022-.2002-.4922-4.9326,2.7954-8.3711,1.415-1.4795,2.0293-3.3516,1.8779-5.7236-.1436-2.249-.9692-4.5566-1.9263-6.4971-1.2793,5.7363-4.7471,8.3184-7.6772,10.501-3.8877,2.8965-6.6963,4.9883-4.106,14.9385.7092,2.7252,5.1091,10.0019,12.0081,14.4446,12.1377-5.7225,20.6899-16.1667,25.4475-31.1595.1566-.4937.2904-1.0056.4143-1.5253-7.2902-8.4861-10.3481-17.6741-11.6028-23.2052-2.6333,3.8555-1.9033,7.9941-.9741,13.2705Z"/>
  <path class="cls-1" d="m97.5366,44.9507c-.8447,3.3031-3.6819,5.5156-7.2878,5.5156-4.2466,0-9.1058-3.0369-11.0625-6.9138-.5488-1.0876-.8579-2.2226-.9434-3.3524-3.5273-.1628-6.7587.1902-9.1589,1.3066-3.9688,1.8477-3.2725,10.9277-2.5991,19.709.501,6.5331,1.0093,13.2396.1072,19.1934-.2365,1.5611-.5647,3.0733-1.0217,4.5137-.1989.6267-.4219,1.2292-.6343,1.8424-4.7744,13.7855-12.9471,24.1395-23.9755,30.4858-1.8917,1.0886-3.8654,2.061-5.922,2.9107-1.2732.526-2.5658,1.0228-3.9004,1.4554.5005.2266,1.1851.4746,2.0962.7031,2.9189.7311,6.0443.8356,9.2937.4294,7.4238-.9279,15.51-4.5984,23.3774-10.0177,12.2614-8.4457,23.9805-21.1148,31.781-34.2242,8.0195-13.4756,10.1328-24.9717,5.5151-30-1.0413-1.1339-3.0692-2.3803-5.665-3.5571Z"/>
  <path class="cls-4" d="m106.8843,45.1249c-1.7385-1.8926-4.9424-3.7921-8.8679-5.4152.8967-22.8207-9.3296-34.7725-10.5616-36.1235C85.2593,1.179,83.1415.0089,80.9806.0089c-.3776,0-.7544.037-1.1202.11-2.4661.4918-4.4427,2.2167-5.287,4.614-.9609,2.7288-.3748,6.1372,1.4255,8.2888.9407,1.1243,3.2271,5.2346,4.5022,10.0781.7725,2.9338,1.7162,8.3324-.641,11.5251-.1682.2278-.307.4675-.4496.7056-4.7494-.3074-9.1782.1269-12.4364,1.6432-7.1089,3.3096-6.3149,13.6631-5.4746,24.625.3416,4.4556.6873,8.9963.5627,13.1941-7.345-10.6513-8.2924-21.4319-8.302-21.5535-.0693-.9189-.6382-1.7246-1.4805-2.0977-.8438-.373-1.8218-.252-2.5483.3135-8.5981,6.6953-7.2246,14.4883-6.0132,21.3643.7681,4.3604,1.4937,8.4785.1714,12.666-.9922,3.1416-3.6245,4.9424-5.8496,5.9365.1938-.3701.4404-.7305.7544-1.0596,1.7285-1.8066,6.7905-8.627-.6265-20.5078-3.0146-4.8281-4.5586-4.8193-5.7729-4.4365-1.1523.3672-1.8774,1.4502-1.8042,2.6943.4785,8.1484-2.5806,10.4277-6.1226,13.0654-4.4043,3.2812-9.3965,6.999-5.958,20.208.8928,3.4298,4.9543,10.2673,11.3411,15.3745-.2268.0748-.4446.1619-.6736.2339-3.7368,1.1748-4.0737,3.5557-4.0454,4.5254.0435,1.4766.9961,4.1738,6.8862,5.6504,2.2212.5566,4.5186.8213,6.8765.8213,21.9082-.002,48.7788-22.8789,63.0884-46.9258,9.4722-15.917,11.2583-29.0166,4.9009-35.9404Zm-27.0507-35.3119c-.981-1.1724-1.2327-4.3446,1.005-4.7908.0447-.0089.0919-.0134.142-.0134,2.6168,0,12.3477,12.1932,12.0748,32.9177-.022,1.6713-.1025,3.3923-.2637,5.1727-.0034.038-.0051.0746-.0085.1125-.1478,1.6033-1.1886,2.2546-2.5344,2.2546-2.4597,0-5.9224-2.1797-6.8154-4.7045-.3679-1.0401-.311-2.1373.4492-3.1672.3793-.5137.7064-1.0545.9906-1.6156,4.4452-8.7759-2.2535-22.8364-5.0396-26.166ZM23.3491,100.1259c-2.5903-9.9502.2183-12.042,4.106-14.9385,2.9302-2.1826,6.3979-4.7646,7.6772-10.501.957,1.9404,1.7827,4.248,1.9263,6.4971.1514,2.3721-.4629,4.2441-1.8779,5.7236-3.2876,3.4385-2.8174,8.1709-2.7954,8.3711.0732.6748.418,1.292.9551,1.708.5376.416,1.2236.5947,1.8931.4961.4331-.0635,10.6338-1.6572,13.4238-10.4912,1.6914-5.3555.7852-10.5-.0151-15.04-.9292-5.2764-1.6592-9.415.9741-13.2705,1.2546,5.5311,4.3126,14.7191,11.6028,23.2052-.1239.5197-.2577,1.0316-.4143,1.5253-4.7576,14.9928-13.3098,25.437-25.4475,31.1595-6.8989-4.4427-11.2988-11.7195-12.0081-14.4446Zm74.3374-21.6182c-7.8005,13.1094-19.5197,25.7786-31.781,34.2242-7.8674,5.4193-15.9536,9.0898-23.3774,10.0177-3.2494.4061-6.3748.3017-9.2937-.4294-.9111-.2285-1.5957-.4766-2.0962-.7031,1.3346-.4326,2.6272-.9294,3.9004-1.4554,2.0566-.8497,4.0303-1.8221,5.922-2.9107,11.0283-6.3463,19.201-16.7003,23.9755-30.4858.2124-.6132.4354-1.2157.6343-1.8424.457-1.4404.7853-2.9526,1.0217-4.5137.9021-5.9537.3938-12.6603-.1072-19.1934-.6733-8.7813-1.3696-17.8613,2.5991-19.709,2.4003-1.1165,5.6316-1.4695,9.1589-1.3066.0854,1.1298.3945,2.2648.9434,3.3524,1.9567,3.8769,6.8159,6.9138,11.0625,6.9138,3.606,0,6.4431-2.2125,7.2878-5.5156,2.5958,1.1768,4.6238,2.4232,5.665,3.5571,4.6177,5.0283,2.5044,16.5244-5.5151,30Z"/>
  <path class="cls-3" d="m84.8732,35.979c-.2842.5611-.6113,1.1019-.9906,1.6156-.7603,1.0298-.8171,2.1271-.4492,3.1672.8931,2.5248,4.3557,4.7045,6.8154,4.7045,1.3458,0,2.3866-.6513,2.5344-2.2546.0034-.038.0051-.0746.0085-.1125.1611-1.7804.2417-3.5014.2637-5.1727.2728-20.7244-9.458-32.9177-12.0748-32.9177-.05,0-.0973.0045-.142.0134-2.2377.4462-1.986,3.6185-1.005,4.7908,2.786,3.3296,9.4847,17.3901,5.0396,26.166Z"/>
</svg>