<?xml version="1.0" encoding="UTF-8"?>
<svg id="Vegetarian" xmlns="http://www.w3.org/2000/svg" viewBox="0 0 128 128">
  <defs>
    <style>
      .cls-1 {
        fill: #333;
      }

      .cls-2 {
        fill: #54b236;
      }
    </style>
  </defs>
  <path class="cls-1" d="m118.6972,15.0025c-.6396-.8797-1.7363-1.3036-2.8035-1.071-2.9632.6396-6.097,1.146-9.415,1.6819-12.2349,1.9769-24.8861,4.0211-31.0822,13.1151-3.3436,4.9074-4.3387,11.2176-3.0356,19.2159-13.4239,13.7195-21.0455,29.0416-24.518,37.3448-1.4502-4.4905-3.7785-11-7.0682-18.1727-8.1139-17.6915-17.7598-30.2378-28.6696-37.2908-.8363-.5393-1.9331-.439-2.6548.2461-.7226.6842-.8831,1.7738-.3885,2.6375.2507.4382,25.1309,44.1492,28.7278,72.229.6868,5.3635,3.2986,8.788,6.986,9.1622.2065.0211.4116.0312.6164.0312,3.1435,0,6.0456-2.4361,7.3505-6.2508,6.1991-18.118,19.3121-38.9306,29.6978-53.7956,27.4061-5.5721,29.6144-14.3246,32.1497-24.4466.9303-3.7144,1.8922-7.5552,4.2592-11.6261.5494-.9446.4896-2.126-.1521-3.01Zm-38.3896,34.5886c-.8503,1.2009-1.7211,2.4449-2.6085,3.7275-.7029,1.0161-1.4123,2.0481-2.1319,3.1096-9.0063,13.2819-20.9846,32.7481-26.9064,50.0554-.8346,2.4403-2.3776,3.438-3.4494,3.3243-1.1443-.1154-2.6539-1.6044-3.1423-5.4174-2.6885-20.9872-16.3239-49.4108-24.0093-64.1361,18.6951,18.76,27.3505,51.948,27.4474,52.3272.238.9328,1.0664,1.5951,2.0291,1.6221.9901.0632,1.8273-.5873,2.118-1.5058.0913-.2886,7.0595-21.7029,24.6238-40.406,1.099-1.1702,2.2396-2.3283,3.4225-3.4714,2.6017-2.5142,5.3987-4.9528,8.4208-7.2456-1.7487,2.353-3.7184,5.0569-5.8138,8.0163Zm30.0975-21.0008c-2.2046,8.8021-3.8525,15.3436-24.2482,20.2602,6.3087-8.7475,10.9116-14.4422,11.0346-14.5933.651-.8014.6434-1.9507-.0177-2.7428-.6606-.7913-1.7902-1.0044-2.6948-.509-6.92,3.8021-12.9748,8.3339-18.2446,13.1819-.4505-5.3906.4502-9.6868,2.7279-13.0293,5.1507-7.5603,16.8708-9.4537,28.2049-11.2848,2.1298-.3446,4.3077-.696,6.4261-1.0862-1.6107,3.5038-2.4386,6.8103-3.1882,9.8034Z"/>
  <path class="cls-2" d="m74.278,52.2918c-17.5643,18.703-24.5325,40.1174-24.6238,40.406-.2907.9185-1.1279,1.569-2.118,1.5058-.9627-.027-1.7911-.6893-2.0291-1.6221-.0969-.3792-8.7522-33.5672-27.4474-52.3272,7.6854,14.7254,21.3209,43.149,24.0093,64.1361.4883,3.813,1.9979,5.302,3.1423,5.4174,1.0719.1138,2.6148-.8839,3.4494-3.3243,5.9218-17.3073,17.9001-36.7735,26.9064-50.0554.7196-1.0615,1.429-2.0935,2.1319-3.1096.8874-1.2827,1.7581-2.5266,2.6085-3.7275,2.0954-2.9594,4.0651-5.6634,5.8138-8.0163-3.0221,2.2928-5.8191,4.7314-8.4208,7.2456-1.1829,1.1431-2.3236,2.3012-3.4225,3.4714Z"/>
  <path class="cls-2" d="m78.9622,31.1578c-2.2777,3.3425-3.1784,7.6388-2.7279,13.0293,5.2698-4.848,11.3245-9.3798,18.2446-13.1819.9046-.4955,2.0342-.2823,2.6948.509.6611.7921.6686,1.9415.0177,2.7428-.123.1512-4.7258,5.8458-11.0346,14.5933,20.3957-4.9165,22.0436-11.4581,24.2482-20.2602.7495-2.9931,1.5774-6.2997,3.1882-9.8034-2.1184.3901-4.2963.7415-6.4261,1.0862-11.3341,1.8311-23.0542,3.7245-28.2049,11.2848Z"/>
</svg>