<?xml version="1.0" encoding="UTF-8"?>
<svg id="Chicken" xmlns="http://www.w3.org/2000/svg" viewBox="0 0 128 128">
  <defs>
    <style>
      .cls-1 {
        fill: #f9f9f9;
      }

      .cls-2 {
        fill: #ffa124;
      }

      .cls-3 {
        fill: red;
      }

      .cls-4 {
        fill: #333;
      }
    </style>
  </defs>
  <path class="cls-4" d="m106.7117,98.9838c-2.6483-9.9586-6.6505-25.0091-6.6505-46.2626,0-10.8561-3.2153-19.9721-9.3156-26.4895.8627-1.4239,1.4002-3.0124,1.5275-4.7236.3123-4.2078-1.8474-8.5596-5.3729-10.8299-2.3859-1.5361-5.1252-1.9786-7.8145-1.3227C76.3258,2.748,69.693-.1195,63.7405.0038c-5.7155.1243-11.9896,3.1671-14.4415,9.6296-3.1241-.8097-6.2452-.3221-8.8694,1.4509-3.3903,2.289-5.3288,6.3685-4.9387,10.3933.1536,1.5869.6561,3.076,1.4663,4.4197-6.532,6.6523-9.9755,15.8833-9.9755,26.8238,0,18.7512-3.4741,34.4322-5.7733,44.8088-2.0589,9.2929-3.0922,13.9569-1.2062,16.6326,5.7532,8.1631,20.8404,13.3215,40.3577,13.7993,1.0701.0255,2.1206.0382,3.1554.0382,24.685,0,39.2343-7.2829,44.2743-13.7396,2.2253-2.8519,1.0524-7.2643-1.0779-15.2766ZM43.2349,15.2384c1.8787-1.2698,4.2176-1.2894,6.5878-.0578.7088.3701,1.5498.3769,2.2655.0245.7157-.3534,1.2208-1.027,1.3589-1.8131,1.0637-6.0386,6.2687-8.2874,10.4026-8.3775,4.6548-.1067,9.9248,2.3869,11.2073,8.1738.1703.7695.6931,1.4137,1.4108,1.7397.7186.326,1.5469.2957,2.239-.0832,2.4113-1.3227,4.3106-.7049,5.4796.048,1.9952,1.2845,3.265,3.8524,3.0878,6.2442-.1752,2.3516-1.6604,4.2235-4.2959,5.412v.001c-2.9096,1.3129-5.1722.4357-8.9169-1.2306-2.8343-1.261-6.0474-2.6894-10.0614-2.6894-4.2685,0-7.4513,1.447-10.2596,2.7246-3.5602,1.6183-5.554,2.4074-8.4676,1.1719-2.8627-1.213-4.5647-3.1779-4.7928-5.5324-.212-2.1871.8953-4.5006,2.755-5.7557Zm60.6033,95.9382c-5.788,7.4141-23.6208,12.2642-43.3559,11.7737-17.6703-.4317-31.6116-4.9059-36.3427-11.6092-.5698-1.2952.7754-7.3681,1.9629-12.7263,2.3462-10.5901,5.8917-26.5941,5.8917-45.8936,0-9.5168,2.9044-17.4918,8.4168-23.1867.8702.6136,1.839,1.1552,2.9055,1.6071,5.0752,2.1499,9.0187.3573,12.4982-1.2238,2.5729-1.1699,5.0028-2.2752,8.1851-2.2752,2.9498,0,5.415,1.0965,8.025,2.2566,2.4681,1.0975,5.1555,2.2929,8.1787,2.2929,1.5214,0,3.129-.3035,4.8364-1.073.807-.3643,1.5347-.8005,2.2202-1.2699,5.0999,5.5652,7.7884,13.4291,7.7884,22.872,0,21.9085,4.1031,37.3399,6.8189,47.551,1.2326,4.6347,2.6287,9.8881,1.9708,10.9043Z"/>
  <path class="cls-1" d="m95.0486,52.7211c0-9.4429-2.6885-17.3068-7.7884-22.872-.6855.4694-1.4132.9057-2.2202,1.2699-1.7074.7695-3.315,1.073-4.8364,1.073-3.0232,0-5.7106-1.1954-8.1787-2.2929-2.6101-1.1601-5.0752-2.2566-8.025-2.2566-3.1823,0-5.6122,1.1053-8.1851,2.2752-3.4794,1.5811-7.4229,3.3737-12.4982,1.2238-1.0665-.4519-2.0353-.9935-2.9055-1.6071-5.5124,5.6949-8.4168,13.6699-8.4168,23.1867,0,19.2994-3.5455,35.3035-5.8917,45.8936-1.1876,5.3582-2.5327,11.431-1.9629,12.7263,4.7311,6.7034,18.6724,11.1775,36.3427,11.6092,19.7351.4905,37.568-4.3596,43.3559-11.7737.6579-1.0162-.7382-6.2696-1.9708-10.9043-2.7158-10.2112-6.8189-25.6425-6.8189-47.551Z"/>
  <path class="cls-3" d="m45.2727,26.5265c2.9136,1.2355,4.9073.4464,8.4676-1.1719,2.8083-1.2776,5.9911-2.7246,10.2596-2.7246,4.014,0,7.2271,1.4284,10.0614,2.6894,3.7448,1.6663,6.0073,2.5435,8.9169,1.2306v-.001c2.6355-1.1885,4.1207-3.0604,4.2959-5.412.1772-2.3917-1.0926-4.9597-3.0878-6.2442-1.169-.7529-3.0683-1.3706-5.4796-.048-.6922.3789-1.5204.4092-2.239.0832-.7176-.326-1.2404-.9702-1.4108-1.7397-1.2825-5.787-6.5526-8.2806-11.2073-8.1738-4.1339.0901-9.3389,2.3389-10.4026,8.3775-.138.7862-.6432,1.4597-1.3589,1.8131-.7157.3524-1.5566.3456-2.2655-.0245-2.3702-1.2316-4.7091-1.212-6.5878.0578-1.8596,1.2551-2.9669,3.5685-2.755,5.7557.2281,2.3545,1.9301,4.3194,4.7928,5.5324Z"/>
  <g>
    <ellipse class="cls-4" cx="75.7715" cy="54.9392" rx="4.6424" ry="4.5593"/>
    <ellipse class="cls-4" cx="52.2284" cy="54.9392" rx="4.6424" ry="4.5593"/>
  </g>
  <path class="cls-4" d="m83.1339,97.3097l-10.2435-10.2435c-.4149-.4149-.8612-.7847-1.3208-1.1332,2.9484-4.1885,5.9104-9.4219,5.9104-13.5443,0-3.4227-3.3845-5.0596-6.3715-6.5046-1.9365-.9359-4.1315-1.9982-5.0772-3.3071-.4983-.6892-1.3202-1.0789-2.1607-1.0358-.8493.0441-1.6183.5159-2.0427,1.2531-.6545,1.1366-2.965,2.2331-4.8217,3.1152-3.0408,1.4441-6.487,3.08-6.487,6.4792,0,4.3504,2.8963,9.5128,5.8164,13.6136-.4259.3293-.8403.6769-1.2272,1.0639-.0181.0176-.0372.0372-.0558.0578l-10.1867,10.1867c-2.3751,2.3751-3.6831,5.5324-3.6831,8.8915s1.308,6.5164,3.6826,8.8905c2.3751,2.3751,5.5329,3.6841,8.8915,3.6841s6.5164-1.309,8.891-3.6841l1.352-1.352,1.352,1.352c2.3751,2.3751,5.5324,3.6831,8.8915,3.6831s6.5164-1.309,8.8905-3.6841c2.3751-2.3741,3.6831-5.5315,3.6831-8.8905s-1.308-6.5164-3.6831-8.8915Zm-27.6006-24.7829c.4406-.5786,2.4206-1.5185,3.6229-2.0892,1.6614-.7891,3.4638-1.6448,4.925-2.8029,1.4901,1.1396,3.2376,1.9845,4.8452,2.7628,1.1876.5737,3.1495,1.5234,3.5401,2.0892-.059,2.8072-2.6274,7.2689-5.5071,11.2599-.9899,1.3719-2.016,2.6889-2.9904,3.863-.9325-1.0917-1.9934-2.4108-3.0413-3.8351-2.7045-3.676-5.3196-8.0759-5.3944-11.2477Zm24.0565,39.0218c-2.9478,2.9478-7.7441,2.9478-10.6938,0l-3.1231-3.1241c-.4699-.4699-1.1078-.7343-1.7725-.7343s-1.3021.2643-1.772.7343l-3.125,3.1241c-1.4279,1.4284-3.3267,2.2155-5.3464,2.2155s-3.9185-.7871-5.3469-2.2155c-1.4279-1.4284-2.2145-3.3267-2.2145-5.3464s.7866-3.919,2.2145-5.3474l10.2239-10.2239c.0171-.0166.0348-.0352.0529-.0538.2249-.2222.4633-.4214.7076-.6096,1.3748,1.655,2.4546,2.8062,2.7924,3.1599.4734.4964,1.1283.7764,1.8131.7764h.0274c.6946-.0078,1.355-.3035,1.8229-.8165.3294-.3606,1.3686-1.5164,2.6973-3.1602.2769.2089.5466.4313.7988.6833l10.2435,10.2435c1.4284,1.4284,2.2145,3.3277,2.2145,5.3474s-.7862,3.919-2.2145,5.3474Z"/>
  <path class="cls-3" d="m69.3464,90.6102c-.2522-.252-.5219-.4744-.7988-.6833-1.3287,1.6438-2.3679,2.7996-2.6973,3.1602-.468.513-1.1283.8087-1.8229.8165h-.0274c-.6848,0-1.3398-.28-1.8131-.7764-.3377-.3537-1.4176-1.5049-2.7924-3.1599-.2444.1882-.4828.3874-.7076.6096-.0181.0186-.0357.0372-.0529.0538l-10.2239,10.2239c-1.4279,1.4284-2.2145,3.3277-2.2145,5.3474s.7866,3.918,2.2145,5.3464c1.4284,1.4284,3.3272,2.2155,5.3469,2.2155s3.9185-.7871,5.3464-2.2155l3.125-3.1241c.4699-.4699,1.1073-.7343,1.772-.7343s1.3026.2643,1.7725.7343l3.1231,3.1241c2.9498,2.9478,7.746,2.9478,10.6938,0,1.4284-1.4284,2.2145-3.3277,2.2145-5.3474s-.7862-3.919-2.2145-5.3474l-10.2435-10.2435Z"/>
  <path class="cls-2" d="m63.9691,87.6095c.9744-1.1741,2.0004-2.4911,2.9904-3.863,2.8797-3.991,5.4481-8.4527,5.5071-11.2599-.3906-.5659-2.3526-1.5155-3.5401-2.0892-1.6076-.7783-3.3551-1.6232-4.8452-2.7628-1.4612,1.1582-3.2636,2.0138-4.925,2.8029-1.2022.5708-3.1823,1.5106-3.6229,2.0892.0748,3.1717,2.6899,7.5717,5.3944,11.2477,1.0479,1.4244,2.1089,2.7434,3.0413,3.8351Z"/>
</svg>