<?xml version="1.0" encoding="UTF-8"?>
<svg id="ClimateFriendly" xmlns="http://www.w3.org/2000/svg" viewBox="0 0 128 128">
  <defs>
    <style>
      .cls-1 {
        fill: #66c8ff;
      }

      .cls-2 {
        fill: #ffd93d;
      }

      .cls-3 {
        fill: #333;
      }

      .cls-4 {
        fill: #4ecc56;
      }
    </style>
  </defs>
  <path class="cls-3" d="m106.4049,34.482c-.0045-.0526-.0121-.1045-.0199-.157-1.6206-11.1637-7.8562-20.8461-16.7031-27.0563-.1536-.1367-.3171-.2587-.496-.353-6.4187-4.3624-14.1614-6.9157-22.4901-6.9157-3.8909,0-7.6497.5675-11.2097,1.6057-.0496.0148-.0999.02-.1492.038-.0078.0029-.0144.0078-.0222.0107-13.4163,3.9778-23.9227,14.7906-27.4502,28.3925-.0059.0233-.0137.0457-.0188.0692-.8228,3.1963-1.2607,6.5453-1.2607,9.9948,0,22.1174,17.9935,40.111,40.1108,40.111s40.1121-17.9936,40.1121-40.111c0-1.911-.1433-3.7885-.403-5.629Zm-19.1642-21.8555c.363-.2543.8579-.2366,1.2051.0391,6.1919,4.9169,10.6868,11.8788,12.4556,19.8568.1025.4623-.1348.9425-.5652,1.14-3.4033,1.5612-7.0936,2.5509-8.4285,1.8076-.115-.0634-.4668-.2596-.5143-1.3931-.4221-10.059-4.218-13.9787-6.485-16.321-.5291-.546-1.2534-1.294-1.295-1.5041.0775-.7136,1.6763-2.2587,3.6273-3.6251Zm-54.0984,17.4182c3.0776-10.2391,10.7178-18.5156,20.553-22.4608-.1392.3314-.3142.6936-.5214,1.1125-.7877,1.5942-1.7677,3.5779-1.3634,6.3304.3171,2.1551,1.4089,3.5868,2.2869,4.7382,1.0751,1.41,1.3981,1.9202,1.0305,3.2638-.3369,1.2297-.8552,1.4318-2.1075,1.9222-1.3258.5182-3.5432,1.3852-4.226,4.1912-.7361,3.0231.2517,4.9819,1.2098,6.0936,2.8695,3.3253,8.7283,3.2708,14.0787,2.7793l.108-.0099c2.8417-.2586,6.7773.3904,9.2089,2.4216,1.401,1.1702,2.1639,2.6674,2.3314,4.5767.3715,4.2349-1.2277,5.3109-3.6483,6.9398-1.7715,1.192-3.78,2.5425-4.6926,5.2029-.2516.7362-.4082,1.5774-.5885,2.5514-.8392,4.5242-1.7408,7.4897-6.4542,7.4947h-.005c-1.2614,0-1.8063-.429-2.1115-4.6896-.11-1.5407-.2051-2.8704-.7908-3.9435-.6222-1.1405-1.5734-1.9094-2.4126-2.5881-1.3486-1.0899-1.9976-1.6795-1.9976-3.138,0-2.1511.2595-3.7761.4895-5.2098.427-2.6703.8303-5.193-1.4763-7.8306-1.955-2.2354-4.9236-2.3988-7.7939-2.5574-2.16-.1189-4.3923-.2418-6.1213-1.2088-2.5344-1.4178-4.1272-3.7896-4.8956-5.1824-.135-.2448-.1705-.5319-.0902-.7996Zm33.5535,45.1041c-19.3202,0-35.0378-15.7177-35.0378-35.0379,0-.1689.0016-.3375.0046-.5056.0151-.8526,1.0164-1.2917,1.6725-.7471.6953.577,1.4652,1.1197,2.316,1.5955,2.7544,1.5417,5.8398,1.7111,8.319,1.8479,1.8221.1,3.7057.2031,4.2546.8303.6639.7599.6936,1.1395.2853,3.6899-.2456,1.5407-.5527,3.457-.5527,6.0114,0,3.9455,2.3363,5.834,3.8821,7.0835.4727.3815,1.0076.8145,1.1077.9879.105.2923.1733,1.2564.2239,1.9599.219,3.0518.6719,9.401,7.1718,9.401h.0109c9.2792-.0089,10.7367-7.8662,11.4363-11.6423.1387-.7451.2686-1.4486.4003-1.8311.3419-.9978,1.2584-1.6537,2.7247-2.6396,2.7446-1.8469,6.5039-4.3765,5.8698-11.5928-.2833-3.2291-1.7122-6.0045-4.1317-8.0258-3.7871-3.1658-9.1604-3.9247-12.9236-3.5799l-.1099.0099c-7.1519.6579-9.1941-.3705-9.7737-1.0424-.097-.113-.3953-.4587-.1228-1.5804.0455-.1853.0594-.2408,1.1444-.6658,1.5497-.6064,4.1437-1.62,5.1533-5.3069,1.0482-3.8286-.65-6.055-1.8895-7.68-.7283-.9551-1.1812-1.5823-1.301-2.4008-.1664-1.1305.2112-1.9658.8918-3.3441.5652-1.1437,1.2579-2.5548,1.3827-4.3063.0316-.4426.3707-.8099.806-.896,2.1963-.4344,4.4634-.6684,6.7852-.6684,5.4209,0,10.5569,1.2397,15.1428,3.4473.6653.3203.7849,1.202.2321,1.6915-2.0851,1.8464-3.8934,4.2424-3.4659,6.8047.3062,1.838,1.5021,3.0736,2.6584,4.2686,1.9924,2.0569,4.7202,4.8749,5.0612,13.0037.1377,3.2866,1.7736,4.869,3.1211,5.617,1.0988.6094,2.3868.8541,3.7484.8541,2.887,0,6.0936-1.0988,8.5029-2.1481.021.4976.038.9963.038,1.4991,0,19.3203-15.7186,35.0379-35.0389,35.0379Z"/>
  <path class="cls-4" d="m91.3934,34.0768c.0475,1.1335.3993,1.3297.5143,1.3931,1.3348.7433,5.0251-.2464,8.4285-1.8076.4304-.1974.6677-.6776.5652-1.14-1.7688-7.978-6.2637-14.9399-12.4556-19.8568-.3472-.2756-.842-.2933-1.2051-.0391-1.951,1.3665-3.5498,2.9116-3.6273,3.6251.0416.2101.766.9581,1.295,1.5041,2.267,2.3423,6.0629,6.2621,6.485,16.321Z"/>
  <path class="cls-4" d="m38.1282,36.0267c1.729.967,3.9613,1.0899,6.1213,1.2088,2.8704.1586,5.839.322,7.7939,2.5574,2.3066,2.6376,1.9033,5.1602,1.4763,7.8306-.23,1.4337-.4895,3.0587-.4895,5.2098,0,1.4585.6489,2.0481,1.9976,3.138.8392.6787,1.7904,1.4476,2.4126,2.5881.5857,1.0731.6808,2.4028.7908,3.9435.3052,4.2606.8501,4.6896,2.1115,4.6896h.005c4.7134-.0049,5.615-2.9705,6.4542-7.4947.1803-.974.3369-1.8152.5885-2.5514.9126-2.6604,2.9211-4.0109,4.6926-5.2029,2.4207-1.6289,4.0198-2.705,3.6483-6.9398-.1675-1.9093-.9304-3.4065-2.3314-4.5767-2.4315-2.0312-6.3672-2.6802-9.2089-2.4216l-.108.0099c-5.3505.4915-11.2092.546-14.0787-2.7793-.9581-1.1117-1.9459-3.0706-1.2098-6.0936.6827-2.806,2.9001-3.673,4.226-4.1912,1.2523-.4905,1.7706-.6926,2.1075-1.9222.3676-1.3436.0446-1.8538-1.0305-3.2638-.8779-1.1514-1.9697-2.5831-2.2869-4.7382-.4043-2.7526.5757-4.7362,1.3634-6.3304.2072-.4189.3822-.7812.5214-1.1125-9.8352,3.9451-17.4753,12.2216-20.553,22.4608-.0803.2677-.0448.5547.0902.7996.7684,1.3928,2.3612,3.7646,4.8956,5.1824Z"/>
  <path class="cls-1" d="m93.1938,40.7599c-1.3616,0-2.6497-.2448-3.7484-.8541-1.3475-.748-2.9834-2.3304-3.1211-5.617-.3409-8.1288-3.0687-10.9468-5.0612-13.0037-1.1564-1.1949-2.3523-2.4305-2.6584-4.2686-.4275-2.5623,1.3809-4.9583,3.4659-6.8047.5529-.4895.4332-1.3713-.2321-1.6915-4.5859-2.2076-9.7219-3.4473-15.1428-3.4473-2.3218,0-4.5889.2339-6.7852.6684-.4353.0861-.7744.4534-.806.896-.1248,1.7515-.8175,3.1625-1.3827,4.3063-.6807,1.3783-1.0582,2.2136-.8918,3.3441.1199.8185.5728,1.4457,1.301,2.4008,1.2395,1.625,2.9377,3.8514,1.8895,7.68-1.0096,3.6869-3.6036,4.7005-5.1533,5.3069-1.085.425-1.0989.4805-1.1444.6658-.2725,1.1216.0258,1.4674.1228,1.5804.5796.6718,2.6218,1.7003,9.7737,1.0424l.1099-.0099c3.7632-.3448,9.1365.4141,12.9236,3.5799,2.4196,2.0213,3.8484,4.7966,4.1317,8.0258.6342,7.2162-3.1251,9.7458-5.8698,11.5928-1.4663.9858-2.3828,1.6418-2.7247,2.6396-.1317.3824-.2616,1.0859-.4003,1.8311-.6996,3.7761-2.1571,11.6334-11.4363,11.6423h-.0109c-6.4999,0-6.9528-6.3492-7.1718-9.401-.0505-.7035-.1189-1.6676-.2239-1.9599-.1001-.1734-.635-.6064-1.1077-.9879-1.5458-1.2495-3.8821-3.138-3.8821-7.0835,0-2.5544.3071-4.4706.5527-6.0114.4083-2.5504.3787-2.9299-.2853-3.6899-.549-.6272-2.4325-.7303-4.2546-.8303-2.4791-.1368-5.5646-.3062-8.319-1.8479-.8508-.4758-1.6207-1.0185-2.316-1.5955-.6561-.5446-1.6573-.1055-1.6725.7471-.0031.1682-.0046.3367-.0046.5056,0,19.3203,15.7177,35.0379,35.0378,35.0379s35.0389-15.7177,35.0389-35.0379c0-.5027-.017-1.0015-.038-1.4991-2.4093,1.0493-5.616,2.1481-8.5029,2.1481Z"/>
  <path class="cls-3" d="m123.1219,83.2321c-2.9478-3.4857-9.4585-4.5013-16.1952.2943-9.5447,6.7951-27.8594,17.5308-36.8561,17.7726.6539-.7788,1.1295-1.6368,1.4198-2.5226,1.0762-3.2896-.0138-8.3349-6.6248-11.7285-.8411-.432-1.7488-.9116-2.7148-1.4199-7.447-3.9277-18.7029-9.8618-29.0532-9.8618-4.5945,0-15.9792,4.3884-24.7194,8.0684-3.1508,1.3257-5.187,4.3934-5.187,7.8148v25.0701c0,4.2596,3.1836,7.8752,7.4045,8.4112,8.8263,1.1207,24.9839,2.8695,39.891,2.8695,10.7664-.001,20.8818-.9126,27.1042-3.6324,8.2537-3.6086,27.4094-14.699,43.6741-29.0998.0386-.0347.0763-.0694.1119-.106,4.4291-4.4291,4.0684-9.183,1.7449-11.9297Zm-5.2802,8.2903c-15.8157,13.9896-34.3225,24.7164-42.282,28.1962-14.0648,6.1481-52.7896,1.845-64.325.3785-1.6934-.214-2.9705-1.6666-2.9705-3.3777v-25.0701c0-1.3743.8174-2.6059,2.0828-3.139,11.4065-4.8036,19.9108-7.671,22.7505-7.671,9.0948,0,19.6819,5.5823,26.6871,9.2762.9829.5172,1.9073,1.0047,2.7645,1.4446,3.5273,1.8112,4.6104,4.1377,4.1189,5.6388-.5352,1.6359-3.1023,3.0786-7.4739,2.3879-9.3932-2.3562-19.8049-6.3096-19.9535-6.3671-1.309-.4964-2.7743.1586-3.2748,1.4655-.4993,1.3089.1566,2.7744,1.4656,3.2747.6222.2368,10.9646,4.1645,20.6538,6.5692.0526.0149.1061.0287.1597.0397,4.2773,1.0552,8.415,1.8073,11.5204,1.8073,10.9259,0,31.0101-12.2427,40.104-18.7169,4.4558-3.1746,8.1654-2.5841,9.3793-1.1503,1.0106,1.1939.4707,3.1112-1.407,5.0136Z"/>
  <path class="cls-2" d="m109.8695,87.6591c-9.0939,6.4741-29.1781,18.7169-40.104,18.7169-3.1053,0-7.243-.752-11.5204-1.8073-.0536-.0109-.1071-.0248-.1597-.0397-9.6892-2.4047-20.0316-6.3324-20.6538-6.5692-1.309-.5004-1.9648-1.9658-1.4656-3.2747.5005-1.3069,1.9658-1.9619,3.2748-1.4655.1486.0575,10.5603,4.0109,19.9535,6.3671,4.3716.6906,6.9387-.752,7.4739-2.3879.4915-1.5011-.5916-3.8276-4.1189-5.6388-.8572-.4399-1.7816-.9274-2.7645-1.4446-7.0052-3.6938-17.5923-9.2762-26.6871-9.2762-2.8397,0-11.344,2.8674-22.7505,7.671-1.2654.5331-2.0828,1.7646-2.0828,3.139v25.0701c0,1.7112,1.2771,3.1638,2.9705,3.3777,11.5354,1.4665,50.2601,5.7697,64.325-.3785,7.9595-3.4798,26.4663-14.2066,42.282-28.1962,1.8777-1.9024,2.4176-3.8197,1.407-5.0136-1.2139-1.4338-4.9235-2.0243-9.3793,1.1503Z"/>
</svg>