<?xml version="1.0" encoding="UTF-8"?>
<svg id="Wildlife" xmlns="http://www.w3.org/2000/svg" viewBox="0 0 128 128">
  <defs>
    <style>
      .cls-1 {
        fill: #333;
      }

      .cls-2 {
        fill: #d8976a;
      }
    </style>
  </defs>
  <path class="cls-1" d="m67.9878,110.7037c-.4463-.7734-1.2715-1.25-2.165-1.25h-3.6768c-.8936,0-1.7188.4766-2.165,1.25s-.4463,1.7266,0,2.5l1.8379,3.1836c.4463.7734,1.2715,1.25,2.1641,1.25h.001c.8926,0,1.7178-.4766,2.1641-1.249l1.8398-3.1846c.4463-.7734.4463-1.7266,0-2.5Z"/>
  <path class="cls-1" d="m73.3624,83.5102c-1.7064,0-3.0896,1.3585-3.0896,3.0344s1.3832,3.0343,3.0896,3.0343,3.0897-1.3585,3.0897-3.0343-1.3833-3.0344-3.0897-3.0344Z"/>
  <path class="cls-1" d="m54.5897,83.5102c-1.7064,0-3.0897,1.3585-3.0897,3.0344s1.3833,3.0343,3.0897,3.0343,3.0896-1.3585,3.0896-3.0343-1.3832-3.0344-3.0896-3.0344Z"/>
  <path class="cls-1" d="m127.2833,29.9185c-.9492-1.002-2.5332-1.043-3.5342-.0947-4.0908,3.877-9.3779,5.4277-15.7275,4.6084-1.0792-.1392-2.0966-.3401-3.0364-.5668,9.173-4.4221,16.8314-10.7208,19.6546-21.7369.3428-1.3369-.4639-2.6992-1.8018-3.042-1.3311-.3418-2.6992.4629-3.042,1.8018-.9034,3.5258-2.3267,6.7483-4.9719,9.7922-1.2103-.4839-3.0841-1.4145-4.8104-3.0324-3.6895-3.4561-5.0537-8.416-4.0557-14.7412.2148-1.3643-.7158-2.6436-2.0801-2.8594-1.3584-.2109-2.6445.7168-2.8594,2.0801-2.1148,13.4037,5.0646,19.6013,9.899,22.202-4.4271,3.4289-10.9446,6.6799-20.7252,9.9514-.467.1562-.9202.3232-1.3653.4962.819-3.1729.9149-6.9946-1.1288-10.837-.6484-1.2197-2.1641-1.6816-3.3809-1.0332-1.2188.6484-1.6816,2.1621-1.0332,3.3809,2.9605,5.5678-1.0895,11.6198-1.9843,12.8435-7.2044,5.8582-9.5248,13.8261-10.1003,16.3277-4.8643-1.3378-9.7463-1.3832-14.4559-.1252-.6148-2.6127-2.9676-10.4415-10.0747-16.2203-.8956-1.2256-4.9444-7.2768-1.9844-12.8432.6484-1.2188.1855-2.7324-1.0332-3.3809-1.2168-.6475-2.7324-.1855-3.3809,1.0332-2.0438,3.8423-1.9479,7.6641-1.1289,10.837-.4451-.173-.8983-.34-1.3652-.4962-8.5858-2.8721-15.5789-5.8821-20.7128-9.9582,4.8342-2.6046,11.9997-8.8027,9.8867-22.1951-.2148-1.3623-1.4912-2.291-2.8594-2.0801-1.3643.2158-2.2949,1.4951-2.0801,2.8594,1.916,12.1423-5.605,16.4832-8.8011,17.7599-2.3558-2.749-4.0548-5.9467-5.0367-9.7784-.3428-1.3389-1.71-2.1396-3.042-1.8018-1.3379.3428-2.1445,1.7051-1.8018,3.042,2.8232,11.0161,10.4816,17.3148,19.6546,21.7369-.9399.2267-1.9573.4276-3.0364.5668-6.3477.8203-11.6367-.7324-15.7275-4.6084-1-.9482-2.583-.9082-3.5342.0947-.9502,1.002-.9072,2.585.0947,3.5342,4.3086,4.083,9.7891,6.1875,16.0166,6.1875,1.2891,0,2.6113-.0898,3.9609-.2715,4.1611-.5598,7.5322-1.8454,9.1691-2.5594,2.0669.7819,4.1648,1.5117,6.2635,2.2137,2.8428.9509,5.1854,2.2986,7.1179,3.8327.0499.0417.0998.0814.1522.1188,6.9595,5.6217,8.4647,13.6633,8.5424,14.1052.0008.0047.0027.0089.0036.0135-.8607.4034-1.7157.8373-2.5582,1.3329-1.1075-1.6784-2.6055-3.2357-4.4844-4.6072-5.1943-3.79-10.7549-4.334-16.1309-4.8604-2.7578-.2695-5.6094-.5488-8.4775-1.2578-.9541-.2383-1.9541.1084-2.5615.877-.7959,1.0059-1.6982,3.8086,1.1914,11.2773,1.2285,3.1729,3.9336,9.0049,8.2549,12.4189,2.3745,1.8769,4.9803,3.235,7.6005,4.0182.7383,6.0126,4.6031,14.0803,7.7794,20.6976.8916,1.8574,1.7334,3.6113,2.3418,4.9971.9141,2.083,1.4697,4.6045,2.0586,7.2734,1.7471,7.9297,3.9229,17.7979,17.625,17.7979,13.5527,0,15.124-9.6484,16.3867-17.4014.4629-2.8379.8994-5.5186,1.8213-7.7021.6963-1.6484,1.7432-3.7754,2.8506-6.0264,3.0479-6.1958,6.7612-13.7585,7.4276-19.6428,2.6136-.784,5.2124-2.139,7.5802-4.0106,4.3213-3.415,7.0264-9.2471,8.2549-12.4199,2.8896-7.4688,1.9873-10.2715,1.1914-11.2773-.6074-.7686-1.6094-1.1152-2.5615-.877-2.8682.709-5.7197.9883-8.4775,1.2578-5.376.5264-10.9365,1.0703-16.1309,4.8604-1.8932,1.3817-3.3993,2.9514-4.5087,4.6435-.8433-.4644-1.6903-.8848-2.5396-1.2688.0071-.0325.02-.0623.0258-.0954.0754-.4328,1.5781-8.4801,8.5416-14.1055.0521-.0372.1019-.0765.1514-.118,1.9327-1.5345,4.2759-2.8828,7.1194-3.8341,2.0988-.702,4.1967-1.4319,6.2635-2.2137,1.6369.7141,5.008,1.9996,9.1691,2.5594,1.3496.1816,2.6709.2715,3.9609.2715,6.2266,0,11.708-2.1045,16.0166-6.1875,1.002-.9492,1.0449-2.5322.0947-3.5342Zm-48.7881,35.8379c1.3496.3027,2.6836-.5469,2.9844-1.8945.4844-2.165,2.0254-4.2471,4.4561-6.0215,4.0928-2.9863,8.5312-3.4199,13.6709-3.9229,2.0059-.1963,4.0586-.3975,6.1855-.7588-.79,3.957-3.8633,11.7646-8.1797,15.1758-3.2783,2.5889-7.166,3.9688-10.4043,3.6777-1.3691-.125-2.5889.8936-2.7109,2.2695-.1221,1.375.8945,2.5889,2.2695,2.7109.3932.0345.7916.0488,1.1921.0521-.9661,4.9086-4.2385,11.5723-6.7409,16.6578-1.1406,2.3184-2.2178,4.5078-2.9697,6.2891-1.1553,2.7344-1.6611,5.8398-2.1504,8.8438-1.374,8.4336-2.583,13.2051-11.4521,13.2051-9.2168,0-10.8467-5.2715-12.7422-13.874-.6152-2.7881-1.25-5.6719-2.3633-8.207-.6416-1.4629-1.502-3.2539-2.4121-5.1504-2.6306-5.4802-6.0673-12.6525-7.1047-17.7656.3904-.0041.7789-.0172,1.1623-.0508,1.375-.1221,2.3916-1.3359,2.2695-2.7109-.1221-1.376-1.3408-2.3965-2.7109-2.2695-3.2412.293-7.127-1.0879-10.4043-3.6787-4.3164-3.4102-7.3896-11.2178-8.1797-15.1748,2.127.3613,4.1797.5625,6.1855.7588,5.1396.5029,9.5781.9365,13.6709,3.9229,2.4297,1.7734,3.9707,3.8564,4.4561,6.0225.3018,1.3477,1.6396,2.1934,2.9854,1.8936,1.2462-.2791,2.0525-1.444,1.9301-2.6826,7.893-4.9179,16.5748-4.9114,25.1734.0235-.1102,1.2301.695,2.3827,1.9337,2.6591Z"/>
  <path class="cls-2" d="m99.6065,53.9176c-5.1396.5029-9.5781.9365-13.6709,3.9229-2.4307,1.7744-3.9717,3.8564-4.4561,6.0215-.3008,1.3477-1.6348,2.1973-2.9844,1.8945-1.2386-.2764-2.0438-1.429-1.9337-2.6591-8.5986-4.9349-17.2804-4.9414-25.1734-.0235.1224,1.2386-.6838,2.4036-1.9301,2.6826-1.3457.2998-2.6836-.5459-2.9854-1.8936-.4854-2.166-2.0264-4.249-4.4561-6.0225-4.0928-2.9863-8.5312-3.4199-13.6709-3.9229-2.0059-.1963-4.0586-.3975-6.1855-.7588.79,3.957,3.8633,11.7646,8.1797,15.1748,3.2773,2.5908,7.1631,3.9717,10.4043,3.6787,1.3701-.127,2.5889.8936,2.7109,2.2695.1221,1.375-.8945,2.5889-2.2695,2.7109-.3834.0336-.7719.0468-1.1623.0508,1.0374,5.1131,4.4741,12.2854,7.1047,17.7656.9102,1.8965,1.7705,3.6875,2.4121,5.1504,1.1133,2.5352,1.748,5.4189,2.3633,8.207,1.8955,8.6025,3.5254,13.874,12.7422,13.874,8.8691,0,10.0781-4.7715,11.4521-13.2051.4893-3.0039.9951-6.1094,2.1504-8.8438.752-1.7812,1.8291-3.9707,2.9697-6.2891,2.5024-5.0855,5.7748-11.7493,6.7409-16.6578-.4005-.0033-.7988-.0176-1.1921-.0521-1.375-.1221-2.3916-1.3359-2.2695-2.7109.1221-1.376,1.3418-2.3945,2.7109-2.2695,3.2383.291,7.126-1.0889,10.4043-3.6777,4.3164-3.4111,7.3896-11.2188,8.1797-15.1758-2.127.3613-4.1797.5625-6.1855.7588Zm-45.0168,35.6613c-1.7064,0-3.0897-1.3585-3.0897-3.0343s1.3833-3.0344,3.0897-3.0344,3.0896,1.3585,3.0896,3.0344-1.3832,3.0343-3.0896,3.0343Zm13.3982,23.6249l-1.8398,3.1846c-.4463.7725-1.2715,1.249-2.1641,1.249h-.001c-.8926,0-1.7178-.4766-2.1641-1.25l-1.8379-3.1836c-.4463-.7734-.4463-1.7266,0-2.5s1.2715-1.25,2.165-1.25h3.6768c.8936,0,1.7188.4766,2.165,1.25s.4463,1.7266,0,2.5Zm5.3745-23.6249c-1.7064,0-3.0896-1.3585-3.0896-3.0343s1.3832-3.0344,3.0896-3.0344,3.0897,1.3585,3.0897,3.0344-1.3833,3.0343-3.0897,3.0343Z"/>
</svg>