<?xml version="1.0" encoding="UTF-8"?>
<svg id="Garlic" xmlns="http://www.w3.org/2000/svg" viewBox="0 0 128 128">
  <defs>
    <style>
      .cls-1 {
        fill: #333;
      }

      .cls-2 {
        fill: #d3beb1;
      }
    </style>
  </defs>
  <path class="cls-1" d="m125.4263,78.6504c-4.6787-23.1553-19.3682-30.4385-31.1714-36.291-12.957-6.4238-22.3184-11.0654-17.2573-32.8984.5312-2.2939-.0073-4.6719-1.4785-6.5225-1.4844-1.8672-3.7026-2.9385-6.0864-2.9385h-3.4277c-3.9263,0-7.4688,3.0459-8.064,6.9346-3.2681,21.3408-17.0239,30.7549-30.3276,39.8594C14.7803,55.5752,2.6592,63.8701,1.7285,81.6416c-.5757,10.9912,3.0088,20.8984,10.3662,28.6523,8.6556,9.1207,22.63,15.2078,38.5901,17.0835.1786.0397.3584.061.5369.061.0078,0,.015-.0032.0228-.0032,3.2645.3625,6.603.5648,10.0016.5648,5.1074,0,10.0107-.2718,14.6765-.7959.0046,0,.0089.002.0135.002.1882,0,.3773-.0263.5653-.0705,19.1861-2.2521,34.2504-8.8458,42.4371-18.8524,6.6382-8.1133,8.8208-18.083,6.4878-29.6328Zm-10.3574,26.4668c-6.6287,8.1022-18.505,13.7381-33.8002,16.3079,1.773-3.6462,3.4827-8.9135,4.6444-15.5257,1.835-10.4443,4.1138-36.6729-14.3037-54.6318-.9878-.9629-2.5708-.9443-3.5352.0449-.9639.9883-.9438,2.5713.0449,3.5352,13.0542,12.7285,14.7256,30.1064,13.8291,42.4424-.9738,13.4025-5.132,23.1807-6.9443,24.9948-4.3668.4712-8.9631.7151-13.7578.7151-3.11,0-6.1614-.1789-9.1445-.4968-2.8276-2.5132-12.7682-17.8774-13.9873-35.3558-.9678-13.8691,3.7051-25.5713,13.8877-34.7813,1.0239-.9268,1.103-2.5078.1768-3.5312-.9263-1.0244-2.5068-1.1035-3.5312-.1777-12.5,11.3076-17.668,26.4941-14.9448,43.9199,1.831,11.7154,7.0132,22.4965,11.2863,28.8533-12.1351-2.4042-22.5332-7.4825-29.2678-14.5789-6.481-6.8301-9.5093-15.2236-8.9995-24.9482.8013-15.3027,11.4199-22.5693,23.7153-30.9834,13.5229-9.2539,28.8501-19.7432,32.4463-43.2295.2197-1.4326,1.6782-2.6904,3.1216-2.6904h3.4277c.8501,0,1.6421.3828,2.1724,1.0498.5166.6504.707,1.4824.5215,2.2822-5.9536,25.6855,6.6079,31.9131,19.9072,38.5068,11.9458,5.9229,24.2983,12.0479,28.4912,32.8018,2.0225,10.0088.1865,18.5801-5.4561,25.4766Z"/>
  <path class="cls-2" d="m92.0399,46.8389c-13.2993-6.5938-25.8608-12.8213-19.9072-38.5068.1855-.7998-.0049-1.6318-.5215-2.2822-.5303-.667-1.3223-1.0498-2.1724-1.0498h-3.4277c-1.4434,0-2.9019,1.2578-3.1216,2.6904-3.5962,23.4863-18.9233,33.9756-32.4463,43.2295-12.2954,8.4141-22.9141,15.6807-23.7153,30.9834-.5098,9.7246,2.5186,18.1182,8.9995,24.9482,6.7346,7.0964,17.1326,12.1747,29.2678,14.5789-4.2731-6.3569-9.4553-17.1379-11.2863-28.8533-2.7231-17.4258,2.4448-32.6123,14.9448-43.9199,1.0244-.9258,2.605-.8467,3.5312.1777.9263,1.0234.8472,2.6045-.1768,3.5312-10.1826,9.21-14.8555,20.9121-13.8877,34.7813,1.2191,17.4784,11.1597,32.8425,13.9873,35.3558,2.9831.3179,6.0345.4968,9.1445.4968,4.7947,0,9.391-.244,13.7578-.7151,1.8124-1.8141,5.9706-11.5923,6.9443-24.9948.8965-12.3359-.7749-29.7139-13.8291-42.4424-.9888-.9639-1.0088-2.5469-.0449-3.5352.9644-.9893,2.5474-1.0078,3.5352-.0449,18.4175,17.959,16.1387,44.1875,14.3037,54.6318-1.1617,6.6122-2.8714,11.8795-4.6444,15.5257,15.2952-2.5698,27.1714-8.2057,33.8002-16.3079,5.6426-6.8965,7.4785-15.4678,5.4561-25.4766-4.1929-20.7539-16.5454-26.8789-28.4912-32.8018Z"/>
</svg>