<?xml version="1.0" encoding="UTF-8"?>
<svg id="Goat" xmlns="http://www.w3.org/2000/svg" viewBox="0 0 128 128">
  <defs>
    <style>
      .cls-1 {
        fill: #6b554b;
      }

      .cls-2 {
        fill: #333;
      }

      .cls-3 {
        fill: #c18c68;
      }
    </style>
  </defs>
  <path class="cls-2" d="m126.9863,38.7967c-.5908-.4684-14.6404-11.4686-28.3793-11.4686-4.2078,0-7.9766.482-11.1991,1.4166.2296-.725.1943-2.2235.1904-2.4014,0-.0136-.0266-1.4176.1963-3.2137.705-5.6826,7.749-15.24,10.5155-18.5836.521-.6298.814-1.4638.684-2.2902-.2098-1.3373-1.2842-2.2558-2.495-2.2558-16.1594,0-25.1303,12.8131-29.0392,20.4511-.3583.7001-.7062,1.4491-1.0147,2.1469-.7691,1.7399-1.1799,3.6305-1.2317,5.5512-.0503,1.881-.108,4.0348-.108,4.0381h-2.2104s-.0619-2.1832-.1156-4.081c-.0547-1.9262-.4717-3.8202-1.2468-5.5633-.3008-.6768-.6399-1.4033-.993-2.093C56.6411,12.832,47.7087.0669,31.6269.0003c-.7925-.0033-1.588.3314-2.0854.9856-.798,1.0498-.7321,2.5046.0661,3.4625,2.7066,3.2461,9.8842,12.9302,10.5984,18.6822.2249,1.8097.2081,3.2869.2081,3.2984-.0015.0887.0427,1.7466.2328,2.3314-3.2343-.9451-7.0218-1.4323-11.2523-1.4323-13.7409,0-27.7895,11.0003-28.3803,11.4686C.376,39.3017.0002,40.0973.0002,40.941s.3758,1.6393,1.014,2.1442c.5908.4684,14.6394,11.4676,28.3803,11.4676.4093,0,.8177-.0052,1.226-.0157-.7565,5.7218-.9883,9.798-.7062,12.4064,1.0011,9.2523,5.8885,19.689,10.6161,29.7818,3.1553,6.7379,6.1361,13.1027,7.947,18.9488,2.461,7.9496,8.0043,12.3259,15.608,12.3259h.0256c7.5042-.0094,12.9784-4.3899,15.4147-12.3332,1.807-5.8953,4.8104-12.3029,7.9904-19.0879,4.7069-10.0405,9.5726-20.4219,10.5688-29.6354.2821-2.6074.0513-6.6836-.7052-12.4064.4084.0105.8167.0157,1.227.0157,13.7379,0,27.7885-10.9992,28.3793-11.4676.6382-.505,1.014-1.2995,1.014-2.1442,0-.8437-.3758-1.6393-1.014-2.1442Zm-55.0878-15.7926c2.8555-5.5785,8.7953-14.3551,18.7614-16.9227-3.1958,4.5216-7.2221,11.1058-7.8721,16.3509-.0572.4558-.1006.8918-.1332,1.2964l-5.2989-.004-5.8091-.0089c.1156-.241.2333-.4799.3519-.7116ZM37.3396,6.0804c9.9671,2.5687,15.9069,11.3453,18.7614,16.9227v.0021c.1191.231.2365.4705.3516.7106l-11.1063.0169c-.0338-.4086-.0767-.8438-.1337-1.3004-.651-5.245-4.6773-11.8293-7.8731-16.3519Zm61.2673,43.1197c-1.3178,0-2.6168-.0585-3.972-.1798-.7832-.0721-1.5348.2425-2.0625.8458-.5277.6022-.7654,1.4291-.6431,2.2415,1.2852,8.5769,1.3286,12.4702,1.1392,14.2255-.8956,8.2821-5.562,18.2379-10.0746,27.8645-3.1208,6.6595-6.3492,13.5459-8.2716,19.8155-1.7794,5.8033-5.2523,8.6271-10.6171,8.6344h-.0197c-5.3973,0-9.034-2.9074-10.8104-8.6417-1.9234-6.2131-5.1251-13.0493-8.2213-19.6597-4.5343-9.6809-9.2224-19.6911-10.1229-28.0119-.1894-1.7564-.145-5.6507,1.1402-14.2265.1223-.8123-.1154-1.6393-.6431-2.2415-.4804-.5478-1.1511-.8552-1.8504-.8552-.07,0-.141.0031-.2121.0094-1.3562.1213-2.6553.1798-3.9711.1798-8.5694,0-17.7139-5.2126-22.3251-8.2591,4.6112-3.0464,13.7557-8.2601,22.3251-8.2601,6.6125,0,12.0118,1.3319,15.2076,3.7521,1.0692.8092,2.5428.7067,3.5006-.2436s1.1521-2.5018.4636-3.681l-1.9574-3.3781,11.236-.0553v4.6858c0,2.0836,1.5999,3.7793,3.5657,3.7793h5.1793c1.9658,0,3.5657-1.6957,3.5657-3.7793v-4.689l7.2312.0056,4.032.006-1.9865,3.4259c-.6865,1.1866-.4902,2.7349.4685,3.6831.9577.9472,2.4284,1.0465,3.5006.2394,3.1918-2.4192,8.5921-3.7511,15.2056-3.7511,8.5694,0,17.7169,5.2158,22.3281,8.2622-4.6043,3.0464-13.7369,8.257-22.3281,8.257Z"/>
  <path class="cls-1" d="m82.6546,23.7286c.0325-.4046.0759-.8405.1332-1.2964.65-5.245,4.6763-11.8293,7.8721-16.3509-9.9661,2.5676-15.9059,11.3442-18.7614,16.9227-.1186.2317-.2362.4706-.3519.7116l5.8091.0089,5.2989.004Z"/>
  <path class="cls-1" d="m45.3463,23.7327l11.1063-.0169c-.1152-.2401-.2325-.4795-.3516-.7106v-.0021c-2.8545-5.5775-8.7943-14.3541-18.7614-16.9227,3.1958,4.5226,7.2221,11.1069,7.8731,16.3519.057.4566.0999.8918.1337,1.3004Z"/>
  <path class="cls-3" d="m98.6069,32.6809c-6.6135,0-12.0138,1.3319-15.2056,3.7511-1.0722.8071-2.5428.7078-3.5006-.2394-.9587-.9482-1.155-2.4965-.4685-3.6831l1.9865-3.4259-4.032-.006-7.2312-.0056v4.689c0,2.0836-1.5999,3.7793-3.5657,3.7793h-5.1793c-1.9658,0-3.5657-1.6957-3.5657-3.7793v-4.6858l-11.236.0553,1.9574,3.3781c.6885,1.1793.4942,2.7307-.4636,3.681s-2.4314,1.0528-3.5006.2436c-3.1958-2.4202-8.5951-3.7521-15.2076-3.7521-8.5694,0-17.7139,5.2137-22.3251,8.2601,4.6112,3.0464,13.7557,8.2591,22.3251,8.2591,1.3158,0,2.6148-.0585,3.9711-.1798.071-.0063.142-.0094.2121-.0094.6993,0,1.37.3074,1.8504.8552.5277.6022.7654,1.4291.6431,2.2415-1.2852,8.5758-1.3296,12.4702-1.1402,14.2265.9005,8.3208,5.5887,18.331,10.1229,28.0119,3.0962,6.6104,6.2979,13.4466,8.2213,19.6597,1.7764,5.7343,5.4131,8.6417,10.8104,8.6417h.0197c5.3648-.0073,8.8377-2.8311,10.6171-8.6344,1.9224-6.2696,5.1507-13.156,8.2716-19.8155,4.5126-9.6265,9.179-19.5824,10.0746-27.8645.1894-1.7553.146-5.6486-1.1392-14.2255-.1223-.8123.1154-1.6393.6431-2.2415.5277-.6032,1.2793-.9179,2.0625-.8458,1.3552.1213,2.6543.1798,3.972.1798,8.5911,0,17.7238-5.2105,22.3281-8.257-4.6112-3.0464-13.7586-8.2622-22.3281-8.2622Zm-49.6121,40.8807c-2.6651,0-4.8255-2.249-4.8255-5.0231s2.1604-5.0231,4.8255-5.0231,4.8255,2.2489,4.8255,5.0231-2.1604,5.0231-4.8255,5.0231Zm21.1469,35.1185l-4.0559,7.4468c-.4508.828-1.2842,1.3382-2.1867,1.3382s-1.736-.5102-2.1867-1.3382l-4.0559-7.4468c-.4508-.828-.4508-1.8484,0-2.6764s1.2842-1.3382,2.1867-1.3382h8.1118c.9025,0,1.736.5102,2.1867,1.3382s.4508,1.8484,0,2.6764Zm8.8636-35.1185c-2.6649,0-4.8255-2.249-4.8255-5.0231s2.1606-5.0231,4.8255-5.0231,4.8255,2.2489,4.8255,5.0231-2.1604,5.0231-4.8255,5.0231Z"/>
  <ellipse class="cls-2" cx="79.0054" cy="68.5385" rx="4.8255" ry="5.0231"/>
  <ellipse class="cls-2" cx="48.9949" cy="68.5385" rx="4.8255" ry="5.0231"/>
  <path class="cls-2" d="m67.955,104.6655h-8.1118c-.9025,0-1.736.5102-2.1867,1.3382s-.4508,1.8484,0,2.6764l4.0559,7.4468c.4508.828,1.2842,1.3382,2.1867,1.3382s1.736-.5102,2.1867-1.3382l4.0559-7.4468c.4508-.828.4508-1.8484,0-2.6764s-1.2842-1.3382-2.1867-1.3382Z"/>
</svg>