<?xml version="1.0" encoding="UTF-8"?>
<svg id="Halal" xmlns="http://www.w3.org/2000/svg" viewBox="0 0 128 128">
  <defs>
    <style>
      .cls-1 {
        fill: #333;
      }
    </style>
  </defs>
  <g>
    <path class="cls-1" d="m29.1214,113.6406v-9.243h-8.091v9.243h-4.284v-20.7051h4.284v7.894h8.091v-7.894h4.2991v20.7051h-4.2991Z"/>
    <path class="cls-1" d="m49.6725,109.3846h-7.6281l-1.4319,4.256h-4.5241l7.3891-20.7051h4.888l7.3331,20.7051h-4.692l-1.334-4.256Zm-1.208-3.568l-2.585-8.147-2.669,8.147h5.2541Z"/>
    <path class="cls-1" d="m58.3244,92.9356h4.3271v16.9831h10.254v3.722h-14.5811v-20.7051Z"/>
    <path class="cls-1" d="m88.0206,109.3846h-7.6281l-1.4319,4.256h-4.5241l7.3891-20.7051h4.888l7.3331,20.7051h-4.692l-1.334-4.256Zm-1.208-3.568l-2.585-8.147-2.669,8.147h5.2541Z"/>
    <path class="cls-1" d="m96.6726,92.9356h4.3271v16.9831h10.254v3.722h-14.5811v-20.7051Z"/>
  </g>
  <g>
    <path class="cls-1" d="m6.3317,53.8206c.0157-.0315-.0244-.0601-.0486-.0345-.8194.8635-5.2892,5.5022-6.1766,12.5161-.8123,6.4199,2.9132,15.1498,15.0044,15.5015,12.4097.361,20.397-10.7062,21.4346-16.222,1.4417-7.6644-2.098-24.4817-1.6355-34.8833.1074-2.4149,1.3745-5.5155,1.8528-6.5562.1496-.3256.0932-.5519-.1125-.7135-1.5316-1.2028-3.9177-5.2811-4.9145-9.0304-.0113-.0426-.0619-.0539-.0846-.0161l-3.7583,6.4899c-.0987.164-.1323.3591-.0937.5466.7456,3.6263,7.7426,40.7776,3.8956,46.5763-3.8383,5.7856-14.0562,6.0192-17.8474,5.6182-7.0397-.7446-11.0559-4.3772-10.4241-9.657.6078-5.0796,2.5157-9.3458,2.9085-10.1358Z"/>
    <path class="cls-1" d="m38.242,29.3645c-.107-.0354-.2161.0373-.2247.1497-.1056,1.373-.6905,9.0105,1.3939,11.4278,2.3451,2.7196,8.4837,2.9332,12.0164,6.8208,3.8726,4.2616,5.5831,11.0646,5.9336,12.0236.0109.0299.0488.027.0553-.0042.3676-1.7465,1.4102-12.5112-5.4828-20.5098-6.3921-7.4174-12.5209-9.5203-13.6917-9.9079Z"/>
    <path class="cls-1" d="m29.4666,80.5063c-.0695.0175-.0636.1112.0069.1242,3.6483.6712,18.6012,2.0081,29.7255-8.8222,7.6827-7.4796,9.2057-21.3898,11.5651-30.0441.0342-.1253.2241-.1281.2662-.0052.8769,2.5597-1.9938,27.3869,7.8437,32.599,8.4933,4.4999,21.4462-.9928,29.6366-3.9034,6.9028-2.4531,12.5913-1.6676,14.0621-1.5385.0912.008.1795-.0334.2316-.1086l5.1759-7.9851c.0508-.0734-.0022-.1731-.0913-.1675-1.2578.0797-7.9953-.004-12.5643-1.6624-5.4823-1.9899-12.9386-7.9205-19.235-8.0324-8.5627-.1523-12.3452,10.9991-13.157,13.2055-.0364.0991.0882.1834.1607.1067,6.814-7.2202,13.8537-5.3023,23.2402-.7664.0522.0252.0673.0902.0327.1368-2.7476,3.7008-14.5635,5.774-24.1359,4.2397-.8683-.1392-1.8185-.7682-2.4537-1.3763-7.9422-7.6037-1.9231-35.5565-7.615-42.4185-3.2378-3.9034-2.4707,25.9588-14.8578,39.4797-8.317,9.0783-20.459,15.0778-27.8372,16.9392Z"/>
  </g>
</svg>