<svg xmlns="http://www.w3.org/2000/svg" viewBox="0 0 63.59 57.155">
  <defs>
    <style>
      .cls-1 {
        fill: #e30613;
      }

      .cls-2 {
        fill: #fff;
      }
    </style>
  </defs>
  <title>scharf</title>
  <g id="Ebene_2" data-name="Ebene 2">
    <g id="Ebene_1-2" data-name="Ebene 1">
      <path class="cls-1" d="M55.21,0V.19a4.411,4.411,0,0,1,0,.46c-.06.43-.17,1.06-.34,1.83s-.4,1.6-.69,2.6c-.16.43-.3.98-.49,1.43s-.37.98-.6,1.45a12.982,12.982,0,0,1-.69,1.4,12.363,12.363,0,0,1-.79,1.28c-.27.42-.59.73-.88,1.1a12.333,12.333,0,0,1-.93.87,10.619,10.619,0,0,1-.92.61,3.329,3.329,0,0,1-.388.179A18,18,0,0,0,46.13,9.77c-1.87-2.2-11.46-3.95-13.79,2C29.32,21.09,19.43,40.66,0,55.73c17,9.01,56.12-27.77,52.79-24.77,0,0,11.48-12.07,1-17.06a5.155,5.155,0,0,0-1.933-.455A15.18,15.18,0,0,0,53.4,12.8a17.29,17.29,0,0,0,1.6-.91,16.428,16.428,0,0,0,1.54-1.08c.52-.38.97-.8,1.46-1.2s.91-.83,1.35-1.23c.84-.83,1.6-1.64,2.22-2.36s1.12-1.35,1.47-1.81a6.67,6.67,0,0,0,.41-.58l.14-.18Z"/>
      <path class="cls-2" d="M52,16.18v-.17a.529.529,0,0,1,.2-.48.86.86,0,0,1,.91-.05,2.223,2.223,0,0,1,.94.74,5.094,5.094,0,0,1,.93,3,10.652,10.652,0,0,1-.77,3.93A19.282,19.282,0,0,1,52,27.28a23.189,23.189,0,0,1-1.46,2c-.53.64-1.09,1.32-1.67,2a47.024,47.024,0,0,1-3.82,3.77c-.67.62-1.37,1.2-2.09,1.77s-1.43,1.15-2.16,1.7c-1.46,1.11-3,2.14-4.47,3.14-.75.49-1.51,1-2.26,1.42s-1.49.92-2.24,1.32a89.935,89.935,0,0,1-8.29,4.24,64.066,64.066,0,0,1-6.09,2.51c-1.5.51-2.37.82-2.37.82s.72-.58,2-1.52c.65-.47,1.42-1,2.32-1.67s1.9-1.38,3-2.13L30,41.4l4.21-2.95c1.4-1.05,2.86-2.05,4.25-3.13.72-.52,1.42-1,2.1-1.6s1.39-1.06,2-1.63c1.34-1.09,2.62-2.19,3.81-3.3.6-.55,1.18-1.1,1.72-1.66s1-1.11,1.55-1.66A22.7,22.7,0,0,0,52.1,22.2a10.975,10.975,0,0,0,1.32-3.09,4.373,4.373,0,0,0-.09-2.47c-.24-.63-.75-1.06-1-.92a.439.439,0,0,0-.27.3A1.541,1.541,0,0,1,52,16.18Z"/>
    </g>
  </g>
</svg>
