<?xml version="1.0" encoding="UTF-8"?>
<svg id="local" xmlns="http://www.w3.org/2000/svg" viewBox="0 0 128 128">
  <defs>
    <style>
      .cls-1 {
        fill: #333;
      }

      .cls-2 {
        fill: #39b54a;
      }
    </style>
  </defs>
  <path class="cls-1" d="m35.7666,73.6553c-3.4541-5.9834-9.6333-9.5498-16.5229-9.5498h-.1221c-6.9038,0-13.083,3.5664-16.5371,9.5498-3.4644,6.001-3.4536,13.1592.0215,19.1357l12.7725,22.2803c.7783,1.3574,2.2334,2.2002,3.7979,2.2002,1.5874,0,3.0063-.8223,3.7959-2.2002l12.7646-22.2666c3.4829-5.9902,3.4941-13.1484.0298-19.1494Zm-4.3599,16.6494l-12.2314,21.3369-12.2393-21.3506c-2.5708-4.4219-2.5791-9.7061-.0215-14.1357,2.5503-4.417,7.1113-7.0498,12.2231-7.0498h.0903c5.0967,0,9.6587,2.6328,12.2085,7.0498,2.5571,4.4297,2.5493,9.7139-.0298,14.1494Z"/>
  <g>
    <path class="cls-1" d="m108.8281,62.1494c-.1567,0-.3154-.0146-.4751-.0449-.0225-.0049-2.2681-.4336-5.7686-.876-1.3701-.1738-2.3398-1.4238-2.167-2.7939.1738-1.3701,1.4185-2.3477,2.7939-2.167,3.6758.4648,5.9907.9082,6.0874.9268,1.3555.2617,2.2427,1.5723,1.9814,2.9277-.23,1.1963-1.2778,2.0273-2.4521,2.0273Z"/>
    <path class="cls-1" d="m37.8301,127.8311c-1.3027,0-2.4014-1.0098-2.4917-2.3291-.0947-1.377.9453-2.5703,2.3228-2.665,4.3916-.3018,8.167-1.1084,11.541-2.4668,1.2822-.5156,2.7373.1055,3.2529,1.3857.5156,1.2812-.105,2.7373-1.3857,3.2529-3.8687,1.5576-8.1421,2.4785-13.0654,2.8164-.0586.0039-.1167.0059-.1738.0059Zm22.6333-9.7266c-.6035,0-1.2085-.2168-1.688-.6562-1.0186-.9326-1.0874-2.5146-.1548-3.5322,1.1904-1.2998,2.2803-2.7656,3.2383-4.3564,1.0415-1.7285,1.6045-3.4199,1.7212-5.1729.0918-1.3779,1.2705-2.4365,2.6606-2.3281,1.3779.0918,2.4204,1.2822,2.3286,2.6602-.1689,2.5312-.9854,5.0283-2.4277,7.4209-1.1289,1.875-2.4194,3.6084-3.8345,5.1533-.4927.5381-1.1675.8115-1.8438.8115Zm1.8647-22.9111c-.8579,0-1.6934-.4414-2.1587-1.2344-.6372-1.0859-1.3115-2.165-1.9849-3.2422-1.6113-2.5801-3.2778-5.2471-4.4419-8.0078-.5361-1.2725.0601-2.7393,1.3325-3.2754s2.7388.0605,3.2749,1.332c1.0088,2.3936,2.4985,4.7773,4.0752,7.3018.6978,1.1162,1.3965,2.2354,2.0566,3.3604.6987,1.1914.2998,2.7227-.8911,3.4219-.3975.2334-.833.3438-1.2627.3438Zm-6.1299-23.1172c-.4004,0-.8066-.0957-1.1836-.2988-1.2153-.6553-1.6704-2.1709-1.0156-3.3867.6123-1.1367,1.3892-2.2744,2.3101-3.3828,2-2.4082,4.7451-4.4004,8.1587-5.9229,1.2612-.5625,2.7393.0049,3.3013,1.2646.5625,1.2617-.0039,2.7393-1.2651,3.3018-2.707,1.207-4.8428,2.7383-6.3486,4.5518-.709.8525-1.2993,1.7139-1.7539,2.5586-.4517.8389-1.3135,1.3145-2.2031,1.3145Zm21.4878-11.3076c-1.2471,0-2.3257-.9307-2.479-2.2002-.1655-1.3701.811-2.6162,2.1816-2.7812,3.0845-.373,6.4707-.5625,10.0645-.5625.9863,0,1.9619.0137,2.9224.04,1.3799.0371,2.4688,1.1865,2.4312,2.5664-.0371,1.3799-1.1797,2.4697-2.5669,2.4316-.9155-.0244-1.8462-.0381-2.7866-.0381-3.394,0-6.5781.1768-9.4639.5254-.1021.0127-.2036.0186-.3032.0186Z"/>
    <path class="cls-1" d="m25.1587,127.5449c-.0713,0-.1426-.0029-.2144-.0088l-1.522-.1328c-1.7183-.1514-3.2017-.2822-4.2925-.3018-1.3804-.0254-2.4795-1.165-2.4541-2.5459.0249-1.3799,1.1782-2.4746,2.5449-2.4541,1.2656.0234,2.8296.1611,4.6411.3213l1.5054.1309c1.376.1172,2.3965,1.3272,2.2798,2.7031-.1108,1.3037-1.2036,2.2881-2.4883,2.2881Z"/>
  </g>
  <path class="cls-2" d="m31.4365,76.1553c-2.5498-4.417-7.1118-7.0498-12.2085-7.0498h-.0903c-5.1118,0-9.6729,2.6328-12.2231,7.0498-2.5576,4.4297-2.5493,9.7139.0215,14.1357l12.2393,21.3506,12.2314-21.3369c2.5791-4.4355,2.5869-9.7197.0298-14.1494Zm-12.2611,12.4221c-3.2377,0-5.8624-2.6246-5.8624-5.8623s2.6246-5.8624,5.8624-5.8624,5.8624,2.6246,5.8624,5.8624-2.6247,5.8623-5.8624,5.8623Z"/>
  <path class="cls-1" d="m19.1754,76.8527c-3.2377,0-5.8624,2.6246-5.8624,5.8624s2.6246,5.8623,5.8624,5.8623,5.8624-2.6246,5.8624-5.8623-2.6247-5.8624-5.8624-5.8624Z"/>
  <path class="cls-1" d="m125.4165,9.7178C121.9619,3.7354,115.7837.1689,108.894.1689h-.1221c-6.9038,0-13.0835,3.5664-16.5376,9.5498-3.4644,6-3.4531,13.1592.022,19.1357l12.7725,22.2803c.7891,1.377,2.2085,2.2002,3.7959,2.2002h.001c1.564,0,3.0186-.8428,3.7969-2.2002l12.7646-22.2666c3.4829-5.9902,3.4937-13.1494.0293-19.1504Zm-4.3594,16.6504l-12.2314,21.3369-12.2393-21.3506c-2.5713-4.4219-2.5791-9.7061-.022-14.1357,2.5503-4.417,7.1113-7.0498,12.2236-7.0498h.0903c5.0967,0,9.6582,2.6328,12.208,7.0488,2.5576,4.4297,2.5493,9.7148-.0293,14.1504Z"/>
  <path class="cls-2" d="m121.0864,12.2178c-2.5498-4.416-7.1113-7.0488-12.208-7.0488h-.0903c-5.1123,0-9.6733,2.6328-12.2236,7.0498-2.5571,4.4297-2.5493,9.7139.022,14.1357l12.2393,21.3506,12.2314-21.3369c2.5786-4.4355,2.5869-9.7207.0293-14.1504Zm-12.2608,12.4229c-3.2377,0-5.8624-2.6248-5.8624-5.8625s2.6247-5.8623,5.8624-5.8623,5.8624,2.6248,5.8624,5.8623-2.6247,5.8625-5.8624,5.8625Z"/>
  <path class="cls-1" d="m108.8256,12.9158c-3.2377,0-5.8624,2.6248-5.8624,5.8623s2.6247,5.8625,5.8624,5.8625,5.8624-2.6248,5.8624-5.8625-2.6247-5.8623-5.8624-5.8623Z"/>
</svg>