<?xml version="1.0" encoding="UTF-8"?>
<svg id="ProteinEnriched" xmlns="http://www.w3.org/2000/svg" viewBox="0 0 128 128">
  <defs>
    <style>
      .cls-1 {
        fill: #ffd93d;
      }

      .cls-2 {
        fill: #333;
      }
    </style>
  </defs>
  <path class="cls-2" d="m127.9107,91.441c-1.1215-9.4535-31.7592-68.1111-40.2225-77.0823-5.8346-6.1841-24.5501-18.4039-32.7874-13.0248-6.471,4.2268-11.1022,18.0907-9.3847,22.1194,1.8357,4.3108,9.1919,5.5203,16.3066,6.6913,2.5561.4201,6.0046.9875,7.0639,1.5061,3.2962,5.847,7.9388,32.5624,8.1367,41.8769-5.392-2.9572-13.7827-4.8657-20.2506-3.3908-4.8914,1.1182-8.741,2.9448-11.5521,4.2797-1.4356.6815-3.1998,1.5185-3.9222,1.6088-.3897-.3215-1.0832-1.0819-1.6553-1.7084-2.7603-3.0267-7.3801-8.0906-15.7262-9.7875-6.952-1.4138-15.4566-1.7146-18.5506-1.7177h-.0083c-1.4314,0-2.7758.556-3.7875,1.5673C.5578,65.3915.0002,66.7379.0002,68.1714v56.3175c-.0093.8505.37,1.6793,1.0531,2.2913.738.6597,1.8575,1.2198,4.4871,1.2198,1.5216,0,3.5501-.1877,6.3021-.6514,6.6649-1.1223,12.971-4.8004,15.1259-7.4869.8728-1.086,1.6356-2.0382,2.4089-2.507.6582.1981,2.1228,1.1202,3.32,1.8733,5.4148,3.4084,15.4992,9.7439,33.4788,8.1476,18.1299-1.6171,35.7964-13.2389,42.2913-18.9749,1.3516-1.1939,2.8836-2.5465,3.2775-2.756.4042-.1421,1.2324-.3288,2.1083-.5269,4.767-1.0746,15.2183-3.9079,14.0574-13.6768Zm-15.2246,8.4967c-1.1194.2521-2.0036.4512-2.697.695-1.1879.417-2.4016,1.4615-5.0334,3.786-6.5363,5.7733-22.8554,16.2044-39.2501,17.6669-16.203,1.4449-24.9544-4.0629-30.1837-7.3531-3.1355-1.9729-5.6118-3.535-8.2062-2.2934-1.9425.9294-3.235,2.5402-4.4851,4.0982-1.9756,2.4614-7.1965,4.788-11.8692,5.5742-2.9468.4968-4.6768.5829-5.6522.5715l.0498-54.5604c2.8536.0031,10.9788.2852,17.5006,1.6119,6.6504,1.3515,10.3891,5.4497,12.8633,8.1621,1.1194,1.2271,2.0036,2.1969,2.9997,2.7964,2.497,1.4978,5.2666.1857,8.7721-1.4781,2.7333-1.2976,6.1352-2.9116,10.4596-3.9001,5.9559-1.3629,15.0732,1.2364,18.6544,4.2963,1.4864,1.2706,3.1666.9667,4.1679.0975,1.0034-.8692,3.092-2.6782-.5846-24.6295-.5155-3.0798-2.9606-17.1174-5.7659-24.0571,2.1389-1.4663,5.1148-4.1635,6.4397-8.4172.4364-1.4003-.3441-2.8887-1.7434-3.3254-1.3962-.4346-2.8867.3444-3.3231,1.7447-.9376,3.01-3.2489,4.8978-4.6798,5.8208-1.747-.8043-4.4283-1.2822-8.4364-1.9415-3.3936-.558-11.2764-1.8546-12.2466-3.4613-.3151-2.2342,2.8546-12.7146,7.3656-15.6604,3.4579-2.2643,18.2823,4.0152,26.0282,12.223,7.604,8.0605,37.8333,65.824,38.8107,74.0628.4965,4.176-3.0008,6.3009-9.9549,7.8702Z"/>
  <path class="cls-1" d="m122.641,92.0675c-.9774-8.2389-31.2067-66.0024-38.8107-74.0628-7.746-8.2078-22.5704-14.4873-26.0282-12.223-4.511,2.9458-7.6807,13.4262-7.3656,15.6604.9702,1.6067,8.853,2.9033,12.2466,3.4613,4.0077.6592,6.6888,1.1371,8.4358,1.9412,1.4309-.9229,3.7425-2.8107,4.6802-5.8211.4364-1.4003,1.9269-2.1793,3.3231-1.7447,1.3993.4367,2.1798,1.9251,1.7434,3.3254-1.3249,4.2538-4.3007,6.9508-6.4397,8.4172,2.8055,6.9396,5.2506,20.9778,5.7661,24.0577,3.6766,21.9513,1.588,23.7603.5846,24.6295-1.0013.8692-2.6815,1.1731-4.1679-.0975-3.5812-3.0599-12.6985-5.6592-18.6544-4.2963-4.3244.9885-7.7263,2.6025-10.4596,3.9001-3.5055,1.6638-6.2751,2.9759-8.7721,1.4781-.9961-.5995-1.8803-1.5694-2.9997-2.7964-2.4742-2.7124-6.2129-6.8106-12.8633-8.1621-6.5218-1.3266-14.6471-1.6088-17.5006-1.6119l-.0498,54.5604c.9754.0114,2.7053-.0747,5.6522-.5715,4.6727-.7862,9.8936-3.1128,11.8692-5.5742,1.2501-1.558,2.5426-3.1688,4.4851-4.0982,2.5944-1.2416,5.0707.3205,8.2062,2.2934,5.2293,3.2902,13.9807,8.798,30.1837,7.3531,16.3948-1.4625,32.7138-11.8935,39.2501-17.6669,2.6317-2.3245,3.8455-3.369,5.0334-3.786.6934-.2438,1.5776-.4429,2.697-.695,6.9541-1.5694,10.4514-3.6943,9.9549-7.8702Z"/>
</svg>