<?xml version="1.0" encoding="UTF-8"?>
<svg id="ArtgerechteHaltung" xmlns="http://www.w3.org/2000/svg" viewBox="0 0 128 128">
  <defs>
    <style>
      .cls-1 {
        fill: #f9f9f9;
      }

      .cls-2 {
        fill: #ffa124;
      }

      .cls-3 {
        fill: #ffd93d;
      }

      .cls-4 {
        fill: red;
      }

      .cls-5 {
        fill: #333;
      }
    </style>
  </defs>
  <path class="cls-1" d="m103.5929,61.5329c-.1912-2.8978-1.0858-6.1788-1.9519-9.3514-1.5558-5.7048-3.1648-11.6038-1.0326-16.3943,2.2997-5.1649,1.8563-14.3558-4.0731-16.9993-3.2151-1.4336-6.7749-1.3962-10.0225.1044-3.1826,1.4711-5.624,4.1984-6.5315,7.2932-.5793,1.9726-.8533,4.9817-.7538,8.2568.0005.0164.0023.0333.0028.0497,0,.0034.0005.0065.0006.0098.1052,3.2971.5775,6.7763,1.371,10.0653.2405,1.0001-.1497,2.0475-.9872,2.6445-.8385.5981-1.9558.6257-2.8219.0729l-1.1853-.7636c-4.9728-3.2209-9.6736-6.2645-21.2864-6.2645h-.1566c-15.35.0355-21.576,7.6892-23.6215,10.2037-.5409.6661-1.3784,1.0149-2.2366.9153-.8533-.0956-1.5991-.6178-1.9805-1.3863l-.2858-.5784c-2.2543-4.5551-4.0348-8.1523-7.7877-11.6738-.1675-.1577-.7332-.6542-1.0011-.4089-.7035.6542-1.405,3.9658,2.5519,8.8441.5261.6483.6967,1.5143.4573,2.3145-.2395.7991-.8593,1.4277-1.6553,1.6799-.6877.2177-1.5371.602-1.676,1.1991-.2207.9488.6069,3.7037,5.1057,8.0055.8533.8159,1.0267,2.1135.4177,3.1244-.6108,1.0129-1.8385,1.4651-2.9587,1.0917-.067-.0226-.1222-.0345-.1616-.0403-.2778.466-.6907,2.6534,1.2415,7.6498l.2483.6611c.491,1.3194,1.3632,3.6575,2.8108,6.466,4.0259-1.3446,7.5432-2.2657,9.6375-2.2657,10.2935,0,21.4863,5.9009,28.8938,9.8066.9587.5055,1.8612.9814,2.6968,1.4109,6.5739,3.3746,7.6577,8.3918,6.5876,11.663-.2739.8358-.7191,1.6445-1.3188,2.3867,29.4126-5.5742,34.4575-24.6694,33.4631-39.7925Zm-9.4542-32.3932c-1.4127,0-2.5581-1.1248-2.5581-2.5123s1.1454-2.5123,2.5581-2.5123,2.558,1.1248,2.558,2.5123-1.1453,2.5123-2.558,2.5123Z"/>
  <path class="cls-5" d="m94.1387,24.1151c-1.4127,0-2.5581,1.1248-2.5581,2.5123s1.1454,2.5123,2.5581,2.5123,2.558-1.1248,2.558-2.5123-1.1453-2.5123-2.558-2.5123Z"/>
  <path class="cls-5" d="m78.3753,61.5428c-1.3815-.1508-2.6288.8522-2.7786,2.2366-.1754,1.6228-2.1794,5.3118-4.7944,6.23-.8749.3074-2.2643.4887-4.217-1.475-.474-.4759-1.1173-.7429-1.7883-.7429h-.0089c-.6738.002-1.3193.2749-1.7913.7557-3.3333,3.3983-7.5159,5.1403-10.647,4.4358-2.4248-.5439-4.2605-2.5608-5.4536-5.9946-.2543-.7321-.8297-1.3055-1.5627-1.5577-.7321-.2512-1.5391-.1537-2.1893.267-3.618,2.3411-6.7059,3.016-8.4706,1.8612-.9597-.6296-1.3499-1.742-1.2297-2.4691.2267-1.3745-.7034-2.6732-2.0769-2.9008-1.3794-.2236-2.6741.7025-2.9006,2.077-.468,2.8357.9143,5.8546,3.4406,7.5109,1.8129,1.1873,5.5472,2.5352,11.4098-.3735,2.2878,4.3501,5.4742,5.9512,7.9286,6.502.8187.1842,1.6661.2739,2.5312.2739,3.6624-.001,7.6429-1.611,11.1122-4.5176,3.147,2.1223,6.0112,1.6613,7.5847,1.1075,4.692-1.6474,7.7908-7.2232,8.1387-10.4481.1497-1.3853-.8513-2.6288-2.2367-2.7785Z"/>
  <path class="cls-5" d="m122.7914,83.4814c-2.9323-3.4662-9.4047-4.4752-16.1047.2927-.9443.6724-1.9781,1.3846-3.0775,2.1204,4.8103-8.5175,5.4677-17.837,5.0166-24.6925-.2236-3.4042-1.1863-6.9345-2.1173-10.3486-1.2067-4.4229-2.3535-8.6316-1.7007-11.7234.1458-.062.2888-.1334.4247-.2252l10.5515-7.1089c.7606-.5123,1.1833-1.3972,1.1035-2.3105-.0797-.9143-.6483-1.7124-1.4868-2.0858l-9.3094-4.1456c-.8824-2.9955-2.4308-5.4629-4.5437-7.2247,2.4172-7.8649-.8232-12.8899-4.5876-14.8671-4.1786-2.1953-9.1416-1.1981-12.5063,2.2997-4.4604-1.8317-9.576-.8385-13.061,2.7273-3.2515,3.3293-4.0239,7.8597-2.2061,12.0403-1.8849,1.8001-2.9707,4.423-2.8811,7.2213.0685,2.1415,1.0093,7.2725,7.9697,10.7331.0776,1.2563.1846,2.5224.3522,3.795-4.4545-2.5391-10.2156-4.7668-20.3129-4.7668h-.1616c-13.6276.0316-21.1316,5.3787-24.9752,9.2047-1.8593-3.6022-3.9452-7.0479-7.4725-10.3585-2.4464-2.2957-5.6899-2.4701-7.8892-.4236-2.6445,2.4603-3.1757,7.5878.3123,13.2493-1.3025,1.0592-1.874,2.3115-2.1124,3.3401-.7548,3.2485,1.205,6.7906,3.7037,9.7869-1.5844,1.6701-2.8376,5.2802.1497,13.0059l.2247.6c.4937,1.3273,1.3501,3.6154,2.7465,6.4083-3.4296,1.2808-6.9668,2.7151-10.1519,4.0565-3.1323,1.3193-5.1571,4.3688-5.1571,7.7701v24.9299c0,4.2358,3.1658,7.8311,7.3622,8.3641,8.7759,1.1154,24.8422,2.8544,39.666,2.8544,10.7072,0,20.766-.9075,26.9556-3.6131,8.2065-3.5875,27.2543-14.6158,43.4299-28.9371.0383-.0345.0758-.069.1113-.1054,4.4043-4.4043,4.0457-9.1317,1.7351-11.863Zm-15.8848-54.3417l2.2827,1.0165-2.4102,1.624c.095-.8737.1292-1.7583.1274-2.6406Zm-32.647,1.0966c-1.816-1.4214-2.8547-3.1277-2.9126-4.9465-.0552-1.74.8425-3.3677,2.2347-4.0496.6561-.3222,1.141-.9133,1.3282-1.6208.1871-.7065.0581-1.4602-.3538-2.0642-2.751-4.0367-.3547-7.0222.4453-7.8409,1.9045-1.9529,5.4565-3.083,8.7505-.9498,1.1587.7498,2.7075.4276,3.4731-.7232,2.0316-3.0673,5.2565-3.5323,7.3887-2.413,1.9551,1.0265,3.4116,3.6164,2.3804,7.9387-4.1252-1.3773-8.5388-1.1304-12.5979.7466-4.4841,2.0731-7.9443,5.9808-9.2559,10.452-.4424,1.5075-.7388,3.3809-.8809,5.4706Zm-57.3303,21.1294c.1389-.5971.9883-.9814,1.676-1.1991.796-.2523,1.4158-.8809,1.6553-1.6799.2394-.8001.0688-1.6661-.4573-2.3145-3.9569-4.8782-3.2554-8.1898-2.5519-8.8441.2679-.2453.8336.2513,1.0011.4089,3.7529,3.5214,5.5334,7.1187,7.7877,11.6738l.2858.5784c.3813.7685,1.1272,1.2907,1.9805,1.3863.8582.0995,1.6957-.2493,2.2366-.9153,2.0454-2.5145,8.2715-10.1682,23.6215-10.2037h.1566c11.6128,0,16.3136,3.0435,21.2864,6.2645l1.1853.7636c.8661.5527,1.9834.5251,2.8219-.0729.8375-.597,1.2277-1.6444.9872-2.6445-.7935-3.289-1.2657-6.7682-1.371-10.0653-.0001-.0034-.0006-.0065-.0006-.0098-.0005-.0164-.0023-.0334-.0028-.0497-.0995-3.2751.1744-6.2842.7538-8.2568.9075-3.0948,3.3489-5.8221,6.5315-7.2932,3.2476-1.5006,6.8074-1.538,10.0225-.1044,5.9294,2.6436,6.3728,11.8344,4.0731,16.9993-2.1322,4.7905-.5232,10.6895,1.0326,16.3943.8661,3.1727,1.7607,6.4537,1.9519,9.3514.9944,15.123-4.0505,34.2183-33.4631,39.7925.5997-.7422,1.0449-1.551,1.3188-2.3867,1.0701-3.2712-.0138-8.2883-6.5876-11.663-.8356-.4296-1.738-.9055-2.6968-1.4109-7.4075-3.9057-18.6003-9.8066-28.8938-9.8066-2.0942,0-5.6116.9211-9.6375,2.2657-1.4476-2.8085-2.3198-5.1466-2.8108-6.466l-.2483-.6611c-1.9321-4.9964-1.5193-7.1838-1.2415-7.6498.0394.0059.0946.0177.1616.0403,1.1202.3735,2.3479-.0788,2.9587-1.0917.609-1.0109.4355-2.3085-.4177-3.1244-4.4988-4.3018-5.3264-7.0567-5.1057-8.0055Zm100.6113,40.3596c-15.7283,13.9114-34.1316,24.5792-42.0454,28.0386-13.9912,6.1157-52.4966,1.8346-63.9663.3763-1.6829-.2128-2.953-1.6572-2.953-3.3588v-24.9299c0-1.3666.8129-2.5914,2.0712-3.1215,11.3407-4.7757,19.7985-7.6271,22.6233-7.6271,9.045,0,19.574,5.5511,26.5409,9.2243.9755.5143,1.8947.9991,2.746,1.4356,3.5077,1.8011,4.5847,4.1146,4.0959,5.6073-.5321,1.6267-3.0889,3.0623-7.4331,2.3746-9.3406-2.343-19.6931-6.2744-19.8408-6.3315-1.2996-.4946-2.7588.1567-3.2565,1.4573-.4966,1.3016.1556,2.7589,1.4573,3.2564.6188.2355,10.9062,4.1422,20.5414,6.5335.0503.0138.1016.0266.1528.0374,4.2516,1.0488,8.3672,1.7974,11.4546,1.798.0005,0,.001.0001.0015.0001.0002,0,.0005,0,.0007,0,.0007,0,.0015,0,.0022,0,10.8647,0,30.8367-12.1743,39.8798-18.6122,4.4318-3.1559,8.1198-2.5696,9.3268-1.1439,1.005,1.1873.468,3.0939-1.3992,4.9856Z"/>
  <path class="cls-2" d="m106.9066,29.1397c.0017.8823-.0325,1.7668-.1274,2.6406l2.4102-1.624-2.2827-1.0165Z"/>
  <path class="cls-4" d="m84.3964,14.3137c4.0591-1.877,8.4727-2.1239,12.5979-.7466,1.0312-4.3223-.4253-6.9122-2.3804-7.9387-2.1322-1.1193-5.3571-.6542-7.3887,2.413-.7656,1.1508-2.3145,1.473-3.4731.7232-3.2939-2.1332-6.8459-1.0031-8.7505.9498-.8.8187-3.1963,3.8042-.4453,7.8409.4119.604.5409,1.3577.3538,2.0642-.1873.7075-.6721,1.2986-1.3282,1.6208-1.3922.6818-2.2899,2.3096-2.2347,4.0496.0579,1.8188,1.0966,3.525,2.9126,4.9465.1421-2.0898.4385-3.9631.8809-5.4706,1.3115-4.4713,4.7717-8.379,9.2559-10.452Z"/>
  <path class="cls-3" d="m109.613,87.8837c-9.0431,6.4379-29.015,18.6122-39.8798,18.6122-.0007,0-.0015,0-.0022,0-.0002,0-.0005,0-.0007,0-.0005,0-.001-.0001-.0015-.0001-3.0874-.0006-7.203-.7492-11.4546-1.798-.0513-.0109-.1025-.0236-.1528-.0374-9.6351-2.3914-19.9226-6.298-20.5414-6.5335-1.3016-.4976-1.9539-1.9548-1.4573-3.2564.4977-1.3006,1.9569-1.9518,3.2565-1.4573.1477.0572,10.5002,3.9885,19.8408,6.3315,4.3442.6877,6.901-.7479,7.4331-2.3746.4888-1.4927-.5883-3.8062-4.0959-5.6073-.8513-.4365-1.7705-.9213-2.746-1.4356-6.9669-3.6732-17.4958-9.2243-26.5409-9.2243-2.8248,0-11.2826,2.8514-22.6233,7.6271-1.2583.5301-2.0712,1.7548-2.0712,3.1215v24.9299c0,1.7016,1.2701,3.146,2.953,3.3588,11.4697,1.4583,49.9751,5.7394,63.9663-.3763,7.9138-3.4594,26.3171-14.1272,42.0454-28.0386,1.8672-1.8917,2.4042-3.7983,1.3992-4.9856-1.207-1.4257-4.895-2.012-9.3268,1.1439Z"/>
</svg>