<?xml version="1.0" encoding="UTF-8"?>
<svg id="Sugar_reduced" data-name="Sugar reduced" xmlns="http://www.w3.org/2000/svg" viewBox="0 0 128 128">
  <defs>
    <style>
      .cls-1 {
        fill: #f7f7f7;
      }

      .cls-2 {
        fill: #333;
      }

      .cls-3 {
        fill: #377abe;
      }
    </style>
  </defs>
  <path class="cls-1" d="m84.3812,13.9226l-22.6164,8.704-22.6265-8.704,22.2262-8.8247c.2602-.0905.5503-.0905.7606-.0099l22.2562,8.8347Z"/>
  <path class="cls-1" d="m88.8745,17.5853v31.2136c0,.2717-.08.5333-.2203.7446l-24.3876,9.68V27.044l24.6078-9.4587Z"/>
  <path class="cls-1" d="m59.263,27.044v32.2096l-24.3578-9.6598c-.16-.2314-.2502-.5031-.2502-.795v-31.2136l24.608,9.4587Z"/>
  <path class="cls-1" d="m29.6114,75.9976v33.4373l-23.8272-10.4649c-.4703-.2013-.7805-.6843-.7805-1.2176v-31.2235l24.6077,9.4688Z"/>
  <path class="cls-1" d="m53.3786,63.3894l-21.2654,8.1807-22.6163-8.704,22.2261-8.8247c.2101-.0705.4302-.0705.6305-.0302.3302.2415.6906.4529,1.0707.624l19.9544,8.7542Z"/>
  <path class="cls-1" d="m59.223,66.5288v31.2235c0,.5333-.3003,1.0163-.7706,1.2176l-23.8374,10.4649v-33.4373l24.608-9.4688Z"/>
  <path class="cls-1" d="m84.0611,74.1561v21.2217h-2.0215c-3.0122,0-5.7341,1.8112-6.9151,4.5985-.4304,1.0264-.6204,2.1232-.5804,3.1898l-9.547-4.1961c-.4703-.2013-.7706-.6843-.7706-1.2176v-31.2235l19.8345,7.6273Z"/>
  <path class="cls-1" d="m101.0033,57.7242h-9.4368c-4.1431,0-7.5055,3.381-7.5055,7.5468v3.5017l-13.9502-5.3632,19.9845-8.7744c.3903-.1711.7505-.3926,1.0908-.6341.1902-.0201.3704-.0201.5104.0302l9.3068,3.6929Z"/>
  <path class="cls-2" d="m74.5441,103.1661l-9.547-4.1961c-.4703-.2013-.7706-.6843-.7706-1.2176v-31.2235l19.8345,7.6273v-5.3834l-13.9502-5.3632,19.9845-8.7744c.3903-.1711.7505-.3926,1.0908-.6341.1902-.0201.3704-.0201.5104.0302l9.3068,3.6929h13.6199l-20.795-8.2512c.0199-.2213.05-.4427.05-.6741V16.6194c0-2.6565-1.6612-5.0614-4.0629-5.9469L63.9063.3886c-1.3809-.5231-2.912-.5131-4.293,0l-25.8487,10.2637c-2.4619.9056-4.1131,3.3106-4.1131,5.9671v32.1795c0,.2213.02.4326.0401.6439l-25.5786,10.153c-2.4617.9156-4.1129,3.3106-4.1129,5.9669v32.1896c0,2.5357,1.4811,4.8199,3.7827,5.8362l25.8487,11.3403c.7906.3522,1.6413.5233,2.4818.5233.8507,0,1.6913-.1711,2.4819-.5233l25.8588-11.3403c.4603-.2113.8806-.4729,1.2709-.7748.3903.3019.8106.5636,1.2709.7748l15.9816,7.0135-2.3318-2.4249c-1.3208-1.3787-2.0414-3.1697-2.1014-5.0111Zm14.3304-54.3672c0,.2717-.08.5333-.2203.7446l-24.3876,9.68V27.044l24.6078-9.4587v31.2136Zm-59.2631,60.636l-23.8272-10.4649c-.4703-.2013-.7805-.6843-.7805-1.2176v-31.2235l24.6077,9.4688v33.4373Zm2.5018-37.8648l-22.6163-8.704,22.2261-8.8247c.2101-.0705.4302-.0705.6305-.0302.3302.2415.6906.4529,1.0707.624l19.9544,8.7542-21.2654,8.1807Zm27.1098,26.1823c0,.5333-.3003,1.0163-.7706,1.2176l-23.8374,10.4649v-33.4373l24.608-9.4688v31.2235Zm.0401-38.4987l-24.3578-9.6598c-.16-.2314-.2502-.5031-.2502-.795v-31.2136l24.608,9.4587v32.2096Zm2.5018-36.627l-22.6265-8.704,22.2262-8.8247c.2602-.0905.5503-.0905.7606-.0099l22.2562,8.8347-22.6164,8.704Z"/>
  <path class="cls-2" d="m127.8028,101.9385c-.3903-.9259-1.301-1.5295-2.3017-1.5295h-7.0251v-35.1379c0-1.3886-1.1207-2.5156-2.5018-2.5156h-24.4076c-1.3811,0-2.5018,1.127-2.5018,2.5156v35.1379h-7.0251c-1.0107,0-1.9114.6036-2.3017,1.5295-.3903.9357-.2001,2.0125.5004,2.7369l1.6412,1.7106,8.6964,9.0159,11.3982,11.8334c.4703.483,1.1209.7648,1.7913.7648.6804,0,1.331-.2818,1.8014-.7648l21.7358-22.5598c.6904-.7245.8905-1.8012.5004-2.7369Zm-24.0375,19.9235l-7.6456-7.9392-7.2852-7.5569-.8908-.9257h3.6227c1.0107,0,1.8812-.6038,2.2717-1.4692.15-.3219.2301-.6742.2301-1.0464v-35.1379h19.404v35.1379c0,1.2377.8907,2.264,2.0616,2.4753.14.0302.2902.0403.4403.0403h3.6227l-15.8316,16.4218Z"/>
  <path class="cls-3" d="m119.5969,105.4402l-15.8316,16.4218-7.6456-7.9392-7.2852-7.5569-.8908-.9257h3.6227c1.0107,0,1.8812-.6038,2.2717-1.4692.15-.3219.2301-.6742.2301-1.0464v-35.1379h19.404v35.1379c0,1.2377.8907,2.264,2.0616,2.4753.14.0302.2902.0403.4403.0403h3.6227Z"/>
</svg>