<?xml version="1.0" encoding="UTF-8"?>
<svg id="Süßstoff_frei" data-name="Süßstoff frei" xmlns="http://www.w3.org/2000/svg" viewBox="0 0 128 128">
  <defs>
    <style>
      .cls-1 {
        fill: #f2f2f2;
      }

      .cls-2 {
        fill: #669fd8;
      }

      .cls-3 {
        fill: #fff;
      }

      .cls-4 {
        fill: #333;
      }

      .cls-5 {
        fill: #c1272d;
      }
    </style>
  </defs>
  <path class="cls-3" d="m17.7209,67.3151c0,9.6785,3.097,19.1517,8.7692,26.9619l16.2356-16.152c-2.8599-1.3533-4.2851-4.6781-3.1952-7.7058l1.6357-4.5427h-.0002l15.8694-44.08c-22.2257,3.352-39.3144,22.4867-39.3144,45.5186Z"/>
  <path class="cls-2" d="m68.2069,10.1403l34.248,12.2031,1.4363.5118.6769-1.8787c.4815-1.3375.411-2.7824-.2-4.0671-.6098-1.2849-1.6866-2.2561-3.0319-2.7353l-25.6146-9.1268c-2.7811-.9925-5.8447.4523-6.8387,3.2144l-.6759,1.8786Z"/>
  <path class="cls-2" d="m45.4867,67.9216l-1.4746,4.0941c-.2761.7677.1275,1.6159.899,1.8915l36.2868,12.9286c.3766.1331.7782.1147,1.1372-.0555.3589-.1683.6304-.4662.7642-.838l1.4747-4.094-39.0873-13.9267Z"/>
  <path class="cls-1" d="m64.9006,13.9938l-17.6483,49.0208,39.0873,13.9266,17.6473-49.0216-39.0863-13.9258Zm12.9556,49.7941c-1.4197.6678-2.9389,1.0036-4.4638,1.0036-1.1893,0-2.3821-.2045-3.535-.6152h-.0009l-1.723-.6142c-2.6304-.937-4.7372-2.8379-5.9321-5.352-1.1947-2.5141-1.3334-5.34-.3904-7.9577l4.3839-12.1765c.9418-2.6178,2.8526-4.7138,5.3797-5.9014,2.5271-1.1878,5.3667-1.3255,7.999-.3886l1.7219.6132c5.4328,1.9351,8.2686,7.9067,6.3235,13.3106l-4.3831,12.1757c-.9418,2.6176-2.8525,4.7137-5.3797,5.9023Z"/>
  <path class="cls-4" d="m87.619,45.7098c1.9451-5.4038-.8907-11.3755-6.3235-13.3106l-1.7219-.6132c-2.6323-.937-5.4719-.7992-7.999.3886-2.5271,1.1876-4.4379,3.2836-5.3797,5.9014l-4.3839,12.1765c-.9429,2.6178-.8043,5.4437.3904,7.9577,1.1948,2.5141,3.3017,4.415,5.9321,5.352l1.723.6142h.0009c1.1529.4107,2.3458.6152,3.535.6152,1.5249,0,3.0442-.3358,4.4638-1.0036,2.5272-1.1887,4.4379-3.2847,5.3797-5.9023l4.3831-12.1757Zm-11.7971,13.7962c-1.377.6465-2.9269.7224-4.3588.2118l-1.7238-.6142c-1.4347-.5115-2.5829-1.5475-3.2337-2.9174s-.7262-2.9101-.2129-4.3373l4.3839-12.1765c.5133-1.4263,1.5547-2.5687,2.9316-3.2162,1.3762-.6466,2.9252-.7234,4.3617-.2118l1.722.6133c2.9604,1.0554,4.5056,4.3095,3.4457,7.2555l-4.3829,12.1757c-.5141,1.4273-1.5555,2.5696-2.9325,3.2171Z"/>
  <path class="cls-2" d="m83.1373,44.1133c1.06-2.946-.4852-6.2001-3.4457-7.2555l-1.722-.6133c-1.4365-.5116-2.9855-.4348-4.3617.2118-1.3769.6475-2.4183,1.7899-2.9316,3.2162l-4.3839,12.1765c-.5133,1.4273-.4379,2.9674.2129,4.3373s1.7991,2.4059,3.2337,2.9174l1.7238.6142c1.432.5106,2.9818.4347,4.3588-.2118,1.377-.6475,2.4184-1.7898,2.9325-3.2171l4.3829-12.1757Z"/>
  <path class="cls-5" d="m108.1862,33.0065c-.213-.2921-.4325-.5861-.6567-.8811l-1.9896,5.5266c6.2099,8.6079,9.6087,19.0205,9.6087,29.6631,0,22.1564-14.3135,41.0399-34.2204,48.0077-1.5025,1.6521-3.8393,2.7205-6.4667,2.7205-.9686,0-1.8918-.1562-2.7543-.4222-2.5116.3793-5.082.5775-7.6981.578-1.1924.5808-2.5588.9283-4.0257.9283-2.1081,0-4.0146-.7018-5.4677-1.8265-1.5837-.2984-3.1501-.6714-4.6957-1.1159-1.3353.8134-2.9576,1.3015-4.7178,1.3015-4.5211,0-8.1998-3.1515-8.2031-7.0258-1.8114-1.1248-3.5573-2.3628-5.2217-3.7146l-2.0864-1.6943,23.3676-23.2473-5.1882-1.8486-21.7024,21.5911-1.703-2.0756c-7.4237-9.0466-11.5127-20.4667-11.5127-32.1564,0-26.3364,20.2176-48.062,46.0226-50.6284l1.692-4.7001c.0514-.1426.1131-.2784.1778-.4119C31.3039,13.259,7.8685,37.6117,7.8685,67.3151c0,8.269,3.1285,22.2168,11.9463,34.3086,7.1632,9.8232,20.6432,21.5329,44.1857,21.5329,30.9509,0,56.131-25.05,56.131-55.8415,0-8.2689-3.1285-22.2168-11.9453-34.3086Z"/>
  <path class="cls-3" d="m82.4736,109.5174c16.3486-7.1105,27.8064-23.3466,27.8064-42.2023,0-8.4796-2.3783-16.8021-6.7834-23.9872l-12.8367,35.6583h.0005s-3.0796,8.5526-3.0796,8.5526c-.5625,1.5623-1.7024,2.8137-3.2114,3.5233-.848.3986-1.7545.5993-2.6658.5993-.7103,0-1.4225-.1221-2.1106-.3672l-21.5646-7.6833-21.1296,21.021c.6332.4551,1.2808.8872,1.9349,1.3087,1.3818-1.4039,3.3875-2.3436,5.6521-2.489-.0002-.0237-.0043-.0465-.0043-.0699,0-3.6855,3.3281-6.7122,7.5428-7.0023-.1538-.5372-.2444-1.0952-.2444-1.6724,0-3.8765,3.6803-7.0309,8.2034-7.0309s8.2034,3.1544,8.2034,7.0309c0,.6622-.1149,1.3008-.3154,1.9087,3.4554.8278,6.001,3.5441,6.001,6.7661,0,.2115-.0157.42-.0371.6269.2075-.0134.4148-.0272.6262-.0272,3.9241,0,7.21,2.3756,8.0122,5.5359Z"/>
  <path class="cls-3" d="m68.8369,103.3817c0-.9559-1.3013-2.0214-3.168-2.0214s-3.1677,1.0655-3.1677,2.0214c0,.9568,1.301,2.0224,3.1677,2.0224s3.168-1.0656,3.168-2.0224Z"/>
  <path class="cls-3" d="m49.5171,103.3817c0,.9568,1.3011,2.0224,3.1677,2.0224s3.168-1.0656,3.168-2.0224c0-.9559-1.3013-2.0214-3.168-2.0214s-3.1677,1.0655-3.1677,2.0214Z"/>
  <path class="cls-3" d="m59.9834,96.7284c1.8667,0,3.1678-1.0655,3.1678-2.0214s-1.3011-2.0214-3.1678-2.0214-3.1678,1.0655-3.1678,2.0214,1.3011,2.0214,3.1678,2.0214Z"/>
  <path class="cls-3" d="m57.057,112.8267c.4579.6981,1.5341,1.2913,2.9264,1.2913,1.0393,0,1.8921-.3351,2.4537-.7928.4471-.3644.7141-.805.7141-1.2286,0-.9559-1.3011-2.0214-3.1678-2.0214s-3.1678,1.0655-3.1678,2.0214c0,.2429.0856.4924.2415.7302Z"/>
  <path class="cls-3" d="m71.2936,111.0124c0,.5607.4564,1.1534,1.203,1.5524.5266.2813,1.1931.4691,1.9648.4691,1.661,0,2.8682-.8436,3.1154-1.7029.0306-.1064.0525-.2131.0525-.3185,0-.9559-1.3011-2.0214-3.1678-2.0214s-3.1678,1.0655-3.1678,2.0214Z"/>
  <path class="cls-4" d="m108.1323,25.1203l.9172-2.5472c.9104-2.528.7764-5.2585-.3774-7.6875-1.1541-2.4282-3.1892-4.2642-5.7312-5.1699L77.3264.5889c-5.2369-1.8649-11.0223.8469-12.9128,6.0471-.1387-.0007-.2739-.0058-.4131-.0058C30.3651,6.6302,3,33.8532,3,67.3151c0,19.7998,14.9111,60.6849,61.0005,60.6849,33.6354,0,60.9995-27.223,60.9995-60.6849,0-11.082-4.6733-28.7678-16.8677-42.1948Zm-39.2495-16.8586c.9941-2.7621,4.0576-4.2068,6.8387-3.2144l25.6146,9.1268c1.3452.4792,2.4221,1.4504,3.0319,2.7353.611,1.2847.6815,2.7296.2001,4.0671l-.677,1.8787-1.4363-.5118-34.2479-12.2031.6759-1.8786Zm-27.7166,57.6147l-1.6357,4.5427c-1.0898,3.0278.3354,6.3525,3.1953,7.7058l-16.2356,16.152c-5.6722-7.8101-8.7693-17.2833-8.7693-26.9619,0-23.0319,17.0886-42.1667,39.3145-45.5186l-15.8694,44.08h.0002Zm2.8458,6.1392l1.4746-4.0941,39.0873,13.9267-1.4749,4.094c-.1337.3718-.4053.6697-.7642.838-.3589.1702-.7605.1886-1.1371.0555l-36.2867-12.9286c-.7715-.2757-1.1752-1.1238-.899-1.8915Zm30.4493,31.9658c-.2114,0-.4187.0137-.6262.0272.0214-.2069.0371-.4153.0371-.6269,0-3.222-2.5455-5.9383-6.001-6.7661.2006-.6078.3154-1.2465.3154-1.9087,0-3.8765-3.6803-7.0309-8.2034-7.0309s-8.2034,3.1544-8.2034,7.0309c0,.5773.0906,1.1353.2444,1.6724-4.2147.2901-7.5428,3.3168-7.5428,7.0023,0,.0234.004.0462.0043.0699-2.2646.1454-4.2703,1.0851-5.6521,2.489-.6542-.4214-1.3018-.8535-1.9349-1.3087l21.1296-21.021,21.5646,7.6833c.6881.2451,1.4003.3672,2.1106.3672.9113,0,1.8177-.2007,2.6658-.5993,1.509-.7096,2.6489-1.961,3.2114-3.5233l3.0796-8.5525h-.0005s12.8367-35.6584,12.8367-35.6584c4.4052,7.1852,6.7834,15.5076,6.7834,23.9872,0,18.8557-11.4578,35.0918-27.8064,42.2023-.8022-3.1603-4.0881-5.5359-8.0122-5.5359Zm3.1678,7.0309c0,.1054-.0219.2121-.0525.3185-.2472.8593-1.4543,1.7029-3.1154,1.7029-.7717,0-1.4382-.1877-1.9648-.4691-.7466-.3989-1.203-.9917-1.203-1.5524,0-.9559,1.3011-2.0214,3.1678-2.0214s3.1678,1.0655,3.1678,2.0214Zm-17.6459-.9373c1.8667,0,3.1678,1.0655,3.1678,2.0214,0,.4236-.267.8642-.7141,1.2286-.5616.4576-1.4144.7928-2.4537.7928-1.3923,0-2.4685-.5932-2.9264-1.2913-.1559-.2378-.2415-.4873-.2415-.7302,0-.9559,1.3011-2.0214,3.1678-2.0214Zm-3.1678-15.3681c0-.9559,1.3011-2.0214,3.1678-2.0214s3.1678,1.0655,3.1678,2.0214-1.3011,2.0214-3.1678,2.0214-3.1678-1.0655-3.1678-2.0214Zm5.6857,8.6747c0-.9559,1.301-2.0214,3.1677-2.0214s3.168,1.0655,3.168,2.0214c0,.9568-1.3013,2.0224-3.168,2.0224s-3.1677-1.0656-3.1677-2.0224Zm-6.6484,0c0,.9568-1.3013,2.0224-3.168,2.0224s-3.1677-1.0656-3.1677-2.0224c0-.9559,1.3011-2.0214,3.1677-2.0214s3.168,1.0655,3.168,2.0214Zm-13.8235,6.6347c.2167-.5433.8112-1.0625,1.6556-1.3493.4189-.1423.8922-.2328,1.4172-.2328,1.8666,0,3.1678,1.0655,3.1678,2.0214,0,.046-.017.0928-.0229.1393-.0752.5856-.6152,1.1877-1.4558,1.5486-.4761.2045-1.0466.3335-1.6891.3335-1.8667,0-3.1678-1.0655-3.1678-2.0214,0-.1456.0367-.2932.095-.4393ZM64.9006,13.9938l39.0863,13.9257-17.6473,49.0216-39.0873-13.9266,17.6483-49.0208Zm-.9001,109.1627c-23.5425,0-37.0225-11.7096-44.1857-21.5328-8.8177-12.0919-11.9463-26.0396-11.9463-34.3086,0-29.7034,23.4353-54.0561,52.8761-55.7405-.0647.1335-.1265.2693-.1777.4119l-1.692,4.7001c-25.8051,2.5664-46.0226,24.2921-46.0226,50.6285,0,11.6897,4.089,23.1098,11.5127,32.1564l1.703,2.0756,21.7024-21.5911,5.1881,1.8486-23.3674,23.2473,2.0863,1.6942c1.6644,1.3518,3.4103,2.5898,5.2218,3.7146.0032,3.8743,3.6819,7.0258,8.203,7.0258,1.7601,0,3.3824-.4882,4.7179-1.3016,1.5454.4445,3.1119.8175,4.6956,1.1159h.0002c1.4531,1.1247,3.3594,1.8265,5.4675,1.8265,1.4669,0,2.8333-.3475,4.0256-.9283,2.6162-.0005,5.1868-.1987,7.6982-.578.8624.2661,1.7856.4222,2.7542.4222,2.6274,0,4.9641-1.0684,6.4668-2.7205h0c19.9069-6.968,34.2203-25.8514,34.2203-48.0077,0-10.6426-3.3988-21.0552-9.6088-29.6631l1.9897-5.5266c.2241.295.4436.589.6566.8811,8.8168,12.0918,11.9453,26.0397,11.9453,34.3086,0,30.7914-25.1801,55.8414-56.131,55.8414Z"/>
  <path class="cls-1" d="m62.5012,103.3817c0,.9569,1.3012,2.0224,3.1678,2.0224s3.1678-1.0655,3.1678-2.0224c0-.9559-1.3012-2.0214-3.1678-2.0214s-3.1678,1.0655-3.1678,2.0214Z"/>
  <ellipse class="cls-1" cx="59.9834" cy="94.707" rx="3.1678" ry="2.0214"/>
  <path class="cls-1" d="m52.6849,105.4041c1.8667,0,3.1678-1.0655,3.1678-2.0224,0-.9559-1.3012-2.0214-3.1678-2.0214s-3.1678,1.0655-3.1678,2.0214c0,.9569,1.3012,2.0224,3.1678,2.0224Z"/>
  <ellipse class="cls-1" cx="45.1022" cy="110.4557" rx="3.1678" ry="2.0214"/>
  <ellipse class="cls-1" cx="59.9834" cy="112.0965" rx="3.1678" ry="2.0214"/>
  <ellipse class="cls-1" cx="74.4614" cy="111.0124" rx="3.1678" ry="2.0214"/>
</svg>