<svg xmlns="http://www.w3.org/2000/svg" viewBox="0 0 127.338 110.27">
  <defs>
    <style>
      .cls-1 {
        fill: #fff;
      }

      .cls-2 {
        fill: #008d36;
      }
    </style>
  </defs>
  <title>vegan_2</title>
  <g id="Ebene_2" data-name="Ebene 2">
    <g id="Ebene_1-2" data-name="Ebene 1">
      <polygon class="cls-1" points="33.574 107.27 3.464 55.14 33.574 3 93.774 3 123.874 55.14 93.774 107.27 33.574 107.27"/>
      <path class="cls-2" d="M95.506,0H31.842L0,55.14l31.842,55.13H95.506l31.832-55.13ZM92.042,104.27H35.306L6.929,55.14,35.306,6H92.042l28.369,49.14Z"/>
      <path class="cls-2" d="M78,31.33c-4.666,5.066-4.038,7.54-2.641,8.715.061-.083.117-.16.181-.245a37.479,37.479,0,0,1,6.76-7,20.62,20.62,0,0,1,2.21-1.51,15.481,15.481,0,0,1,2.34-1.16,12.976,12.976,0,0,1,2.34-.68c.38-.07.76-.1,1.12-.15h1a10.436,10.436,0,0,1,1.76.25c.177.044.347.107.521.158a9.393,9.393,0,0,0-4.811.112,16.4,16.4,0,0,0-6.92,4.3,40.808,40.808,0,0,0-6.34,8.26,83.793,83.793,0,0,0-5.51,10.84c-1.7,3.94-3.31,8.14-4.8,12.55s-2.86,9.01-4.19,13.66c-.548,1.917-1.073,3.861-1.6,5.8a84.781,84.781,0,0,0-2.894-9.893,122.642,122.642,0,0,0-5.19-12.47c-.91-1.94-1.85-3.79-2.76-5.57l-2.81-5.08c-.94-1.59-1.8-3.15-2.7-4.59L40.5,43.58c-1.62-2.53-3.14-4.67-4.39-6.43-2.52-3.5-4.11-5.39-4.11-5.39l2.94,6.11c.9,1.93,2.04,4.29,3.25,7s2.54,5.79,4,9.13l2.11,5.27c.68,1.84,1.52,3.64,2.2,5.64s1.49,3.93,2.12,6c.31,1.03.59,2.07,1,3.12s.67,2.12,1,3.2a96.84,96.84,0,0,1,3,13.29c.11,1.13.2,2.34.34,3.4s.15,2.43.37,3.85c.05.37.12.75.22,1.21a7.151,7.151,0,0,0,.25.81,4.245,4.245,0,0,0,.24.57,4.744,4.744,0,0,0,.23.42l.15.21c.078.111.162.218.25.32s.182.2.28.29a4.826,4.826,0,0,0,.5.39,5.074,5.074,0,0,0,.6.32,3.77,3.77,0,0,0,.87.24,3.506,3.506,0,0,0,1.68-.12,4.091,4.091,0,0,0,1-.49,4.762,4.762,0,0,0,.53-.43,4.276,4.276,0,0,0,.32-.34,6.383,6.383,0,0,0,.4-.54,8.991,8.991,0,0,0,.71-1.34,36.39,36.39,0,0,0,1.34-3.86c1.4-4.86,2.49-9.6,3.68-14.25s2.33-9.2,3.56-13.58,2.41-8.6,3.75-12.51,2.7-7.57,4.18-10.82a46.3,46.3,0,0,1,4.79-8.36,15.755,15.755,0,0,1,5.4-4.78,9.2,9.2,0,0,1,4.62-.93,10.494,10.494,0,0,1,1.345.168l.125.062s-.42-.07-1.12-.15a10.593,10.593,0,0,0-1.26,0,7.9,7.9,0,0,0-1.57.26l-.85.28c-.28.13-.57.25-.86.4a10.647,10.647,0,0,0-1.67,1.13,12.847,12.847,0,0,0-1.56,1.49,17.614,17.614,0,0,0-1.38,1.77,32.528,32.528,0,0,0-3.71,7.5c-.332.92-.572,1.711-.743,2.312,1.785,1.084,4.6,1.176,8.913-1.942,7.26-6.57,2.74-7.15,8.17-8.61,6.21-.54,6.21-3.87,6.21-3.87S89.384,20.87,78,31.33Z"/>
    </g>
  </g>
</svg>
