<?xml version="1.0" encoding="UTF-8"?>
<svg id="Vegan" xmlns="http://www.w3.org/2000/svg" viewBox="0 0 128 128">
  <defs>
    <style>
      .cls-1 {
        fill: #333;
      }

      .cls-2 {
        fill: #aecd14;
      }
    </style>
  </defs>
  <g>
    <path class="cls-1" d="m64,111.8131v-16.3066h11.7329v3.1543h-7.9785v3.3174h6.8418v3.1533h-6.8418v3.5273h7.9785v3.1543h-11.7329Z"/>
    <path class="cls-1" d="m89.936,109.2204h-.123c-.1318.8252-.5771,1.5107-1.334,2.0557-.7578.5449-1.7871.8174-3.0879.8174-.9883,0-1.9102-.1787-2.7666-.5371s-1.6055-.8877-2.248-1.5889c-.6416-.7012-1.1445-1.5732-1.5068-2.6162s-.543-2.251-.543-3.6211.1885-2.585.5684-3.6445c.3779-1.0586.9092-1.9463,1.5928-2.6631s1.5029-1.2617,2.458-1.6357,2.0166-.5605,3.1865-.5605c1.5479,0,2.8818.3154,4.002.9463,1.1191.6309,2.001,1.5771,2.6426,2.8379l-3.0625,1.6592c-.2637-.6387-.6758-1.1797-1.2354-1.624-.5605-.4434-1.3428-.665-2.3467-.665-1.1699,0-2.0996.3193-2.791.957-.6924.6396-1.0381,1.6436-1.0381,3.0137v2.6172c0,1.3545.3457,2.3555,1.0381,3.002.6914.6465,1.6211.9697,2.791.9697.4609,0,.8975-.0508,1.3096-.1523.4111-.1006.7734-.2568,1.0869-.4668.3125-.2109.5557-.4639.7285-.7598s.2588-.6455.2588-1.0508v-.8184h-3.2109v-2.9668h6.793v9.0879h-3.1621v-2.5928Z"/>
    <path class="cls-1" d="m107.3765,111.8131l-1.2354-3.8779h-5.7559l-1.2354,3.8779h-3.8037l5.6816-16.3066h4.6436l5.6074,16.3066h-3.9023Zm-4.0762-13.083h-.124l-1.9014,6.1914h3.9521l-1.9268-6.1914Z"/>
    <path class="cls-1" d="m118.937,104.1042l-1.6553-3.2715h-.0742v10.9805h-3.5322v-16.3066h4.1006l4.7178,7.71,1.6553,3.2705h.0742v-10.9805h3.5322v16.3066h-4.1006l-4.7178-7.709Z"/>
  </g>
  <g>
    <path class="cls-2" d="m12.5097,22.6907c-2.2686-.6543-4.7513-1.3706-7.369-2.5913.2109,1.4989.4017,3.0203.5888,4.513,1.1848,9.4496,2.41,19.2213,8.4223,23.6373,2.6122,1.9181,6.0505,2.7559,10.3965,2.5698-4.4855-9.0615-7.9282-14.766-8.0131-14.9051-.5677-.9326-.4012-2.1362.399-2.8794.7993-.7423,2.011-.8204,2.9-.1849,2.7663,1.9779,5.3322,4.2247,7.7252,6.6279-3.454-13.4295-8.475-14.8911-15.0497-16.7875Z"/>
    <path class="cls-2" d="m75.2745,56.0528c-15.7543,17.3489-20.0987,35.7441-20.1561,35.9971-.2347,1.0394-1.1538,1.7817-2.2192,1.7915h-.0224c-1.056,0-1.9778-.7189-2.2309-1.7467-.0714-.2878-5.5438-21.9304-18.3588-39.8711-1.0725-1.5014-2.1943-2.977-3.3708-4.4118-.5937-.7241-1.1964-1.4412-1.8171-2.1427.4903.9606.9995,1.9745,1.5212,3.0279.8584,1.7336,1.7531,3.5837,2.6713,5.5448,6.3608,13.585,13.7844,32.2769,17.1045,51.187.1382.789.6301,1.4451,1.3486,1.8014.7207.3563,1.5447.3492,2.2614-.0206,1.4042-.7279,3.15-5.5389,4.9985-10.6325,3.4898-9.6171,8.6236-23.7538,19.9341-40.0327.9065-1.3048,1.8498-2.6221,2.8381-3.9532.9351-1.2594,1.9055-2.5294,2.9179-3.8102-1.3367,1.164-2.611,2.3467-3.8289,3.5409-1.258,1.2335-2.4548,2.4792-3.5913,3.7308Z"/>
    <path class="cls-1" d="m117.097,20.5069c-.6642-.9137-1.8063-1.3535-2.9104-1.1112-2.7775.5996-5.7188,1.0744-8.8329,1.5779-11.557,1.8669-23.5072,3.7976-29.3961,12.4411-3.1736,4.6574-4.1278,10.6288-2.9088,18.1841-11.3063,11.9016-17.2582,24.4276-20.1187,32.1019-1.3086-3.9304-3.2371-9.1444-5.8714-14.8888-3.0722-6.6993-7.5009-14.872-13.3804-22.3822-3.6302-21.9346-9.9537-25.2868-19.895-28.1552-3.0517-.8805-6.2076-1.7906-9.4886-3.8568-.9402-.5933-2.1411-.5753-3.0616.0449-.9178.6175-1.3845,1.7206-1.1893,2.8094.4461,2.4889.7764,5.1233,1.126,7.912,1.3055,10.4144,2.6559,21.1825,10.2618,26.7698,3.1904,2.3435,7.1302,3.5059,11.9385,3.5059,1.0692,0,2.1827-.059,3.3392-.1737,6.3184,13.3623,13.8452,32.055,17.1603,50.9381.3945,2.2448,1.7924,4.1126,3.8362,5.1242,1.0039.4973,2.0774.745,3.1504.745,1.1148,0,2.2291-.2675,3.2626-.8033,2.9992-1.5528,4.5825-5.9158,7.2056-13.1448,3.4941-9.6298,8.6777-23.909,20.3225-40.2992.0196.0005.0385.0084.0581.0084.149,0,.2984-.0144.4461-.044,24.8149-4.9088,28.3145-12.0866,31.1289-23.3232.8697-3.4727,1.7695-7.0638,3.9744-10.856.5709-.981.5089-2.208-.1575-3.1244Zm-100.5617,15.4076c.0849.1391,3.5276,5.8436,8.0131,14.9051-4.3461.186-7.7843-.6517-10.3965-2.5698-6.0123-4.416-7.2375-14.1878-8.4223-23.6373-.1871-1.4926-.3779-3.014-.5888-4.513,2.6177,1.2207,5.1004,1.9369,7.369,2.5913,6.5747,1.8963,11.5957,3.358,15.0497,16.7875-2.393-2.4032-4.9589-4.65-7.7252-6.6279-.889-.6355-2.1007-.5574-2.9.1849-.8002.7432-.9667,1.9468-.399,2.8794Zm63.2416,16.6768c-.9883,1.3311-1.9316,2.6484-2.8381,3.9532-11.3105,16.2789-16.4443,30.4156-19.9341,40.0327-1.8485,5.0937-3.5943,9.9046-4.9985,10.6325-.7167.3698-1.5407.377-2.2614.0206-.7185-.3563-1.2104-1.0125-1.3486-1.8014-3.3201-18.9102-10.7437-37.6021-17.1045-51.187-.9182-1.9611-1.8129-3.8112-2.6713-5.5448-.5217-1.0534-1.0309-2.0673-1.5212-3.0279.6207.7015,1.2234,1.4185,1.8171,2.1427,1.1765,1.4348,2.2983,2.9104,3.3708,4.4118,12.815,17.9407,18.2874,39.5833,18.3588,39.8711.2531,1.0277,1.1749,1.7467,2.2309,1.7467h.0224c1.0654-.0099,1.9845-.7522,2.2192-1.7915.0574-.2531,4.4018-18.6482,20.1561-35.9971,1.1365-1.2515,2.3333-2.4973,3.5913-3.7308,1.2179-1.1942,2.4922-2.377,3.8289-3.5409-1.0123,1.2808-1.9828,2.5508-2.9179,3.8102Zm29.0455-19.2205c-2.0656,8.2472-3.601,14.3603-23.0577,18.9579,3.7409-4.7928,8.0393-9.7314,13.0252-14.7627.797-.797.8989-2.0581.2401-2.9727-.6781-.9406-1.9612-1.2315-2.9786-.6732-7.376,4.0401-13.599,8.7-18.8502,13.5776-.3076-4.7298.5316-8.5275,2.554-11.4953,4.7759-7.01,15.7343-8.78,26.3314-10.4925,1.8333-.2962,3.7042-.5978,5.5366-.929-1.3854,3.1388-2.1268,6.0989-2.8008,8.7898Z"/>
    <path class="cls-2" d="m79.7552,36.0024c-2.0224,2.9677-2.8617,6.7654-2.554,11.4953,5.2512-4.8776,11.4742-9.5375,18.8502-13.5776,1.0174-.5583,2.3005-.2675,2.9786.6732.6588.9146.5569,2.1757-.2401,2.9727-4.9859,5.0312-9.2842,9.9699-13.0252,14.7627,19.4567-4.5975,20.9921-10.7107,23.0577-18.9579.6741-2.6909,1.4155-5.6511,2.8008-8.7898-1.8324.3312-3.7033.6328-5.5366.929-10.5971,1.7126-21.5554,3.4825-26.3314,10.4925Z"/>
  </g>
</svg>