<svg xmlns="http://www.w3.org/2000/svg" viewBox="0 0 57.07 49.43">
  <defs>
    <style>
      .cls-1 {
        fill: #008d36;
      }

      .cls-2 {
        fill: #fff;
      }
    </style>
  </defs>
  <title>vegan_1</title>
  <g id="Ebene_2" data-name="Ebene 2">
    <g id="Ebene_1-2" data-name="Ebene 1">
      <polygon class="cls-1" points="14.27 49.43 0 24.71 14.27 0 42.8 0 57.07 24.71 42.8 49.43 14.27 49.43"/>
      <path class="cls-2" d="M35.35,13.43a8.446,8.446,0,0,0-1.44,1.985c.16-.134.306-.285.47-.415a17.565,17.565,0,0,1,2.25-1.59,11.863,11.863,0,0,1,1.27-.65,9.332,9.332,0,0,1,1.32-.46,8.67,8.67,0,0,1,1.28-.21,9.688,9.688,0,0,1,1.13.06c.35.08.64.18.89.26a2.675,2.675,0,0,1,.61.31l.48.29h-.053l-.127-.06a3.271,3.271,0,0,0-.59-.22,4.439,4.439,0,0,0-2.44-.06,7.51,7.51,0,0,0-3.32,2A18.761,18.761,0,0,0,34,18.5a39.206,39.206,0,0,0-2.66,5.05c-.82,1.87-1.61,3.81-2.32,5.87s-1.38,4.2-2,6.38l-.585,2.107A29.55,29.55,0,0,0,25.32,34.92a31.24,31.24,0,0,0-1.42-3c-.48-.96-1.03-1.84-1.54-2.71a53.657,53.657,0,0,0-3.19-4.68c-.55-.73-1.05-1.39-1.55-2l-1.47-1.71c-.93-1.06-1.79-1.94-2.51-2.66C12.21,16.73,11.31,16,11.31,16L13,18.68l1.92,3.08c.72,1.17,1.52,2.5,2.33,4s1.66,3.12,2.49,4.85c.41.87.83,1.76,1.19,2.69l.57,1.4.64,1.4c.38,1,.59,2,.9,3,.11.52.21,1.01.32,1.52l.16.76.08.76c.06.56.11,1.04.17,1.56v.93A7.215,7.215,0,0,0,24,45.84l-.08.28a2.81,2.81,0,0,0,.19.39l.11.19a2.3,2.3,0,0,0,.41.42,2.851,2.851,0,0,0,.48.31,2.551,2.551,0,0,0,1,.17,2.371,2.371,0,0,0,.48-.08,1.281,1.281,0,0,0,.26-.1,2.2,2.2,0,0,0,.42-.25,2.34,2.34,0,0,0,.42-.4c.08-.09.22-.22.22-.29l.1-.19a7.346,7.346,0,0,0,.48-1.09c.22-.62.39-1.19.56-1.76.63-2.26,1.17-4.47,1.72-6.64s1.08-4.3,1.64-6.34,1.09-4.01,1.71-5.83,1.23-3.53,1.91-5.05a21.031,21.031,0,0,1,2.18-3.89,7.315,7.315,0,0,1,2.46-2.24,4.363,4.363,0,0,1,2.14-.47c.1,0,.2.02.3.03h-.06a2.267,2.267,0,0,0-.59.09l-.69.25c-.24.15-.47.3-.69.46a6.447,6.447,0,0,0-.62.66,5.02,5.02,0,0,0-.53.8,6.3,6.3,0,0,0-.44.9,12.939,12.939,0,0,0-.62,1.91c-.15.65-.27,1.24-.34,1.76-.025.187-.042.347-.059.508A6.487,6.487,0,0,0,40.82,19.19c3.44-3.12,1.3-3.39,3.87-4.08,2.93-.26,2.93-1.82,2.93-1.82S40.72,8.47,35.35,13.43Z"/>
    </g>
  </g>
</svg>
