<svg xmlns="http://www.w3.org/2000/svg" viewBox="0 0 120.76 120.76">
  <defs>
    <style>
      .cls-1 {
        fill: #95c11f;
      }

      .cls-2 {
        fill: #fff;
      }
    </style>
  </defs>
  <title>sellerie</title>
  <g id="Ebene_2" data-name="Ebene 2">
    <g id="Ebene_1-2" data-name="Ebene 1">
      <path class="cls-1" d="M120.76,60.38A60.38,60.38,0,1,1,60.38,0h0A60.39,60.39,0,0,1,120.76,60.38Z"/>
      <path class="cls-2" d="M105.66,51.49c.585-2.49-1.366-3.371-2.51-4.689a8.5,8.5,0,0,1,.91-.6c3.18-1.82-.15-3.19.47-6.12s-3.16-2.85-2.07-5.85.58-3.21-2-1.92c-.025.013-.048.018-.073.03-.781-.767-1.576-1.491-1-3.09,1.043-2.881.616-3.184-1.684-2.074.018-.1.033-.2.054-.306.7-3.415-.629-2.182-3.168-1.265A9.853,9.853,0,0,1,94.7,21.89c.7-3.47-.68-2.14-3.3-1.22s-3.23,1.42-3-.74,1.05-2.18-2.26-2.07a2.752,2.752,0,0,0-2.15,1.2,9.417,9.417,0,0,1,.13-2.937c.29-2.94,1.22-4.62-1.72-3.12s-6,1.22-5.38-1.71.35-3.41-2.11-1.7-3.13-2.21-5.62-1-4.37-1.94-5.35,1.72-2.82,2.92.47,4.88c1.311.781,1.678,1.494,1.728,2.221C63.176,18.529,62.07,14.15,58.73,15.7c-3.62,1.68-6.38-2.7-7.81,2.3s-4.12,4,.68,6.59,1,4.72,2.73,8-4.84,2.58,1.75,3.23c3.8.375,4.544,1.392,4.5,2.186C55.114,44.78,49.188,51.97,48.23,52.48A6.513,6.513,0,0,0,46,55.422C38.059,64.561,29.449,74.253,28.08,74.94,25.45,76.26,22.45,83,22,89.49A9.728,9.728,0,0,0,25.4,97.477a11.817,11.817,0,0,0,1.835.663c.65.13,1.27.32,1.87.4a14.925,14.925,0,0,1,1.72.37,4.275,4.275,0,0,1,.81.12,5.538,5.538,0,0,0,.77.09,12.137,12.137,0,0,0,1.4.1,10.838,10.838,0,0,0,1.14,0h1.07l.12.27a6.849,6.849,0,0,1-.82.75,5.4,5.4,0,0,1-1.1.67,6.681,6.681,0,0,1-1.57.6,9.312,9.312,0,0,1-1.715.273A9.826,9.826,0,0,0,39.6,103.5c6.4-1.83,12.49-6.22,13.26-9.12S82.05,55,82.05,55s2.06-3.14,4.09,3.3.01,0,3.6,1.07,4.88-3.17,8.51,1.07,2.09,1.76,6.72-.69S104.73,55.45,105.66,51.49Zm-38.87-4.6,1.8-1.81c1.15-1.16,2.24-2.2,3.21-3.11s1.84-1.69,2.56-2.32c1.45-1.26,2.33-1.94,2.33-1.94L77,38s-.53,1-1.55,2.61c-.5.82-1.13,1.8-1.87,2.91S72,45.84,71,47.16l-1.51,2.06-1.65,2.16c-1.13,1.5-2.38,3-3.69,4.57S61.42,59,60,60.6l-4.41,4.76-8.61,9.43c-2.73,3-5.33,5.8-7.55,8.19C35,87.77,32,90.92,32,90.92l-.36-.26s2.64-3.46,6.65-8.6c2-2.58,4.33-5.59,6.88-8.77l7.93-10,4-5.11c1.3-1.7,2.6-3.36,3.9-4.92s2.63-3,3.92-4.37ZM28.87,86.86c-.16.66-.33,1.3-.45,1.92s-.27,1.2-.35,1.74c-.19,1.08-.31,2-.39,2.64l-.14,1-.25.05a7.858,7.858,0,0,0-.09-1,25.031,25.031,0,0,1-.14-2.71V88.67c0-.65.07-1.33.12-2.05a28.584,28.584,0,0,1,.7-4.43c.18-.76.35-1.52.57-2.26a11.87,11.87,0,0,1,.8-2.16,9.994,9.994,0,0,1,1.26-1.82,7.845,7.845,0,0,1,1.281-1.236L64.24,40.55,36.14,73.982v.078L36,74.146l-3.518,4.186c-.147.278-.3.568-.464.878-.31.58-.65,1.12-1,1.74a15.2,15.2,0,0,0-.88,1.91c-.27.67-.48,1.35-.7,2S29.03,86.2,28.87,86.86Zm18.553,2.068A9.555,9.555,0,0,1,47,89.91a8.645,8.645,0,0,1-1.34,1.79,9.51,9.51,0,0,1-1.85,1.47c-.7.4-1.39.81-2.12,1.14a18.357,18.357,0,0,1-2.18.88,14.836,14.836,0,0,1-2.19.54,14.553,14.553,0,0,1-3.91.28c-.56,0-1.1-.07-1.56-.1a9.572,9.572,0,0,1-1.17-.15l-1-.18-.01-.25h1a5.587,5.587,0,0,0,1.16-.09c.44-.09.93-.09,1.46-.2a15.56,15.56,0,0,0,1.7-.38A18.326,18.326,0,0,0,36.84,94c.63-.2,1.24-.52,1.87-.79a15.155,15.155,0,0,0,1.78-1,10.38,10.38,0,0,0,1.58-1.27c.312-.34.625-.653.923-.969l3.8-4.766a2.971,2.971,0,0,0,.188-.335,10,10,0,0,1,.55-.91h.255L79.37,44.34Z"/>
    </g>
  </g>
</svg>
