<?xml version="1.0" encoding="utf-8"?>
<!-- Generator: Adobe Illustrator 27.2.0, SVG Export Plug-In . SVG Version: 6.00 Build 0)  -->
<svg version="1.1" id="Ebene_2_00000095314586111137298620000008270556627179115161_"
	 xmlns="http://www.w3.org/2000/svg" xmlns:xlink="http://www.w3.org/1999/xlink" x="0px" y="0px" viewBox="0 0 128 128"
	 style="enable-background:new 0 0 128 128;" xml:space="preserve">
<style type="text/css">
	.st0{fill:#58A50E;}
	.st1{fill:#72CE27;}
	.st2{fill:#333333;}
</style>
<path class="st0" d="M89.1,14.6c1.4-2.9,2.4-6.3,1.7-8.7c-1.1-3.7-9.6,4.3-12,6.9c-0.3,0.3-0.7,0.1-0.8-0.3c-0.4-3.3-2-13.3-5.8-9.8
	c-4.4,4.1-5.5,8.8-6.6,11.4c0,0.1-0.1,0.1-0.2,0c-1-1.7-7.9-10.5-9.1-5.6c-1.1,4.7,0.6,12.2,1.4,14c0.1,0.1-0.1,0.2-0.2,0.2
	c-1.6-0.7-9.8-3.5-9.7-1.1c0,2.3,2.8,6.7,4.3,9.9c0.2,0.5,0.6,1.1,0,1.1c-2.8,0.1-11,0-9.5,3.9c0.7,1.9,8.5,7.9,11.5,9.1
	c0.1,0,0.2,0.1,0.3,0.1c2.5-2.4,13.8-13.5,14.5-12.7c1.2,1.4-3.3,10.3-6.4,16c0.2,0.2,0.5,0.4,0.6,0.6c1.3,1.5,6,10.1,8.3,6.7
	c2.2-3.1,1.7-5.8,2.2-7.2c0.1-0.4,0.2-0.4,0.5-0.3C74,52.5,76.3,58.5,81,65c0.1,0.1,0.1,0.2,0.1,0.2c0.7-0.5,1.2-0.9,1.6-1.2
	c0.2-0.1,11.4-8.2,13.1-6.8c1.6,1.4-7.9,13.3-10.9,16.5c-0.2,0.2-0.5,0.5-0.8,0.8c3.2,2.3,10.5,5.4,14.5,5.9c2.8,0.3,1.1-5.8,1-7.9
	c0-0.4,0.1-0.8,0.6-0.7c3.4,0.4,9.9,1.9,16.5-0.2c3.6-1.1-3.1-5.9-4.7-7.2c-0.2-0.1-0.2-0.4,0-0.4c3.2-0.7,6.7-1.9,12.6-5
	c3.9-2.1-6.1-3.6-8.9-4.3c-0.3-0.1-0.3-0.4-0.1-0.5c2-1.1,11.8-8.1,9.5-8.7c-4.6-1.3-8.5-1-11.9-0.7c-0.6,0-1-0.5-0.8-1
	c0.2-0.5,2-1.1,2.4-1.9c2.8-0.3,4.6-0.5,9.6-2.7c4.9-2.3-3-5.4-5.5-7.8c-0.2-0.2-0.3-0.4-0.1-0.5c2-1.1,8.1-6.7,5.8-7.4
	c-4.6-1.3-8.5-1-11.9-0.7c-0.6,0-1-0.5-0.8-1c1.3-3.5,8.3-13.8,3.9-12.6c-5.7,1.5-7.9,4-11.6,6c-0.3,0.2-0.6,0.2-0.7-0.2
	c-0.6-3.3-2.8-13.1-4.8-10.9L89.1,14.6z"/>
<path class="st1" d="M63,77.1l13.7-18.8c-1.8-3.5-3.5-4.6-5.4-1.9c-1.1,1.6-2.8,0.5-4.3-1.3L49.5,69.8C49,70.4,70.6,35.3,68.8,33.2
	c-0.8-0.9-14.8,13-15,13.2c-5.3,5.5-33.5,32-44.5,44.4c-4.8,5.4-13.5,16.4,0,28.8c4.7,4.3,13.9,6.3,13.9,6.3c7-0.1,12.7-5,16.2-8.2
	c12-10.7,38.5-36.6,45.5-43.9c3-3.1,12.5-15.1,10.9-16.5c-1.7-1.4-12.9,6.7-13.1,6.8L63,77.1z"/>
<path class="st2" d="M128,37.8c0.2-2.5-2.5-4.3-5.2-6c-0.3-0.2-0.7-0.4-1-0.6c2.3-1.9,5.5-5,5.3-7.3c-0.1-1.1-0.9-1.9-2-2.2
	c-4-1.1-7.4-1.1-10.5-1c0.3-0.7,0.7-1.4,1.1-2.2c2.9-5.4,4.4-8.5,2.8-10.5C118,7.5,117,6.7,115,7.2c-4.2,1.1-9.8,4.8-10.2,5
	c-1.3-6.3-3-9.8-5.1-10.4c-1-0.3-2.1,0-2.9,0.9c-1.5,1.7-2.8,3.8-3.8,6c0.1-1.2,0-2.3-0.3-3.4c-0.4-1.2-1.3-2.1-2.5-2.3
	c-3-0.7-7.8,3.2-10.8,6c-1.4-7.7-3.8-8.5-4.7-8.8c-0.8-0.3-2.4-0.5-4.2,1.1c-3.2,3-4.8,6.2-5.8,8.8c-2-2.4-5.1-5.3-7.7-4.9
	c-0.7,0.1-2.4,0.6-3,3c-0.8,3.5-0.3,8.1,0.4,11.4c-2.6-0.8-5.9-1.4-7.6-0.3c-0.9,0.5-1.4,1.4-1.4,2.4c0,2.1,1.5,5,3.1,8.1
	c0.2,0.4,0.4,0.7,0.5,1.1c-3.5,0.2-6.9,0.8-8.3,2.8c-0.8,1.1-0.9,2.4-0.4,3.7c0.8,2.3,6.5,6.7,10.3,9c-1.9,1.9-4.9,4.7-8.4,8.2
	C31.7,65,15.3,80.6,7.5,89.4c-3.7,4.2-15,17,0.1,31.6c5.3,5.1,10.5,7,15,7c8.3,0,15.5-5.2,18.7-8.1c11-9.9,33.8-33.3,42.9-42.6
	c3.8,2.3,10,4.8,13.9,5.3c0.2,0,0.3,0,0.5,0c0.9,0,1.7-0.3,2.3-0.9c1.7-1.6,1.2-4.8,0.8-7.5l0,0c3.8,0.6,9.5,1.3,15.4-0.5
	c1.8-0.6,2.3-1.8,2.4-2.5c0.4-1.9-1.1-3.8-3.8-6.1c2.4-0.8,5.4-2,9.6-4.3c1.9-1,2.1-2.4,2-3.1c-0.3-2.2-3-3.1-7.4-4.1
	c3.3-2.3,7.6-5.8,7.3-8c-0.1-1-0.8-1.8-1.8-2c-1.8-0.5-3.5-0.8-5.1-0.9c1.4-0.4,3-0.9,4.7-1.7C127,40.3,127.9,39.2,128,37.8z
	 M98.9,6.8c0.8,1.9,1.7,5.4,2.3,8.6c0.1,0.8,0.6,1.4,1.3,1.7c0.4,0.2,1.3,0.4,2.5-0.2c1.2-0.7,2.3-1.4,3.4-2.1
	c1.8-1.2,3.5-2.3,6.1-3.2c-0.6,1.5-1.8,3.7-2.5,5c-1,1.8-1.8,3.3-2.2,4.5c-0.3,0.9-0.1,1.8,0.4,2.6c0.8,1.3,2.7,1.1,2.7,1.1
	c2.9-0.2,5.8-0.4,9.2,0.3c-1.2,1.4-4.6,4.1-4.6,4.1c-4.2,0.9-7.1,2.4-12.2,5.1C103.7,26,101,24,99.6,23.8c-0.9-0.1-1.5,0.4-1.5,0.4
	c-0.3,0-1.1,0.1-1.1,0.1c0.6-0.9,1.4-2.2,2.5-4.8c0.4-1,0.2-1.9-0.4-2.6c-0.7-0.8-2.9-0.9-4.5-0.8C95.3,13.4,96.9,9.6,98.9,6.8z
	 M44.5,35.9c0.5-0.8,5.7-1,7.6-1.1c0.8,0,1.6-0.4,2-1.1c0.7-1.1,0.2-2.2-0.1-2.8c-1.2-2.2-3.5-6.8-3.9-8.2c1.7,0.2,4.9,1.1,6.5,1.9
	c0.8,0.4,1.8,0.2,2.5-0.4c0.7-0.6,0.9-1.6,0.5-2.4c-0.7-1.6-2.2-8.3-1.4-12.4c1.6,1,4.4,4.2,5.3,5.8c0.4,0.7,1.2,1.1,2,1.1
	s1.6-0.5,1.9-1.3c1-2.7,3-7.8,6.2-10.7c0.7,0.9,1.6,4.2,2.2,8.5c0.1,1,0.8,1.8,1.8,2.1c0.9,0.3,2,0,2.6-0.7c2.9-3.1,6.8-6.2,8.6-7
	c0.2,2-1.7,6.4-4,10.8c-0.5,0.9-0.5,1.9,0,2.7c0.6,0.8,1.6,1.3,2.7,1.2c1-0.1,2.4-0.5,3.9-0.8c0.8-0.2,2.1-0.5,3.2-0.7
	c-0.6,1.3-1.8,2.7-2.8,4.3c-0.6,1-0.6,2.4,0.2,3.2c1,1.1,2.3,1,2.5,1l0,0c-1.3,2.2-2.9,6.4-3,6.7c-1.6-1.5-5.9-3.3-7.5-2.7
	c-1.4,0.5-1.8,2.1-1.9,2.6c-1,4.2-0.8,7.1-0.5,9.6c0.1,0.6,0.1,1.3,0.2,1.9c-0.3-0.1-7.1-1.9-8.4-1.2c-1.8,1-1.8,6.8-3.6,9.3
	c-0.3-0.2-4.6-5.1-4.8-6.2c1.6-2.4,7.9-16,4.7-17.6c-2.5-1.2-11.1,7.5-15.8,12.1C50.6,41.7,44.2,36.9,44.5,35.9z M78.1,65
	c-1.8,1.3-4.2,3-7.2,4.9l5.5-7.6C76.9,63.2,77.5,64.1,78.1,65z M61.5,75.6c-0.6,0.4-16,8.8-20,10.6c0.8-1.2,9.5-15,9.6-15.1L66.8,58
	c0,0,1.5,1.4,3.2,1.3c2.3-0.1,3.6-2.5,3.6-2.5c0.2,0.5,0.4,1,0.7,1.5L61.5,75.6z M61.3,55.2c0.1-0.2,0.6-1,1.3-2.3
	c0.5,0.7,1,1.4,1.4,2l-5.6,4.7c0.6-0.9,1.1-1.7,1.6-2.5L61.3,55.2z M20.2,123c-3.3-0.6-5.7-1.4-9.5-4.8
	c-11.2-10.3-6.1-19.1,0.1-26.1c7.7-8.7,23.9-24.3,34.6-34.7C50,52.9,63.1,40.2,65.6,38C63,48.7,45.1,68.8,35.1,88.1
	C25.5,106.5,20.8,121,20.2,123z M37.9,116.2c-3.7,3.4-7.5,5.7-11.7,6.7c0.4-1.4,10.5-27.3,12.3-30.4c6-1.9,12.7-6.5,16-8.2
	c13-6.7,36.1-23,38.1-24C85.1,70.3,49.1,106.2,37.9,116.2z M114.5,52.6c-0.8,0.4-1.3,1.3-1.2,2.2c0.1,0.9,0.8,1.7,1.7,2
	c0.6,0.2,5.2,1.2,6.6,1.6c-5,2.5-7.9,3.4-10.2,3.9c-0.9,0.2-1.5,0.8-1.7,1.6c-0.2,0.8,0.1,1.8,0.9,2.3c1.7,1.1,4,3.3,4.5,4
	c-4.9,1.3-11.6,0.4-14.8-0.2c-0.8-0.1-1.5,0.1-2.1,0.6c-0.6,0.5-1,1.3-0.9,2.2c0.5,2.8,0.6,4.7,0.6,5.7c-3.1-0.6-7.7-2.5-10.8-4.2
	l0,0c0.2-0.2,13.5-16.2,9.8-18.3c-3-1.7-15.4,6.5-15.5,6.6c-4.2-4.8-5.9-11.9-5.5-13.3c1,0.2,4.1,1.3,6.1,2c1,0.3,1.9,0,2.7-0.6
	c0.8-0.6,1.4-1.6,1.2-2.7c-0.9-5.1-0.6-9.2,0.1-11.4c0.6,0.3,2.3,1.6,4.3,3.8c0.6,0.7,1.9,1.1,3.1,0.6c0.6-0.2,1-0.9,1.2-1.5
	c1.9-6.4,3-10.8,4.7-10.7c0.9,0,1.3,4.8,2.3,8.6c0.2,0.8,0.6,1.4,1.3,1.7c0.4,0.2,1.3,0.4,2.5-0.2c1.2-0.7,2.3-1.4,3.4-2.1
	c1.8-1.2,4.3-3,6.1-3.2c0.2,1.4-2.1,5.1-4.5,10.3c-0.2,0.5-0.1,1.4,0.2,1.9c0.6,0.7,1.5,1.1,2.5,1.1c0,0,5.6-0.4,8.7,0.1
	C119.9,49,115.9,51.8,114.5,52.6z M116.8,39.4c0.4-0.7,2.1-3.8,2.4-5.1c0.4,0.3,3.6,2.4,4.3,3C122.7,38,118.7,39.2,116.8,39.4z"/>
</svg>
