<?xml version="1.0" encoding="utf-8"?>
<!-- Generator: Adobe Illustrator 27.2.0, SVG Export Plug-In . SVG Version: 6.00 Build 0)  -->
<svg version="1.1" id="Ebene_2_00000137828242010642348890000018180927839151088552_"
	 xmlns="http://www.w3.org/2000/svg" xmlns:xlink="http://www.w3.org/1999/xlink" x="0px" y="0px" viewBox="0 0 128 121.7"
	 style="enable-background:new 0 0 128 121.7;" xml:space="preserve">
<style type="text/css">
	.st0{fill:#F22A2A;}
	.st1{fill:#333333;}
</style>
<path class="st0" d="M107.7,4.2c-12.8-4.9-22.8,3.3-19.4,6.9c2.6,2.8,8,9.3,11.1,12c7.5,6.6-10.8-2.4-10.6,0.3
	c1.4,17.6,12.3,22.9,21.5,24.1c-0.2,0.3-0.2,0.6-0.2,1c0.3,3.6-0.1,12.1-10.3,13.1l-0.4,1.9c-0.7-2.1-1.6-3.8-2.7-4.8
	c-5.5-5.3-15.3,1-22.8-1.4c-7.5-2.5-5.9-6.4-9.8-6.4s-2.4,3.9-9.8,6.4c-7.5,2.5-17.3-3.8-22.8,1.4c-1.1,1-2,2.7-2.7,4.8l-0.4-1.9
	c-10.2-1-10.6-9.5-10.3-13.1c0.1-0.8-0.4-1-1.1-1l0,0c9.3-1,20.6-5.9,22.5-23.7c0.3-2.7-18.2,5.8-10.6-0.6c3.1-2.6,8.6-9,11.3-11.7
	C43.7,8,33.9-0.5,21,4.2C8.8,8.5-0.5,23.9,3.4,43.4c0.2,1.1,0.8,2,1.6,2.7l0,0c0,0-2,24,22.4,26.7c0,6.3,1.7,13.5,5.9,19.1
	c8.5,11.3,25.5,19.7,30.8,19.7c4.7,0,22.2-8.5,30.8-19.7c4.2-5.6,5.9-12.7,5.9-19.1c21.5-2.4,22.8-22.6,22.8-27.3
	c0.3-0.5,0.6-1,0.7-1.6C128.7,24.4,119.7,8.8,107.7,4.2z"/>
<path class="st1" d="M126.1,46.2c0.3-0.6,0.5-1.2,0.7-1.8c4.8-21.4-5.5-37.6-18.2-42.6C97.8-2.3,89,1.8,86.2,6
	c-1.6,2.4-1.5,5,0.3,6.8c0.9,0.9,2.2,2.4,3.5,3.9c1.3,1.4,2.6,3,3.9,4.4c-3.4-1-5.3-1.2-6.6-0.1c-0.8,0.6-1.1,1.5-1.1,2.5
	c0.7,9,3.9,15.9,9.4,20.5c3.7,3.1,7.9,4.7,12,5.5c0.1,4-1.2,8.5-7.5,9.3c-0.5-0.8-1.1-1.6-1.7-2.2c-4-3.9-9.5-3-14.4-2.2
	c-0.7,0.1-1.4,0.2-2.1,0.3v-7.3c1.4-0.8,2.3-2.4,2.3-4.1c0-2.7-2.1-4.8-4.8-4.8c-2.6,0-4.8,2.2-4.8,4.8c0,1.7,0.9,3.2,2.3,4.1v7.5
	c-0.8-0.1-1.5-0.2-2.2-0.4c-3.3-1.1-4.4-2.4-5.3-3.6c-1-1.2-2.3-2.9-5.3-2.9c-3,0-4.3,1.7-5.3,2.9c-0.9,1.2-2,2.5-5.3,3.6
	c-0.7,0.2-1.4,0.4-2.2,0.4v-7.6c1.4-0.9,2.3-2.4,2.3-4.1c0-2.7-2.1-4.8-4.8-4.8S44,40.9,44,43.5c0,1.7,0.9,3.3,2.3,4.1v7.3
	c-0.7-0.1-1.4-0.2-2.1-0.3c-4.9-0.8-10.4-1.6-14.4,2.2c-0.6,0.6-1.2,1.3-1.7,2.2c-6.3-0.9-7.6-5.4-7.5-9.5c3.9-0.8,8-2.3,11.6-5.1
	c5.6-4.5,8.9-11.3,9.9-20.3c0.1-1-0.3-1.9-1-2.6c-1.3-1.1-3.2-0.9-6.6,0c1.3-1.4,2.7-2.9,4-4.3c1.4-1.5,2.7-2.9,3.6-3.9
	c1.8-1.8,1.9-4.4,0.4-6.8C39.7,2.2,31-2.1,20.2,1.8C7.4,6.4-3.4,22.3,1,43.9c0.2,1.2,0.7,2.2,1.4,3.1c0,5,1.3,24.4,22.5,27.9
	c0.2,4.1,1.2,9.9,4.4,15.4h-9.1c-8.7,0-13.1,5.1-13.1,15.2c0,1.4,1.1,2.5,2.5,2.5s2.5-1.1,2.5-2.5c0-9.4,4.2-10.2,8.1-10.2H33
	c0.7,0.8,1.4,1.5,2.1,2.3h-7c-8.2,0-12.3,5.1-12.3,15.2c0,1.4,1.1,2.5,2.5,2.5c1.4,0,2.5-1.1,2.5-2.5c0-9.4,3.8-10.2,7.3-10.2h12.7
	c0.6,0.4,1.1,0.9,1.7,1.3h-4.7c-7.5,0-11,4.8-11,15.2c0,1.4,1.1,2.5,2.5,2.5s2.5-1.1,2.5-2.5c0-10.2,3.3-10.2,6-10.2h12.5
	c5.6,3.1,10.7,5,13.8,5c2.6,0,7.7-1.9,13.4-5h12.2c2.7,0,6,0,6,10.2c0,1.4,1.1,2.5,2.5,2.5c1.4,0,2.5-1.1,2.5-2.5
	c0-10.4-3.5-15.2-11-15.2h-4.2c0.6-0.4,1.2-0.9,1.8-1.3h12.8c3.5,0,7.3,0.8,7.3,10.2c0,1.4,1.1,2.5,2.5,2.5c1.4,0,2.5-1.1,2.5-2.5
	c0-10.1-4.1-15.2-12.3-15.2H93c0.7-0.7,1.4-1.5,2.1-2.3h12.7c3.9,0,8.1,0.8,8.1,10.2c0,1.4,1.1,2.5,2.5,2.5c1.4,0,2.5-1.1,2.5-2.5
	c0-10.1-4.4-15.2-13.1-15.2h-9.1c3.2-5.5,4.2-11.4,4.4-15.4C123.7,71.4,125.9,52.3,126.1,46.2z M91.5,25.7c1.1,0.3,2.3,0.7,3.2,0.9
	c4.7,1.4,7.3,2.2,8.6-0.1s-1-4.2-2.3-5.4c-1.9-1.6-4.8-5-7.2-7.7c-1.4-1.6-2.7-3-3.6-4.1c0.1-0.3,0.5-1.1,1.8-2
	c2.8-1.9,8.4-3.3,14.8-0.8c10.7,4.1,19.3,18.1,15.1,36.7c-0.2,1-1.1,1.7-2.1,1.8c-5,0.5-14.3,0.6-21-4.9
	C94.9,36.9,92.5,32.1,91.5,25.7z M112.6,50.3c1,0.1,1.9,0.1,2.8,0.1c1.8,0,3.5-0.1,4.9-0.3c0.2,0,0.3-0.1,0.5-0.1
	c-0.9,6.6-4.5,17.1-17.6,19.8c-0.2-2.2-0.5-4.3-1-6.1C109.7,62.1,112.5,56.2,112.6,50.3z M21.9,6.5c2.4-0.8,4.6-1.2,6.6-1.2
	c3.6,0,6.4,1.1,8.2,2.4c1.3,1,1.7,1.8,1.8,2.1c-1,1-2.3,2.4-3.7,4c-2.5,2.7-5.5,6-7.4,7.6c-1.4,1.1-3.6,3-2.4,5.3
	c1.2,2.4,3.9,1.6,8.6,0.3c0.9-0.3,2.2-0.6,3.2-0.9C35.6,32.4,33,37.2,29,40.4c-6.7,5.4-16.1,5.1-21.1,4.4c-1-0.1-1.9-0.9-2.1-1.9
	C2.1,24.1,11.1,10.4,21.9,6.5z M7.5,49.8c0.2,0,0.4,0.1,0.7,0.1l0,0c1,0.2,2,0.2,3.4,0.3c0.5,0,1.1,0,1.6,0c0.6,0,1.2,0,1.8,0
	c0,0,0,0,0.1,0s0.1,0,0.2,0c0.1,0,0.1,0,0.2,0h0.1c0,6,2.8,12,10.5,13.6c-0.5,1.9-0.9,3.9-1,6.1C10.9,67,8,55.7,7.5,49.8z
	 M35.3,90.3c-7.7-10.1-6.1-26-2.1-29.8c1.2-1.1,2.7-1.5,4.6-1.5c1.7,0,3.6,0.3,5.6,0.6c3.9,0.6,7.9,1.2,11.7,0
	c4.8-1.6,6.5-3.8,7.7-5.3c0.8-1,0.8-1,1.4-1c0.6,0,0.6,0,1.4,1c1.2,1.5,2.9,3.7,7.7,5.3c3.8,1.3,7.8,0.6,11.7,0
	c4.3-0.7,7.9-1.3,10.2,0.9c4,3.9,5.6,19.7-2.1,29.8c-0.2,0.3-0.4,0.6-0.7,0.8c-0.1,0.1-0.2,0.2-0.3,0.4
	C83.5,101.8,67.7,109,64.3,109C59.7,109,43.5,101.1,35.3,90.3z"/>
</svg>
