<svg xmlns="http://www.w3.org/2000/svg" viewBox="0 0 120.76 120.76">
  <defs>
    <style>
      .cls-1 {
        fill: #e6007e;
      }

      .cls-2 {
        fill: #fff;
        fill-rule: evenodd;
      }
    </style>
  </defs>
  <title>krebs</title>
  <g id="Ebene_2" data-name="Ebene 2">
    <g id="Ebene_1-2" data-name="Ebene 1">
      <path class="cls-1" d="M120.76,60.38A60.38,60.38,0,1,1,60.38,0h0A60.39,60.39,0,0,1,120.76,60.38Z"/>
      <path class="cls-2" d="M92,28.27c-10.86-8.6-29.77-1.84-35.43.24s-5.92,2.6-5.92,3.84,3.12.52,3.12.52c11.72-.23,20.8,4.22,25.94,8.84a14.214,14.214,0,0,1,3.31,4.408C80.1,46.1,75.282,43.932,72.79,41.47S71.29,43,71.29,43c1.71,9.25,11,14.61,12.73,15.13a6.635,6.635,0,0,0,.964.22A1.154,1.154,0,0,0,86,58.49C103.87,50.72,103.06,37.06,92,28.27Z"/>
      <path class="cls-2" d="M55.64,22.24C28.25,19.49,13.97,34.61,15.08,48.7S33.03,61.47,35.19,61.35a2.137,2.137,0,0,0,.653-.122,1.909,1.909,0,0,0,1.437-.608c8.32-6.96,7.57-17.54,7.45-20.54-.14-2.74-1.44-1.08-1.9-.08-.93,2-5.63,7.66-8.63,8.84a4.48,4.48,0,0,0-1.129.631C33.68,36.7,49.406,27.583,55.17,24.52c1.36-.75,3.09-.95,3.09-1.56S55.64,22.24,55.64,22.24Z"/>
      <path class="cls-2" d="M54.45,49.56a1.71,1.71,0,1,1-1.67,1.75v-.04A1.7,1.7,0,0,1,54.45,49.56Z"/>
      <path class="cls-2" d="M66,96.18s-2.26,1.24-6.24-.49-24.67-8.12-27.9-19.21,4.73-13.08,6.87-13.83,11.09-3.76,13.72-5.26A15.873,15.873,0,0,1,66,56.78a95.912,95.912,0,0,0,14.2,4.48c2.13.58,9.62,2.25,9.47,11.73S79.21,92.45,66,96.18Z"/>
      <path class="cls-2" d="M86.45,60.74,89,63.43a2.19,2.19,0,0,0,3,.2,24.833,24.833,0,0,0,7.11-8.93c2-4.53-2.2-.17-2.81.38a19,19,0,0,1-8.49,4c-2,.41-1.36,1.62-1.36,1.62Z"/>
      <path class="cls-2" d="M31,64.64l-2,3.15a2.21,2.21,0,0,1-2.89.78,25.119,25.119,0,0,1-8.72-7.4c-2.89-4.07,2.11-.6,2.83-.2a18.78,18.78,0,0,0,9.1,2.34c2,0,1.65,1.33,1.65,1.33Z"/>
      <path class="cls-2" d="M92.84,65.27s-1.94.06-1.1,2a5,5,0,0,1,.52,3.07A1.45,1.45,0,0,0,94,71.86c1.83-.14,8.78,1.73,8,8.09-.14,1.07,1.27,2.92,1.91.08.66-3.09,1.3-13.83-11.06-14.76Z"/>
      <path class="cls-2" d="M26.14,71.22s1.82-.6,1.71,1.56a4.887,4.887,0,0,0,.52,3.06,1.459,1.459,0,0,1-1.18,2c-1.77.52-7.69,4.56-4.86,10.28.49,1-.23,3.18-1.76.69-1.65-2.65-5.81-12.59,5.57-17.56Z"/>
      <path class="cls-2" d="M94.54,75.56S92.75,73.85,92,76a12.488,12.488,0,0,1-1.3,2.86s-1.56,1.41.29,2.31,6,4.22,4.19,9.13,3-1,3-1,5.2-8.73-3.67-13.72Z"/>
      <path class="cls-2" d="M90.47,85.64s-1.33-2.69-3.21-.06S84.14,89,85.44,90.92s2.75,5.63-1.12,8.32,1.73.93,3.09.17S95.32,93.72,90.47,85.64Z"/>
      <path class="cls-2" d="M35.1,89.65s.37-3,3-1.13,4.08,2.23,3.5,4.45-.75,6.24,3.78,7.48-1.3,1.45-2.83,1.19-9.36-2.75-7.45-12Z"/>
      <path class="cls-2" d="M61.81,49.56a1.71,1.71,0,1,1-1.67,1.75v-.04A1.7,1.7,0,0,1,61.81,49.56Z"/>
      <path class="cls-2" d="M29,81.92s1.57-1.91,2.55.13a12.78,12.78,0,0,0,1.63,2.68s1.72,1.21,0,2.33-5.39,4.91-3,9.56S27.06,96,27.06,96s-6.22-8,2-14.07Z"/>
    </g>
  </g>
</svg>
