<svg xmlns="http://www.w3.org/2000/svg" viewBox="0 0 120.76 120.76">
  <defs>
    <style>
      .cls-1 {
        fill: #f9b233;
      }

      .cls-2 {
        fill: #fff;
      }
    </style>
  </defs>
  <title>Ei</title>
  <g id="Ebene_2" data-name="Ebene 2">
    <g id="Ebene_1-2" data-name="Ebene 1">
      <circle class="cls-1" cx="60.38" cy="60.38" r="60.38"/>
      <path class="cls-2" d="M94.147,51.2A32.786,32.786,0,0,0,36.316,37.547c-11.245.879-20.039,8.576-20.039,17.944A15.752,15.752,0,0,0,20.3,65.839a13.377,13.377,0,0,0-4.035,9.242c0,9.5,11.54,17.2,25.76,17.2a35.808,35.808,0,0,0,13.039-2.37,32.739,32.739,0,0,0,4.6.655,38.618,38.618,0,0,0,18.057,4.3c17.35,0,31.35-10.58,31.35-23.58C109.077,62.8,103.11,55.349,94.147,51.2ZM68.067,72.541c-9.388,0-17-6.568-17-14.67s7.612-14.67,17-14.67,17,6.568,17,14.67S77.456,72.541,68.067,72.541Z"/>
      <path class="cls-2" d="M77.727,49.831a3.65,3.65,0,1,1-3.67-3.63h.03a3.629,3.629,0,0,1,3.64,3.62Z"/>
    </g>
  </g>
</svg>
