<?xml version="1.0" encoding="utf-8"?>
<!-- Generator: Adobe Illustrator 27.2.0, SVG Export Plug-In . SVG Version: 6.00 Build 0)  -->
<svg version="1.1" id="Ebene_2_00000090283208195398712410000012186404356994416060_"
	 xmlns="http://www.w3.org/2000/svg" xmlns:xlink="http://www.w3.org/1999/xlink" x="0px" y="0px" viewBox="0 0 128 128"
	 style="enable-background:new 0 0 128 128;" xml:space="preserve">
<style type="text/css">
	.st0{fill:#FFFFFF;}
	.st1{fill:#FFC200;}
	.st2{fill:#333333;}
</style>
<path class="st0" d="M125.4,63c-1.1-21.9-17-12.6-28.1-33.8c-5.7-10.9-15-26.8-29.7-26.8S49.2,17,39.5,21.9S8,27.2,3.2,48.9
	c-4.5,20.9,13.6,31,23.8,42c7,7.5,13,34.6,33.4,34.6c26.5,0,26.7-16.7,31.6-26.2C97.5,88.7,126.7,87.1,125.4,63z"/>
<ellipse class="st1" cx="52.5" cy="57.5" rx="21.2" ry="21.2"/>
<g>
	<path class="st2" d="M128,62.9c-0.7-13.3-6.7-16.5-13-20c-5-2.7-10.6-5.8-15.3-14.8C95.2,19.6,84.9,0,67.7,0
		C57.4,0,51.9,6.3,47,11.8c-2.8,3.2-5.4,6.1-8.6,7.7c-2.1,1-5,1.9-8,2.8C19.5,25.8,4.7,30.3,0.8,48.4c-3.9,18,8,28.9,17.5,37.6
		c2.5,2.3,4.9,4.4,6.9,6.6c1.7,1.9,3.6,5.5,5.6,9.4c5.7,10.9,13.4,26,29.6,26l0,0c23.3,0,28.1-12.6,31.5-22c0.8-2,1.5-3.9,2.3-5.6
		c1.6-3.1,6.4-5.6,11.5-8.3C116,86.7,128.8,80,128,62.9z M103.4,87.7c-5.8,3.1-11.3,5.9-13.6,10.4c-1,1.9-1.7,3.9-2.6,6.1
		c-3.4,9.1-6.9,18.6-26.8,18.6l0,0c-13.1,0-19.8-12.9-25.1-23.3c-2.2-4.4-4.2-8.1-6.4-10.5c-2.2-2.3-4.6-4.6-7.2-6.9
		c-9.5-8.6-19.3-17.6-16-32.9s16-19,26.1-22.2c3.3-1,6.4-1.9,8.8-3.2c4.1-2,7.2-5.5,10.1-8.9c4.6-5.2,8.9-10.1,16.9-10.1
		c12.5,0,20.9,12.8,27.5,25.5c5.4,10.3,12,13.9,17.4,16.8c6,3.3,9.9,5.4,10.4,15.9C123.6,77.1,113.3,82.5,103.4,87.7z"/>
	<path class="st2" d="M52.5,34.3c-12.8,0-23.2,10.4-23.2,23.3s10.4,23.3,23.2,23.3s23.2-10.4,23.2-23.3S65.3,34.3,52.5,34.3z
		 M52.5,76.8c-10.6,0-19.2-8.6-19.2-19.2s8.6-19.2,19.2-19.2s19.2,8.6,19.2,19.2S63.1,76.8,52.5,76.8z"/>
	<path class="st2" d="M46.2,45.3c-0.3,0.2-7.3,4.1-7.5,13.6c0,1.1,0.8,2,1.9,2c0,0,0,0,0.1,0c1.1,0,2-0.9,2-2
		c0.2-7.1,5.2-10,5.5-10.2c1-0.5,1.3-1.7,0.8-2.7C48.4,45.1,47.1,44.8,46.2,45.3z"/>
</g>
</svg>
