<svg xmlns="http://www.w3.org/2000/svg" viewBox="0 0 120.76 120.76">
  <defs>
    <style>
      .cls-1 {
        fill: #312783;
      }

      .cls-2 {
        fill: #fff;
      }
    </style>
  </defs>
  <title>fisch</title>
  <g id="Ebene_2" data-name="Ebene 2">
    <g id="Ebene_1-2" data-name="Ebene 1">
      <circle class="cls-1" cx="60.38" cy="60.38" r="60.38"/>
      <g>
        <path class="cls-2" d="M54.086,58.59c.369.524.726,1.057,1.054,1.61C56.69,63,56.83,66.61,63,69c3.61,1.41,4.86,1,4.94-3.25.086-4.521.756-6.027,1.531-6.732A21.269,21.269,0,0,0,54.086,58.59Z"/>
        <path class="cls-2" d="M55.58,34.163c-.331-4.294-2.359-7.732-5.517-9.5A47.711,47.711,0,0,0,36.38,27.59s-5,1.84-7.47,5.88c-.72,1.2.07,5.33.37,5.37,12.06,1.69.37.59.93,1.44A9.879,9.879,0,0,0,32,42.37c3.753,3.659,10.42,6.8,14.335,9.14C53.7,46.559,55.989,39.454,55.58,34.163ZM43.41,32.69a2.33,2.33,0,1,1-1.338-3.011l.028.011A2.33,2.33,0,0,1,43.41,32.69Z"/>
        <path class="cls-2" d="M84.5,27.581a6.535,6.535,0,0,1,2.32-6.171c2.78-2.69-11.22-11.95-20.38-2.7a23.215,23.215,0,0,0-2.04,2.168C72.226,27.314,79.912,27.969,84.5,27.581Z"/>
        <path class="cls-2" d="M85.845,30.453a27.989,27.989,0,0,1-3.479.215,30.973,30.973,0,0,1-20.122-7.689c-.1.036-.212.073-.334.111a30.821,30.821,0,0,1-7.351,1.293,15.332,15.332,0,0,1,4.013,9.549c.457,5.915-1.925,13.75-9.569,19.376a24.21,24.21,0,0,1,3.1,2.829c7.317-3.037,16.24-1.863,20.856,1.5.142,0,.284-.011.427,0,12.36.49,12.12,6.71,12.34,10.24s-1,17.5-5.54,15.06-7-4.45-12.23-4.36-9.18,2.33-5.53,5c1.62,1.18,7,6.29,7.8,7.88s2.34,4,2.74,6.55c1,6.39.13,6.32,1.34,8.94.33.73,3.27,1.5,5.19-.53,3.08-3.27,6.22-6.7,5.9-12.42s-.94-8.53,3.28-13.11,6.49-6.46,8.21-9C101.868,64.522,106.977,47.705,85.845,30.453Z"/>
      </g>
    </g>
  </g>
</svg>
