<?xml version="1.0" encoding="utf-8"?>
<!-- Generator: Adobe Illustrator 27.2.0, SVG Export Plug-In . SVG Version: 6.00 Build 0)  -->
<svg version="1.1" id="Ebene_2_00000166663674017914287140000017577102475350626458_"
	 xmlns="http://www.w3.org/2000/svg" xmlns:xlink="http://www.w3.org/1999/xlink" x="0px" y="0px" viewBox="0 0 128 97.6"
	 style="enable-background:new 0 0 128 97.6;" xml:space="preserve">
<style type="text/css">
	.st0{fill:#7DD7FF;}
	.st1{fill:#333333;}
</style>
<path class="st0" d="M117.8,53.1c-0.7-0.4-1-1.1-1-1.8s0.3-1.3,1-1.8c13.3-8,4.3-19.9,7.1-29.6c0.6-2-1.2-4-3.2-3.6
	c-14.1,3.1-18.5,23.6-19.8,26.9c-0.2,0.6-1,0.7-1.4,0.2c-6.4-7.9-12.7-13.8-18.9-18l0,0c0,0,4.2-1.9,7.9-8.8
	c2.8-5.2-31.5-17.1-39.3-13.4C45,5.8,35.7,21.5,35.7,21.5l0,0C16,30.6,3,50,3,50c-0.5,0.8-0.5,1.9,0,2.7C3,52.7,29.2,92,63.8,85
	c0.6,2,2.8,8.2,5.3,9.4C74.4,97,90.2,90,90.6,84.1c0.2-2.6-7.5-4.3-7.2-8.1c5.6-4.1,11.4-9.5,17.2-16.8c0.4-0.5,1.2-0.3,1.4,0.2
	c1.4,3.3,5.8,23.7,19.8,26.8c2.1,0.5,3.8-1.5,3.2-3.6C122.1,73,131.1,61,117.8,53.1z"/>
<g>
	<path class="st1" d="M127.4,72.5c0.8-6.7,1.8-15.1-7.4-21.1c9.3-6.1,8.3-14.4,7.4-21.1c-0.4-3.4-0.8-6.7,0-9.5
		c0.5-1.9,0.1-3.8-1.2-5.3c-1.3-1.4-3.2-2-5-1.6c-13,2.8-18.5,18.5-20.7,25.5c-4.7-5.5-9.5-10.1-14.3-13.8c1.7-1.5,3.7-3.9,5.7-7.5
		c0.4-0.8,1.2-3-1.1-5.5c-3.5-3.7-12.6-7.4-20-9.6c-4.8-1.4-16.5-4.5-21.7-2.1c-5.3,2.5-13,14.6-15.3,18.5c-19.6,9.3-32.3,28-33,29
		c-1.2,1.7-1.2,4,0,5.7C1.8,55.5,23.1,87,53.5,88.4c2.9,0.1,5.8,0,8.6-0.5c1.2,3.1,3.2,7.5,5.9,8.8c1.2,0.6,2.6,0.9,4.2,0.9
		c4.2,0,9.5-1.9,13.4-4.2c3.3-1.9,7.4-5.1,7.6-9.1c0.2-2.8-2.2-4.3-4.3-5.7c-0.6-0.4-1.6-1.1-2.3-1.7c4.8-3.6,9.4-8.2,14-13.5
		c2.2,7,7.7,22.6,20.7,25.4c0.4,0.1,0.8,0.1,1.1,0.1c1.5,0,2.9-0.6,3.9-1.7c1.3-1.4,1.8-3.4,1.2-5.3C126.6,79.1,127,75.9,127.4,72.5
		z M51.4,5.7c2.1-1,9.5-0.4,19.4,2.7c9.5,3,14.8,6.2,16.2,7.7c-2,3.5-4,5.3-5.2,6.3c-9.1-5.8-18.6-8.5-28.2-8.1
		c-3.9,0.2-7.7,0.9-11.3,1.9C45.4,11.5,49.1,6.8,51.4,5.7z M5.3,51.3c1.2-1.7,12.5-17.5,29.1-26.2c2.6,3.2,9.5,12.8,9.6,26.2
		c0,13.4-7,23.1-9.6,26.2C17.8,68.9,6.5,53.1,5.3,51.3z M86.1,83.1c0.6,0.4,1.4,0.9,1.8,1.3c-0.4,0.9-1.7,2.6-4.9,4.5
		c-5,2.9-10.9,4.1-12.7,3.2c-0.7-0.4-2-2.5-3-5.2c5.1-1.4,10-3.7,14.9-6.8C83.3,81.3,84.7,82.3,86.1,83.1z M122.4,83.4
		c0,0,0,0.1-0.1,0.2c-0.1,0.1-0.1,0.1-0.1,0c-10.7-2.3-15.2-16.7-17.2-22.8c-0.3-1.1-0.6-1.8-0.8-2.4c-0.5-1.1-1.5-1.9-2.7-2.1
		c-0.2,0-0.3,0-0.5,0c-1,0-2,0.5-2.6,1.3C84.4,75.2,69.3,83.8,53.7,83.1c-5.5-0.2-10.7-1.6-15.5-3.7c3.3-4.3,9.8-14.2,9.9-28v-0.2
		l0,0c-0.1-13.7-6.5-23.7-9.8-27.9c4.8-2.1,10-3.4,15.5-3.7c15.6-0.7,30.7,7.9,44.9,25.5c0.8,0.9,1.9,1.4,3.1,1.2
		c1.2-0.2,2.2-1,2.7-2.1c0.2-0.5,0.5-1.3,0.8-2.4c1.9-6.2,6.5-20.6,17.2-22.9h0.1c0.1,0.1,0.1,0.2,0.1,0.2
		c-1.1,3.9-0.6,7.8-0.2,11.6c0.8,6.8,1.5,12.1-5.8,16.5c-1.4,0.9-2.3,2.4-2.3,4c0,1.7,0.8,3.2,2.3,4c7.2,4.4,6.6,9.7,5.8,16.5
		C121.8,75.6,121.3,79.6,122.4,83.4z"/>
	<path class="st1" d="M29.4,39.8c-2.4,0-4.4,2-4.4,4.4s2,4.4,4.4,4.4s4.4-2,4.4-4.4S31.8,39.8,29.4,39.8z"/>
</g>
</svg>
