<svg xmlns="http://www.w3.org/2000/svg" viewBox="0 0 120.76 120.76">
  <defs>
    <style>
      .cls-1 {
        fill: #f5c500;
      }

      .cls-2 {
        fill: #fff;
      }

      .cls-3 {
        fill: none;
      }
    </style>
  </defs>
  <title>gluten</title>
  <g id="Ebene_2" data-name="Ebene 2">
    <g id="Ebene_1-2" data-name="Ebene 1">
      <path class="cls-1" d="M120.76,60.38A60.38,60.38,0,1,1,60.38,0h0A60.39,60.39,0,0,1,120.76,60.38Z"/>
      <path class="cls-2" d="M99.48,44C98.2,33.856,85.21,26.686,67.924,25.293c.072.1.147.191.216.287.36.5.68,1.07,1,1.62a17.242,17.242,0,0,1,.9,1.7l.43.86c.13.29.23.6.35.89.22.6.48,1.18.66,1.79s.34,1.2.5,1.8.25,1.2.37,1.79a13.407,13.407,0,0,1,.25,1.75c0,.58.11,1.14.16,1.69s0,1.1,0,1.62A24.381,24.381,0,0,1,72.63,44a22.911,22.911,0,0,1-.37,2.43,15.652,15.652,0,0,1-.42,1.84c-.28,1-.43,1.56-.43,1.56s0-.59.09-1.62a13.778,13.778,0,0,0,0-1.84A20.614,20.614,0,0,0,71.38,44a23.012,23.012,0,0,0-.44-2.75c-.1-.48-.2-1-.32-1.46s-.31-1-.47-1.5a12.2,12.2,0,0,0-.56-1.49c-.22-.5-.39-1-.65-1.49l-.77-1.45c-.26-.48-.59-.92-.88-1.38-.15-.23-.29-.46-.45-.68l-.5-.63c-.35-.4-.64-.85-1-1.21l-1.08-1.1c-.37-.34-.77-.65-1.14-1A8.155,8.155,0,0,0,62,27.08c-.4-.24-.74-.52-1.13-.72a16.315,16.315,0,0,0-2.18-1l-.648-.24q-3.461.153-7.042.6c-.879.111-1.747.237-2.61.372.066.057.135.109.2.168.47.41,1,.81,1.41,1.25l1.31,1.39c.45.46.8,1,1.21,1.5l.58.77c.18.26.34.54.51.81.33.54.7,1.06,1,1.62s.56,1.12.83,1.68a17.781,17.781,0,0,1,.7,1.69,12.687,12.687,0,0,1,.58,1.67c.16.55.32,1.1.48,1.63s.21,1.07.32,1.59a25.45,25.45,0,0,1,.39,2.91,21.548,21.548,0,0,1,.1,2.45,15.13,15.13,0,0,1-.06,1.88c-.08,1-.13,1.62-.13,1.62l-.22-1.61a12.917,12.917,0,0,0-.32-1.81,22.475,22.475,0,0,0-.59-2.3,24.026,24.026,0,0,0-1-2.62c-.2-.45-.38-.91-.6-1.37s-.49-.91-.74-1.38a14.11,14.11,0,0,0-.84-1.37c-.31-.44-.57-.91-.92-1.33l-1-1.28c-.34-.42-.75-.79-1.12-1.19-.19-.19-.37-.39-.57-.58l-.62-.52a14.546,14.546,0,0,0-1.23-1l-1.27-.87c-.43-.27-.88-.49-1.3-.73a8.287,8.287,0,0,0-1.28-.6c-.43-.17-.82-.38-1.24-.5a15.717,15.717,0,0,0-2.34-.59l-1-.19H38.06a7.117,7.117,0,0,0-.8,0l-.971.036c-2.2.7-4.319,1.471-6.324,2.319.2.112.389.225.605.335a12.672,12.672,0,0,1,1.57,1c.51.37,1,.71,1.53,1.1l1.45,1.26c.49.4.9.91,1.35,1.36l.66.7c.21.25.4.5.6.75.38.51.8,1,1.14,1.52l1,1.58c.34.52.58,1.08.87,1.61a12.94,12.94,0,0,1,.75,1.6l.64,1.57c.18.53.32,1.05.48,1.55a24.08,24.08,0,0,1,.7,2.85c.21.88.24,1.72.35,2.43a15.543,15.543,0,0,1,.13,1.88v1.62l-.38-1.57A13.2,13.2,0,0,0,43,52.57a20.04,20.04,0,0,0-.82-2.23,22.745,22.745,0,0,0-1.21-2.5c-.25-.43-.48-.87-.74-1.31l-.88-1.29a10.739,10.739,0,0,0-1-1.27c-.35-.41-.66-.86-1-1.24L36.2,41.57c-.39-.39-.84-.71-1.25-1.07l-.7-.5-.67-.45a14.4,14.4,0,0,0-1.33-.87l-1.35-.74c-.45-.21-.92-.39-1.37-.58a7.56,7.56,0,0,0-1.33-.47c-.45-.12-.86-.29-1.29-.37a17.2,17.2,0,0,0-2.38-.35l-1.05-.07H21.92c-.21,0-.56.07-.8.1l-.619.085C12.334,41.763,7.672,48.634,8.54,55.5c.81,6.408,6.287,11.619,14.547,14.949A22.832,22.832,0,0,1,26.37,66.91a32.679,32.679,0,0,1,17.48-7.37,39.4,39.4,0,0,1,4.45-.27c7.86,0,14.7,2.556,19.125,6.682A25.631,25.631,0,0,1,78.88,63.4a31.215,31.215,0,0,1,3.73.23,31.633,31.633,0,0,1,3.349.594C95.086,58.591,100.4,51.288,99.48,44Z"/>
      <g>
        <path class="cls-3" d="M55.54,70.69a25.444,25.444,0,0,0-3.469-.115c-.028-.094-.04-.192-.071-.285a8.577,8.577,0,0,0-.63-1.58,10.8,10.8,0,0,0-.743-1.234l.333-.076c.5-.12,1.05-.28,1.5-.38s.84-.21,1.17-.3c.63-.18,1-.31,1-.31a10.15,10.15,0,0,0-1-.28,19.665,19.665,0,0,0-2.77-.46c-.646-.056-1.294-.082-1.942-.083a5.339,5.339,0,0,0-.418-.347,5.78,5.78,0,0,0-.73-.5c-.26-.14-.5-.29-.76-.41l-.77-.3a6.38,6.38,0,0,0-1.47-.32,5.4,5.4,0,0,0-1.27,0,3.787,3.787,0,0,0-.93.19,6.76,6.76,0,0,0-.74.31s.27.12.72.31a8.251,8.251,0,0,1,.78.35c.27.11.58.34.9.51.235.154.457.325.682.492-.094.014-.188.023-.282.038a14.045,14.045,0,0,0-2.29.45c-.75.23-1.51.41-2.24.71-.251.091-.5.2-.743.3a6.343,6.343,0,0,0-.767-.339c-.27-.08-.53-.17-.79-.23a6.811,6.811,0,0,0-1.49-.21,6.225,6.225,0,0,0-1.27.12,3.743,3.743,0,0,0-.91.26,7.188,7.188,0,0,0-.72.37,5.1,5.1,0,0,0,.87.18,7.344,7.344,0,0,1,.8.29c.28.08.61.29.94.43.273.151.534.321.8.489-.2.137-.4.272-.6.421-.27.22-.55.42-.79.64l-.69.7a7.374,7.374,0,0,0-.55.73,2.637,2.637,0,0,0-.23.35c-.06.13-.17.25-.17.37a4.511,4.511,0,0,0-.27.67,4.186,4.186,0,0,0-.11.63,1.065,1.065,0,0,0,0,.47v.61l.21-.29a2.537,2.537,0,0,1,.36-.69l.3-.38c.11-.12.28-.26.43-.4l.23-.21.29-.18a7.353,7.353,0,0,1,.62-.4,32.408,32.408,0,0,1,3.142-1.328A14.288,14.288,0,0,1,40.02,71.53c.32.36.62.74.92,1.11a6.05,6.05,0,0,0,.44.57c.053.082.109.158.164.237A16.1,16.1,0,0,0,39.76,74.78a6.074,6.074,0,0,0-1,1.32,3.53,3.53,0,0,0-.45,1.22,2.175,2.175,0,0,0,0,.82l.06.26a.607.607,0,0,0,.04-.25,2.508,2.508,0,0,1,.37-.6,5.336,5.336,0,0,1,2-1.37c.686-.276,1.382-.526,2.083-.761.122.2.241.394.367.581.37.69.75,1.26,1,1.69a6.184,6.184,0,0,0,.44.67s.07-.28.14-.79a4.892,4.892,0,0,0,.07-.92,9.531,9.531,0,0,0-.131-1.811c1.072-.3,2.156-.562,3.251-.769.906-.216,1.816-.414,2.708-.6.04.077.079.157.122.232.35.71.68,1.33.89,1.78a7.71,7.71,0,0,0,.39.7,7.813,7.813,0,0,0,.35-1.69,10.933,10.933,0,0,0,.06-1.2c0-.066-.016-.13-.019-.2,1.131-.233,2.2-.455,3.139-.675,1.06-.26,1.95-.5,2.58-.67s1-.3,1-.3A17.581,17.581,0,0,0,55.54,70.69Zm-8.19.45a16.044,16.044,0,0,0-3.426,1.045A9.294,9.294,0,0,0,43.3,71a11.549,11.549,0,0,0-1.08-1.42l-.1-.1c.342-.087.682-.182,1.027-.258l2.1-.5,2-.47.134-.031c.208.252.416.5.606.771.29.38.57.78.83,1.18.12.21.25.41.39.61l.016.027C48.6,70.9,47.971,71,47.35,71.14Z"/>
        <path class="cls-2" d="M58.88,76.78a12.053,12.053,0,0,1,.981-3.4,14.275,14.275,0,0,1,4.068-5.2C60.188,65.123,54.59,63.27,48.31,63.27H48.3a31.658,31.658,0,0,0-4,.25c-7.371.869-13.609,4.081-17.243,8.322A12.588,12.588,0,0,0,23.72,81.52c.91,7.54,9.65,12.84,20.32,12.84a33.418,33.418,0,0,0,4-.24,28.683,28.683,0,0,0,14.987-6.1A13.768,13.768,0,0,1,58.88,76.78Zm-3.24-4.36c-.939.22-2.008.442-3.139.675,0,.065.017.129.019.2a10.933,10.933,0,0,1-.06,1.2,7.813,7.813,0,0,1-.35,1.69,7.71,7.71,0,0,1-.39-.7c-.21-.45-.54-1.07-.89-1.78-.043-.075-.082-.155-.122-.232-.892.188-1.8.386-2.708.6-1.095.207-2.179.468-3.251.769a9.531,9.531,0,0,1,.131,1.811,4.892,4.892,0,0,1-.07.92c-.07.51-.14.79-.14.79a6.184,6.184,0,0,1-.44-.67c-.25-.43-.63-1-1-1.69-.126-.187-.245-.383-.367-.581-.7.235-1.4.485-2.083.761a5.336,5.336,0,0,0-2,1.37,2.508,2.508,0,0,0-.37.6.607.607,0,0,1-.04.25l-.06-.26a2.175,2.175,0,0,1,0-.82,3.53,3.53,0,0,1,.45-1.22,6.074,6.074,0,0,1,1-1.32,16.1,16.1,0,0,1,1.784-1.333c-.055-.079-.111-.155-.164-.237a6.05,6.05,0,0,1-.44-.57c-.3-.37-.6-.75-.92-1.11a14.288,14.288,0,0,0-1.028-1.088A32.408,32.408,0,0,0,35.85,71.77a7.353,7.353,0,0,0-.62.4l-.29.18-.23.21c-.15.14-.32.28-.43.4l-.3.38a2.537,2.537,0,0,0-.36.69l-.21.29v-.61a1.065,1.065,0,0,1,0-.47,4.186,4.186,0,0,1,.11-.63,4.511,4.511,0,0,1,.27-.67c0-.12.11-.24.17-.37a2.637,2.637,0,0,1,.23-.35,7.374,7.374,0,0,1,.55-.73l.69-.7c.24-.22.52-.42.79-.64.193-.149.4-.284.6-.421-.262-.168-.523-.338-.8-.489-.33-.14-.66-.35-.94-.43a7.344,7.344,0,0,0-.8-.29,5.1,5.1,0,0,1-.87-.18,7.188,7.188,0,0,1,.72-.37,3.743,3.743,0,0,1,.91-.26,6.225,6.225,0,0,1,1.27-.12,6.811,6.811,0,0,1,1.49.21c.26.06.52.15.79.23a6.343,6.343,0,0,1,.767.339c.246-.1.492-.208.743-.3.73-.3,1.49-.48,2.24-.71a14.045,14.045,0,0,1,2.29-.45c.094-.015.188-.024.282-.038-.225-.167-.447-.338-.682-.492-.32-.17-.63-.4-.9-.51a8.251,8.251,0,0,0-.78-.35c-.45-.19-.72-.31-.72-.31a6.76,6.76,0,0,1,.74-.31,3.787,3.787,0,0,1,.93-.19,5.4,5.4,0,0,1,1.27,0,6.38,6.38,0,0,1,1.47.32l.77.3c.26.12.5.27.76.41a5.78,5.78,0,0,1,.73.5,5.339,5.339,0,0,1,.418.347c.648,0,1.3.027,1.942.083a19.665,19.665,0,0,1,2.77.46,10.15,10.15,0,0,1,1,.28s-.37.13-1,.31c-.33.09-.72.2-1.17.3s-1,.26-1.5.38l-.333.076a10.8,10.8,0,0,1,.743,1.234A8.577,8.577,0,0,1,52,70.29c.031.093.043.191.071.285a25.444,25.444,0,0,1,3.469.115,17.581,17.581,0,0,1,3.68.76s-.37.13-1,.3S56.7,72.16,55.64,72.42Z"/>
        <path class="cls-2" d="M48.82,70.17c-.26-.4-.54-.8-.83-1.18-.19-.267-.4-.519-.606-.771l-.134.031-2,.47-2.1.5c-.345.076-.685.171-1.027.258l.1.1A11.549,11.549,0,0,1,43.3,71a9.294,9.294,0,0,1,.624,1.185A16.044,16.044,0,0,1,47.35,71.14c.621-.136,1.248-.244,1.876-.333l-.016-.027C49.07,70.58,48.94,70.38,48.82,70.17Z"/>
      </g>
      <path class="cls-2" d="M67.714,69.188h0c-.032.019-.06.039-.092.058C67.654,69.227,67.682,69.207,67.714,69.188Z"/>
      <g>
        <path class="cls-2" d="M79.637,71.2a8.64,8.64,0,0,1,.493,1.239,6.9,6.9,0,0,1,.231.908q.472-.07.949-.108c.64-.06,1.28,0,1.91-.06a5.637,5.637,0,0,1,1.231.038c-.02-.059-.04-.119-.061-.178-.13-.37-.27-.75-.43-1.1-.1-.251-.215-.5-.329-.74H80.09C79.939,71.2,79.788,71.2,79.637,71.2Z"/>
        <path class="cls-2" d="M82.28,66.61c-.046-.006-.093-.009-.14-.013a5.07,5.07,0,0,1,.53.133,6.081,6.081,0,0,1,1.17.54c.2.12.39.26.6.4a5.072,5.072,0,0,1,.55.49,4.436,4.436,0,0,1,.51.56,4.581,4.581,0,0,1,.287.378c.466.139.929.288,1.383.462a14.825,14.825,0,0,1,2.15,1c.51.29.78.48.78.48s-.34.06-.91.1h-1c-.368,0-.825.059-1.293.06a8.516,8.516,0,0,1,.293.99,8.259,8.259,0,0,1,.2,1.46c0,.031,0,.063,0,.094A19.659,19.659,0,0,1,90,74.56a13.409,13.409,0,0,1,2.82,1.5s-.33.06-.88.1a6.241,6.241,0,0,0-1,.06,8.82,8.82,0,0,1-1.26,0H87.137a10.147,10.147,0,0,1-.327.99,5.315,5.315,0,0,1-.35.71,4.742,4.742,0,0,1-.38.59,6.326,6.326,0,0,1-.21-.66c-.12-.39-.28-1-.47-1.62l-.012-.041L83.14,76.13c-.887-.048-1.775-.059-2.662-.046-.013.122-.009.245-.028.366-.07.37-.18.7-.26,1a3.854,3.854,0,0,1-.29.74,5.341,5.341,0,0,1-.32.62s-.12-.24-.27-.64-.35-.92-.6-1.58c-.055-.138-.111-.285-.168-.437q-.822.052-1.642.137a3.092,3.092,0,0,0-.58.11,2.372,2.372,0,0,0-.51.13l-.44.17c-.13.06-.22.12-.33.18a1.641,1.641,0,0,0-.47.42l-.15.23V77.3a1.572,1.572,0,0,1,.12-.66,4.332,4.332,0,0,1,.24-.5c.1-.15.23-.31.37-.48a4.858,4.858,0,0,1,1.11-.91,8.561,8.561,0,0,1,1.4-.714c-.072-.174-.144-.354-.218-.526-.16-.37-.33-.71-.52-1.06-.188-.38-.4-.746-.622-1.106-.873.083-1.744.192-2.608.346a2.775,2.775,0,0,0-.58.17,2.022,2.022,0,0,0-.51.19c-.15.08-.32.15-.44.22l-.33.22c-.23.13-.35.37-.46.47l-.17.25v-.25a1.642,1.642,0,0,1,.09-.67,1.613,1.613,0,0,1,.21-.52,3.094,3.094,0,0,1,.35-.52,2.608,2.608,0,0,1,.47-.53,5.847,5.847,0,0,1,.59-.51l.7-.45c.25-.15.52-.26.79-.39.1-.043.2-.077.3-.118-.087-.093-.168-.191-.257-.282-.23-.19-.45-.44-.65-.58a4.256,4.256,0,0,0-.57-.43c-.4-.28-.61-.44-.61-.44s.25-.09.67-.2a2.693,2.693,0,0,1,.81-.07,4.761,4.761,0,0,1,1.09.12,6.678,6.678,0,0,1,1.22.44l.62.35c.148.1.292.219.437.333.207-.033.414-.07.623-.093.66-.1,1.32-.09,2-.13a9.351,9.351,0,0,1,1.755.075c-.022-.028-.042-.058-.065-.085-.21-.21-.41-.47-.59-.63a4.767,4.767,0,0,0-.54-.48,6.727,6.727,0,0,1-.55-.49,6.831,6.831,0,0,1,.68-.14c.084-.013.168-.014.252-.019-.706-.058-1.413-.1-2.122-.1h-.02a23.289,23.289,0,0,0-9.363,1.865,17.931,17.931,0,0,0-1.8.923c-.032.019-.06.039-.092.058a15.107,15.107,0,0,0-1.56,1.057,12.33,12.33,0,0,0-2.351,2.38A9.415,9.415,0,0,0,61.88,77.15c-.387,3.119.895,6.174,3.337,8.728q.332.348.694.681t.75.651a20.347,20.347,0,0,0,1.678,1.234A25.383,25.383,0,0,0,79.15,92.3a27.706,27.706,0,0,0,3.37.21c8.91,0,16.23-4.43,17-10.75C100.39,74.67,92.67,67.88,82.28,66.61Z"/>
        <path class="cls-1" d="M82.14,66.6a5.088,5.088,0,0,0-.55-.077,2.7,2.7,0,0,0-.568-.019c.249.02.5.036.746.062C81.892,66.576,82.016,66.585,82.14,66.6Z"/>
      </g>
    </g>
  </g>
</svg>
