<?xml version="1.0" encoding="utf-8"?>
<!-- Generator: Adobe Illustrator 27.2.0, SVG Export Plug-In . SVG Version: 6.00 Build 0)  -->
<svg version="1.1" id="Ebene_2_00000107559471961678985010000012074542343404677017_"
	 xmlns="http://www.w3.org/2000/svg" xmlns:xlink="http://www.w3.org/1999/xlink" x="0px" y="0px" viewBox="0 0 128 128"
	 style="enable-background:new 0 0 128 128;" xml:space="preserve">
<style type="text/css">
	.st0{fill:#E5D1BA;}
	.st1{fill:#DCAB6B;}
	.st2{fill:#333333;}
</style>
<path class="st0" d="M80.4,86.4c3.6-2.1,7.8-3.4,12.4-2.7c0.4,0.1,0.7,0.1,1.1,0.2V50c0-5.3,10.9-3.8,10.9-17.5
	c-0.4-11.9-4.5-16.1-12.2-17.2c-9.7-1.4-19.6-2-28.3-2c-7,0-17.5,0.6-27.1,2c-7.7,1.1-12.1,4.5-12.1,16.5
	c0,14.4,11.1,13.9,11.1,18.2v33.2C37.6,83.5,80.4,86.4,80.4,86.4"/>
<path class="st1" d="M111.5,5.8c-7.2-1.5-22.2-3.2-36.2-3.2C58.9,2.6,48,1.1,30.2,17.8c1.8-1.2,4.2-1.9,6.9-2.3
	c9.6-1.3,20.1-2,27.1-2c8.7,0,18.7,0.6,28.3,2c7.7,1.1,12.3,5.2,12.3,17.1c0,13.7-10.9,12.2-10.9,17.5v34l-0.4,0.1
	c-0.4-0.1-0.7-0.2-1.1-0.2c-4.6-0.7-8.8,0.6-12.4,2.7l0.2-0.2c0,0-15.9-19.4-39.3-2.1l-1,0.3C-0.5,68.3-8,120.4,15.4,122.5
	c30.8,2.8,44.7,3.9,77.3,1.3c12-1,19.2-18.5,13.9-30.1l0,0c4-2,7.2-3.8,7.2-4.5V41.6c0-5.4,11.2-0.1,11.2-17.5
	C125.3,12.2,119.1,7.4,111.5,5.8z M102.7,88.2L102.7,88.2L102.7,88.2z M105.9,91.9C105.9,91.9,105.9,92,105.9,91.9
	C105.9,92,105.9,91.9,105.9,91.9z"/>
<path class="st2" d="M112,3.3C104.1,1.7,88.2,0,71.7,0C57.2,0,43.4,1.5,28.6,15.9c-3.7,3.6-6,8.1-6,16c0,10.7,5.7,14.5,9,16.7
	c0.8,0.5,1.8,1.2,2,1.5v29.9c-13.5-3.1-21.6,2-25.5,5.7c-7.2,6.9-10.1,18.7-6.9,28c2.3,6.7,7.5,10.9,14.2,11.6
	c18.8,1.7,31.2,2.8,45.5,2.8c9.3,0,19.4-0.5,32.4-1.5c10.8-0.9,17.6-12.4,18-23c0.1-2.8-0.3-5.6-1.1-8.4c5.5-2.8,6.6-4,6.6-5.7V41.7
	c6.8-3,11.2-5.5,11.2-17.4C127.8,12.6,122.3,5.4,112,3.3z M38.7,81.3V50.1c0-2.9-2.3-4.4-4.3-5.7c-3.2-2.1-6.8-4.5-6.8-12.5
	c0-6.8,1.6-10,4.1-12c5.9-4.8,17-3.8,35.4-4.1c28.3-0.6,34,5.7,34,16.8c0,7.1-2.3,9.1-5.3,11.1c-2.1,1.4-4.7,3-4.7,6.5v31.1
	c-1.6-0.4-6.9,0.1-10.3,2.2c-0.1-0.1-9.3-9.1-21.6-9c-11.9,0.1-18.6,7-19.3,7.6C39.6,81.6,38.7,81.3,38.7,81.3z M106.1,103.1
	c-0.3,8.2-5.5,17.5-13.3,18.2c-32.5,2.6-46.3,1.5-76.9-1.3c-6.3-0.6-8.9-5.4-9.8-8.2c-2.2-6.4-1-16.3,5.6-22.6
	c3.7-3.5,8.4-5.2,14-5.2c3.2,0,7.4,0.5,10.5,1.8c-2.3,2.8-4.5,6.1-6.6,9.8c-1.4,2.5,0.3,3.7,0.7,3.9c2.1,1.3,3.1-1.2,4.8-3.3
	c2.4-2.8,8.3-16.9,24.9-16.9c9.1,0,16.2,6.6,16.3,6.7l0,0c-7.1,5.3-11.4,12.8-11.7,13.4c-0.7,1.2-0.2,2.8,1,3.5s2.8,0.2,3.5-1
	c0.1-0.1,9.7-16.9,22-15.8C97.7,86.7,106.5,90.8,106.1,103.1z M107.9,90.3c-2.4-3.8-6.1-6.9-11.7-8.4V51l15.3-8v45.4
	C111,88.6,109.9,89.2,107.9,90.3z M116.4,36.1c-0.3,0.1-11.6,5.9-11.6,5.9c1.3-2.2,2.2-5.2,2.2-9.3c0-12.3-4.3-18.4-14-20
	c-8.9-1.5-23.8-3.7-52.1-0.2C51.8,5,60.1,5.2,71.7,5.2c10.1,0,31.7,1.6,39.4,3.2c8,1.7,11.8,6.7,11.8,15.9
	C122.7,33.6,119.4,34.9,116.4,36.1z"/>
</svg>
