<?xml version="1.0" encoding="utf-8"?>
<!-- Generator: Adobe Illustrator 27.2.0, SVG Export Plug-In . SVG Version: 6.00 Build 0)  -->
<svg version="1.1" id="Ebene_2_00000083778478204345876490000008527215600589153978_"
	 xmlns="http://www.w3.org/2000/svg" xmlns:xlink="http://www.w3.org/1999/xlink" x="0px" y="0px" viewBox="0 0 128 128"
	 style="enable-background:new 0 0 128 128;" xml:space="preserve">
<style type="text/css">
	.st0{fill:none;}
	.st1{fill:#7B71FF;}
	.st2{fill:#333333;}
</style>
<line class="st0" x1="10.7" y1="117.1" x2="21.9" y2="105.9"/>
<path class="st1" d="M101.7,84.2L119.1,67c1-1,0.3-2.8-1.2-2.8h-2.3l8.5-12.6c1.3-1.3,0.4-3.4-1.4-3.4l-14.2,0.2
	c1.2-0.8,2.4-1.8,3.6-3C120.3,37.2,127.2,5.2,125,3c-2.5-2.6-34.3,4.7-43,13.4c-0.1,0.1-0.2,0.2-0.2,0.3l0.1-8.5c0-2-2.4-3-3.8-1.6
	l-14.9,10l0.1-7c0-1.5-1.8-2.2-2.8-1.2L43,25.8c-8.2,8.1-8.9,9-9.9,13l-1.5,0.7c-0.3-1.7-2.5-3-3.6-2L10.9,54.7
	c-19,18.9-1.1,39,9.6,49.3c0.7,1.1,5.5,5.5,5.9,5.9c9.2,9.6,27.6,25.7,46.7,6.7l17.2-17.1c1-1,0-3.1-1.7-3.3v-1.8L101.7,84.2z"/>
<path class="st2" d="M122.7,45.7l-7.5,0.1c4.9-6.1,8.4-18,9.8-23.2c2.2-8.4,4.4-18.9,1.9-21.4c-1.2-1.2-5.7-2.6-21.7,1.9
	c-4.5,1.2-14.2,4.2-20.8,8.4V8.3c0-1.9-1.1-3.7-2.9-4.4c-1.7-0.7-3.6-0.4-5,0.8l-10.8,7.2V9.7c0-1.7-1-3.2-2.6-3.9s-3.4-0.3-4.6,0.9
	L41.2,24c-4,4-6.9,8.1-8.7,12.2c-0.6-0.6-1.3-1-2.1-1.2c-1.6-0.5-3.1-0.2-4.2,0.9l-17.1,17C3,59-0.1,65.7,0,73
	c0,3.7,0.2,14.7,17.8,32l-9.6,9.6c-1.4,1.4-1.4,3.6,0,5c0.7,0.7,1.6,1,2.5,1c0.9,0,1.8-0.3,2.5-1l9.7-9.7c0.2,0.1,1.2,1.4,1.6,1.8
	c3.8,4,15.5,16.2,29.4,16.3c0.1,0,0.2,0,0.3,0c7.3,0,14.2-3.2,20.6-9.6L92,101.3c1.1-1.1,1.4-2.7,0.9-4.3c-0.3-0.9-0.9-1.7-1.6-2.3
	c4.1-1.8,8.2-4.7,12.2-8.7l17.3-17.3c1.2-1.2,1.6-3,0.9-4.6c-0.4-0.8-1-1.5-1.7-2l6.1-9c1.2-1.3,1.5-3.1,0.8-4.7
	C126.2,46.7,124.6,45.7,122.7,45.7z M123,5c0.3,6-4.7,43.2-25.1,44c1.8-9.3,3.2-18.4,0.4-20c-3-1.8-14.1,0.2-20.6,2c0,0,0,0,0-0.1
	C80.6,10.5,117.2,4.6,123,5z M69.4,77.9c1.8-7.3,4.3-17.4,1.3-20.3C67,53.9,53.6,57.9,49.5,59c2.2-19.4,33.2-24.7,45.3-25.9
	C94.2,36.2,92.6,74,69.4,77.9z M53.6,102.2c-11.5,14-28.2,2.9-28.2,2.9c-0.8-0.4-1-0.6-1.5-1c-0.5-0.5-0.5-0.7-1.1-1.5
	c-1-1.5-3.1-5.1-3.9-9.8c-0.9-5,1.8-12.7,6.3-17.2c8-7.9,35.6-14.4,41.6-13.8C66.8,64.6,63.2,90.5,53.6,102.2z M79.3,8.9l-0.1,6.8
	c-5.3,5.2-6.8,12.9-6.6,16.8c-0.1,0-6.9,2.4-7,2.5c0-0.1,0.1-16.9,0.1-16.9L79.3,8.9z M44.8,27.5l15.8-15.7c0,0-0.1,24.6-0.3,25.4
	c-12.3,6.1-16.2,17-15.9,23.7c-0.7,0.2-1.3,0.4-2,0.6c-2.6-3-6.1-8-6.9-14.3C34.7,40.9,38.1,34.2,44.8,27.5z M12.7,56.5l16.5-16.4
	l4,24.4c-5.3,2.3-9.1,4.6-11.5,7c-6.8,6.7-8.5,14-7.9,20.4c0,0.4,0.1,0.7,0.1,1.1c-4.4-5.6-8.6-12.8-8.7-20.1
	C5,67.1,7.6,61.6,12.7,56.5z M71.3,114.8c-5.5,5.4-11.2,8.2-17.2,8.1c-7.6-0.1-14.6-4.7-19.6-8.9c1.3,0.2,2.7,0.3,4.1,0.3
	c5.9,0,12.5-2,18.7-8.2c2.4-2.3,4.5-6.1,6.2-10.1l24.1,2.6L71.3,114.8z M99.9,82.4C88.7,93.6,78,94.8,67.1,86c0.3-1.1,0.6-2.1,0.9-3
	c6.5,0,12.6-2.8,17.8-7.8c1.7-1.6,4.8-7.3,5.3-8.3c0.5-0.1,24.6-0.2,24.6-0.2L99.9,82.4z M114.3,61.7l-20,0.2c0.9-2.8,2.6-6.9,2.6-7
	c5.6-0.8,9.2-1.6,12.5-4l12.3-0.1L114.3,61.7z"/>
</svg>
