<svg xmlns="http://www.w3.org/2000/svg" viewBox="0 0 120.76 120.76">
  <defs>
    <style>
      .cls-1 {
        fill: #9c6a9c;
      }

      .cls-2 {
        fill: #fff;
      }

      .cls-3 {
        fill: #856a9c;
      }
    </style>
  </defs>
  <title>lupin</title>
  <g id="Ebene_2" data-name="Ebene 2">
    <g id="Ebene_1-2" data-name="Ebene 1">
      <circle class="cls-1" cx="60.38" cy="60.38" r="60.38"/>
      <path class="cls-2" d="M61.848,58.244c2.36,1.585,4.607,1.993,6.669,1.214,4.824-1.822,7.555-9.515,8.294-11.887-5.379.57-17.266,2.579-18.2,6.262C58.285,55.108,59.375,56.592,61.848,58.244Z"/>
      <g>
        <path class="cls-2" d="M33.9,102.6l3.688,1.311C41.512,75.032,65.938,36.57,75.291,22.7,42.857,58.1,34.72,98.129,33.9,102.6Z"/>
        <path class="cls-2" d="M56.066,72.583c2.6,1.745,5.079,2.192,7.352,1.333,5.3-2,8.279-10.468,9.054-12.967-5.847.605-18.942,2.781-19.962,6.811C52.156,69.16,53.353,70.782,56.066,72.583Z"/>
        <path class="cls-2" d="M69.385,44.289a5.151,5.151,0,0,0,4.863.966c3.552-1.327,5.608-7.129,6.228-9.151-4.107.466-12.763,2.007-13.494,4.791C66.729,41.862,67.537,43.005,69.385,44.289Z"/>
        <path class="cls-2" d="M75.3,32.472c1.506,1.142,2.933,1.484,4.243,1.008,3.335-1.208,5.262-7.16,5.834-9.209-3.726.473-11.469,2-12.237,4.735C72.864,30,73.591,31.166,75.3,32.472Z"/>
        <path class="cls-2" d="M79.068,19.878c-.25.721.085,1.575,1,2.539.585.619,1.124.86,1.579.717,1.351-.411,2.46-3.742,2.954-6.156C82.787,17.342,79.619,18.29,79.068,19.878Z"/>
        <path class="cls-2" d="M22.208,72.531c-1.549,2.445-6.923,11.661-4.687,18.589,1.02,3.161,3.521,5.466,7.436,6.848,3.85,1.362,6.331,1.364,7.372.006C35.408,93.961,26.434,78.813,22.208,72.531Z"/>
        <path class="cls-2" d="M24.931,71.731c.631,3,2.692,5.359,6.127,7.019,3.338,1.62,5.56,1.882,6.609.784,3.135-3.286-3.619-17.914-6.91-24.1C29.091,57.577,23.575,65.287,24.931,71.731Z"/>
        <path class="cls-2" d="M40.021,43.148c-1.667,2.016-7.116,9.137-5.9,14.679.523,2.377,2.246,4.2,5.121,5.433,3,1.283,5.013,1.39,5.992.326C48.056,60.517,42.713,48.37,40.021,43.148Z"/>
        <path class="cls-3" d="M46.513,63.44c.026-.054.054-.1.078-.16Z"/>
        <path class="cls-2" d="M48.63,31.528c-1.578,1.911-6.512,8.389-5.4,13.417.479,2.166,2.059,3.829,4.7,4.944,2.73,1.161,4.563,1.259,5.451.292C55.941,47.383,51.1,36.339,48.63,31.528Z"/>
        <path class="cls-2" d="M57.234,24.158c-1.352,1.625-5.084,6.526-4.249,10.226a5.153,5.153,0,0,0,3.472,3.542c2.085.838,3.483.885,4.154.141C62.541,35.926,59.093,27.845,57.234,24.158Z"/>
        <path class="cls-2" d="M65.451,15.58c-1.4,1.606-5.317,6.49-4.5,9.927.323,1.358,1.349,2.327,3.135,2.962,2.04.724,3.417.7,4.1-.083C70.05,26.252,67.094,18.951,65.451,15.58Z"/>
        <path class="cls-2" d="M69.215,19.7c.164.581.716.962,1.687,1.166,1.406.287,2.374.108,2.876-.531,1.159-1.475-.017-5.181-.823-7.117C71.4,14.8,68.73,17.983,69.215,19.7Z"/>
        <path class="cls-2" d="M76.688,16.9c1.307.235,2.206.046,2.672-.561,1.027-1.33.088-4.495-.595-6.206-1.75,1.737-3.933,4.49-3.537,5.843C75.362,16.438,75.854,16.748,76.688,16.9Z"/>
        <path class="cls-2" d="M40.993,97.628c-.7,1.86.613,4.212,3.89,6.99,3.071,2.614,6.157,3.545,9.176,2.755,7.305-1.9,12.384-13.176,13.575-16.058h-.079C60.105,91.315,42.942,92.41,40.993,97.628Z"/>
        <path class="cls-2" d="M50.257,87.941c3.284,1.965,6.4,2.394,9.262,1.271,6.137-2.406,9.554-11.224,10.432-13.789-6.98.635-22.924,3-23.959,7.42C45.646,84.321,47.081,86.037,50.257,87.941Z"/>
        <path class="cls-2" d="M83.136,16.068c1.1-.343,1.927-2.75,2.3-4.574-1.8.407-4.184,1.275-4.553,2.351-.05.147-.2.6.491,1.358C82.045,15.929,82.637,16.223,83.136,16.068Z"/>
      </g>
    </g>
  </g>
</svg>
