<svg xmlns="http://www.w3.org/2000/svg" viewBox="0 0 120.76 120.76">
  <defs>
    <style>
      .cls-1 {
        fill: #009fe3;
      }

      .cls-2 {
        fill: #fff;
      }

      .cls-3 {
        fill: none;
      }
    </style>
  </defs>
  <title>milch</title>
  <g id="Ebene_2" data-name="Ebene 2">
    <g id="Ebene_1-2" data-name="Ebene 1">
      <circle class="cls-1" cx="60.38" cy="60.38" r="60.38"/>
      <path class="cls-2" d="M66.358,18.814C66.132,16.127,63.586,14,60.48,14s-5.642,2.127-5.868,4.813c-5.049.706-11.422,2.865-11.422,9.287,0,1.51,1.42,1.31,2.3,1.31h30c.87,0,2.29.2,2.29-1.31C77.774,21.682,71.406,19.522,66.358,18.814ZM60.48,17a2.97,2.97,0,0,1,2.739,1.523c-1.337-.063-2.345-.038-2.739-.023-.393-.015-1.4-.04-2.73.023A2.958,2.958,0,0,1,60.48,17Z"/>
      <g>
        <path class="cls-3" d="M88.742,48.976a20.49,20.49,0,0,0-.882,6.174c0,.282,0,.585,0,.9C90.19,54.867,91.5,53.446,91.5,52.27,91.5,51.252,90.515,50.051,88.742,48.976Z"/>
        <path class="cls-3" d="M32.216,48.852c-1.906,1.105-2.966,2.361-2.966,3.418,0,1.217,1.4,2.7,3.882,3.9,0-.364,0-.708,0-1.025A20.626,20.626,0,0,0,32.216,48.852Z"/>
        <path class="cls-2" d="M75.79,72.84c-2.04,1.18-4.23,1.18-8.57,1.18h-14c-4.56-.06-6.63-.08-8.63-1.18-2.778-1.528-3.343-4.05-3.459-6.206a37.846,37.846,0,0,1-7.951-4.456c.139,12.773.52,33.592.52,33.592S32,105.25,46,105.25H75c14,0,12.28-9.48,12.28-9.48s.388-20.823.529-33.6a35.458,35.458,0,0,1-8.686,4.712A6.845,6.845,0,0,1,75.79,72.84Z"/>
        <path class="cls-2" d="M96.5,52.27c0-4.984-5.347-9-13.21-10.526A16.4,16.4,0,0,1,75.46,31.28H45.51a16.4,16.4,0,0,1-7.707,10.4C29.751,43.153,24.25,47.214,24.25,52.27c0,3.517,6.7,8.381,6.564,8.294l2.732-4.188c.533.348,1.127.757,1.77,1.2a46.253,46.253,0,0,0,6.128,3.751,6.225,6.225,0,0,1,3.146-4.1c2.02-1.11,4.11-1.11,8.69-1.11h13.7c4.59,0,6.7,0,8.7,1.11a6.306,6.306,0,0,1,3.217,4.4,42.109,42.109,0,0,0,6.752-4.043c.654-.45,1.257-.865,1.8-1.217l2.7,4.154C94.1,58.513,96.5,55.609,96.5,52.27Zm-67.25,0c0-1.057,1.06-2.313,2.966-3.418a20.626,20.626,0,0,1,.914,6.3c0,.317,0,.661,0,1.025C30.648,54.965,29.25,53.487,29.25,52.27Zm58.608,3.783c0-.318,0-.621,0-.9a20.49,20.49,0,0,1,.882-6.174c1.773,1.075,2.758,2.276,2.758,3.294C91.5,53.446,90.19,54.867,87.858,56.053Z"/>
        <path class="cls-2" d="M66.93,61.17v-.05H53.28c-7.149,0-7.18.122-7.18,3.953v.094c0,3.83.031,3.833,7.18,3.953H67.12c7,0,7,.05,7-3.95S74.12,61.17,66.93,61.17Z"/>
      </g>
    </g>
  </g>
</svg>
