<?xml version="1.0" encoding="utf-8"?>
<!-- Generator: Adobe Illustrator 27.2.0, SVG Export Plug-In . SVG Version: 6.00 Build 0)  -->
<svg version="1.1" id="Ebene_2_00000056396774598836740450000000886078705573552063_"
	 xmlns="http://www.w3.org/2000/svg" xmlns:xlink="http://www.w3.org/1999/xlink" x="0px" y="0px" viewBox="0 0 112.2 128"
	 style="enable-background:new 0 0 112.2 128;" xml:space="preserve">
<style type="text/css">
	.st0{fill:#FFFFFF;}
	.st1{fill:#4C4C4C;}
	.st2{fill:#333333;}
</style>
<path class="st0" d="M91.5,18.5c0,0,4-15.9,0-15.9c-6.7,0-60-0.1-71.7,0c-4,0,0,15.9,0,15.9h1.1c-1.2,0-18.4,25.3-18.4,26.6v79
	c0,0.8,0.6,1.4,1.4,1.4h103.7c1.1,0,2-0.9,2-2V45.1C109.6,37,93.2,18.5,91.5,18.5z"/>
<g>
	<path class="st1" d="M99.2,116.8c-1-3-3.1-1.1-3.9-3.8c-0.7-2.7,6.6-10.4-0.5-12.8c-7-2.4-7.8,5.6-9.7,8.6
		c-2.8,4.6-8.9,4.5-11,10.1c-1.1,2.9-0.7,6.5-0.7,6.5H95C95,125.5,100.1,119.8,99.2,116.8z"/>
	<path class="st1" d="M31,86.6c-6,0.4-9.1-0.7-10.2-4.8c-1.1-4.1-2.8-5-6.2-5.1s-7,2.9-7.1,6.4C7.4,86.6,2.4,87,2.4,87v17.2
		c0,0,2-4.8,5.6-4.8s5.2,3.8,5.2,8.8s2.5,9.6,8.7,9.6s6.4-6.5,6.2-10.3c-0.3-3.7,0.3-8.4,5.4-8.9c5.1-0.4,5.8-2.8,5.6-5.7
		C39.1,89.9,37.1,86.1,31,86.6z"/>
	<path class="st1" d="M14.3,32.7c4.1-0.1,3.4-2.9,7.2-2.9c3.8-0.1,4,2.2,4,2.2s0.5,2.1,5.5,1.9c5-0.2,6.4-2.7,6.4-4.9
		s5.5-3.9,9.4-3.9c4-0.1,12.9-2.2,5.7-6.6h-32l-9.1,12C11.4,30.5,10.2,32.9,14.3,32.7z"/>
	<path class="st1" d="M86,71.5c-3.4-4.1-2.6-7.2,1.8-9.2s6.4-3.3,6.2-6.2c-0.3-3.1-8-3.1-10.6-5.3c-2.6-2.3-2.2-5.6-2.2-5.6H46.8
		c0,0-6.8,3.9-4.7,7.1c2,3.2,5.6,1.7,10.6,1.9s10.4,5.9,0,7.7c-6.1,1-9.8,3-9.3,6.9c0.6,4.4,10.3,3.9,12.9,4.2s9.4,0.5,5.1,6
		c-4.3,5.4,5,8,8.9,5.7c4-2.3,13.6-6.8,13.6-6.8S89.4,75.5,86,71.5z"/>
</g>
<path class="st2" d="M103.2,27.3c-2.2-3-5.7-7.3-8.6-9.6c-0.2-0.2-0.3-0.4-0.2-0.6c1.2-5.3,2.3-12.7,0.1-15.5c-0.7-1-1.8-1.5-3-1.5
	h-3.9C73.4,0,30.2,0,19.8,0.1c-1.2,0-2.2,0.5-3,1.5c-2.4,3.1-0.9,11.6,0.4,16.8c0,0.2,0,0.4-0.1,0.5c-1.6,2-4.1,5.4-7.9,11
	C0,43.3,0,44.4,0,45.1v79c0,2.1,1.7,3.9,3.9,3.9H107c2.8,0,5.1-2.3,5.1-5.1V45.1C112.2,40,107.3,32.6,103.2,27.3z M92.5,22.5
	c3.8,3.8,11.4,13.2,13.8,19.4c0.2,0.4-0.1,0.9-0.6,0.9c-4.2,0-22.3,0-27.1,0c-0.5,0-0.8-0.5-0.5-1c2.8-4.5,8.2-12,13.5-19.2
	C91.8,22.3,92.3,22.2,92.5,22.5z M82.1,52.2c1.4,1.2,3.6,1.8,5.8,2.4c1.1,0.3,3.2,0.8,3.9,1.4c0.1,0.1,0.2,0.3,0.2,0.5
	c0,1.2-0.6,2-5,4c-2.8,1.3-4.5,3-5,5.1c-0.5,2.2,0.1,4.8,2.4,7.2c0.5,0.5,0.9,1.9-1.4,3.1c0,0,0,0-0.1,0c-0.4,0.2-3.2,1.5-6.4,3
	c-0.4,0.2-0.9-0.1-0.9-0.6V48.4c0-0.4,0.3-0.6,0.6-0.6h2.5c0.3,0,0.5,0.2,0.6,0.4C79.9,49.4,80.7,50.9,82.1,52.2z M93.4,113.5
	c0.6,2.4,2.3,2.9,3.1,3.1c0.6,0.2,0.6,0.2,0.8,0.7c0.3,0.9-0.9,3.1-2.6,5.3c-0.1,0.2-0.3,0.3-0.5,0.3c-2.2,0-14.7,0-17.7,0
	c-0.4,0-0.6-0.3-0.6-0.6v-2.2c0.1-0.2,0.1-0.3,0.2-0.5c0.9-2.4,2.8-3.5,5-4.8c2-1.2,4.3-2.5,5.8-5c0.5-0.8,0.9-1.9,1.3-3
	c1.6-4.2,2.7-5.9,6-4.8c0.9,0.3,1.4,0.7,1.6,1.1c0.5,1.1-0.5,3.4-1.2,5.1C93.7,110.3,92.9,112,93.4,113.5z M64.5,74.2
	c-1.2-2.8-7.1-3.4-9.9-3.5c-2.2-0.1-8.9-0.3-9.2-2.4c-0.1-0.9-0.5-3.2,7.6-4.6c6.9-1.2,7.7-4.2,7.6-5.8c-0.2-3.3-4.3-5.7-7.9-5.8
	c-0.3,0-0.7,0-1,0c-1.1,0-2.1,0.1-3,0.1c-3.1,0.2-4.2,0.1-5-1.1c-0.1-0.1-0.1-0.2,0-0.3c0.2-0.9,1.4-2,2.6-3
	c0.1-0.1,0.2-0.1,0.4-0.1c2.2,0,20,0,23.6,0c0.4,0,0.6,0.3,0.6,0.6v33.1c0,0.2-0.1,0.4-0.3,0.5c-3.5,2.5-6.7,1.5-7.8,0.1
	c-0.2-0.2-0.8-0.9,0.2-2.2C64.7,77.8,65.2,75.9,64.5,74.2z M20.5,5.7c0-0.3,0.3-0.6,0.6-0.6c12.4-0.1,52.8,0,66.4,0H90
	c0.3,0,0.6,0.3,0.6,0.6c0.1,1.9-0.2,5.8-1.2,9.8c0.2,0.3-0.1,0.5-0.4,0.5c-5.8,0-60.8,0-66.7,0c-0.3,0-0.6-0.2-0.6-0.5
	C20.9,11.4,20.4,7.6,20.5,5.7z M21.7,21.2c0.1-0.1,0.3-0.2,0.5-0.2h30.4c0.3,0.2-3.2,1.6-5.9,2.1c-3.5,0.7-11.4,1.6-11.4,5.9
	c0,2.2-2.3,3.1-4.4,3.3c-4,0.4-5.9-4.6-9.5-4.6c-2.6,0-3.9,1.1-4.8,1.9c-0.6,0.6-1,0.9-2,1C17.6,26.6,20.3,22.8,21.7,21.2z
	 M11.9,34.9c0.1-0.2,0.4-0.3,0.7-0.3c0.6,0.1,1.2,0.1,1.9,0.1c2.8-0.1,4-1.2,5-2c0.7-0.6,1-0.9,2.2-0.9c2.6,0,3,4.2,8.7,4.2
	c0.2,0,0.5,0,0.8,0c5.8-0.3,8.4-3.2,8.8-6.2c0.4-2.4,3.2-2.1,7.2-2.9c4.1-0.8,5.5-0.7,9.5-4.1c0.1-0.1,1.3-1.6,2-1.6h26.8
	c0.5,0,0.8,0.6,0.5,1c-8.8,12-12.4,17.6-13.9,20.3c-0.1,0.2-0.3,0.3-0.6,0.3H8c-0.5,0-0.8-0.5-0.6-1C8.6,39.9,10.1,37.4,11.9,34.9z
	 M26.2,107.6c0.2,3.4-0.3,5.9-1.4,7.1c-0.6,0.7-1.5,1-2.8,1c-6.1,0-6.7-5.3-6.7-7.6c0-6.7-2.7-10.8-7.2-10.8c-0.8,0-1.5,0.2-2.2,0.5
	C5.5,97.9,5,97.6,5,97.2V89c0-0.3,0.2-0.5,0.4-0.6c2.1-0.8,4.1-2.3,4.2-5.2c0-1.1,0.6-2.2,1.6-3.1s2.3-1.5,3.4-1.4
	c2.5,0.1,3.5,0.4,4.3,3.6c1.6,6.2,7.1,6.7,12.3,6.3c2-0.2,3.6,0.2,4.6,1.2c1.2,1.1,1.4,2.6,1.4,3.2c0.1,1.9,0.2,3.3-3.8,3.6
	C30.5,96.8,25.6,98.6,26.2,107.6z M5,122.4v-18.5c0-0.1,0-0.2,0.1-0.4c0.7-1.1,1.8-2.2,3-2.2c3,0,3.2,5.2,3.2,6.8
	c0,7.1,4.2,11.6,10.7,11.6c2.4,0,4.3-0.8,5.7-2.3c2-2.1,2.8-5.5,2.5-10.1c-0.5-6.4,2.2-6.6,3.5-6.7c7-0.6,7.6-4.7,7.5-7.8
	c-0.1-2.4-1.1-4.6-2.8-6c-1.3-1.1-3.6-2.4-7.5-2.2c-6.5,0.5-7.5-1.2-8.1-3.3c-1.4-5.3-4.1-6.4-8-6.6c-2.2-0.1-4.5,0.8-6.3,2.5
	c-1.7,1.6-2.8,3.8-2.9,5.9c0,0.4-0.3,0.8-0.6,1V48.3c0-0.4,0.3-0.6,0.6-0.6h34c0.5,0,0.8,0.5,0.6,0.9s-0.3,0.8-0.4,1.2
	c-0.3,1.2-0.1,2.4,0.6,3.4c2.1,3.3,5.4,3.1,8.6,2.9c1.1-0.1,2.3-0.1,3.6-0.1c1.6,0.1,3,0.8,3.6,1.4c0.3,0.3,0.2,0.7-0.1,1
	c-0.5,0.4-1.6,0.9-3.9,1.3c-3,0.5-11.9,2-10.9,9.1c0.8,5.3,8.7,5.6,13,5.8c5.6,0.2,6.2,1.5,5.6,2.7c-1.1,2.3-2.2,5.2-0.4,7.2
	c1.5,1.7,4.4,2.7,7.2,2.7c1.2,0,2.3-0.2,3.3-0.5c0.4-0.1,0.8,0.2,0.8,0.6v35.1c0,0.4-0.3,0.6-0.6,0.6H5.6C5.3,123,5,122.7,5,122.4z
	 M107.1,123h-6.7c-0.5,0-0.8-0.5-0.5-0.9c1-1.9,1.8-4.1,1.2-5.9c-0.8-2.6-2.5-3.1-3.4-3.3c-0.1,0-0.3-0.1-0.3-0.1s0-0.1-0.1-0.2
	c0-0.5,0.6-1.7,1-2.6c1.1-2.5,2.4-5.6,1.3-8.3c-0.7-1.5-2-2.6-4-3.3c-7.3-2.5-9.7,3.8-11,7.1c-0.4,0.9-0.7,1.8-1,2.3
	c-1,1.6-2.6,2.6-4.4,3.6c-0.7,0.4-1.4,0.8-2.1,1.3c-0.4,0.3-1,0-1-0.5c0-5.2,0-25,0-28c0-0.2,0.1-0.5,0.3-0.6
	c3.8-1.9,8.1-3.9,8.6-4.1c0.6-0.2,3.5-1.6,4.2-4.3c0.3-1.2,0.3-3-1.4-5c-1.2-1.5-1.8-2.8-1.6-3.7c0.2-1.1,1.6-1.9,2.7-2.4
	c3.6-1.6,7.8-3.5,7.3-8.2c-0.3-3.2-3.9-4.2-7.1-5.1c-1.6-0.4-4.4-0.8-5.3-3h22.9c0.4,0,0.6,0.3,0.6,0.6L107.1,123L107.1,123z"/>
</svg>
