<?xml version="1.0" encoding="utf-8"?>
<!-- Generator: Adobe Illustrator 27.2.0, SVG Export Plug-In . SVG Version: 6.00 Build 0)  -->
<svg version="1.1" id="Ebene_2_00000148653126684174348060000007076747496694367121_"
	 xmlns="http://www.w3.org/2000/svg" xmlns:xlink="http://www.w3.org/1999/xlink" x="0px" y="0px" viewBox="0 0 128 128"
	 style="enable-background:new 0 0 128 128;" xml:space="preserve">
<style type="text/css">
	.st0{fill:#FF4C48;}
	.st1{fill:#333333;}
</style>
<path class="st0" d="M123.6,54.3c-4.8-9-18.2-8-22.1-0.6c-1.3,2.5-2.9,7.9,0.7,5.4c3.1-2.1,5.8-2.4,7.6-1.4c2.2,1.2,2.5,3.8,1.5,6.3
	c-2,4.9-12.7,11.3-25.4,2.8c-3.4-2.3-4.4-5-4.7-7c-0.4-2.1-0.2-4.1,1.6-5.3c0.3-0.2,2-1.4,2.6-1.9c0.9-0.7,2.3-2.1,3.3-3.2
	c4.8-5.9,6.3-10.1,6.3-18.1C95,15.2,82,2.5,65.3,2.5S35.1,15.6,35.1,31.7c0,7.5,3,15.6,7.9,20.8c0,0,1.3,1.2,1.8,1.6
	c1.4,1.1,2.2,2.3,1.6,4.4c-0.9,3-6.5,7.3-15.6,8.1c-3.5,0.3-8,0-10.5-1.2c-3.1-1.5-5.1-5.2-3.9-8.4c1.1-2.7,4.1-4.5,9.3-2.2
	c3,1.4,2.4-10.3-10.8-9.3c-16.5,1.2-18.1,28.8,4.7,33.6c7.2,1.5,17.9,0.1,17.1,0.8c-3.2,3.1-9.7,9.7-11.8,20.9
	c-2.9,15.7,4.7,29.8,9.2,22.5c2.1-3.5-0.8-15.8,6.1-27.8c3.1-5.3,6.1-8.7,11.4-12.3c1.7-1.1,3.8,4.7,3,9.2c-1.4,8-7.1,25.3,2.7,30.8
	c7.5,4.2,15.1,0.8,17.9-4.2c3.9-6.9-3.9-4.3-5.8-4.2c-1.8,0-4.4-0.1-3.9-5.1c0.5-3.9,1.5-6.4,2.7-13.6c0.5-2.7,0.3-6.8,1.1-7.5
	c3.8-3.3,12.5,5.6,15.6,10.5c3.1,4.9,7.6,11.2,2,21.1c-5.6,9.8,5.1,3.7,8.4,0.3c4.2-4.2,6.6-9.5,5.6-16.8
	c-0.9-6.6-3.2-11.3-7.3-15.4c-4.7-4.8-7.1-4.5-10.8-8.4c-2.2-2.4,3.5-0.4,4.8,0.1c4.1,1.5,9.7,2.8,14.1,2.7c6.9-0.3,13-3.4,16-6.1
	C122,72.9,128.8,64.2,123.6,54.3z"/>
<path class="st1" d="M125.8,53.1c-2.6-4.9-7.6-7.8-13.4-7.8h-0.1c-5.6,0-10.7,2.9-13,7.2c-0.8,1.5-3.2,6.7-0.6,9
	c0.7,0.7,2.4,1.5,5-0.3c2-1.4,3.9-1.9,5-1.3c1.1,0.6,0.7,2.3,0.4,3.2c-0.6,1.6-2.9,3.7-6.3,4.8c-3.4,1-8.7,1.3-15.4-3.1
	c-2.7-1.8-3.4-3.9-3.7-5.4c-0.4-2.1,0.1-2.5,0.5-2.7c0.4-0.3,2.2-1.5,2.8-2c1-0.8,2.6-2.3,3.7-3.6c5.2-6.3,6.9-11.1,6.9-19.7
	C97.5,13.8,83.4,0,65.3,0c-18,0-32.7,14.2-32.7,31.7c0,8.2,3.3,16.8,8.6,22.5l0.1,0.1c0.1,0.1,1.4,1.3,1.9,1.7
	c1.1,0.9,1,1.1,0.8,1.7c-0.6,1.8-5.2,5.7-13.5,6.4c-3.5,0.3-7.3-0.1-9.1-1c-1.9-0.9-3.4-3.3-2.7-5.2c0.3-0.7,0.7-1.2,1.4-1.4
	c1.1-0.4,2.7-0.2,4.6,0.7c1.4,0.6,2.8,0.4,3.8-0.6c1.4-1.4,1.6-4.1,0.4-6.7c-0.8-1.8-4.2-7.4-14.1-6.7C6.6,43.5,0.7,49.8,0,58.6
	c-0.3,4.9,1.1,9.9,4.1,13.9c3.4,4.6,8.5,7.7,14.9,9c3.8,0.8,8.4,0.8,12,0.8c-3.2,3.8-7,9.8-8.6,18.1c-2.2,11.9,1.2,24.8,7.1,27.1
	c0.9,0.4,4.2,1.2,6.7-2.9c1.1-1.8,1.2-4.3,1.3-7.8c0.3-5.4,0.6-12.8,4.8-20c2.7-4.7,5.2-7.6,9.1-10.5c0.5,1.3,0.9,3.6,0.5,5.7
	c-0.2,1.1-0.5,2.6-0.8,4c-2.1,9.5-5.2,23.8,4.8,29.4c3.9,2.2,8.3,2.8,12.4,1.7c3.9-1.1,7.1-3.6,9-6.9c0.6-1,2.4-4.2,0.7-6.6
	c-1.7-2.5-5.3-1.9-7.6-1.5c-0.4,0.1-0.9,0.1-1,0.2c-0.8,0-1.1-0.1-1.2-0.1c0,0-0.3-0.5-0.1-2.2c0.2-1.8,0.6-3.3,1-5.2
	c0.5-2,1.1-4.5,1.7-8.2c0.2-1.1,0.3-2.4,0.4-3.6c0.1-0.8,0.1-1.9,0.2-2.6c0.1,0,0.2,0,0.3,0c3,0.5,8.6,5.9,11.2,10l0.4,0.6
	c3,4.8,6.2,9.8,1.5,17.9c-0.9,1.7-3.5,6.1-0.5,8.3c0.7,0.5,1.5,0.7,2.3,0.7c4.4,0,10.5-5.6,10.6-5.7c5.2-5.1,7.3-11.5,6.4-18.9
	c-0.9-7-3.4-12.2-8-16.8c-1-1-1.9-1.8-2.7-2.4c3,0.7,6.3,1.2,9.1,1c7.2-0.3,14-3.6,17.5-6.7C122.5,75.8,132.4,65.6,125.8,53.1z
	 M116,74.8c-2.8,2.4-8.4,5.2-14.4,5.5c-4.2,0.2-9.6-1.2-13.1-2.5l0,0c-4.9-1.8-7.1-1.8-8.2-0.1c-0.4,0.6-1.1,2.1,0.7,4.1
	c2,2.2,3.7,3.2,5.4,4.3c1.6,1,3.3,2,5.5,4.2c3.9,3.9,5.8,8,6.6,14c0.8,5.8-0.8,10.6-4.9,14.7c-1.2,1.2-3.3,2.6-4.9,3.4
	c0.1-0.2,0.3-0.5,0.4-0.7c6.1-10.8,1.4-18.2-1.7-23.1L87,97.9c-2.2-3.5-8.9-11.4-14.7-12.3c-2.3-0.3-3.8,0.5-4.7,1.2
	c-1.3,1.1-1.4,3-1.6,5.9c-0.1,1.1-0.2,2.2-0.3,3.1c-0.6,3.5-1.1,5.9-1.6,7.9c-0.5,2-0.9,3.7-1.1,5.8c-0.3,2.7,0.1,4.7,1.4,6.1
	c1.6,1.8,4,1.8,5,1.8c0.5,0,1.1-0.1,1.8-0.2c0.5-0.1,1.5-0.3,2.3-0.3c-0.1,0.3-0.3,0.6-0.5,1c-1.2,2.1-3.4,3.8-5.9,4.5
	c-2,0.6-5,0.8-8.5-1.2c-6.7-3.8-4.1-15.9-2.4-24c0.3-1.5,0.6-3,0.9-4.2c0.7-4.1-0.5-10-3.2-11.7c-1.2-0.7-2.6-0.7-3.7,0
	c-5.4,3.7-8.7,7.3-12.1,13.1c-4.8,8.3-5.2,16.7-5.4,22.3c-0.1,2.2-0.2,4.8-0.6,5.4c-0.3,0.5-0.5,0.7-0.6,0.8
	c-0.6-0.2-2.2-1.9-3.4-6.1c-1.3-4.6-1.5-10.2-0.5-15.3c2-10.8,8.4-17,11.1-19.6c0.8-0.8,1-1.9,0.6-2.9c-0.6-1.4-1.6-1.7-3.9-1.7
	c-0.6,0-1.3,0-2.2,0c-3.5,0.1-8.9,0.3-12.9-0.6C9,74.4,4.6,66.2,5.1,59c0.3-4.8,3.2-10.5,10-11c4.8-0.3,7.2,1.2,8.4,2.6
	c0.3,0.4,0.6,0.7,0.7,1.1c-2.7-0.7-4.7-0.4-6,0.2c-1.9,0.8-3.4,2.3-4.1,4.3c-1.7,4.2,0.6,9.3,5.1,11.5c3.2,1.6,8.4,1.8,11.8,1.5
	c9.9-0.9,16.5-5.7,17.8-9.9c1.2-4-1.5-6.3-2.4-7c-0.4-0.3-1.3-1.2-1.6-1.5c-4.3-4.7-7.2-12.1-7.2-19C37.7,17,50.1,5,65.3,5
	s27.2,11.6,27.2,26.3c0,7.4-1.3,11.1-5.8,16.5c-0.8,1-2.1,2.3-2.8,2.8c-0.6,0.5-2.3,1.6-2.5,1.8c-2.4,1.6-3.3,4.2-2.7,7.8
	c0.7,3.6,2.6,6.5,5.8,8.6c6.4,4.3,13.4,5.7,19.6,3.8c4.4-1.4,8.2-4.4,9.5-7.7c1.6-3.9,0.5-7.8-2.6-9.5c-1.4-0.7-4-1.5-7.6,0.1
	c0.1-0.3,0.2-0.5,0.4-0.7c1.4-2.7,4.8-4.5,8.6-4.5c0,0,0,0,0.1,0c3.9,0,7.3,1.9,9,5.1C126.2,64.7,118.5,72.6,116,74.8z"/>
</svg>
