<svg xmlns="http://www.w3.org/2000/svg" viewBox="0 0 120.76 120.76">
  <defs>
    <style>
      .cls-1 {
        fill: #e30613;
      }

      .cls-2 {
        fill: #fff;
      }
    </style>
  </defs>
  <title>weichtiere</title>
  <g id="Ebene_2" data-name="Ebene 2">
    <g id="Ebene_1-2" data-name="Ebene 1">
      <path class="cls-1" d="M120.76,60.38A60.38,60.38,0,1,1,60.38,0h0A60.39,60.39,0,0,1,120.76,60.38Z"/>
      <g>
        <path class="cls-2" d="M96.079,38.556C94.314,33.908,79.2,23.369,75,21.753c.2,1.228.469,2.756.813,4.427C77.2,32.923,79.742,42.044,83,43.642a8.032,8.032,0,0,0,7.892-.339,28.019,28.019,0,0,0,5.241-4.039C96.271,39.136,96.158,38.766,96.079,38.556Z"/>
        <path class="cls-2" d="M72.39,16.73c-4.39-.44-3.19,1.02-1.55,3.76a20.066,20.066,0,0,0,2.434,3.094c-.2-1.132-.326-1.975-.384-2.376a1.271,1.271,0,0,1,.645-1.525c2.751-1.324,20.085,11.481,23.587,16.638,1.642,2.416,1.105,3.735.364,4.415A26.315,26.315,0,0,1,91.16,45.4c.193,5.03-2.845,9.824-6.92,13.2-6.06,5.08-19.25,8.1-19,8.35S75.3,81.66,75.3,81.66c4.63,2.17,6.88.48,15-.66,13.03-1.8,17.92-15,17.9-26.27C108.14,17.24,72.39,16.73,72.39,16.73Z"/>
      </g>
      <path class="cls-2" d="M64.43,89.55c.34,2.74,1.06,3.72,3.83,4.83,3.35,1.34,5.85,1.14,11.72.44,6.78-.81,11.05-3.47,10.85-6.47C90.67,85.88,85.6,82,86.48,83c8.96,9.78-7.56,10.32-14.22,8.24s-1.91-6.66-1.91-6.66l3-2L63.43,67.83S55.94,69.51,54.1,71s-2.35,2.75-4.18,6.08-.83,1.91-2.5,3.41a10.878,10.878,0,0,1-4.54,2.45,15.126,15.126,0,0,1-5.79,1.09c-.73,0-4.02-.7-5.25-2.7a20.005,20.005,0,0,1-2.5-6.59,23.436,23.436,0,0,0-1.77-5.27c-1.21-3.14-1.58-4.01-4.4-6.14A16.659,16.659,0,0,0,17,61.83c-.71-.06,0,.53,3.1,2.3a10.232,10.232,0,0,1,4.51,4.69c.57,1.03.53,1.58,1.18,4.25.71,2.93.21,4.39,1.75,8.06.98,2.2,1.37,4.07,5.1,5.79a13.285,13.285,0,0,0,7,.58,31.382,31.382,0,0,0,7.54-2.08c2.57-1,.84.33-.08,1.5s-3.56,2.81-6.25,3.68a13.226,13.226,0,0,1-5.59.9,14.926,14.926,0,0,1-8-2.5,11.182,11.182,0,0,1-3.48-3.93,44.292,44.292,0,0,1-2.09-8c-.64-3.47-.33-2.8-2-6.16s-3.61-3.93-6.19-6-1.83-4.92-1.49-7-.15-2-1.28,0S9.26,60.58,9.6,62.7c.4,2.4,1.08,2.63,3.16,4.21a18.129,18.129,0,0,1,4.92,5.33c2,2.92,1.33,7.5,1.5,9.5a19.285,19.285,0,0,0,3.79,9.15c2.94,4,6.79,4.82,10.22,5,5.57.29,15.21-1.06,19.66-4.18,2.62-1.78,4.52-4.66,5-3.78s-.44,5.8.28,8.28c.8,2.78,1.61,2.92,4.08,4.42,3.21,1.98,9.53,2.32,11,2.31s6.79-.28,9.47-1.68c1.66-.87,1.74-2.36,1.58-2.13-.52.79-4.21,1.85-5.06,1.93s-5.1.63-7.85.08c-2.46-.49-6.22-1.44-7.17-4.84C63.51,93.89,64.03,86.32,64.43,89.55Zm-5.71-8.21a2.62,2.62,0,1,1-.02-5.24h.02a2.62,2.62,0,0,1,0,5.24Z"/>
      <path class="cls-2" d="M54.64,91.57c-1.75,2.08-5.09,3.87-6.46,8a8.48,8.48,0,0,0,2.08,9.33c2.33,2.37,5.92,4.5,12,4s9-1.33,11.71-3.62,2.46-5,1.12-3.13-3.43,2.25-4.83,2.79-13.51,4.9-18.05-3c-3-5.21.79-7.34,4.13-11.5.68-.84.73-3,1-5S54.64,91.57,54.64,91.57Z"/>
      <path class="cls-2" d="M47,95s-5.92,1.11-9,2.9c-2.22,1.28-3.22,2.14-4.2,6-.91,3.59,0,4.63.56,6.11.64,1.84-.62-3.2.66-6a7,7,0,0,1,3.74-4A10.376,10.376,0,0,1,45,98.43a4.1,4.1,0,0,0,3-1.26c.5-.66,3.88-3.87,3.88-3.87s-1.53.67-2,.8S47,95,47,95Z"/>
    </g>
  </g>
</svg>
