<svg xmlns="http://www.w3.org/2000/svg" viewBox="0 0 120.76 120.76">
  <defs>
    <style>
      .cls-1 {
        fill: #ce9900;
      }

      .cls-2 {
        fill: #fff;
      }

      .cls-3 {
        fill: none;
      }

      .cls-4 {
        isolation: isolate;
      }
    </style>
  </defs>
  <title>senf</title>
  <g id="Ebene_2" data-name="Ebene 2">
    <g id="Ebene_1-2" data-name="Ebene 1">
      <path class="cls-1" d="M120.76,60.38A60.38,60.38,0,1,1,60.38,0h0A60.39,60.39,0,0,1,120.76,60.38Z"/>
      <path class="cls-2" d="M96.93,25.69a2.64,2.64,0,0,1-2.64,2.64H63.09a2.64,2.64,0,0,1-2.64-2.64h0a2.64,2.64,0,0,1,2.64-2.63h31.2A2.64,2.64,0,0,1,96.93,25.69Z"/>
      <ellipse class="cls-2" cx="31.56" cy="92.12" rx="1.88" ry="1.63"/>
      <ellipse class="cls-2" cx="50.56" cy="76.12" rx="1.88" ry="1.63"/>
      <ellipse class="cls-2" cx="38.18" cy="94.49" rx="1.88" ry="1.63"/>
      <ellipse class="cls-2" cx="44.68" cy="84.99" rx="1.88" ry="1.63"/>
      <ellipse class="cls-2" cx="62.33" cy="104.12" rx="1.88" ry="1.63"/>
      <ellipse class="cls-2" cx="38.18" cy="78.37" rx="1.88" ry="1.63"/>
      <ellipse class="cls-2" cx="44.68" cy="78.37" rx="1.88" ry="1.63"/>
      <ellipse class="cls-2" cx="37.18" cy="104.12" rx="1.88" ry="1.63"/>
      <ellipse class="cls-2" cx="36.31" cy="84.99" rx="1.88" ry="1.63"/>
      <ellipse class="cls-2" cx="40.06" cy="87.62" rx="1.88" ry="1.63"/>
      <ellipse class="cls-2" cx="27.31" cy="85.99" rx="1.88" ry="1.63"/>
      <ellipse class="cls-2" cx="48.81" cy="81.74" rx="1.88" ry="1.63"/>
      <ellipse class="cls-2" cx="44.68" cy="94.49" rx="1.88" ry="1.63"/>
      <ellipse class="cls-2" cx="54.43" cy="90.12" rx="1.88" ry="1.63"/>
      <ellipse class="cls-2" cx="48.81" cy="90.49" rx="1.88" ry="1.63"/>
      <ellipse class="cls-2" cx="33.43" cy="80.99" rx="1.88" ry="1.63"/>
      <ellipse class="cls-2" cx="38.18" cy="99.24" rx="1.88" ry="1.63"/>
      <ellipse class="cls-2" cx="40.93" cy="81.74" rx="1.88" ry="1.63"/>
      <ellipse class="cls-2" cx="50.68" cy="86.62" rx="1.88" ry="1.63"/>
      <ellipse class="cls-2" cx="29.68" cy="97.62" rx="1.88" ry="1.63"/>
      <ellipse class="cls-2" cx="24.81" cy="93.74" rx="1.88" ry="1.63"/>
      <ellipse class="cls-2" cx="19.18" cy="87.62" rx="1.88" ry="1.63"/>
      <ellipse class="cls-2" cx="17.31" cy="94.49" rx="1.88" ry="1.63"/>
      <ellipse class="cls-2" cx="21.06" cy="98.37" rx="1.88" ry="1.63"/>
      <ellipse class="cls-2" cx="31.06" cy="102.49" rx="1.88" ry="1.63"/>
      <ellipse class="cls-2" cx="52.56" cy="95.37" rx="1.88" ry="1.63"/>
      <ellipse class="cls-2" cx="60.45" cy="96.99" rx="1.88" ry="1.63"/>
      <ellipse class="cls-2" cx="47.81" cy="98.62" rx="1.88" ry="1.63"/>
      <ellipse class="cls-2" cx="43.18" cy="102.49" rx="1.88" ry="1.63"/>
      <ellipse class="cls-2" cx="54.43" cy="100.24" rx="1.88" ry="1.63"/>
      <g>
        <path class="cls-3" d="M86.71,39.18c.34.15.73.3,1.13.52l.62.3.62.37a6.225,6.225,0,0,1,1.31.8c.42.34.86.67,1.29,1a9.129,9.129,0,0,1,1.23,1.1c.37.41.73.82,1.11,1.23a7.46,7.46,0,0,1,1,1.29c.26.45.59.87.8,1.31l.37.64.3.62c.21.4.37.77.52,1.11a8.372,8.372,0,0,1,.37.93c.2.54.34.85.34.85a9.009,9.009,0,0,0,.25-.91,4.347,4.347,0,0,0,.16-1,7.119,7.119,0,0,0,0-1.4,5.522,5.522,0,0,0-.07-.8c-.06-.27-.11-.55-.17-.84a9.728,9.728,0,0,0-1.57-3.53A12.583,12.583,0,0,0,95,41.15a13.417,13.417,0,0,0-1.61-1.28,11.363,11.363,0,0,0-1.76-1,10.812,10.812,0,0,0-1.77-.59l-.84-.17-.8-.07a7.018,7.018,0,0,0-1.39,0,4.639,4.639,0,0,0-1,.17c-.58.14-.89.25-.89.25s.32.15.85.34C86.05,38.89,86.37,39.03,86.71,39.18Z"/>
        <path class="cls-2" d="M93.25,36.13c1.68.63,2.53-6.49,2.53-6.49s-14.452-.169-17.546-.052c-3.1-.117-17.534.052-17.534.052s.81,7.12,2.5,6.49c0,0-9.07,2.92-8.2,14.53s.16,32.48,4.09,40.07c3.778,7.3,14.227,7.034,19.146,7,4.927.031,15.386.292,19.154-7,3.92-7.59,3.24-28.46,4.08-40.07S93.25,36.13,93.25,36.13Zm-7.42,2.08a4.639,4.639,0,0,1,1-.17,7.018,7.018,0,0,1,1.39,0l.8.07.84.17a10.812,10.812,0,0,1,1.77.59,11.363,11.363,0,0,1,1.76,1A13.417,13.417,0,0,1,95,41.15a12.583,12.583,0,0,1,1.32,1.62,9.728,9.728,0,0,1,1.57,3.53c.06.29.11.57.17.84a5.522,5.522,0,0,1,.07.8,7.119,7.119,0,0,1,0,1.4,4.347,4.347,0,0,1-.16,1,9.009,9.009,0,0,1-.25.91s-.14-.31-.34-.85a8.372,8.372,0,0,0-.37-.93c-.15-.34-.31-.71-.52-1.11l-.3-.62-.37-.64c-.21-.44-.54-.86-.8-1.31a7.46,7.46,0,0,0-1-1.29c-.38-.41-.74-.82-1.11-1.23a9.129,9.129,0,0,0-1.23-1.1c-.43-.33-.87-.66-1.29-1a6.225,6.225,0,0,0-1.31-.8L88.46,40l-.62-.3c-.4-.22-.79-.37-1.13-.52s-.66-.29-.92-.38c-.53-.19-.85-.34-.85-.34S85.25,38.35,85.83,38.21ZM97.72,82.37H58.58l-1.4-24.73H99.24Z"/>
      </g>
      <g class="cls-4">
        <path class="cls-2" d="M65.481,72.19a1.371,1.371,0,0,0-.527-1.156,6.327,6.327,0,0,0-1.9-.82,9.211,9.211,0,0,1-2.188-.922,2.92,2.92,0,0,1-1.554-2.547,2.771,2.771,0,0,1,1.121-2.266,4.534,4.534,0,0,1,2.91-.89,4.909,4.909,0,0,1,2.117.437,3.482,3.482,0,0,1,1.461,1.246,3.2,3.2,0,0,1,.531,1.793H65.481a1.782,1.782,0,0,0-.558-1.394,2.3,2.3,0,0,0-1.6-.5,2.4,2.4,0,0,0-1.5.414,1.38,1.38,0,0,0-.535,1.156,1.247,1.247,0,0,0,.578,1.043,6.658,6.658,0,0,0,1.907.812,8.756,8.756,0,0,1,2.132.9,3.405,3.405,0,0,1,1.18,1.156,3.011,3.011,0,0,1,.375,1.527,2.7,2.7,0,0,1-1.09,2.262,4.725,4.725,0,0,1-2.957.84,5.548,5.548,0,0,1-2.269-.457,3.817,3.817,0,0,1-1.61-1.262,3.141,3.141,0,0,1-.574-1.875h1.977a1.839,1.839,0,0,0,.64,1.5,2.8,2.8,0,0,0,1.836.532,2.442,2.442,0,0,0,1.551-.418A1.348,1.348,0,0,0,65.481,72.19Z"/>
        <path class="cls-2" d="M75.841,70.042H71.169v3.5H76.63V75.12H69.192V63.745h7.383v1.594H71.169v3.14h4.672Z"/>
        <path class="cls-2" d="M87.263,75.12H85.286l-5.07-8.071V75.12H78.239V63.745h1.977l5.086,8.1v-8.1h1.961Z"/>
        <path class="cls-2" d="M96.153,70.3H91.575V75.12H89.6V63.745h7.226v1.594h-5.25v3.382h4.578Z"/>
      </g>
    </g>
  </g>
</svg>
