<?xml version="1.0" encoding="utf-8"?>
<!-- Generator: Adobe Illustrator 27.2.0, SVG Export Plug-In . SVG Version: 6.00 Build 0)  -->
<svg version="1.1" id="Ebene_2_00000008112182283413361010000011209826456888459668_"
	 xmlns="http://www.w3.org/2000/svg" xmlns:xlink="http://www.w3.org/1999/xlink" x="0px" y="0px" viewBox="0 0 128 128"
	 style="enable-background:new 0 0 128 128;" xml:space="preserve">
<style type="text/css">
	.st0{fill:#FFAA00;stroke:#333333;stroke-width:5;stroke-linecap:round;stroke-miterlimit:10;}
	.st1{fill:#FFAA00;}
	.st2{fill:none;}
	.st3{fill:#333333;}
</style>
<path class="st0" d="M96.4,21"/>
<path class="st1" d="M103.5,62.5c-13-2.5-19.2-8.4-24.6-13.7l0,0C73.6,43.3,67.2,36.5,65,24.2"/>
<path class="st1" d="M91.4,24.6c0,0-5.8,2.5-8.2,8.2"/>
<path class="st1" d="M102.7,36.8c0,0-2,5.6-7.5,7.5"/>
<line class="st2" x1="88.5" y1="39.7" x2="96.9" y2="31.3"/>
<path class="st1" d="M108.1,29.3L125.8,4c0.4-0.5,0-1.3-0.3-1.6s-1.1-0.6-1.6-0.3L98.8,20c-0.4,0.3-0.7,0.7-1,1.1l0,0
	c-4.6-4.8-9.8-4.4-10.5-3.7l-8.1,6.8l-10.6-0.9c-1.7-0.1-3.4,0.5-4.7,1.8L5.4,83.7c-2.9,2.9-3.7,7.1-2.2,10.5
	c2.1,4.6,5.8,11,11.6,17.1l1.8,1.8c6,5.8,12.5,9.5,17,11.6c3.4,1.6,7.6,0.7,10.5-2.2l58.5-58.7c1.3-1.3,1.9-3,1.8-4.7l-0.9-10.6
	l7.4-7.4c0.7-0.7,1.1-6.3-3.7-10.9l0,0C107.5,30,107.8,29.7,108.1,29.3z"/>
<path class="st3" d="M127,1c-1-1-2.8-1.5-4.1-0.5l-25,17.7c-3.6-3-7-3.4-8.5-3.4c-1,0-2.3,0.1-3.2,0.8l0,0l0,0c0,0-0.1,0-0.1,0.1
	l-6.9,5.8L69,20.6c-2.5-0.2-4.9,0.7-6.7,2.5L3.7,82C0.1,85.6-1,91,1,95.3c2.1,4.6,5.9,11.4,12.1,17.8l1.8,1.8l0,0
	c6.3,6.1,13.1,9.9,17.7,12.1c1.5,0.7,3,1,4.6,1c3.1,0,6.3-1.3,8.7-3.7l58.5-58.7c1.8-1.8,2.7-4.3,2.5-6.7L106,48.8l6.3-6.3
	c0.9-0.9,1-2.4,1-3.5c0-1.5-0.4-5.1-3.4-8.8l17.6-25C128.5,3.8,127.9,2,127,1z M86.8,20.4c0.5,0.9,1.2,2,2.1,3.3
	c-1.5,0.9-3.6,2.4-5.4,4.7c-0.6-1.3-1.1-2.6-1.6-4L86.8,20.4z M95.4,42.1c-1.3-0.8-2.5-1.8-3.6-2.8l5.3-5.3c1,1,2.2,2,3.4,3
	C99.8,38.3,98.2,40.7,95.4,42.1z M88.9,36.5c-1.2-1.3-2.3-2.6-3.2-4.1c1.6-2.8,4.1-4.5,5.5-5.3c0.9,1.3,2,2.6,3.2,4L88.9,36.5z
	 M103.3,45.8c-1.3-0.4-2.6-0.9-3.8-1.5c2.1-1.6,3.5-3.6,4.3-5c1.2,0.8,2.5,1.5,3.9,2.1L103.3,45.8z M102.5,31.9
	c0.8,0.6,1.8,0.9,2.8,0.9c0.5,0,0.9-0.1,1.4-0.2c1.5,1.8,2.2,3.7,2.5,5.1c-9.2-4.3-15.6-13.8-18.4-18.6c1.3,0.3,3,1,4.7,2.5
	c-0.3,1.4-0.1,2.8,0.7,4c0.6,0.9,1.6,2.2,3.2,3.7C100.1,30.1,101.9,31.5,102.5,31.9z M77.3,26.6c1.9,5.5,4.9,10.4,8.9,14.4l0.6,0.6
	c4,4.1,8.8,7.1,14.3,8.9c0,0,1.1,7,0.7,9.7c-11.1-2.7-16.6-8-21.5-12.7C75.8,42.9,69.8,36.6,67.4,26C68.9,24.8,77.3,26.6,77.3,26.6z
	 M42.3,120.7c-2.1,2.1-5.2,2.8-7.7,1.7c-4.2-2-10.5-5.5-16.3-11.1l-1.7-1.7c-5.6-5.9-9.1-12.1-11-16.4c-1.1-2.5-0.5-5.6,1.7-7.7
	L64,28.6c2.9,10.6,8.9,16.9,13.5,21.7c4.8,4.6,10.6,10.3,21.7,13.3L42.3,120.7z M106.2,28.4c-0.4,0.1-2.6-0.7-4.2-2
	c-2.6-2.2-2.3-3.8-2.3-4.4c0.1-0.1,22.2-15.8,22.2-15.8L106.2,28.4z"/>
</svg>
