<?xml version="1.0" encoding="utf-8"?>
<!-- Generator: Adobe Illustrator 27.2.0, SVG Export Plug-In . SVG Version: 6.00 Build 0)  -->
<svg version="1.1" id="Ebene_2_00000178179866759414640370000002776647722523723688_"
	 xmlns="http://www.w3.org/2000/svg" xmlns:xlink="http://www.w3.org/1999/xlink" x="0px" y="0px" viewBox="0 0 128 128"
	 style="enable-background:new 0 0 128 128;" xml:space="preserve">
<style type="text/css">
	.st0{fill:none;stroke:#333333;stroke-width:4;stroke-linecap:round;stroke-miterlimit:10;}
	.st1{fill:#C17E40;}
	.st2{fill:#EACCAD;}
	.st3{fill:#9B6150;}
	.st4{fill:#333333;}
</style>
<path class="st0" d="M67.6,33.7"/>
<path class="st1" d="M42.3,108.5c1.4-9-4.4-27.7,12.7-41.8c3-2.5,6-4.3,8.9-5.6c-0.2-0.8-0.5-1.6-0.8-2.3c-9.2-25.9-42-59-50.5-56
	S-2.3,51.2,7.5,79C13.5,95.9,28.1,108.7,42.3,108.5z"/>
<path class="st2" d="M124.8,60c-4.7-14.6-22.4-7-31.8-16.4c-6.5-6.5-8.1-11.6-1.9-22.7C94.8,14.2,92,8.3,88.5,8
	c-2-0.2-3.7-1.1-4.8-2.2c-1.4-1.3-2.3-3.3-7.3-3c-11.9,0.7-23,18.6-23.3,36.9c4.2,6.4,7.7,12.9,9.9,19.1c0.3,0.7,0.5,1.5,0.7,2.2
	c-2.8,1.2-5.7,3-8.6,5.5C36.7,81.7,44.9,102.3,42,110.2c-0.3,0.7-0.5,2.3-0.5,2.3c-0.2,0.6,0.3,1.2,0.9,1c0,0,1.6-0.1,2.3-0.3
	c8.1-2.3,31.9,12.6,52.6-6.6c10.1-9.4,10.5-17.7,6.9-25.2C117.9,79.4,128.4,71.2,124.8,60z"/>
<g>
	<path class="st3" d="M106.3,90.1c-0.2,3.4-0.9,10-8.3,16.2c-6.2,5.8-12.7,8.4-19,9.4c-1.9,0.3-3.8,0.5-5.7,0.5c-0.2,0-0.4,0-0.6,0
		c-1.5,0-2.9-0.1-4.3-0.2c-10.2-0.7-19.3-3.3-22-3.4c-0.2,0-0.5,0.1-0.7,0.1c-0.5,0.2-1,0.2-1.4,0.3c-0.4,0.1-0.8,0.1-1,0.1
		c-0.1,0-0.1,0-0.1,0s-0.1,0,0,0.1c1.4,1.3,16.8,15,39.2,11.7C105.8,121.6,106.6,98.1,106.3,90.1z"/>
	<path class="st3" d="M59.1,99.1c2.5,0.4,24.5,1.1,26.4-20.7c0-0.1,0-0.2-0.2-0.3c-1.9-0.6-20.7-2.8-26.5,20.7
		C58.8,99,58.9,99.1,59.1,99.1z"/>
</g>
<g>
	<path class="st4" d="M127.2,59.2c-3.1-9.8-11.5-11.1-18.8-12.3c-5.2-0.8-10.2-1.6-13.7-5.1c-5.4-5.5-7.4-9.2-1.5-19.7
		c2.4-4.3,2.8-9,0.9-12.6c-1.2-2.3-3.2-3.8-5.4-4c-1.2-0.1-2.5-0.7-3.3-1.5c-0.2-0.2-0.3-0.3-0.5-0.5c-1.6-1.8-3.7-3.5-8.7-3.2
		C64.9,0.9,54,15.5,51.3,32.5c-3.6-4.9-7.6-9.8-11.9-14.4C33.5,11.9,19.2-2.3,11.7,0.3c-7.8,2.8-10.4,24.5-11,31
		c-1.7,18-0.1,35.7,4.4,48.4c6.1,17,20.1,29.6,34.2,31c-0.1,0.5-0.2,0.9-0.2,1.2c-0.3,1.1,0,2.2,0.8,3c0.7,0.8,1.7,1.1,2.7,1
		c3.7,3.1,15.8,12,32.9,12c2.3,0,4.8-0.2,7.3-0.5c17.1-2.5,26.6-16.2,26.1-37.5l0,0c0-2.3-0.4-4.6-1.1-6.7c8.1-1.8,14.7-5.8,17.9-11
		C128.1,68.4,128.7,63.8,127.2,59.2z M42.5,79.9l-2.3-3.8c-2.5-4.1-4.1-8.7-4.7-13.4l-0.7-4.6c-0.6-4.3-1.9-8.5-3.9-12.4L20.5,24.8
		c-0.5-1-1.7-1.4-2.7-0.9c-1,0.5-1.4,1.7-0.9,2.7l10.5,20.8c1.8,3.5,2.9,7.3,3.5,11.2l0.6,4.6c0.8,5.3,2.5,10.3,5.3,14.9l2.4,4.1
		c0.6,1,1.2,2.1,1.7,3.2c-1.1,5.6-1,11-0.9,15.4c0,1.7,0.1,3.2,0,4.6l-8-8.4c-3.3-3.4-5.1-8.2-4.8-13l0.2-2.8
		c0.3-4.9-1.2-9.8-4.1-13.8L20.7,64c-1.9-2.6-3-5.6-3.3-8.8l-1-11.9c-0.1-1.1-1.1-1.9-2.2-1.8c-1.1,0.1-1.9,1.1-1.8,2.2l1,11.9
		c0.3,3.9,1.7,7.7,4.1,10.8l2.6,3.5c2.4,3.2,3.6,7.2,3.3,11.2l-0.2,2.8c-0.3,5.9,1.8,11.8,6,16l4.1,4.2c-9.8-3.9-19-13.8-23.4-26.1
		C5.6,66.2,4,48.8,5.6,31.8c1.6-16.9,5.6-26,7.8-26.7C13.5,5,13.7,5,13.9,5c2.7,0,10.9,4.9,21.8,16.6c5.6,6,10.7,12.4,14.9,18.7v0.1
		L51,41c4.4,6.7,7.6,12.9,9.6,18.5v0.1c-2.4,1.3-4.8,2.9-7.2,4.8c-1,0.9-2,1.8-2.9,2.7c-2.2-3.1-3.6-6.9-3.8-10.7l-0.4-4.8
		c-0.3-4.2-1.7-8.3-4-11.9l-7.1-11c-0.6-0.9-1.8-1.2-2.8-0.6c-0.9,0.6-1.2,1.9-0.6,2.8l7.1,11c1.9,3,3.1,6.5,3.4,10l0.4,4.8
		c0.4,4.9,2.2,9.6,5.1,13.4c-0.1,0.2-0.3,0.4-0.4,0.5C45.2,73.8,43.6,76.8,42.5,79.9z M82,122.6c-13.7,2-24.5-2.6-30.9-6.5
		c1.2,0.2,2.5,0.5,3.8,0.8c4.8,1,10.7,2.3,17.1,2.3c6.4,0,13.4-1.3,20.2-5.4c2.6-1.5,5.1-3.3,7.5-5.5c0.7-0.6,1.3-1.2,1.9-1.7
		C98.9,114.1,93.3,120.9,82,122.6z M95.7,104.8c-2,1.9-4.1,3.4-6.1,4.6c-3.4,1.9-7,3.2-10.9,3.8c-1.8,0.3-3.6,0.5-5.3,0.5h-0.6
		c-1.3,0-2.7,0-4.1-0.2c-6.1-0.4-11.8-1.6-16-2.4c-2.9-0.6-4.8-1-6.1-1h-0.1h-0.1c-0.3,0-0.6,0.1-0.9,0.1l-0.4,0.1
		c-0.1,0-0.3,0.1-0.4,0.1l0,0c0.8-2.7,0.7-6.1,0.6-10c-0.2-8.2-0.5-18.2,6.6-27.1c1.3-1.6,2.9-3.2,4.8-4.8c2.7-2.3,5.5-4,8.3-5.2
		l2.1-0.9l0,0c7.9-2.7,17.4-1.6,27.4,9.3C104.5,82.9,108.7,92.8,95.7,104.8z M121.4,69.7c-2.7,4.3-8.5,7.5-15.8,8.9
		c-2-3.7-4.8-7.2-7.7-10.3c-6.5-7.1-13.7-11.1-21.1-11.9c-2.5-1.4-9.8-6.8-5.5-21.1c0.3-1.1-0.3-2.2-1.4-2.5
		c-1.1-0.3-2.2,0.3-2.5,1.4c-3.4,11.6-0.2,18.5,3.3,22.3c-1.8,0.2-3.6,0.6-5.4,1.2c-2.1-5.8-5.4-12.2-9.7-18.8
		c0.7-16.8,10.7-33,21-33.6c3.1-0.2,3.8,0.6,4.7,1.6C81.5,7,81.7,7.3,82,7.5c1.6,1.6,3.9,2.6,6.3,2.9c0.5,0,1,0.6,1.4,1.3
		c0.8,1.6,1,4.4-0.8,7.8c-6.3,11.2-5.7,17.7,2.3,25.7c4.6,4.6,10.9,5.6,16.4,6.5c7.8,1.3,12.7,2.4,14.8,8.9l0,0
		C123.4,64,123.1,67,121.4,69.7z"/>
	<path class="st4" d="M86,76.2L86,76.2c-1.4-0.5-8.6-1.4-15.7,2.6C63.7,82.5,59.3,89,57,98.4c-0.1,0.6,0,1.3,0.3,1.8
		c0.3,0.5,0.9,0.9,1.5,1c0.5,0.1,1.4,0.2,2.6,0.2c4.1,0,11.5-0.9,17.4-5.4c5.1-4,8.1-9.8,8.7-17.3C87.6,77.5,87,76.5,86,76.2z
		 M76.3,92.6c-5.1,3.9-11.6,4.6-14.9,4.6c2.1-7,5.7-12,10.7-14.9c3.7-2.1,7.5-2.6,10-2.6c0.5,0,0.9,0,1.3,0
		C82.5,85.4,80.1,89.7,76.3,92.6z"/>
</g>
</svg>
