<svg xmlns="http://www.w3.org/2000/svg" viewBox="0 0 120.76 120.76">
  <defs>
    <style>
      .cls-1 {
        fill: #7d4e24;
      }

      .cls-2 {
        fill: #fff;
      }

      .cls-3 {
        fill: none;
      }
    </style>
  </defs>
  <title>schalenfrüchte</title>
  <g id="Ebene_2" data-name="Ebene 2">
    <g id="Ebene_1-2" data-name="Ebene 1">
      <path class="cls-1" d="M120.76,60.38A60.38,60.38,0,1,1,60.38,0h0A60.39,60.39,0,0,1,120.76,60.38Z"/>
      <g>
        <path class="cls-2" d="M49.47,44.86a53.909,53.909,0,0,1,14.081,5.629c.357-.884.949-2.343,1.693-4.149l-.644-.69c-.77-.78-1.8-1.81-2.88-2.81a35,35,0,0,0-3.07-2.58,6.118,6.118,0,0,0-1.12-.68.522.522,0,0,0-.44-.019c-.021.01-.033.019-.03.019s.009-.009.03-.019a.545.545,0,0,1,.46-.041,6.476,6.476,0,0,1,1.26.49,35.628,35.628,0,0,1,3.53,2.06c1.24.81,2.46,1.67,3.36,2.33l.265.2c.9-2.173,1.944-4.654,3.015-7.135,1.5-3.47,3-6.92,4.29-9.46.62-1.27,1.16-2.32,1.59-3a7.117,7.117,0,0,1,.53-.79.389.389,0,0,1,.28-.19.38.38,0,0,0-.26.2,6.987,6.987,0,0,0-.48.83c-.37.73-.84,1.81-1.38,3.12-1.06,2.61-2.38,6.14-3.64,9.69-.891,2.5-1.754,5.005-2.5,7.207,1.116-.1,2.577-.208,4.041-.257a36.237,36.237,0,0,1,4.09,0,5.9,5.9,0,0,1,1.33.24c.33.09.41.3.39.3a.537.537,0,0,0-.41-.22,5.713,5.713,0,0,0-1.32,0,32.56,32.56,0,0,0-4,.63c-1.43.29-2.85.64-3.91.92l-.832.227c-.726,2.162-1.276,3.837-1.544,4.659,6.842,4.678,9.542,10.415,9.931,16.223a15.932,15.932,0,0,1,11.3.847c1.376-1.5,2.314-2.486,2.314-2.486-11.6-1.97,4.71-20.59,3.71-20.53-15.55.95-1-16.41-1-16.41-16.69,10.18-13-18.45-13-18.45-5.67,19.88-21.19,8.58-21,9.24,6.28,21.44-11.88,10.11-10.16,12.11S49.47,44.86,49.47,44.86Z"/>
        <path class="cls-3" d="M42.784,97.3c-1.566.412-7.879.831-7.784.365.1-.49,3.28-2.19,2-1.49a4.292,4.292,0,0,1-3.6.037A3.967,3.967,0,0,1,32,94.513c.189.642.566,2.059.368,2.347-.3.442-4.881-4.18-5.481-5.294a30.609,30.609,0,0,0,2.964,5.1L21.41,89.38,31.3,100a6.589,6.589,0,0,1,.53,1.63.7.7,0,0,0,.084-.119,7.163,7.163,0,0,1,1.576-.851l15-1.48-11.509-.075A34.944,34.944,0,0,0,42.784,97.3Z"/>
        <path class="cls-3" d="M75.219,69.85c-.093.029-.181.063-.273.094.089-.03.182-.055.273-.083Z"/>
        <path class="cls-2" d="M75.564,69.756c-.114.032-.233.059-.345.094v.011C75.333,69.825,75.448,69.789,75.564,69.756Z"/>
        <path class="cls-2" d="M85.777,70.511c-.244-.117-.486-.2-.729-.3a13.674,13.674,0,0,0-5.261-1.079c-.432,0-.857.022-1.277.06-.144.013-.284.036-.427.053-.273.033-.545.066-.811.113-.167.029-.33.065-.5.1-.234.048-.467.1-.7.156-.174.044-.346.092-.517.142-.116.033-.231.069-.345.105-.091.028-.184.053-.273.083-.178.058-.355.118-.529.181s-.365.136-.544.207-.361.144-.537.22c-.157.067-.309.137-.461.207-.186.086-.373.171-.553.261-.116.057-.228.117-.342.177-.2.105-.407.21-.6.318h0a22.645,22.645,0,0,0-4.614,3.374l-.08.075a20.622,20.622,0,0,0-3.775,4.363c-.177.279-.345.568-.507.865a10.447,10.447,0,0,0-1.287,3.925c-.009.091-.028.181-.034.272a7.607,7.607,0,0,0,2.031,5.563c.105.12.2.243.315.362a29.926,29.926,0,0,0,2.87,2.448c1.105.855,2.454,1.824,3.939,2.759,3.8,2.395,8.486,4.554,12.214,3.913A64.827,64.827,0,0,0,93.1,96.505l.264-.092c.527-.184.971-.335,1.347-.455.25-.08.482-.151.68-.2.04-.155.093-.326.151-.506.129-.4.3-.863.5-1.412a39.469,39.469,0,0,0,2.39-8.939C99.075,79.562,88.47,71.8,85.777,70.511Zm.873,19.1c-11.75,1.02-13-8.16-13-8.16a10.024,10.024,0,0,1-.49-2.91c.13-1.05-.27-.07,1.94,0,9.8.32,10.95,3.16,11.45,9.91C86.65,89.7,87.72,89.52,86.65,89.61Z"/>
        <path class="cls-2" d="M81.128,101.542c-4.149,0-8.852-2.337-12.581-4.754-1.268-.822-2.42-1.648-3.4-2.4a32.3,32.3,0,0,1-3.179-2.706c-.023-.024-.043-.049-.066-.074a11.442,11.442,0,0,1-1.791-2.5,20.094,20.094,0,0,0,.006,4.644,11.537,11.537,0,0,0,4.324,8.011c1.577,1.19,14.215,8.568,20.272,4.407a62.084,62.084,0,0,0,8.863-7.711,65.7,65.7,0,0,1-10.788,2.95A9.8,9.8,0,0,1,81.128,101.542Z"/>
        <path class="cls-3" d="M67.1,61.52A34.181,34.181,0,0,0,33,51.2C20.41,54.86,82,77.89,67.1,61.52Z"/>
        <path class="cls-2" d="M59.159,83.639c.693-5.427,5.682-9.742,6.219-10.19a25.209,25.209,0,0,1,6.1-4.235c-.4-13.489-17.1-18.784-17.1-18.784S34.91,41.8,25.33,56c-1.99,3-11.8,22.17-6.28,31,5.458,8.731,12.634,14.257,12.408,15.279,0,.007,0,0,0,0s.006.028,0,.038c-.012.028,0,.005.029-.063.614-.852,9.942-.193,20.421-2.867a15.341,15.341,0,0,0,6.479-3.851,20.845,20.845,0,0,1-.213-7.239A32.2,32.2,0,0,1,59.159,83.639ZM33.49,100.66a7.163,7.163,0,0,0-1.576.851.7.7,0,0,1-.084.119A6.589,6.589,0,0,0,31.3,100L21.41,89.38l8.443,7.286a30.609,30.609,0,0,1-2.964-5.1c-.011-.02-.031-.048-.039-.066-.282-.618-.219-.465.039.066.6,1.114,5.177,5.736,5.481,5.294.2-.288-.179-1.7-.368-2.347l0,0c-.151-.476-.1-.358,0,0A3.967,3.967,0,0,0,33.4,96.207,4.292,4.292,0,0,0,37,96.17c1.28-.7-1.9,1-2,1.49-.095.466,6.218.047,7.784-.365.7-.272.935-.371.216-.065-.054.021-.134.043-.216.065a34.944,34.944,0,0,1-5.8,1.81l11.509.075ZM33,51.2A34.181,34.181,0,0,1,67.1,61.52C82,77.89,20.41,54.86,33,51.2Z"/>
        <path class="cls-1" d="M32,94.51l0,0C31.9,94.152,31.849,94.034,32,94.51Z"/>
        <path class="cls-1" d="M26.85,91.5c.008.018.028.046.039.066C26.631,91.035,26.568,90.882,26.85,91.5Z"/>
        <path class="cls-1" d="M42.784,97.3c.082-.022.162-.044.216-.065C43.719,96.924,43.488,97.023,42.784,97.3Z"/>
      </g>
    </g>
  </g>
</svg>
