<?xml version="1.0" encoding="utf-8"?>
<!-- Generator: Adobe Illustrator 27.2.0, SVG Export Plug-In . SVG Version: 6.00 Build 0)  -->
<svg version="1.1" id="Ebene_2_00000102541461474762501740000008677821817617256375_"
	 xmlns="http://www.w3.org/2000/svg" xmlns:xlink="http://www.w3.org/1999/xlink" x="0px" y="0px" viewBox="0 0 128 128"
	 style="enable-background:new 0 0 128 128;" xml:space="preserve">
<style type="text/css">
	.st0{fill:#D8AD79;}
	.st1{fill:#A8482A;}
	.st2{fill:#333333;}
</style>
<path class="st0" d="M110.2,34.1c-5.1-0.5-11.4,0.5-17,2.1c2.9-8.7,2.2-16.6-0.3-23.3C89.9,5,81.1,0.7,72.8,3.2
	c-7,2.1-15.2,8.1-19.8,13.4c-9.2,10.7-10.1,18.7-10.7,22.5c-0.4,2.4-1.9,4.4-4.2,5.3c-5.7,2.4-16,8-22.7,18.8
	C5.7,78.6,13,93.3,10.5,98.9c-1,2.2-3.3,2.7-5.8,2.4c-0.1-0.1-0.2-0.1-0.4-0.2c-1-0.7-2.2,0.4-1.8,1.5c1.2,2.8,3.9,6.1,9.6,6.2
	c2,0,3.8,0.8,5.1,2.3c5.7,6.7,22,22.2,42.2,9.6c14.8-9.2,20.2-22.9,21-28.7c0.3-2.2,2.1-4,4.4-4.1c5.5-0.3,17-0.8,28.1-10.9
	c8.7-8,12.1-17.2,12.4-25.7C125.9,42.4,119.2,35,110.2,34.1z"/>
<g>
	<path class="st1" d="M47.5,57.3c-4.8-3.3-12.9,1.2-17.8,6.3c0,0-9.3,8.6-9.9,17.4c2.4-4.6,5.8-9.2,11.1-12.9
		c6.6-4.7,13.6-7,19.6-8.1C49.7,58.9,48.7,58.1,47.5,57.3z"/>
	<path class="st1" d="M78.9,18.2c-4.4-3-11.7,1-16.1,5.7c0,0-12.2,11.3-8.2,20.6c0.2,0.5,0.4,1.1,0.4,1.6l0.1,1.9
		c0,0.8,0.8,1.4,1.6,1.2l2.4-0.5c0.6-0.1,1.2-0.1,1.8-0.1c2.9,0.4,12.6,0.6,18.2-10.3C85.6,25.4,83.3,21.2,78.9,18.2z"/>
</g>
<g>
	<path class="st2" d="M110.5,31.6c-4.2-0.4-9,0.1-13.7,1.1c1.5-7,1-14-1.5-20.6C91.8,2.9,81.6-2.1,72,0.8C64.3,3.2,55.6,9.7,51.1,15
		c-9.2,10.6-10.5,19-11.2,23.1l-0.1,0.7c-0.3,1.5-1.3,2.8-2.7,3.4c-5.9,2.5-16.8,8.3-23.8,19.8c-6.7,11-5.7,21.7-5,28.7
		c0.3,3.1,0.6,6,0,7.3c-0.4,1-1.7,1.1-2.7,1c-1.3-0.8-3-0.6-4.2,0.4c-1.3,1.1-1.7,2.8-1,4.4c2.1,4.9,6.3,7.6,11.8,7.7
		c1.3,0,2.5,0.5,3.2,1.4C19,117.1,29.7,128,44.1,128c5.2,0,10.8-1.4,16.7-5.1c6.8-4.2,12.5-9.9,16.6-16.4c2.9-4.7,5.1-10,5.6-14.1
		c0.2-1.1,1-1.9,2.1-1.9h0.1c5.8-0.3,17.9-0.9,29.6-11.6c10.4-9.5,13-20.2,13.2-27.4C128.5,41.3,120.7,32.6,110.5,31.6z M17.5,64.4
		c6.2-10.2,16.1-15.5,21.5-17.8c3-1.3,5.1-4,5.7-7.2l0.1-0.7c0.6-3.9,1.8-11,10-20.6c4-4.6,11.9-10.6,18.6-12.7
		C74.9,5.2,76.2,5,77.6,5c5.7,0,10.9,3.4,13,8.8c2.5,6.6,2.7,13.4,0.7,20.4c-2.4,0.8-4.7,1.7-6.5,2.6c-1.3,0.7-2.5,1.3-3.7,2
		c5.7-11.4,5.4-17.9-1-22.2c-5.2-3.5-13.3,0.3-18.7,6c-1,1-13.1,12.6-8.6,22.9c0.2,0.4,0.2,0.7,0.3,0.9l0.1,1.8c0,1,0.5,1.9,1.3,2.5
		c0.6,0.5,1.3,0.7,2.1,0.7c0.2,0,0.4,0,0.7-0.1l2.4-0.5c0.3-0.1,0.7-0.1,1.1,0c1.3,0.2,3.9,0.3,6.9-0.4c-1.2,1.6-2.1,3-2.8,4.1
		c0,0-1.3,2.4-4.5,2.7c-2.3,0.2-5.4,0.2-9,0.8c-0.7-0.8-1.6-1.5-2.7-2.3C43,51.8,34.2,56,28.3,62.2c-0.8,0.8-9.3,9-10.4,17.9
		c-2.1,3.9-3.5,7.8-4.5,11.2c0-0.4-0.1-0.8-0.1-1.1C12.5,83.3,11.6,73.9,17.5,64.4z M29.7,66.4c0.8-0.8,1.3-1.3,1.3-1.3l0.1-0.1
		c3.5-3.7,8.6-6.8,12.4-6.8c1,0,1.9,0.2,2.7,0.7C40.2,60.4,34.7,62.9,29.7,66.4z M57.1,47v-1c0-0.8-0.2-1.5-0.6-2.4
		c-3.4-7.8,7.6-18.2,7.7-18.3l0.1-0.1c3.2-3.4,7.7-6.1,11.1-6.1c0.9,0,1.8,0.2,2.4,0.7c2.6,1.8,6.2,4.2-0.6,17.6
		c-5,9.8-13.6,9.5-16.1,9.2c-0.8-0.1-1.7-0.1-2.4,0.1L57.1,47z M111.5,75.1c-10.4,9.5-21.2,10-26.4,10.3H85
		c-3.4,0.2-6.3,2.8-6.8,6.2c-0.8,5.5-6,18.3-19.9,26.9c-18.4,11.5-33.4-2.6-39-9.1c-1.7-2-4.2-3.1-6.9-3.2c-1.8,0-3.2-0.5-4.5-1.3
		h0.1c1.8,0,3.6-0.5,5.3-1.6c2.1-1.3,3-4.2,4.3-8.5c2.1-6.8,5.3-17,14.9-23.9c10.2-7.3,21.8-8.5,27.8-8.5c3.4,0,6.4-1.7,8.2-4.6
		l0.4-0.6c2.2-3.5,6.2-9.9,18-15.7c2-1,6.1-2.6,8.2-3.3c4.8-1.5,10.3-2.1,14.8-1.7c7.6,0.8,13.4,7.2,13.1,14.7
		C122.8,57.5,120.6,66.7,111.5,75.1z"/>
	<path class="st2" d="M110.9,46.4C110.9,46.4,110.8,46.4,110.9,46.4c-0.7,0-10.8,0.1-20.4,6.6c-6.2,4.2-9.1,8.7-11.6,12.7
		c-2.3,3.7-4.4,6.9-8.7,9.7c-4.8,3.2-10.2,3.9-15.4,4.5c-0.2,0-0.4,0-0.6,0.1c0.1-3.1,1-5.5,1.1-5.7c0.4-1-0.1-2.2-1.1-2.6
		c-1-0.4-2.2,0.1-2.6,1.1c-0.8,2-1.5,4.8-1.4,7.8c-3,0.5-5.8,1.3-8.4,2.9c-0.7,0.5-1.4,1-2.1,1.5c0.3-3.6,1.4-6.3,1.5-6.6
		c0.4-1-0.1-2.2-1.1-2.6c-1-0.4-2.2,0.1-2.6,1.1c0,0.1-2.3,5.8-1.7,12.4c-4.1,5.4-6.2,11.6-6.4,12c-0.4,1.1,0.2,2.2,1.2,2.6
		c0.2,0.1,0.4,0.1,0.7,0.1c0.8,0,1.6-0.5,1.9-1.4c0-0.1,1.3-3.8,3.7-7.8c1.6,4.6,5.2,9,12.1,12c0.3,0.1,0.5,0.2,0.8,0.2
		c0.8,0,1.5-0.5,1.8-1.2c0.4-1,0-2.2-1.1-2.6c-7.1-3.1-9.9-7.9-10.7-12.6c1.2-1.4,2.5-2.7,4-3.6c1.9-1.2,4.2-1.9,6.8-2.3
		c1,4.1,3.8,8.1,9.6,10.6c0.3,0.1,0.5,0.2,0.8,0.2c0.8,0,1.5-0.5,1.8-1.2c0.4-1,0-2.2-1.1-2.6c-4.3-1.8-6.3-4.7-7.1-7.5
		c0.2,0,0.4,0,0.6-0.1c5.4-0.7,11.4-1.4,17.1-5.1c5-3.3,7.5-7.2,9.9-10.9c2.4-3.8,4.9-7.8,10.5-11.5c8.7-5.8,18.1-5.9,18.2-5.9l0,0
		c1.1,0,2-0.9,2-2C112.9,47.3,112,46.4,110.9,46.4z"/>
</g>
</svg>
