<svg xmlns="http://www.w3.org/2000/svg" viewBox="0 0 120.76 120.76">
  <defs>
    <style>
      .cls-1 {
        fill: #b17f4a;
      }

      .cls-2 {
        fill: #fff;
      }

      .cls-3 {
        fill: none;
      }
    </style>
  </defs>
  <title>erdnuss</title>
  <g id="Ebene_2" data-name="Ebene 2">
    <g id="Ebene_1-2" data-name="Ebene 1">
      <path class="cls-1" d="M120.76,60.38A60.38,60.38,0,1,1,60.38,0h0A60.39,60.39,0,0,1,120.76,60.38Z"/>
      <path class="cls-2" d="M63.738,77.234c.054-.334.13-.657.2-.984.079-.388.16-.773.257-1.151a10.622,10.622,0,0,0-3.646-3.858c-.174.068-.366.144-.536.229-.22.11-.52.22-.82.4s-.64.34-1,.58a9.378,9.378,0,0,0-1,.75,11.961,11.961,0,0,0-1,.91,11.758,11.758,0,0,0-.9,1.08,8.925,8.925,0,0,0-.76,1.2A9.275,9.275,0,0,0,54,77.66a8.713,8.713,0,0,0-.34,1.26,8.338,8.338,0,0,0-.11,1.18,6.312,6.312,0,0,0,.06,1,4.571,4.571,0,0,0,.14.78c.11.42.18.67.18.67l-.31-.63a4.978,4.978,0,0,1-.28-.76,5.481,5.481,0,0,1-.25-1A7.956,7.956,0,0,1,53,78.87a7.872,7.872,0,0,1,.11-1.43,9.406,9.406,0,0,1,.34-1.52,10.912,10.912,0,0,1,.6-1.49A11.575,11.575,0,0,1,54.82,73a15.378,15.378,0,0,1,.94-1.26c.33-.4.68-.76,1-1.09a8.8,8.8,0,0,1,.663-.6C51.2,68.855,44.053,73.973,40.9,82.244a22.078,22.078,0,0,0-1.44,9.241A17.84,17.84,0,0,0,40.1,95.25c1.108,3.821,3.421,6.569,6.512,7.737,6.531,2.472,14.636-2.815,18.07-11.774.216-.564.4-1.134.568-1.706A21.413,21.413,0,0,1,63.738,77.234Z"/>
      <path class="cls-3" d="M44.25,60.13a7.265,7.265,0,0,0-1.6-.94,8.909,8.909,0,0,0-2.35-.68,15.2,15.2,0,0,0-6,.37,25.669,25.669,0,0,0-6.09,2.468V60.93a14.992,14.992,0,0,1,.16-1.54,12.623,12.623,0,0,1,.245-1.263,37.9,37.9,0,0,1,4.415-2,24.036,24.036,0,0,1,2.69-.82,18.239,18.239,0,0,1,2.47-.38,12.015,12.015,0,0,1,2.12.07,9.644,9.644,0,0,1,1.69.35,7.006,7.006,0,0,1,1,.43l.35.22-.25-.36a5.764,5.764,0,0,0-.85-.81,7.384,7.384,0,0,0-1.6-.95,9.092,9.092,0,0,0-2.34-.68,15.2,15.2,0,0,0-6,.38A25.3,25.3,0,0,0,26,56.15a33.983,33.983,0,0,0-5.52,3.9,35.54,35.54,0,0,0-4.06,4.17c-.55.64-1,1.28-1.41,1.83s-.73,1.07-1,1.48c-.52.84-.78,1.34-.78,1.34s.46-.33,1.22-.94l3.17-2.48c.13-.1.269-.2.4-.305a10.105,10.105,0,0,0-.253,1.765,10.607,10.607,0,0,0,.07,2.1l.18,1c0,.021.013.042.018.063-.368.465-.707.915-1.008,1.327-.41.56-.73,1.07-1,1.48-.52.85-.78,1.35-.78,1.35s.47-.39,1.23-1l2.052-1.6c.049.127.079.261.138.384a6.811,6.811,0,0,0,.43.9c.119.23.251.452.388.671-.252.3-.493.6-.7.889a16.064,16.064,0,0,0-1.35,2.24c-.28.56-.41.9-.41.9s.33-.17.85-.51l.93-.6c.36-.23.77-.49,1.19-.78l.754-.5c.154.16.31.318.476.465a6.56,6.56,0,0,0,1.09.86,4.681,4.681,0,0,0,.91.55,7.823,7.823,0,0,0,.84.38s-.14-.32-.42-.81a9.484,9.484,0,0,1-.48-.88c-.17-.35-.38-.71-.55-1.14-.078-.166-.144-.338-.219-.506l.509-.334,1.61-1c.56-.33,1.12-.66,1.67-1a16.347,16.347,0,0,1,1.69-.91l.342-.162c.166.19.336.376.518.552a7.235,7.235,0,0,0,1.09.86,4.9,4.9,0,0,0,.91.55c.53.26.84.38.84.38s-.15-.32-.43-.81c-.14-.24-.3-.55-.47-.89s-.38-.71-.55-1.13c-.042-.089-.076-.18-.117-.27.369-.141.738-.287,1.117-.4.26-.1.51-.12.75-.19a3.23,3.23,0,0,1,.71-.13,7.53,7.53,0,0,1,1.29-.1c.38.02.69.1,1,.1.59.2.95.3.95.3a9.954,9.954,0,0,0-.76-.83,5.829,5.829,0,0,0-1-.7,5.643,5.643,0,0,0-1.5-.54,7.568,7.568,0,0,0-1.88-.18,10.409,10.409,0,0,0-1.65.2c-.006-.019-.014-.038-.02-.057-.15-.52-.31-1.04-.42-1.59l-.18-.81-.048-.333c.367-.219.735-.438,1.108-.647a37.747,37.747,0,0,1,5.6-2.65,22.128,22.128,0,0,1,2.69-.82,17.019,17.019,0,0,1,2.47-.38,11.317,11.317,0,0,1,2.13.06,10.475,10.475,0,0,1,1.63.37,8.318,8.318,0,0,1,1,.43l.37.17-.28-.31A6.069,6.069,0,0,0,44.25,60.13ZM20.671,67.137c0-.059-.012-.118-.011-.177V65.33c.05-.53.07-1.04.16-1.53.056-.306.113-.588.169-.876.361-.259.731-.52,1.131-.784.88-.58,1.69-1.15,2.58-1.71.375-.236.755-.472,1.136-.707-.079.237-.156.474-.216.717a10.015,10.015,0,0,0-.3,2c-.016.248-.013.5-.012.746A33.8,33.8,0,0,0,22.5,65.4C21.868,65.955,21.264,66.541,20.671,67.137ZM24.69,69.2a18.819,18.819,0,0,0-3.256,2.36c-.125-.421-.254-.85-.344-1.29l-.115-.523.775-.587c.75-.57,1.53-1.13,2.39-1.71.545-.368,1.1-.732,1.654-1.1.019.062.039.125.056.187a6.592,6.592,0,0,0,.37,1c.1.246.217.484.337.721A16.293,16.293,0,0,0,24.69,69.2Z"/>
      <path class="cls-3" d="M90.69,42.14a15.211,15.211,0,0,0-1.87-.09c-.3.013-.619.023-.941.037-.028-.122-.049-.245-.079-.367a17.382,17.382,0,0,0-.8-2.58c-.16-.428-.335-.851-.521-1.268l1.151-.242c.84-.2,1.59-.28,2.2-.4,1.23-.21,1.94-.37,1.94-.37s-.75-.1-2-.23a20.027,20.027,0,0,0-2.27-.15c-.545,0-1.13-.035-1.74-.043a18.549,18.549,0,0,0-1.51-2.2,15.039,15.039,0,0,0-1.9-2c-.31-.269-.635-.519-.969-.756l.439-.114,2.81-.59c.85-.2,1.59-.28,2.2-.4,1.23-.21,1.94-.37,1.94-.37s-.74-.1-2-.23a20.027,20.027,0,0,0-2.27-.15,29.971,29.971,0,0,0-3,0c-.948.088-1.989.172-3.06.317-.121-.044-.238-.1-.36-.137a10.907,10.907,0,0,0-1.92-.37,7.419,7.419,0,0,0-1.49,0c-.78.11-1.23.2-1.23.2a10.492,10.492,0,0,0,1.19.36c.336.131.661.287.984.447-.493.108-.986.216-1.474.343l-2,.58c-.65.21-1.32.49-2,.75a17.788,17.788,0,0,0-2,.88c-.679.329-1.348.649-2,1a7.4,7.4,0,0,0-1.053.022c-.79.11-1.24.21-1.24.21s.44.16,1.19.38c.03.007.061.021.092.03-.909.581-1.8,1.188-2.652,1.85a13.287,13.287,0,0,0-1.66,1.41,15.373,15.373,0,0,0-1.51,1.51c-.45.59-.9,1.06-1.31,1.59a18.249,18.249,0,0,0-1.1,1.64,18.652,18.652,0,0,0-1.6,3.24c-.16.54-.31,1.05-.44,1.54a6.756,6.756,0,0,0-.29,1.42c-.047.287-.075.576-.1.865A12.908,12.908,0,0,0,54.4,51.15c.07,1.28.15,2,.15,2s.18-.7.47-1.93a4.459,4.459,0,0,1,.29-1c.028-.067.052-.147.079-.217.107-.282.209-.57.321-.883a6.619,6.619,0,0,1,.54-1.21c.2-.41.41-.85.64-1.31l.87-1.33c.16-.22.29-.46.46-.69l.54-.66a16.2,16.2,0,0,1,1.15-1.36c.45-.42.87-.87,1.31-1.32a31.176,31.176,0,0,1,3-2.45,33.859,33.859,0,0,1,3.39-2.18L68.2,36.3c.391.276.783.55,1.151.856a16.083,16.083,0,0,1,1.56,1.54c.247.285.46.6.691.893-.17.082-.343.159-.511.247-.68.33-1.35.65-2,1a34.06,34.06,0,0,0-3.67,2.48,13.287,13.287,0,0,0-1.66,1.41,15.373,15.373,0,0,0-1.51,1.51c-.45.59-.89,1.07-1.32,1.59s-.73,1.13-1.09,1.66c-.242.392-.455.8-.668,1.208q-.2.383-.381.772h0c-.194.416-.387.831-.551,1.26-.15.54-.31,1.05-.44,1.54a8.28,8.28,0,0,0-.29,1.42A12.852,12.852,0,0,0,57.34,58c.08,1.28.15,2,.15,2s.19-.69.44-1.9a4.536,4.536,0,0,1,.3-1c.13-.34.26-.71.39-1.1a6.619,6.619,0,0,1,.5-1.21c.21-.41.42-.85.64-1.31l.684-1.026.2-.294c.16-.23.28-.47.45-.7l.55-.66a16.2,16.2,0,0,1,1.15-1.36c.44-.42.86-.87,1.3-1.32a36.171,36.171,0,0,1,6.43-4.63l1.81-.94c.329-.178.674-.323,1.013-.481.106.183.221.36.317.551.37.74.8,1.45,1.11,2.21l.51,1.11c.139.352.27.7.408,1.038-.379.354-.745.722-1.088,1.112a13.334,13.334,0,0,0-1.5,2.13,12.1,12.1,0,0,0-.93,2.13,10.216,10.216,0,0,0-.37,1.93,7.32,7.32,0,0,0,0,1.48c.11.79.2,1.24.2,1.24a7.1,7.1,0,0,0,.42-1.15,11.3,11.3,0,0,1,.53-1.26,4.176,4.176,0,0,1,.38-.71c.15-.25.29-.51.44-.78A16.5,16.5,0,0,1,75,51.54a18.432,18.432,0,0,1,1.54-1.56c.055-.04.112-.088.167-.129.154.47.306.924.423,1.359.17.63.33,1.21.48,1.73s.24.98.35,1.36c.19.76.34,1.2.34,1.2s.11-.44.26-1.22a11.662,11.662,0,0,0,.19-1.43,9.406,9.406,0,0,0,.09-1.88c-.03-.68-.04-1.44-.13-2.23-.016-.125-.04-.249-.058-.374A13.943,13.943,0,0,1,80.47,47.23c.73-.37,1.44-.79,2.2-1.11l1.12-.51,1.11-.44c.391-.166.783-.3,1.17-.431.221.683.457,1.308.61,1.911.16.63.31,1.21.47,1.73s.25.98.35,1.36c.2.76.34,1.2.34,1.2s.12-.44.26-1.23a9.556,9.556,0,0,0,.19-1.43,9.226,9.226,0,0,0,.09-1.87c-.03-.69-.04-1.44-.13-2.23-.006-.053-.017-.1-.024-.157l.834-.263c.63-.16,1.21-.31,1.73-.47s.98-.25,1.36-.36c.76-.19,1.2-.34,1.2-.34s-.44-.11-1.23-.25A10.932,10.932,0,0,0,90.69,42.14Zm-15.6-3.93c-.24.076-.481.169-.723.259a14.631,14.631,0,0,0-1.6-1.649,13.809,13.809,0,0,0-2.14-1.49c-.078-.044-.16-.077-.239-.119.29-.136.572-.29.869-.411.62-.26,1.22-.55,1.83-.8L75,33.38l.9-.33.9-.27,1.649-.528c.144.12.3.223.441.348a16.094,16.094,0,0,1,1.56,1.53,20.736,20.736,0,0,1,1.44,1.86c.167.225.323.462.48.7-.45.046-.9.091-1.37.163a37.709,37.709,0,0,0-3.91.78Zm9.04,4.42a18.64,18.64,0,0,0-2.58.81A21.727,21.727,0,0,0,79,44.62c-.349.192-.688.4-1.024.614-.154-.518-.324-1.032-.526-1.534a20.108,20.108,0,0,0-1.18-2.54c-.061-.106-.131-.2-.194-.309l1.8-.691c.31-.11.6-.23.91-.33l.9-.27L81.44,39l2.014-.465c.306.567.616,1.131.866,1.725.17.38.33.75.5,1.12l.4,1.019C84.858,42.469,84.493,42.543,84.13,42.63Z"/>
      <path class="cls-2" d="M81,36.85c.469-.072.92-.117,1.37-.163-.157-.235-.313-.472-.48-.7a20.736,20.736,0,0,0-1.44-1.86,16.094,16.094,0,0,0-1.56-1.53c-.14-.125-.3-.228-.441-.348L76.8,32.78l-.9.27-.9.33L73.09,34c-.61.25-1.21.54-1.83.8-.3.121-.579.275-.869.411.079.042.161.075.239.119a13.809,13.809,0,0,1,2.14,1.49,14.631,14.631,0,0,1,1.6,1.649c.242-.09.483-.183.723-.259l2-.58A37.709,37.709,0,0,1,81,36.85Z"/>
      <path class="cls-2" d="M84.32,40.26c-.25-.594-.56-1.158-.866-1.725L81.44,39l-1.75.56-.9.27c-.31.1-.6.22-.91.33l-1.8.691c.063.1.133.2.194.309a20.108,20.108,0,0,1,1.18,2.54c.2.5.372,1.016.526,1.534.336-.213.675-.422,1.024-.614a21.727,21.727,0,0,1,2.55-1.18,18.64,18.64,0,0,1,2.58-.81c.363-.087.728-.161,1.094-.231l-.4-1.019C84.65,41.01,84.49,40.64,84.32,40.26Z"/>
      <path class="cls-2" d="M25.308,63.186c0-.249,0-.5.012-.746a10.015,10.015,0,0,1,.3-2c.06-.243.137-.48.216-.717-.381.235-.761.471-1.136.707-.89.56-1.7,1.13-2.58,1.71-.4.264-.77.525-1.131.784-.056.288-.113.57-.169.876-.09.49-.11,1-.16,1.53v1.63c0,.059.009.118.011.177.593-.6,1.2-1.182,1.829-1.737A33.8,33.8,0,0,1,25.308,63.186Z"/>
      <path class="cls-2" d="M25.85,66.54c-.017-.062-.037-.125-.056-.187-.552.365-1.109.729-1.654,1.1-.86.58-1.64,1.14-2.39,1.71l-.775.587.115.523c.09.44.219.869.344,1.29A18.819,18.819,0,0,1,24.69,69.2a16.293,16.293,0,0,1,1.867-.939c-.12-.237-.238-.475-.337-.721A6.592,6.592,0,0,1,25.85,66.54Z"/>
      <path class="cls-2" d="M103.15,34.88C97.37,24.55,80.72,22.87,66,31.12c-7.972,4.468-13.743,10.934-16.447,17.563A39.5,39.5,0,0,0,31.62,50.9C16.06,56.47,6.57,69.73,10.43,80.47c3.1,8.629,13.879,12.992,26.06,11.492A25.05,25.05,0,0,1,38.1,81.178v0C42.1,70.665,51.949,64.607,60.041,67.667a12.685,12.685,0,0,1,5.371,3.914c2.986-6.748,8.955-11.024,15.022-10.063A12.281,12.281,0,0,1,88.4,66.667c.17.234.313.491.47.735C102.29,58.965,108.688,44.751,103.15,34.88ZM45,61.08a8.318,8.318,0,0,0-1-.43,10.475,10.475,0,0,0-1.63-.37,11.317,11.317,0,0,0-2.13-.06,17.019,17.019,0,0,0-2.47.38,22.128,22.128,0,0,0-2.69.82,37.747,37.747,0,0,0-5.6,2.65c-.373.209-.741.428-1.108.647l.048.333.18.81c.11.55.27,1.07.42,1.59.006.019.014.038.02.057a10.409,10.409,0,0,1,1.65-.2,7.568,7.568,0,0,1,1.88.18,5.643,5.643,0,0,1,1.5.54,5.829,5.829,0,0,1,1,.7,9.954,9.954,0,0,1,.76.83s-.36-.1-.95-.3c-.31,0-.62-.08-1-.1a7.53,7.53,0,0,0-1.29.1,3.23,3.23,0,0,0-.71.13c-.24.07-.49.09-.75.19-.379.113-.748.259-1.117.4.041.09.075.181.117.27.17.42.38.79.55,1.13s.33.65.47.89c.28.49.43.81.43.81s-.31-.12-.84-.38a4.9,4.9,0,0,1-.91-.55,7.235,7.235,0,0,1-1.09-.86c-.182-.176-.352-.362-.518-.552l-.342.162a16.347,16.347,0,0,0-1.69.91c-.55.34-1.11.67-1.67,1l-1.61,1-.509.334c.075.168.141.34.219.506.17.43.38.79.55,1.14a9.484,9.484,0,0,0,.48.88c.28.49.42.81.42.81a7.823,7.823,0,0,1-.84-.38,4.681,4.681,0,0,1-.91-.55,6.56,6.56,0,0,1-1.09-.86c-.166-.147-.322-.3-.476-.465l-.754.5c-.42.29-.83.55-1.19.78l-.93.6c-.52.34-.85.51-.85.51s.13-.34.41-.9a16.064,16.064,0,0,1,1.35-2.24c.205-.291.446-.586.7-.889-.137-.219-.269-.441-.388-.671a6.811,6.811,0,0,1-.43-.9c-.059-.123-.089-.257-.138-.384l-2.052,1.6c-.76.61-1.23,1-1.23,1s.26-.5.78-1.35c.27-.41.59-.92,1-1.48.3-.412.64-.862,1.008-1.327,0-.021-.013-.042-.018-.063l-.18-1a10.607,10.607,0,0,1-.07-2.1,10.105,10.105,0,0,1,.253-1.765c-.134.1-.273.208-.4.305l-3.17,2.48c-.76.61-1.22.94-1.22.94s.26-.5.78-1.34c.27-.41.59-.93,1-1.48s.86-1.19,1.41-1.83a35.54,35.54,0,0,1,4.06-4.17A33.983,33.983,0,0,1,26,56.15a25.3,25.3,0,0,1,6.31-2.57,15.2,15.2,0,0,1,6-.38,9.092,9.092,0,0,1,2.34.68,7.384,7.384,0,0,1,1.6.95,5.764,5.764,0,0,1,.85.81l.25.36L43,55.78a7.006,7.006,0,0,0-1-.43A9.644,9.644,0,0,0,40.31,55a12.015,12.015,0,0,0-2.12-.07,18.239,18.239,0,0,0-2.47.38,24.036,24.036,0,0,0-2.69.82,37.9,37.9,0,0,0-4.415,2,12.623,12.623,0,0,0-.245,1.263,14.992,14.992,0,0,0-.16,1.54v.418A25.669,25.669,0,0,1,34.3,58.88a15.2,15.2,0,0,1,6-.37,8.909,8.909,0,0,1,2.35.68,7.265,7.265,0,0,1,1.6.94,6.069,6.069,0,0,1,.84.81l.28.31ZM92.15,42.93c-.38.11-.84.2-1.36.36s-1.1.31-1.73.47l-.834.263c.007.052.018.1.024.157.09.79.1,1.54.13,2.23a9.226,9.226,0,0,1-.09,1.87,9.556,9.556,0,0,1-.19,1.43c-.14.79-.26,1.23-.26,1.23s-.14-.44-.34-1.2c-.1-.38-.19-.84-.35-1.36s-.31-1.1-.47-1.73c-.153-.6-.389-1.228-.61-1.911-.387.13-.779.265-1.17.431l-1.11.44-1.12.51c-.76.32-1.47.74-2.2,1.11a13.943,13.943,0,0,0-1.818,1.136c.018.125.042.249.058.374.09.79.1,1.55.13,2.23a9.406,9.406,0,0,1-.09,1.88,11.662,11.662,0,0,1-.19,1.43c-.15.78-.26,1.22-.26,1.22s-.15-.44-.34-1.2c-.11-.38-.2-.84-.35-1.36s-.31-1.1-.48-1.73c-.117-.435-.269-.889-.423-1.359-.055.041-.112.089-.167.129A18.432,18.432,0,0,0,75,51.54a16.5,16.5,0,0,0-1.23,1.56c-.15.27-.29.53-.44.78a4.176,4.176,0,0,0-.38.71,11.3,11.3,0,0,0-.53,1.26A7.1,7.1,0,0,1,72,57s-.09-.45-.2-1.24a7.32,7.32,0,0,1,0-1.48,10.216,10.216,0,0,1,.37-1.93,12.1,12.1,0,0,1,.93-2.13,13.334,13.334,0,0,1,1.5-2.13c.343-.39.709-.758,1.088-1.112-.138-.343-.269-.686-.408-1.038l-.51-1.11c-.31-.76-.74-1.47-1.11-2.21-.1-.191-.211-.368-.317-.551-.339.158-.684.3-1.013.481l-1.81.94a36.171,36.171,0,0,0-6.43,4.63c-.44.45-.86.9-1.3,1.32a16.2,16.2,0,0,0-1.15,1.36l-.55.66c-.17.23-.29.47-.45.7l-.2.294L59.76,53.48c-.22.46-.43.9-.64,1.31a6.619,6.619,0,0,0-.5,1.21c-.13.39-.26.76-.39,1.1a4.536,4.536,0,0,0-.3,1c-.25,1.21-.44,1.9-.44,1.9s-.07-.72-.15-2a12.852,12.852,0,0,1,.17-2.31,8.28,8.28,0,0,1,.29-1.42c.13-.49.29-1,.44-1.54.164-.429.357-.844.551-1.26h0q.181-.39.381-.772c.213-.408.426-.816.668-1.208.36-.53.66-1.14,1.09-1.66s.87-1,1.32-1.59a15.373,15.373,0,0,1,1.51-1.51,13.287,13.287,0,0,1,1.66-1.41,34.06,34.06,0,0,1,3.67-2.48c.65-.35,1.32-.67,2-1,.168-.088.341-.165.511-.247-.231-.3-.444-.608-.691-.893a16.083,16.083,0,0,0-1.56-1.54c-.368-.306-.76-.58-1.151-.856l-.589.306a33.859,33.859,0,0,0-3.39,2.18,31.176,31.176,0,0,0-3,2.45c-.44.45-.86.9-1.31,1.32a16.2,16.2,0,0,0-1.15,1.36l-.54.66c-.17.23-.3.47-.46.69l-.87,1.33c-.23.46-.44.9-.64,1.31a6.619,6.619,0,0,0-.54,1.21c-.112.313-.214.6-.321.883-.027.07-.051.15-.079.217a4.459,4.459,0,0,0-.29,1c-.29,1.23-.47,1.93-.47,1.93s-.08-.72-.15-2a12.908,12.908,0,0,1,.067-1.445c.028-.289.056-.578.1-.865a6.756,6.756,0,0,1,.29-1.42c.13-.49.28-1,.44-1.54a18.652,18.652,0,0,1,1.6-3.24A18.249,18.249,0,0,1,58,41c.41-.53.86-1,1.31-1.59a15.373,15.373,0,0,1,1.51-1.51,13.287,13.287,0,0,1,1.66-1.41c.852-.662,1.743-1.269,2.652-1.85-.031-.009-.062-.023-.092-.03-.75-.22-1.19-.38-1.19-.38s.45-.1,1.24-.21A7.4,7.4,0,0,1,66.143,34c.649-.349,1.318-.669,2-1a17.788,17.788,0,0,1,2-.88c.68-.26,1.35-.54,2-.75l2-.58c.488-.127.981-.235,1.474-.343-.323-.16-.648-.316-.984-.447a10.492,10.492,0,0,1-1.19-.36s.45-.09,1.23-.2a7.419,7.419,0,0,1,1.49,0,10.907,10.907,0,0,1,1.92.37c.122.04.239.093.36.137,1.071-.145,2.112-.229,3.06-.317a29.971,29.971,0,0,1,3,0,20.027,20.027,0,0,1,2.27.15c1.26.13,2,.23,2,.23s-.71.16-1.94.37c-.61.12-1.35.2-2.2.4l-2.81.59-.439.114c.334.237.659.487.969.756a15.039,15.039,0,0,1,1.9,2,18.549,18.549,0,0,1,1.51,2.2c.61.008,1.195.043,1.74.043a20.027,20.027,0,0,1,2.27.15c1.25.13,2,.23,2,.23s-.71.16-1.94.37c-.61.12-1.36.2-2.2.4l-1.151.242c.186.417.361.84.521,1.268a17.382,17.382,0,0,1,.8,2.58c.03.122.051.245.079.367.322-.014.64-.024.941-.037a15.211,15.211,0,0,1,1.87.09,10.932,10.932,0,0,1,1.43.2c.79.14,1.23.25,1.23.25S92.91,42.74,92.15,42.93Z"/>
      <path class="cls-2" d="M86.267,68.9c-.1-.156-.192-.325-.3-.475a9.676,9.676,0,0,0-4.472-3.538c-.1.063-.2.129-.284.195-.17.13-.4.27-.63.47s-.49.4-.73.65a9.613,9.613,0,0,0-.74.81,11.729,11.729,0,0,0-.71.95A8.8,8.8,0,0,0,77.81,69a8.97,8.97,0,0,0-.46,1.16,7.1,7.1,0,0,0-.26,1.18A6.308,6.308,0,0,0,77,72.52a6.845,6.845,0,0,0,.1,1,5.649,5.649,0,0,0,.22.86,4.193,4.193,0,0,0,.25.65l.27.55-.38-.48a4.814,4.814,0,0,1-.4-.6,6.783,6.783,0,0,1-.41-.85,7.313,7.313,0,0,1-.34-1.08,8.119,8.119,0,0,1-.18-1.26,9.082,9.082,0,0,1,0-1.38,10.049,10.049,0,0,1,.24-1.42,11.488,11.488,0,0,1,.42-1.38,12.864,12.864,0,0,1,1.25-2.42c.066-.108.141-.2.213-.3-4.372.241-8.478,3.952-10.5,9.333-.128.338-.245.684-.355,1.035a20.368,20.368,0,0,0-.617,2.536c-.024.133-.056.262-.078.4a18.94,18.94,0,0,0,.693,9.113,15.131,15.131,0,0,0,.921,2.163c.038.07.081.132.119.2a9.634,9.634,0,0,0,6.8,5.235c5.963.941,11.923-5,13.285-13.253A17.543,17.543,0,0,0,86.267,68.9Z"/>
    </g>
  </g>
</svg>
