<?xml version="1.0" encoding="utf-8"?>
<!-- Generator: Adobe Illustrator 27.2.0, SVG Export Plug-In . SVG Version: 6.00 Build 0)  -->
<svg version="1.1" id="Ebene_2_00000108995939412243776720000007626002894266424961_"
	 xmlns="http://www.w3.org/2000/svg" xmlns:xlink="http://www.w3.org/1999/xlink" x="0px" y="0px" viewBox="0 0 128 128"
	 style="enable-background:new 0 0 128 128;" xml:space="preserve">
<style type="text/css">
	.st0{fill:#E6C17C;}
	.st1{fill:#333333;}
</style>
<g>
	<path class="st0" d="M52.7,66.4c-1.1,2.2,4.5,13.1,12.7,17.5c6.6,3.6,11.1,1.4,13.8-3.7c2.1-4,0.1-10-7.9-13.5
		C64.2,63.6,53.8,64.2,52.7,66.4z"/>
	<path class="st0" d="M44.4,26.8c4.9-5.7,3.8-10.5-0.6-14.3c-3.5-2.9-9.7-2.2-14.9,4.9c-4.6,6.3-6.2,16.5-4.3,18.1
		C26.4,37.1,38.3,33.9,44.4,26.8z"/>
	<path class="st0" d="M80.8,19.8c6.8-3.1,7.9-8,5.4-13.2c-1.9-4.1-7.9-6.1-15.6-1.9C63.8,8.5,58,17.1,59.1,19.3
		C60.2,21.6,72.3,23.7,80.8,19.8z"/>
	<path class="st0" d="M121,51c4-2.2,5.6-8.3,0.9-15.7c-4.2-6.6-13.2-11.8-15.3-10.6c-2.2,1.2-3.5,13.4,0.9,21.8
		C111,53,115.9,53.7,121,51z"/>
	<path class="st0" d="M27.4,97.3c-6.8,3.8-12.6,12.4-11.5,14.6c1.1,2.3,13.2,4.3,21.7,0.5c6.8-3.1,7.9-8,5.4-13.2
		C41,95,35.1,93,27.4,97.3z"/>
	<path class="st0" d="M19.6,71.2C16.3,64.2,8,57.9,5.7,58.9C3.4,59.8,0.6,71.8,4,80.5c2.7,7,7.5,8.3,12.9,6.2
		C21.1,85.1,23.4,79.1,19.6,71.2z"/>
	<path class="st0" d="M121.7,91.1c-3.5-2.9-9.7-2.2-14.9,4.9c-4.6,6.3-6.2,16.5-4.3,18.1c1.9,1.6,13.8-1.6,19.9-8.7
		C127.2,99.7,126.1,94.8,121.7,91.1z"/>
	<path class="st0" d="M69,94c-6.6-3.1-10.9-1-13.3,3.9l0,0c-1-0.3-1.8-0.4-2.3-0.1c-2.2,1.2-3.5,13.4,0.9,21.8
		c3.5,6.6,8.4,7.4,13.5,4.6c3.1-1.7,4.8-5.9,3.1-11.2l0,0c5.7,0.5,11.2-0.6,11.9-2.1C83.7,108.5,77.4,98,69,94z"/>
	<path class="st0" d="M104.6,87c3.8-4.4,4-8.3,1.8-11.5l0,0c3.7,1.1,6.9,1.4,7.8,0.4c1.7-1.8-0.6-13.9-7.2-20.5
		c-5.3-5.3-10.2-4.5-14.3-0.4c-3.2,3.3-2.9,9.5,3.8,15.2c0.4,0.3,0.8,0.7,1.3,1l0,0c-2.8,0.5-6,2.5-8.8,6.3
		c-4.6,6.3-6.2,16.5-4.3,18.1S98.5,94.1,104.6,87z"/>
	<path class="st0" d="M37.8,64c1.5-1.5,2.9-3.5,3.9-6.2c2.9-7.2,1.8-17.6-0.4-18.7c-2.3-1.1-12.9,5.1-17,13.4
		c-3.3,6.7-1,11.2,4.2,13.6c0.1,0,0.1,0,0.2,0.1c-0.6,4.6-0.1,11.4,2.7,16.7c3.5,6.6,8.4,7.4,13.5,4.6c4-2.2,5.6-8.3,0.9-15.7
		C43.8,68.8,40.7,66,37.8,64z"/>
	<path class="st0" d="M67.2,59.4c1.6-0.6,3.6-6.6,3.6-13.1c4.5,0.7,11,0.6,16.2-1.8c6.8-3.1,7.9-8,5.4-13.2
		c-1.9-4.1-7.9-6.1-15.6-1.9c-3,1.7-5.9,4.3-8,6.9l0,0c-2.6-5.8-7.1-6.9-12.1-5c-4.3,1.6-6.7,7.4-3.1,15.4
		C56.8,53.9,65,60.3,67.2,59.4z"/>
</g>
<g>
	<path class="st1" d="M72.3,64.5c-8.7-3.8-20-2.8-21.8,0.8c-2.5,4.8,6.3,16.9,13.7,21c2.6,1.4,5,2.1,7.2,2.1c1,0,2-0.1,3-0.4
		c2.9-0.9,5.2-3,7-6.3c1.2-2.3,1.4-5.1,0.5-7.8C80.6,70.1,77.2,66.7,72.3,64.5z M77,79.3c-1.1,2.1-2.5,3.4-4,3.9
		c-1.7,0.5-3.9,0.1-6.4-1.2c-6.5-3.5-11-11.4-11.5-14.1c2.1-0.8,9.4-1.2,15.2,1.4c3.6,1.6,6.1,3.8,6.9,6.3
		C77.7,76.8,77.6,78.1,77,79.3z"/>
	<path class="st1" d="M22.9,37.6c0.8,0.7,2.1,1,3.5,1c5.8,0,15.5-4.9,19.8-10c2.8-3.2,4-6.4,3.8-9.6c-0.2-3-1.8-5.8-4.7-8.2
		c-2-1.7-4.7-2.5-7.5-2.1c-4,0.5-7.9,3.1-11.1,7.4c-2.3,3.1-4.1,7.4-5,11.8C21.1,31.4,20.7,35.8,22.9,37.6z M30.8,19
		c2.3-3.2,5-5.1,7.6-5.4c1.4-0.2,2.7,0.2,3.7,1c1.8,1.5,2.8,3.1,2.9,4.8c0.1,1.8-0.7,3.8-2.6,6c-4.8,5.6-13.4,8.3-16.2,8.2
		C26,31.4,27.1,24.1,30.8,19z"/>
	<path class="st1" d="M56.9,20.5c1.3,2.7,6.6,4,12.3,4c4.5,0,9.3-0.8,12.6-2.3c3.9-1.7,6.4-4.2,7.5-7.1c1-2.8,0.8-6-0.8-9.4
		c-1.1-2.4-3.2-4.2-5.9-5.1c-3.8-1.2-8.5-0.5-13.2,2.1C61.2,7.2,55.2,16.9,56.9,20.5L56.9,20.5z M71.9,7c3.5-1.9,6.7-2.5,9.2-1.7
		c1.4,0.4,2.4,1.3,2.9,2.4c1,2.1,1.2,4,0.7,5.5c-0.6,1.7-2.3,3.1-4.8,4.3c-6.7,3.1-15.7,1.9-18.2,0.7C62.3,16.1,66.3,10.1,71.9,7z"
		/>
	<path class="st1" d="M112.8,54.6c0.9,0.3,1.9,0.4,2.9,0.4c2,0,4.2-0.6,6.4-1.8c2.3-1.3,4-3.5,4.7-6.2c1-3.9,0-8.5-2.9-13
		c-2.1-3.2-5.4-6.5-9.2-9c-2.9-1.9-6.9-3.9-9.4-2.5c-4.7,2.6-4.1,17.6-0.1,25.1C107.2,51.4,109.8,53.7,112.8,54.6z M107.9,27.1
		c2.2,0.5,8.5,4.2,11.9,9.5c2.1,3.3,2.9,6.6,2.3,9.1c-0.4,1.4-1.1,2.4-2.3,3.1c-2.1,1.1-3.9,1.5-5.5,1c-1.7-0.5-3.3-2.1-4.6-4.6
		C106.2,38.7,106.8,29.6,107.9,27.1z"/>
	<path class="st1" d="M39.3,93.1c-3.8-1.2-8.5-0.5-13.2,2.1c-3.4,1.9-6.8,5-9.5,8.6c-2.1,2.8-4.3,6.7-3.1,9.3c1.3,2.7,6.6,4,12.3,4
		c4.5,0,9.3-0.8,12.6-2.3c3.9-1.7,6.4-4.2,7.5-7.1c1-2.8,0.8-6-0.8-9.4C44.1,95.8,42,94,39.3,93.1z M41.3,105.9
		c-0.6,1.7-2.3,3.1-4.8,4.3c-6.7,3.1-15.7,1.9-18.2,0.7c0.7-2.2,4.7-8.2,10.3-11.3c3.5-1.9,6.7-2.5,9.2-1.7c1.4,0.4,2.4,1.3,2.9,2.4
		C41.7,102.4,41.9,104.3,41.3,105.9z"/>
	<path class="st1" d="M23.2,83.6c1.5-3.7,1-8.4-1.3-13.3c-1.7-3.5-4.6-7.1-8-10c-2.7-2.2-6.4-4.7-9.1-3.6c-5,2-6.1,17-3.1,24.9
		c1.5,3.9,3.8,6.6,6.7,7.9c1.3,0.6,2.7,0.8,4.1,0.8c1.7,0,3.4-0.4,5.3-1.1C20.3,88.2,22.2,86.2,23.2,83.6z M15.9,84.5
		c-2.2,0.9-4.1,1-5.6,0.3c-1.7-0.7-3-2.4-4-5.1c-2.7-6.9-1-15.8,0.4-18.2c2.1,0.8,7.9,5.2,10.7,10.9c1.7,3.6,2.1,6.9,1.2,9.3
		C18,83.1,17.1,84.1,15.9,84.5z"/>
	<path class="st1" d="M128,97.5c-0.2-3-1.8-5.8-4.7-8.2c-2-1.7-4.7-2.5-7.5-2.1c-4,0.5-7.9,3.1-11.1,7.4c-2.3,3.1-4.1,7.4-5,11.8
		c-0.7,3.4-1.1,7.9,1.1,9.7l0,0c0.8,0.7,2.1,1,3.5,1c5.8,0,15.5-4.9,19.8-10C127,103.9,128.3,100.7,128,97.5z M120.5,103.9
		c-4.8,5.6-13.3,8.2-16.1,8.2h-0.1c-0.3-2.3,0.8-9.4,4.6-14.5c2.3-3.2,5-5.1,7.6-5.4c1.4-0.2,2.7,0.2,3.7,1c1.8,1.5,2.8,3.1,2.9,4.8
		C123.2,99.7,122.3,101.7,120.5,103.9z"/>
	<path class="st1" d="M70,91.8c-6.6-3.1-12.2-1.8-15.7,3.4c-0.8,0-1.6,0.1-2.2,0.5c-4.4,2.4-4.4,16.9-0.1,25.1
		c2,3.7,8.1,10.2,16.9,5.6c2.4-1.2,4-3.5,4.7-6.2c0.4-1.4,0.5-3,0.3-4.5c4.3,0,9.7-0.8,11-3.7C87.1,107.1,77.6,95.4,70,91.8z
		 M69,119c-0.3,1.5-1.3,2.5-2.4,3.1c-2.1,1.1-3.9,1.5-5.5,1c-1.7-0.5-3.3-2.1-4.6-4.6c-3.5-6.5-2.8-15.5-1.8-18.1l0.3,0.1
		c2.7,0.8,9.6,5.7,13.1,12.4C69.3,115.3,69.3,117,69,119z M72.6,110.7c-0.4-1-1.6-3.8-4.5-6.9c-2.4-2.6-8.2-6.6-8.7-6.8
		c2-2.1,4.8-2.3,8.5-0.6c6.7,3.1,11.6,10.7,12.3,13.4C79,110.3,76.2,110.9,72.6,110.7z"/>
	<path class="st1" d="M106.4,88.7c2.8-3.2,4-6.4,3.8-9.6V79c0.6,0.1,1.2,0.1,1.7,0.1c1.7,0,3.1-0.4,4.1-1.3c3.7-3.9-1.3-18-7.2-24
		l0,0c-3-3-6.1-4.5-9.3-4.5l0,0c-3,0-5.9,1.4-8.5,4.1c-1.9,1.9-2.8,4.5-2.7,7.3c0.2,3.4,1.8,6.8,4.8,9.9c-2.2,1.3-4.3,3.2-6.1,5.7
		c-2.3,3.1-4.1,7.4-5,11.8c-0.7,3.4-1.1,7.9,1.1,9.7c0.8,0.7,2.1,1,3.5,1C92.4,98.7,102.1,93.8,106.4,88.7z M94.5,56.8
		c1.7-1.7,3.3-2.6,5-2.6l0,0c1.8,0,3.7,1,5.7,3l0,0c5.2,5.2,7.3,14,7,16.7c-0.8,0-2.3-0.1-4.3-0.7l0,0c-0.3-0.4-1.6-2.4-4-3.6
		c-1.5-0.7-3.2-1.2-5.4-1c-0.1-0.1-5.1-5.7-5.2-8.3C93.2,58.9,93.6,57.7,94.5,56.8z M102.7,85.5c-4.8,5.6-13.3,8.2-16.1,8.2h-0.1
		c-0.3-2.3,0.8-9.4,4.6-14.5c2.2-3.1,7.4-7.1,10.8-4.7C107.1,78.1,104.5,83.3,102.7,85.5z"/>
	<path class="st1" d="M47.9,70.8c-1.6-2.5-3.8-4.9-6.5-7c1-1.4,1.9-3,2.6-4.9c1.4-3.6,2.1-8.2,1.9-12.7c-0.2-3.5-0.9-7.9-3.5-9.1
		c-4.9-2.3-16.6,7-20.3,14.6c-1.9,3.8-2.3,7.3-1.2,10.3c0.8,2.4,2.6,4.4,5.2,6c-0.3,5.5,0.9,12.2,3.1,16.4c2,3.7,4.5,6.1,7.6,7
		c0.9,0.3,1.9,0.4,2.9,0.4c2,0,4.2-0.6,6.4-1.8c2.3-1.3,4-3.5,4.7-6.2C51.8,79.9,50.8,75.3,47.9,70.8z M25.6,60.2
		c-0.6-1.7-0.3-3.9,1-6.4c3.3-6.7,10.9-11.4,13.6-12.1c0.9,2.1,1.6,9.3-0.7,15.2c-0.6,1.5-1.3,2.8-2.1,3.9C37,60.7,32.8,58.1,30,59
		c-2,0.6-2.9,3-3,3.4C26.3,61.8,25.8,61,25.6,60.2z M45.9,82.6c-0.4,1.4-1.1,2.4-2.3,3.1c-2.1,1.1-3.9,1.5-5.5,1
		c-1.7-0.5-3.5-2-4.6-4.6c-4.5-10.2-2-17.5-1.8-18.1c0.8,0.2,7.6,3.3,11.9,9.5C45.9,76.8,46.6,80,45.9,82.6z"/>
	<path class="st1" d="M51.3,47.9c1.6,3.5,4.4,7.2,7.8,10.2c2.2,1.9,5.2,4,7.7,4c0.5,0,0.9-0.1,1.3-0.2l0,0c2.9-1.1,4.7-6.7,5-12.7
		c0.9,0.1,1.8,0.1,2.7,0.1c3.9,0,8.3-0.6,12.1-2.4c3.9-1.7,6.4-4.2,7.5-7.1c1-2.8,0.8-6-0.8-9.4c-1.1-2.4-3.2-4.2-5.9-5.1
		c-3.8-1.2-8.5-0.5-13.2,2.1c-2.2,1.2-4.3,2.9-6.4,4.9c-1.1-1.4-2.4-2.5-3.9-3.2c-2.7-1.3-5.9-1.3-9.4,0c-2.5,0.9-4.5,2.9-5.5,5.5
		C48.8,38.3,49.1,43,51.3,47.9z M71.7,37c2-2.2,4.1-4,6.3-5.2c3.5-1.9,6.7-2.5,9.2-1.7c1.4,0.4,2.4,1.3,2.9,2.4c1,2.1,1.2,4,0.7,5.5
		c-0.6,1.7-2.3,3.1-4.8,4.3c-4,1.8-8.9,2.1-12.7,1.8C73.1,42.1,72.7,39.4,71.7,37z M54.9,36.5c0.6-1.3,1.5-2.2,2.7-2.7
		c2.8-1.3,4.5-0.7,5.6-0.2c1.3,0.7,3.2,1.8,4.5,7c1.7,7.5-0.5,14.9-1.4,16.3c-2.1-0.9-7.8-5.3-10.4-11.1
		C54.3,42.2,53.9,38.9,54.9,36.5z"/>
</g>
</svg>
