<svg id="Ebene_1" data-name="Ebene 1" xmlns="http://www.w3.org/2000/svg" viewBox="0 0 120.76 120.76"><defs><style>.cls-1{fill:#f7c88f;}.cls-2{fill:#fff;}</style></defs><title>Unterallergen_SVG</title><circle class="cls-1" cx="60.38" cy="60.38" r="60.38" transform="translate(-12.54 104.81) rotate(-76.36)"/><path class="cls-2" d="M44.73,81.26s1.92,12.18-6.84,11.66S44.73,81.26,44.73,81.26Z"/><path class="cls-2" d="M69.9,94.2s6.44-14,15.23-7.42S69.9,94.2,69.9,94.2Z"/><path class="cls-2" d="M45.45,59.77S46.68,46.2,55.93,49.13,45.45,59.77,45.45,59.77Z"/><path class="cls-2" d="M53.55,84.53S55,69.14,65.45,72.46,53.55,84.53,53.55,84.53Z"/><path class="cls-2" d="M81.21,79.53s7.21-9.74,12.89-3.24S81.21,79.53,81.21,79.53Z"/><path class="cls-2" d="M77.52,51.57s1.4-15.39,11.9-12.07S77.52,51.57,77.52,51.57Z"/><path class="cls-2" d="M93.06,69S81.49,58.74,90.39,52.26,93.06,69,93.06,69Z"/><path class="cls-2" d="M71.05,70.21s1.14-12.46,9.63-9.77S71.05,70.21,71.05,70.21Z"/><path class="cls-2" d="M63.61,104.87S51,96,59.07,88.54,63.61,104.87,63.61,104.87Z"/><path class="cls-2" d="M55,23.14s9.33-8.88,14.09-1S55,23.14,55,23.14Z"/><path class="cls-2" d="M25,76.05s6.45-14,15.23-7.42S25,76.05,25,76.05Z"/><path class="cls-2" d="M37.6,31.41s1.24-13.57,10.49-10.64S37.6,31.41,37.6,31.41Z"/><path class="cls-2" d="M21.35,63.7s1.4-15.39,11.89-12.07S21.35,63.7,21.35,63.7Z"/><path class="cls-2" d="M24.15,29.61S36.58,38.8,28.29,46,24.15,29.61,24.15,29.61Z"/><path class="cls-2" d="M75,36S76.4,20.6,86.89,23.92,75,36,75,36Z"/><path class="cls-2" d="M69.16,63.18S57.6,52.92,66.5,46.44,69.16,63.18,69.16,63.18Z"/><path class="cls-2" d="M49.09,71.93s1.14-12.46,9.63-9.77S49.09,71.93,49.09,71.93Z"/><path class="cls-2" d="M43.3,52.07s-12.65-8.88-4.54-16.33S43.3,52.07,43.3,52.07Z"/><path class="cls-2" d="M52.39,39.28s9.33-8.88,14.09-1S52.39,39.28,52.39,39.28Z"/></svg>