<svg xmlns="http://www.w3.org/2000/svg" viewBox="0 0 120.76 120.76">
  <defs>
    <style>
      .cls-1 {
        fill: #008d36;
      }

      .cls-2 {
        fill: #fff;
      }
    </style>
  </defs>
  <title>soja</title>
  <g id="Ebene_2" data-name="Ebene 2">
    <g id="Ebene_1-2" data-name="Ebene 1">
      <path class="cls-1" d="M120.76,60.38A60.38,60.38,0,1,1,60.38,0h0A60.39,60.39,0,0,1,120.76,60.38Z"/>
      <path class="cls-2" d="M59.172,76.984A20.757,20.757,0,0,0,47.64,73.77c-8.83,0-16,4.67-16,10.45s7.18,10.46,16,10.46a22.707,22.707,0,0,0,7.874-1.365A11.76,11.76,0,0,1,53.76,87.19C53.76,83.237,55.8,79.685,59.172,76.984Z"/>
      <path class="cls-2" d="M96.426,81.86a6.964,6.964,0,0,0,1.114-1.79c2.27-5.31-2.49-12.44-10.63-15.92a22.493,22.493,0,0,0-8.73-1.88c-4.76,0-8.68,1.83-10.12,5.2a7.735,7.735,0,0,0-.185,5.311,31.166,31.166,0,0,1,7.885-1C85.391,71.78,93.385,75.926,96.426,81.86Z"/>
      <path class="cls-2" d="M94.727,86.758a8.522,8.522,0,0,0-.713-2.986c-2.269-5.188-9.557-8.992-18.254-8.992a27.973,27.973,0,0,0-6.612.79,24.379,24.379,0,0,0-2.938.907,21.326,21.326,0,0,0-2.122.939,18.243,18.243,0,0,0-2.588,1.6c-2.941,2.186-4.74,5.042-4.74,8.178a8.817,8.817,0,0,0,1.5,4.833,12.291,12.291,0,0,0,2,2.32c3.443,3.176,9.1,5.257,15.5,5.257,10.48,0,19-5.56,19-12.41C94.76,87.044,94.734,86.9,94.727,86.758Z"/>
      <g>
        <path class="cls-2" d="M12.67,79.87c.012-.006.021-.02.033-.027C12.553,79.917,12.515,79.947,12.67,79.87Z"/>
        <path class="cls-2" d="M101.53,37.85a9.151,9.151,0,0,0-.862-1.209q.118-.351.2-.711a9.8,9.8,0,0,0,.26-1.55,9.6,9.6,0,0,0,.09-1.61,5.107,5.107,0,0,0-.18-1.57,4.384,4.384,0,0,0-.68-1.31,5.21,5.21,0,0,0-1.87-1.57,3.175,3.175,0,0,0-.85-.31,3.475,3.475,0,0,0-.81-.13l-.28.29v.79a4.5,4.5,0,0,1,.06.78c.02.28.05.6.09.89a6.659,6.659,0,0,1,.13.94,5.006,5.006,0,0,0,.24.94,7.945,7.945,0,0,0,.45.94,4.376,4.376,0,0,1,.348.912c-5.117-2.869-13.3-2.192-20.748,2.178a27,27,0,0,0-9.239,8.742A26.419,26.419,0,0,0,54.01,47.31C47.827,49.918,43.2,54.2,41.067,58.705a27.552,27.552,0,0,0-11.917.925c-10.4,3.07-17.256,11-15.811,18.026-.007.517-.084,1.855-.636,2.187a5.639,5.639,0,0,1,1.158-.429c2.041,4.8,8.025,7.587,15.147,7.494a10.085,10.085,0,0,1-.368-2.688c0-7.54,8.33-13.45,19-13.45a24.1,24.1,0,0,1,12.216,3.113,29.913,29.913,0,0,0,4.634-1.5c.07-.029.134-.064.2-.093A10.341,10.341,0,0,1,65.3,66.27c1.88-4.37,6.69-7,12.88-7v-.01a25.677,25.677,0,0,1,9.831,2.088,30.252,30.252,0,0,0,2.939-1.5C100.61,54.18,105.35,44.31,101.53,37.85ZM37.98,63.26c-.39.11-.87.2-1.4.34s-1.14.32-1.79.46-1.35.4-2.08.59l-2.26.73c-.77.29-1.58.53-2.36.87s-1.57.66-2.34,1c-.41.16-.76.39-1.14.58a8.421,8.421,0,0,0-1.1.62l-1.05.65-1,.7a10.767,10.767,0,0,0-.89.72,6.543,6.543,0,0,0-.82.75c-.25.25-.51.49-.73.75l-.63.76a6.6,6.6,0,0,0-.5.76,6.4,6.4,0,0,0-.44.71c-.19.46-.45.86-.57,1.25-.22.76-.38,1.2-.38,1.2s-.09-.46-.2-1.27a8.368,8.368,0,0,1,.61-3.49l.47-1.06c.18-.37.43-.69.65-1.06a7.117,7.117,0,0,1,.79-1,12.258,12.258,0,0,1,.92-1l1.05-.94c.37-.29.75-.57,1.15-.84a10.3,10.3,0,0,1,1.22-.77c.42-.23.84-.5,1.28-.69a21.385,21.385,0,0,1,2.66-1.06,21.1,21.1,0,0,1,2.66-.72c.87-.17,1.73-.27,2.53-.37a20.065,20.065,0,0,1,2.28-.08,18.116,18.116,0,0,1,1.92.11,11.385,11.385,0,0,1,1.47.21c.81.14,1.26.26,1.26.26S38.76,63.07,37.98,63.26ZM65.51,48.92c-.39.1-.87.19-1.4.34s-1.14.31-1.79.45-1.34.41-2.08.6L58,51.05c-.77.29-1.57.54-2.35.88s-1.58.66-2.35,1a12.2,12.2,0,0,0-1.14.58,10.7,10.7,0,0,0-1.1.62l-1,.64c-.32.24-.65.48-1,.7a10.864,10.864,0,0,0-.9.73,6.54,6.54,0,0,0-.82.74c-.24.26-.51.5-.73.75l-.62.77a5.028,5.028,0,0,0-.51.75A7.229,7.229,0,0,0,45,60c-.19.47-.45.87-.57,1.26A10.309,10.309,0,0,1,44,62.43s-.09-.47-.19-1.27a8.62,8.62,0,0,1,.07-1.54,9.9,9.9,0,0,1,.53-1.95l.47-1.06c.18-.37.43-.7.65-1.06a7.191,7.191,0,0,1,.79-1,10.987,10.987,0,0,1,.93-1c.33-.32.68-.63,1-.94a10.378,10.378,0,0,1,1.15-.85,11.976,11.976,0,0,1,1.22-.77c.43-.22.84-.49,1.28-.68a21.379,21.379,0,0,1,2.66-1.07,23.27,23.27,0,0,1,2.66-.71c.88-.18,1.73-.27,2.54-.37A19.885,19.885,0,0,1,62.11,48c.71,0,1.35.07,1.92.11a13.833,13.833,0,0,1,1.46.21c.81.14,1.26.26,1.26.26S66.3,48.73,65.51,48.92ZM92.88,36.08c-.39.11-.86.2-1.4.35s-1.14.31-1.79.45-1.34.4-2.08.59l-2.26.73c-.77.29-1.57.53-2.35.87s-1.58.66-2.35,1a12.41,12.41,0,0,0-1.14.59c-.37.2-.75.38-1.09.61L77.4,42l-1,.7c-.34.21-.59.5-.9.73a6.384,6.384,0,0,0-.81.74c-.25.26-.52.5-.74.75l-.62.76a6.719,6.719,0,0,0-.51.76,6.4,6.4,0,0,0-.44.71c-.19.46-.45.86-.57,1.25-.2.73-.37,1.17-.37,1.17s-.09-.46-.19-1.27a8.1,8.1,0,0,1,.6-3.49l.48-1.06A11.121,11.121,0,0,1,73,42.69a6.507,6.507,0,0,1,.79-1,8.71,8.71,0,0,1,.92-1c.33-.32.68-.63,1-.95a9.2,9.2,0,0,1,1.15-.84,9.709,9.709,0,0,1,1.23-.77c.42-.23.83-.5,1.27-.69A21.3,21.3,0,0,1,82,36.34a21.044,21.044,0,0,1,2.67-.71c.87-.18,1.72-.28,2.53-.38a20.141,20.141,0,0,1,2.28-.08c.7-.01,1.35.07,1.92.11a11.588,11.588,0,0,1,1.46.21c.81.14,1.27.26,1.27.26S93.67,35.89,92.88,36.08Z"/>
      </g>
    </g>
  </g>
</svg>
