<?xml version="1.0" encoding="utf-8"?>
<!-- Generator: Adobe Illustrator 27.2.0, SVG Export Plug-In . SVG Version: 6.00 Build 0)  -->
<svg version="1.1" id="Ebene_2_00000139287134803078507780000014600970327985673629_"
	 xmlns="http://www.w3.org/2000/svg" xmlns:xlink="http://www.w3.org/1999/xlink" x="0px" y="0px" viewBox="0 0 128 128"
	 style="enable-background:new 0 0 128 128;" xml:space="preserve">
<style type="text/css">
	.st0{fill:#59BF00;}
	.st1{fill:#59D102;}
	.st2{fill:#8CDD0C;}
	.st3{fill:#333333;}
</style>
<path class="st0" d="M97.1,2.6c-3.5-0.7-17.9,5.6-25.7,17c-4.1,6.1-6.7,18.5-6.6,22.8c0,1.1-0.7,2-1.7,2.4
	c-3.4,1.2-10.9,4.3-15.3,9.7c-4,4.9-5.8,11.6-6.5,14.8c-0.2,1.1-1.2,1.9-2.3,2c-5,0.3-12.8,1.6-19.9,9.2c-9.6,10.2-8.3,16.9-9.9,21
	c-0.5,1.4-2.1,2.9-4,3.9c0.2-0.1,0.4-0.1,0.7-0.2c2.3-0.4,4.4-1.3,5.4-2.6c2.6-3.4,3.4-10,15.1-16.8c8.7-5,16.3-4.1,20.9-2.9
	c1.1,0.3,2.2-0.2,2.7-1.2c1.5-2.8,5.1-8.6,10.2-12c5.6-3.7,13.4-4.5,16.8-4.7c1-0.1,1.9-0.7,2.2-1.7c1.2-4,7.1-14.9,12.6-19.4
	c4.5-3.6,10-6,15-7.4C112.4,17.1,101.3,3.3,97.1,2.6z"/>
<path class="st1" d="M120.6,35.3c-2.1-1.4-18.1,0.1-28.5,8.6c-5.5,4.5-11.5,15.4-12.6,19.4c-0.3,1-1.2,1.7-2.2,1.7
	c-3.4,0.2-11.2,1-16.8,4.7c-5.1,3.4-8.7,9.1-10.2,12c-0.5,1-1.6,1.5-2.7,1.2c-4.7-1.2-12.2-2.1-20.9,2.9
	c-11.7,6.8-12.5,13.4-15.1,16.8c-1,1.3-3.1,2.2-5.4,2.6c-4.1,0.7-5,7.3-0.4,9.2c1.6,0.7,3.1,1.2,4.3,1.7c1.7,0.6,3.4,1.4,5,2.3
	c4.5,2.7,10.5,7.6,20.1,7c10.8-0.7,16.6-9.2,18.6-12.9c0.5-0.9,1.6-1.5,2.6-1.2c3.9,0.8,13.3,2,22-3.4c8.9-5.4,12.1-15.8,13-19.6
	c0.2-0.9,0.9-1.5,1.7-1.8c4.8-1.2,18.7-5.3,25.6-14.9C130.9,54.5,123.7,37.4,120.6,35.3z"/>
<g>
	<path class="st2" d="M107.2,44.9c-9.1,0.8-6.6,8.9-13.3,11.8c-6.4,2.7-7,10-1.6,14.3c6.6,5.1,15.4,0,19.2-4.5
		C120.8,55.6,114.9,44.3,107.2,44.9z"/>
	<path class="st2" d="M67.2,79.8c-2.9,5.8-10,3.3-11,12.3c-0.8,7.5,9.8,13.5,20.5,4.5c4.4-3.7,9.6-12.3,4.9-18.8
		C77.7,72.4,70.3,73.6,67.2,79.8z"/>
	<path class="st2" d="M44.4,92.3c-6.6-2-6.9,4.2-15.1,5.4c-6.2,0.9-9.3,6-6.2,11.4c3.8,6.5,12.9,5.1,17.6,2.7
		C52.2,105.7,51,94.3,44.4,92.3z"/>
</g>
<g>
	<path class="st3" d="M127.5,44.9c-0.9-5.3-3.2-10.1-5.5-11.7c-1.7-1.1-6.2-1.2-11.6-0.1c2.3-12.8-2.3-22-4.5-25.6
		c-2.5-4.1-5.6-6.9-8.1-7.4c-4.8-1-20.1,6-28.2,18.1c-4.4,6.5-7.1,19.6-7,24.2c-4.1,1.5-11.7,4.8-16.4,10.5
		c-4.3,5.2-6.3,12.2-7,15.9c-8.7,0.5-15.7,3.7-21.6,10c-7.8,8.2-8.9,14.6-9.7,18.7c-0.2,1.2-0.4,2.3-0.7,3.1
		c-0.2,0.6-1.2,1.7-2.9,2.6v0.1c-2.2,0.9-3.8,3.1-4.1,5.7c-0.4,3.4,1.4,6.5,4.5,7.9c1.4,0.6,2.9,1.2,4.4,1.7
		c1.5,0.5,3.1,1.3,4.6,2.1c0.7,0.4,1.4,0.8,2.1,1.3c4.1,2.6,9.6,6.1,17.6,6.1c0.6,0,1.2,0,1.8-0.1c12-0.8,18.4-10.1,20.7-14.2
		c4,0.9,14.3,2.1,23.7-3.7c9.5-5.8,13-16.6,14.1-21.1c7.1-1.8,20.1-6.3,26.9-15.9C128.9,61.5,128.5,50.5,127.5,44.9z M21,82
		c4.9-5.2,10.9-8,18.2-8.4c2.3-0.1,4.2-1.8,4.7-4c0.5-2.6,2.2-9.2,6-13.7c4.1-4.9,11.3-7.9,14.2-8.9c2-0.7,3.4-2.7,3.3-4.8
		c-0.1-4.1,2.5-15.9,6.2-21.3c7.2-10.6,20-16,22.8-16c0.1,0,0.2,0,0.2,0c0.6,0.1,2.8,1.7,5.1,5.6c2.4,4,5.8,12.4,3.1,23.8
		c-4.2,1.3-9.7,3.6-14.5,7.5c-5.9,4.9-12.2,16.3-13.4,20.6c-4.1,0.1-12,1.1-18,5c-5.5,3.6-9.2,9.6-11,12.8c-8.1-2-15.5-1-22.7,3.2
		c-5.8,3.4-9.2,6.8-11.3,9.8C14.9,90.1,16.8,86.5,21,82z M116.5,70.1c-6,8.3-17.7,12.3-24.1,13.9c-1.8,0.4-3.2,1.8-3.6,3.6
		c-0.9,3.8-3.9,13.1-11.9,18s-16.7,3.8-20.1,3c-2.2-0.5-4.3,0.5-5.4,2.5c-1.8,3.3-7,11-16.6,11.6c-7.4,0.5-12.4-2.7-16.4-5.3
		c-0.8-0.5-1.5-1-2.2-1.4c-1.8-1-3.6-1.9-5.4-2.5c-1.4-0.5-2.8-1-4.1-1.6c-1.6-0.7-1.6-2.2-1.5-2.7c0.1-0.7,0.5-1.6,1.4-1.8
		c3.1-0.5,5.6-1.8,7-3.6c0.8-1,1.4-2.2,2-3.4c1.8-3.6,4.1-8,12.4-12.7c8-4.6,14.7-3.7,19-2.6c2.2,0.6,4.5-0.5,5.6-2.4
		c1.2-2.3,4.6-7.9,9.4-11.1c5.1-3.4,12.6-4.1,15.6-4.3c2.1-0.1,3.9-1.5,4.5-3.6c1.1-3.8,6.9-14.1,11.8-18.1c9.1-7.4,22.9-9,25.5-8.4
		C121.3,39.4,127.8,54.5,116.5,70.1z"/>
	<path class="st3" d="M107.1,42.9c-6.3,0.5-8.1,4.2-9.7,7.1c-1.1,2.1-2,3.8-4.2,4.8c-3.6,1.5-6,4.4-6.4,7.9
		c-0.5,3.6,1.1,7.2,4.3,9.7c2.3,1.8,4.9,2.6,7.4,2.6c5.6,0,11.3-3.6,14.6-7.4c6.3-7.3,6-14.6,3.8-19.1
		C114.8,44.8,111.1,42.6,107.1,42.9z M110,65.1c-2.9,3.3-10.6,8.8-16.4,4.3c-2.1-1.6-3.1-3.9-2.8-6.1c0.3-2.1,1.7-3.8,4-4.8
		c3.6-1.5,5.1-4.4,6.3-6.7c1.4-2.7,2.4-4.6,6.4-5c0.1,0,0.3,0,0.4,0c2.2,0,4.2,1.4,5.4,3.6C114.9,53.8,114.9,59.3,110,65.1z"/>
	<path class="st3" d="M74.4,72.4c-3.8,0.3-7.1,2.7-9,6.5c-0.9,1.8-2.4,2.6-4.2,3.5c-2.8,1.4-6.3,3.2-7,9.5c-0.5,4,1.6,7.8,5.5,9.8
		c1.7,0.9,3.7,1.4,6.1,1.4c3.6,0,7.9-1.3,12.2-5c5.4-4.5,10.5-14.2,5.2-21.5C81,73.7,77.8,72.1,74.4,72.4z M75.4,95.1
		c-5.6,4.7-10.8,4.6-13.8,3c-2.3-1.2-3.6-3.5-3.4-5.8c0.5-4.1,2.3-5,4.8-6.3c2-1,4.5-2.2,6-5.3c1.2-2.5,3.4-4.1,5.7-4.3
		c0.2,0,0.3,0,0.5,0c1.8,0,3.5,0.9,4.7,2.6C84.1,84.7,78.6,92.3,75.4,95.1z"/>
	<path class="st3" d="M45,90.3c-4.6-1.4-7.1,0.5-9.3,2.2c-1.7,1.3-3.5,2.7-6.7,3.1c-3.8,0.5-6.9,2.5-8.3,5.4
		c-1.3,2.7-1.1,5.9,0.6,8.9c2.4,4.2,6.7,5.7,11,5.7c3.4,0,6.7-0.9,9.3-2.3c7.8-4.1,10.1-10.3,9.7-14.9C51,94.6,48.5,91.4,45,90.3z
		 M39.8,109.9L39.8,109.9c-3.5,1.8-11.7,3.7-14.9-1.9c-1.1-1.8-1.2-3.7-0.5-5.2c0.8-1.7,2.7-2.9,5.2-3.2c4.3-0.6,6.7-2.4,8.6-3.9
		c1.5-1.1,2.4-1.8,3.8-1.8c0.5,0,1.1,0.1,1.8,0.3c1.9,0.6,3.3,2.4,3.5,4.8C47.6,102.2,45.8,106.8,39.8,109.9z"/>
</g>
</svg>
