<?xml version="1.0" encoding="UTF-8"?>
<svg id="Ebene_1" data-name="Ebene 1" xmlns="http://www.w3.org/2000/svg" viewBox="0 0 128 128">
  <defs>
    <style>
      .cls-1 {
        fill: #fff;
      }

      .cls-2 {
        fill: #ffd7fe;
      }

      .cls-3 {
        fill: #333;
      }
    </style>
  </defs>
  <path class="cls-3" d="m86.9763,56.472l.0048-.0088-.9603-1.2787c-.0211-.0281-.0412-.0539-.0622-.0818l-2.3246-3.093-.0304.0566c-1.4538-1.8212-2.7012-3.2888-3.6037-4.3177-1.5186-1.7312-2.368-3.8971-2.3908-6.0993l-.2208-21.3177c2.1037-.8646,6.3091-3.5104,6.3091-10.8365,0-9.4949-8.0623-9.4949-19.2212-9.4949h-1.0711c-11.0896,0-19.1024,0-19.1024,9.4949,0,7.3271,4.2064,9.9729,6.3091,10.8365l-.2208,21.3168c-.0228,2.2032-.8722,4.3691-2.3908,6.1003-2.4809,2.8288-6.269,7.4532-10.2789,13.4425l-.0098.0065-.2841.4279c-.282.4245-.5693.8766-.8545,1.3171l-.1612.2472.0005.0005c-7.9483,12.3392-16.9121,30.8132-16.9121,51.4253,0,3.8539.9662,6.6047,3.0392,8.6568,4.8211,4.7715,14.997,4.7597,35.224,4.7215,1.9839-.0029,4.0618-.0049,6.2526-.0059,2.169-.001,4.242.0029,6.215.0059,1.6275.0029,3.1887.0059,4.6885.0059,17.1561,0,26.1074-.3386,30.5415-4.7274,2.073-2.0521,3.0392-4.8029,3.0392-8.6568,0-23.6447-11.4806-44.4614-21.5237-58.1434Zm-35.1509-5.426c2.1869-2.4935,3.4466-5.6061,3.6042-8.8148h6.3975c1.1197,0,2.0275-.8999,2.0275-2.0099s-.9078-2.0099-2.0275-2.0099h-6.3314l.1025-9.9101h6.2289c1.1197,0,2.0275-.8999,2.0275-2.0099s-.9078-2.0099-2.0275-2.0099h-6.1873l.0436-4.2131c.0198-1.9137-1.1899-3.6547-3.0115-4.3319-2.1591-.8028-3.3005-2.9609-3.3005-6.2416,0-3.795,1.0385-4.4702,14.0338-4.4702h1.0711c12.433,0,14.1526.5427,14.1526,4.4702,0,3.2808-1.1414,5.4389-3.3025,6.2426-1.8205.6772-3.0293,2.4181-3.0095,4.3299l.2237,21.6337c.0356,3.3946,1.3266,6.7137,3.6342,9.3448,1.1202,1.2773,2.7893,3.2478,4.7397,5.7735-.0351.0483-.0678.0949-.1048.1443-.0285.038-.057.0759-.0867.1145-.093.121-.1924.2449-.2967.3705-.0225.027-.0429.0533-.0658.0805-.1286.1522-.2658.3069-.4111.4626-.0273.0293-.0575.0587-.0854.0881-.1182.124-.2417.2484-.3708.3725-.0493.0475-.1002.0946-.1512.1419-.1209.1124-.2472.2239-.3772.3347-.052.0443-.1029.0889-.1564.1328-.3654.3-.7659.5895-1.202.8588-.0645.0398-.132.0777-.1981.1166-.1604.0943-.3256.1857-.4955.2736-.0771.0399-.1545.0795-.2336.118-.1878.0913-.3822.1772-.5812.2593-.0602.0248-.1177.0519-.179.0758-.2601.1015-.5298.1942-.8088.2771-.064.019-.1317.034-.1966.052-.22.0608-.4451.1158-.6766.1635-.0981.0202-.1983.0381-.2985.0558-.2179.0385-.4415.0699-.6693.0957-.0986.0112-.1958.0242-.2963.0329-.3264.0282-.6598.0472-1.0064.0472-3.8312,0-6.0725-1.636-8.4454-3.3671-2.3106-1.686-4.929-3.5968-8.7899-3.5968-.4971,0-1.0056.0386-1.5179.094-.1658.0177-.3318.0406-.4988.0635-.3595.0499-.7203.1112-1.0833.1835-.1801.0356-.3586.0661-.5391.1067-.4588.104-.9181.2228-1.3767.3555-.2767.0798-.5502.1698-.8255.2587-.2134.069-.4257.1384-.6377.2122-.1672.0581-.3371.1066-.5033.1675,1.5651-1.9932,2.959-3.6459,4.0767-4.9197Zm50.0537,68.6707c-3.3332,3.3004-13.9882,3.2827-31.6393,3.2523-1.8077-.0029-3.6965-.0059-5.6695-.0059h-.5544c-2.1819.002-4.2727.0029-6.2606.0059-17.6561.0285-28.3012.0461-31.6344-3.2523-.7227-.7154-1.5523-1.9412-1.5523-5.1013,0-19.9979,9.0665-38.0381,16.8023-49.7885.1341-.0859.2683-.1718.4056-.2579.0579-.0363.1148-.0725.1734-.1089.2036-.1264.4117-.2526.6215-.3786.0648-.0389.1285-.0778.194-.1167.1766-.105.3569-.2091.5372-.3132.1116-.0644.2219-.1289.335-.193.1155-.0655.2333-.1299.3499-.1949.1856-.1031.3707-.2065.5596-.3081.028-.0151.0564-.0297.0845-.0448,3.3951-1.8187,7.2611-3.3621,10.0992-3.3621,2.1967,0,3.7797,1.1551,5.7844,2.6183,2.6531,1.9363,5.9556,4.3456,11.4509,4.3456.399,0,.7888-.0186,1.1741-.0461.1138-.0081.2257-.0196.3383-.0301.283-.0262.562-.0593.8373-.0996.1078-.0158.2161-.0302.3227-.048.3647-.0611.7247-.1305,1.0753-.2149.0112-.0027.0219-.0063.033-.009.3417-.0831.6747-.1793,1.0028-.2829.0996-.0314.1972-.0653.2954-.0986.2495-.0843.4949-.1742.7362-.2696.0916-.0363.184-.0712.2744-.109.3183-.1329.6313-.2724.9348-.4232.0116-.0058.0225-.0121.034-.018.2928-.1463.5769-.3023.8558-.4638.0832-.0482.1646-.098.2466-.1475.2163-.1305.4282-.2649.6357-.4035.0734-.0491.1478-.0972.2201-.1472.2701-.1869.5346-.3786.7891-.5779.0115-.0091.0223-.0186.0338-.0277.2427-.1909.4764-.3881.7045-.5888.0662-.0583.1307-.1173.1957-.1763.1799-.1632.3548-.3288.5252-.497.0577-.0569.1163-.1131.1728-.1705.2122-.2155.4193-.4335.6161-.6554,9.2988,13.0574,19.4113,32.1847,19.4113,53.6074,0,3.1601-.8296,4.3858-1.5523,5.1013Z"/>
  <path class="cls-1" d="m48.8896,55.5859c.2753-.0889.5488-.1789.8255-.2587.4585-.1327.9179-.2515,1.3767-.3555.1805-.0406.359-.0711.5391-.1067.3631-.0723.7239-.1336,1.0833-.1835.1669-.0229.3329-.0459.4988-.0635.5124-.0554,1.0208-.094,1.5179-.094,3.8609,0,6.4793,1.9108,8.7899,3.5968,2.373,1.7312,4.6142,3.3671,8.4454,3.3671.3466,0,.68-.019,1.0064-.0472.1005-.0086.1977-.0217.2963-.0329.2279-.0259.4515-.0572.6693-.0957.1002-.0177.2004-.0356.2985-.0558.2315-.0477.4566-.1027.6766-.1635.065-.018.1327-.0329.1966-.052.279-.0829.5487-.1756.8088-.2771.0613-.0239.1188-.051.179-.0758.199-.0821.3934-.1679.5812-.2593.0791-.0385.1565-.078.2336-.118.1699-.088.335-.1793.4955-.2736.0661-.0389.1336-.0768.1981-.1166.4361-.2693.8366-.5588,1.202-.8588.0535-.0439.1044-.0884.1564-.1328.1301-.1108.2563-.2223.3772-.3347.0509-.0473.1018-.0945.1512-.1419.1291-.1241.2526-.2485.3708-.3725.0279-.0294.058-.0588.0854-.0881.1453-.1557.2826-.3104.4111-.4626.023-.0272.0434-.0534.0658-.0805.1043-.1256.2037-.2495.2967-.3705.0296-.0385.0582-.0765.0867-.1145.037-.0493.0696-.096.1048-.1443-1.9504-2.5257-3.6194-4.4962-4.7397-5.7735-2.3076-2.6311-3.5985-5.9502-3.6342-9.3448l-.2237-21.6337c-.0198-1.9117,1.189-3.6527,3.0095-4.3299,2.1611-.8038,3.3025-2.9618,3.3025-6.2426,0-3.9275-1.7196-4.4702-14.1526-4.4702h-1.0711c-12.9953,0-14.0338.6752-14.0338,4.4702,0,3.2808,1.1414,5.4389,3.3005,6.2416,1.8215.6772,3.0313,2.4181,3.0115,4.3319l-.0436,4.2131h6.1873c1.1197,0,2.0275.8999,2.0275,2.0099s-.9078,2.0099-2.0275,2.0099h-6.2289l-.1025,9.9101h6.3314c1.1197,0,2.0275.8999,2.0275,2.0099s-.9078,2.0099-2.0275,2.0099h-6.3975c-.1576,3.2088-1.4173,6.3214-3.6042,8.8148-1.1177,1.2738-2.5115,2.9265-4.0767,4.9197.1662-.0609.336-.1094.5033-.1675.212-.0738.4243-.1432.6377-.2122Z"/>
  <path class="cls-2" d="m71.2693,85.7979c-1.5394,0-2.7382.4966-3.5965,1.4917s-1.2879,2.4211-1.2879,4.2779v3.4496c0,1.8568.4296,3.2827,1.2879,4.2779s2.0572,1.4927,3.5965,1.4927c1.5384,0,2.7373-.4976,3.5956-1.4927s1.2879-2.4211,1.2879-4.2779v-3.4496c0-1.8568-.4296-3.2827-1.2879-4.2779s-2.0572-1.4917-3.5956-1.4917Z"/>
  <path class="cls-2" d="m84.0201,61.008c-.1968.2219-.4038.4399-.6161.6554-.0566.0574-.1151.1136-.1728.1705-.1704.1682-.3454.3339-.5252.497-.065.059-.1295.1181-.1957.1763-.2282.2007-.4619.3978-.7045.5888-.0115.0091-.0223.0186-.0338.0277-.2545.1993-.519.391-.7891.5779-.0723.0501-.1466.0981-.2201.1472-.2075.1387-.4194.2731-.6357.4035-.082.0494-.1634.0992-.2466.1475-.2789.1614-.5629.3174-.8558.4638-.0115.0058-.0224.0122-.034.018-.3035.1508-.6165.2902-.9348.4232-.0904.0378-.1828.0727-.2744.109-.2414.0954-.4868.1853-.7362.2696-.0983.0332-.1959.0672-.2954.0986-.3282.1036-.6612.1999-1.0028.2829-.0111.0027-.0218.0063-.033.009-.3506.0844-.7106.1538-1.0753.2149-.1065.0178-.2149.0323-.3227.048-.2753.0403-.5543.0734-.8373.0996-.1126.0104-.2245.022-.3383.0301-.3853.0275-.7751.0461-1.1741.0461-5.4953,0-8.7978-2.4093-11.4509-4.3456-2.0047-1.4633-3.5876-2.6183-5.7844-2.6183-2.8381,0-6.7041,1.5434-10.0992,3.3621-.0281.0151-.0565.0297-.0845.0448-.1889.1016-.374.205-.5596.3081-.1166.065-.2344.1294-.3499.1949-.1132.0641-.2234.1286-.335.193-.1802.1041-.3606.2082-.5372.3132-.0655.0389-.1292.0778-.194.1167-.2097.126-.4179.2522-.6215.3786-.0587.0364-.1155.0726-.1734.1089-.1373.0861-.2715.172-.4056.2579-7.7358,11.7504-16.8023,29.7906-16.8023,49.7885,0,3.1601.8296,4.3858,1.5523,5.1013,3.3332,3.2984,13.9783,3.2808,31.6344,3.2523,1.9879-.0029,4.0787-.0039,6.2606-.0059h.5544c1.973,0,3.8619.0029,5.6695.0059,17.6511.0304,28.3061.0481,31.6393-3.2523.7227-.7154,1.5523-1.9412,1.5523-5.1013,0-21.4227-10.1125-40.55-19.4113-53.6074Zm-26.935,39.7747c-.4009.9294-.987,1.7263-1.7562,2.3897-.7692.6644-1.7225,1.1796-2.86,1.5437-1.1375.3651-2.4314.5486-3.8807.5486-2.0522,0-3.7916-.3494-5.2191-1.0462-1.4275-.6978-2.6422-1.5997-3.646-2.7067l3.3451-3.3534c1.5839,1.7528,3.5352,2.6291,5.8547,2.6291,1.2483,0,2.174-.2522,2.7769-.7557.6019-.5035.9028-1.1728.9028-2.006,0-.635-.1792-1.1659-.5356-1.5928s-1.082-.7174-2.174-.8715l-2.3086-.2954c-2.4749-.3101-4.2875-1.052-5.4359-2.2248-1.1494-1.1728-1.7225-2.7332-1.7225-4.6812,0-1.0413.2-1.9932.6019-2.8558.4009-.8636.9751-1.6046,1.7225-2.2248.7474-.6193,1.6612-1.1011,2.7432-1.4446s2.3136-.5142,3.6965-.5142c1.7621,0,3.3124.2768,4.6499.8303,1.3384.5535,2.4868,1.3622,3.4461,2.425l-3.3788,3.3878c-.5574-.634-1.2325-1.1541-2.0245-1.5594-.791-.4043-1.7889-.6065-2.9937-.6065-1.1375,0-1.9849.1963-2.5422.5908-.5574.3935-.8365.9402-.8365,1.6409,0,.7881.2178,1.3573.6524,1.7066.4346.3504,1.1424.6016,2.1245.7547l2.3076.3651c2.4096.3769,4.1935,1.1129,5.3528,2.2081s1.7394,2.6507,1.7394,4.6645c0,1.107-.2,2.1247-.6019,3.0541Zm23.7176-2.3004c-.49,1.4927-1.182,2.742-2.074,3.7479s-1.973,1.7626-3.2441,2.2709c-1.2721.5084-2.6769.7635-4.2153.7635-1.5394,0-2.9442-.2552-4.2153-.7635s-2.3532-1.265-3.2451-2.2709-1.5839-2.2552-2.074-3.7479c-.491-1.4927-.7355-3.2219-.7355-5.1896s.2445-3.6979.7355-5.1906c.49-1.4917,1.182-2.741,2.074-3.7469s1.974-1.7636,3.2451-2.2719,2.6759-.7625,4.2153-.7625c1.5384,0,2.9432.2542,4.2153.7625,1.2711.5084,2.3522,1.266,3.2441,2.2719s1.5839,2.2552,2.074,3.7469c.491,1.4927.7365,3.2229.7365,5.1906s-.2455,3.6969-.7365,5.1896Zm15.8167,16.8338h-13.521v-3.7175l5.8844-4.9923c.5296-.4524.9761-.8636,1.3414-1.2346s.6613-.7321.89-1.0854c.2277-.3523.392-.7007.492-1.0442s.1505-.7145.1505-1.1129v-.3798c0-.3612-.0733-.6781-.2188-.95-.1465-.2709-.3376-.4966-.5742-.6781-.2376-.1806-.5069-.316-.8078-.4073-.3009-.0903-.6068-.1354-.9167-.1354-.4564,0-.8534.0726-1.1909.2169-.3376.1452-.6296.3396-.8761.5839s-.4514.525-.6158.8411c-.1643.317-.292.6556-.3831,1.0177l-3.5857-1.3573c.2188-.6507.5207-1.2699.9038-1.8588.3831-.5869.8623-1.1031,1.4364-1.5467.5752-.4426,1.2543-.791,2.0393-1.0442.7841-.2532,1.6691-.3798,2.6551-.3798,1.0395,0,1.9611.1452,2.764.4338.8029.2895,1.483.688,2.0393,1.1944s.9811,1.108,1.2731,1.8038c.2911.6968.4376,1.4525.4376,2.266s-.1366,1.5555-.4108,2.2248c-.2732.6693-.6425,1.2984-1.1078,1.8862-.4663.5879-1.0088,1.1443-1.6295,1.6684-.6197.525-1.2681,1.0579-1.9433,1.6006l-3.5579,2.7675h9.0325v3.4192Z"/>
  <path class="cls-3" d="m50.5949,90.856l-2.3076-.3651c-.982-.1531-1.6899-.4043-2.1245-.7547-.4346-.3494-.6524-.9186-.6524-1.7066,0-.7007.2792-1.2473.8365-1.6409.5574-.3945,1.4048-.5908,2.5422-.5908,1.2048,0,2.2027.2022,2.9937.6065.792.4053,1.4671.9254,2.0245,1.5594l3.3788-3.3878c-.9593-1.0628-2.1076-1.8715-3.4461-2.425-1.3374-.5535-2.8877-.8303-4.6499-.8303-1.383,0-2.6145.1708-3.6965.5142s-1.9958.8253-2.7432,1.4446c-.7474.6202-1.3216,1.3612-1.7225,2.2248-.4019.8626-.6019,1.8146-.6019,2.8558,0,1.9481.5732,3.5085,1.7225,4.6812,1.1484,1.1728,2.961,1.9147,5.4359,2.2248l2.3086.2954c1.0919.1541,1.8176.4446,2.174.8715s.5356.9578.5356,1.5928c0,.8332-.3009,1.5025-.9028,2.006-.6029.5035-1.5285.7557-2.7769.7557-2.3195,0-4.2707-.8764-5.8547-2.6291l-3.3451,3.3534c1.0038,1.107,2.2185,2.0089,3.646,2.7067,1.4275.6968,3.1669,1.0462,5.2191,1.0462,1.4493,0,2.7432-.1835,3.8807-.5486,1.1375-.3641,2.0908-.8793,2.86-1.5437.7692-.6634,1.3553-1.4603,1.7562-2.3897.4019-.9294.6019-1.9471.6019-3.0541,0-2.0138-.5801-3.5693-1.7394-4.6645s-2.9432-1.8313-5.3528-2.2081Z"/>
  <path class="cls-3" d="m78.7287,84.3553c-.892-1.0059-1.973-1.7636-3.2441-2.2719-1.2721-.5084-2.6769-.7625-4.2153-.7625-1.5394,0-2.9442.2542-4.2153.7625s-2.3532,1.266-3.2451,2.2719-1.5839,2.2552-2.074,3.7469c-.491,1.4927-.7355,3.2229-.7355,5.1906s.2445,3.6969.7355,5.1896c.49,1.4927,1.182,2.742,2.074,3.7479s1.974,1.7626,3.2451,2.2709,2.6759.7635,4.2153.7635c1.5384,0,2.9432-.2552,4.2153-.7635,1.2711-.5084,2.3522-1.265,3.2441-2.2709s1.5839-2.2552,2.074-3.7479c.491-1.4927.7365-3.2219.7365-5.1896s-.2455-3.6979-.7365-5.1906c-.49-1.4917-1.182-2.741-2.074-3.7469Zm-2.5759,10.6618c0,1.8568-.4296,3.2827-1.2879,4.2779s-2.0572,1.4927-3.5956,1.4927c-1.5394,0-2.7382-.4976-3.5965-1.4927s-1.2879-2.4211-1.2879-4.2779v-3.4496c0-1.8568.4296-3.2827,1.2879-4.2779s2.0572-1.4917,3.5965-1.4917c1.5384,0,2.7373.4966,3.5956,1.4917s1.2879,2.4211,1.2879,4.2779v3.4496Z"/>
  <path class="cls-3" d="m91.1449,109.1295c.6752-.5427,1.3236-1.0756,1.9433-1.6006.6207-.5241,1.1632-1.0805,1.6295-1.6684.4653-.5879.8345-1.2169,1.1078-1.8862.2742-.6693.4108-1.4112.4108-2.2248s-.1465-1.5692-.4376-2.266c-.292-.6958-.7167-1.2974-1.2731-1.8038s-1.2365-.9048-2.0393-1.1944c-.8029-.2885-1.7245-.4338-2.764-.4338-.986,0-1.871.1266-2.6551.3798-.785.2532-1.4642.6016-2.0393,1.0442-.5742.4436-1.0533.9598-1.4364,1.5467-.3831.5888-.6851,1.2081-.9038,1.8588l3.5857,1.3573c.0911-.3621.2188-.7007.3831-1.0177.1643-.316.3693-.5967.6158-.8411s.5385-.4387.8761-.5839c.3376-.1443.7346-.2169,1.1909-.2169.3099,0,.6158.0451.9167.1354.3009.0913.5702.2267.8078.4073.2366.1816.4277.4073.5742.6781.1455.2718.2188.5888.2188.95v.3798c0,.3984-.0505.7694-.1505,1.1129s-.2643.6919-.492,1.0442c-.2287.3533-.5247.7145-.89,1.0854s-.8118.7822-1.3414,1.2346l-5.8844,4.9923v3.7175h13.521v-3.4192h-9.0325l3.5579-2.7675Z"/>
</svg>