<svg xmlns="http://www.w3.org/2000/svg" viewBox="0 0 120.769 120.769">
  <defs>
    <style>
      .cls-1 {
        fill: #951b81;
      }

      .cls-2 {
        fill: #fff;
      }

      .cls-3 {
        isolation: isolate;
      }
    </style>
  </defs>
  <title>sulfit</title>
  <g id="Ebene_2" data-name="Ebene 2">
    <g id="Ebene_1-2" data-name="Ebene 1">
      <circle class="cls-1" cx="60.384" cy="60.384" r="60.38"/>
      <path class="cls-2" d="M67.863,86.541a12.535,12.535,0,0,0-8.636,3.445L45.8,78.845A12.557,12.557,0,0,0,46.783,74v-.04a12.506,12.506,0,0,0-1.889-6.607l5.266-5.13a6.132,6.132,0,0,0,8.893-5.483v-.01a6.1,6.1,0,0,0-1.077-3.467l4.289-5.808a12.554,12.554,0,1,0-3.258-2.321l-4.244,5.748a6.115,6.115,0,0,0-1.84-.282h-.01a6.106,6.106,0,0,0-3.392,1.024l-7.762-7.469a12.529,12.529,0,0,0,2.854-7.965v-.04a12.609,12.609,0,1,0-5.867,10.656l8.335,8.02a6.091,6.091,0,0,0,.285,4.534l-5.089,4.958A12.6,12.6,0,1,0,43.653,82.26L56.78,93.154a12.591,12.591,0,1,0,11.083-6.613Z"/>
      <g class="cls-3">
        <path class="cls-2" d="M70.147,71.913a1.888,1.888,0,0,0-.724-1.59,8.757,8.757,0,0,0-2.617-1.128A12.631,12.631,0,0,1,63.8,67.927a4.014,4.014,0,0,1-2.138-3.5A3.809,3.809,0,0,1,63.2,61.31a6.239,6.239,0,0,1,4-1.225,6.76,6.76,0,0,1,2.911.6A4.781,4.781,0,0,1,72.124,62.4a4.4,4.4,0,0,1,.73,2.466H70.147a2.451,2.451,0,0,0-.767-1.917,3.169,3.169,0,0,0-2.2-.694,3.306,3.306,0,0,0-2.067.57,1.894,1.894,0,0,0-.736,1.589,1.714,1.714,0,0,0,.8,1.435A9.165,9.165,0,0,0,67.8,66.966,12.1,12.1,0,0,1,70.727,68.2a4.671,4.671,0,0,1,1.622,1.589,4.144,4.144,0,0,1,.516,2.1,3.721,3.721,0,0,1-1.5,3.11A6.5,6.5,0,0,1,67.3,76.156a7.624,7.624,0,0,1-3.121-.629,5.227,5.227,0,0,1-2.212-1.735,4.316,4.316,0,0,1-.79-2.578H63.9a2.533,2.533,0,0,0,.881,2.063,3.858,3.858,0,0,0,2.525.73,3.352,3.352,0,0,0,2.132-.574A1.857,1.857,0,0,0,70.147,71.913Z"/>
        <path class="cls-2" d="M87.732,68.529a9.576,9.576,0,0,1-.8,4.033,6.008,6.008,0,0,1-2.271,2.664,6.66,6.66,0,0,1-6.789,0,6.1,6.1,0,0,1-2.3-2.647,9.274,9.274,0,0,1-.822-3.964v-.881a9.506,9.506,0,0,1,.811-4.039,6.088,6.088,0,0,1,2.288-2.68,6.227,6.227,0,0,1,3.389-.93,6.3,6.3,0,0,1,3.39.918,6.033,6.033,0,0,1,2.282,2.643,9.5,9.5,0,0,1,.816,4.013Zm-2.718-.817a6.839,6.839,0,0,0-.982-3.985,3.468,3.468,0,0,0-5.543,0,6.7,6.7,0,0,0-1.016,3.9v.9a6.782,6.782,0,0,0,1,3.985,3.231,3.231,0,0,0,2.787,1.407,3.2,3.2,0,0,0,2.778-1.375,6.941,6.941,0,0,0,.971-4.017Z"/>
      </g>
      <g class="cls-3">
        <path class="cls-2" d="M100.64,81.441H90.124V79.647l5.21-5.683a12.971,12.971,0,0,0,1.6-2.1,3.406,3.406,0,0,0,.479-1.693,2.568,2.568,0,0,0-.629-1.8A2.182,2.182,0,0,0,95.1,67.68a2.508,2.508,0,0,0-1.965.774,3.036,3.036,0,0,0-.7,2.116h-2.61A5.118,5.118,0,0,1,90.472,68a4.48,4.48,0,0,1,1.859-1.778,5.911,5.911,0,0,1,2.788-.634,5.284,5.284,0,0,1,3.593,1.145,3.969,3.969,0,0,1,1.316,3.163,5.372,5.372,0,0,1-.661,2.454A13.94,13.94,0,0,1,97.2,75.264l-3.824,4.093h7.261Z"/>
      </g>
    </g>
  </g>
</svg>
