<?xml version="1.0" encoding="UTF-8"?>
<svg id="Ebene_1" data-name="Ebene 1" xmlns="http://www.w3.org/2000/svg" viewBox="0 0 128 128">
  <defs>
    <style>
      .cls-1 {
        fill: none;
      }

      .cls-2 {
        fill: #eaccad;
      }

      .cls-3 {
        fill: #c17e40;
      }

      .cls-4 {
        fill: #444;
      }
    </style>
  </defs>
  <path class="cls-1" d="m122.733,36.708c0,.02-.001.04-.002.06,0-.02.001-.04.002-.06Z"/>
  <path class="cls-1" d="m122.655,38.488c-.001.025-.003.051-.005.076.002-.025.003-.051.005-.076Z"/>
  <path class="cls-1" d="m122.748,35.095c0,.005,0,.01,0,.015,0-.005,0-.01,0-.015Z"/>
  <path class="cls-1" d="m122.513,40.414c-.002.024-.004.048-.007.072.002-.024.004-.048.007-.072Z"/>
  <path class="cls-1" d="m120.871,51.646c-.013.069-.026.137-.04.206.013-.069.026-.137.04-.206Z"/>
  <path class="cls-1" d="m122.304,42.488s0,.006-.001.009c0-.003,0-.006.001-.009Z"/>
  <path class="cls-1" d="m120.358,54.17c-.019.089-.038.177-.057.266.019-.089.038-.177.057-.266Z"/>
  <path class="cls-1" d="m121.317,49.24c-.006.033-.011.065-.017.099.006-.033.011-.065.017-.099Z"/>
  <path class="cls-1" d="m119.777,56.791c-.022.094-.044.189-.066.283.022-.094.044-.189.066-.283Z"/>
  <path class="cls-1" d="m119.13,59.492c-.021.084-.043.169-.064.253.021-.084.043-.169.064-.253Z"/>
  <path class="cls-1" d="m118.416,62.263c-.013.047-.026.095-.039.143.013-.047.026-.095.039-.143Z"/>
  <g>
    <path class="cls-1" d="m65.761,107.757c-.254.484-.519.956-.786,1.426.267-.471.532-.942.786-1.426h0Z"/>
    <path class="cls-1" d="m72.074,85.421c.068-.808.132-1.618.169-2.438-.039.819-.1,1.63-.169,2.438Z"/>
    <path class="cls-1" d="m117.088,28.055c-.152.011-.303.02-.465.035.162-.015.313-.025.465-.035h0Z"/>
    <path class="cls-1" d="m71.254,91.59h0c.341-1.856.608-3.751.785-5.685-.179,1.932-.443,3.829-.785,5.685Z"/>
    <path class="cls-1" d="m59.301,117.132c.204-.227.407-.455.607-.687-.2.233-.404.461-.607.687Z"/>
    <path class="cls-1" d="m62.59,112.987c.266-.38.52-.773.776-1.165-.256.392-.511.785-.776,1.165Z"/>
    <path class="cls-1" d="m60.779,115.389c.203-.252.41-.499.609-.758-.199.259-.406.505-.609.758Z"/>
    <path class="cls-1" d="m54.935,30.828c-7.935-17.804-15.286-25.812-17.97-25.812-2.806,0-10.496,7.825-18.806,25.222-8.233,17.237-13.148,35.925-13.148,49.99,0,23.174,14.633,42.753,31.954,42.753,16.445,0,30.339-19.702,30.339-43.023,0-13.388-4.624-31.754-12.369-49.13Z"/>
    <path class="cls-1" d="m63.833,111.102c.265-.421.524-.85.778-1.283-.254.434-.514.862-.778,1.283Z"/>
    <path class="cls-1" d="m108.366,89.991c-.047.094-.093.19-.14.284.047-.094.093-.189.14-.284Z"/>
    <path class="cls-1" d="m109.62,87.386c-.022.047-.043.095-.066.142.022-.047.043-.095.066-.142Z"/>
    <path class="cls-1" d="m105.614,95.186c-.069.123-.139.245-.209.367.07-.122.139-.245.209-.367Z"/>
    <path class="cls-1" d="m104.132,97.71c-.071.116-.142.231-.213.346.071-.115.142-.23.213-.346Z"/>
    <path class="cls-1" d="m107.028,92.604c-.062.117-.123.234-.185.35.062-.116.124-.234.185-.35Z"/>
    <path class="cls-1" d="m102.582,100.162c-.062.095-.126.188-.188.282.063-.094.126-.188.188-.282Z"/>
    <path class="cls-1" d="m58.291,118.213c-.175.181-.348.364-.526.54.178-.176.351-.36.526-.54Z"/>
    <path class="cls-1" d="m100.968,102.521c-.043.06-.086.118-.129.178.043-.06.086-.118.129-.178Z"/>
    <path class="cls-1" d="m116.197,70.475c-.036.112-.071.223-.108.335.036-.112.072-.223.108-.335Z"/>
    <path class="cls-1" d="m110.826,84.719c-.018.04-.036.081-.054.121.018-.04.036-.081.054-.121Z"/>
    <path class="cls-1" d="m114.252,76.147c-.05.138-.101.275-.151.413.051-.138.101-.275.151-.413Z"/>
    <path class="cls-1" d="m117.059,67.723c-.021.069-.041.137-.062.206.021-.069.041-.137.062-.206Z"/>
    <path class="cls-1" d="m115.258,73.3c-.044.13-.089.259-.133.389.045-.13.089-.259.133-.389Z"/>
    <path class="cls-1" d="m112.034,81.875c-.04.097-.081.193-.121.29.04-.097.081-.193.121-.29Z"/>
    <path class="cls-1" d="m113.176,79.012c-.049.127-.099.254-.149.381.05-.127.1-.254.149-.381Z"/>
    <path class="cls-2" d="m100.968,102.521c.483-.678.958-1.372,1.426-2.077.063-.094.126-.188.188-.282.453-.689.899-1.392,1.337-2.105.071-.115.142-.231.213-.346.432-.709.856-1.428,1.273-2.157.07-.122.139-.245.209-.367.416-.735.826-1.478,1.228-2.231.062-.116.124-.234.185-.35.407-.768.807-1.544,1.199-2.329.047-.094.093-.19.14-.284.404-.814.801-1.635,1.188-2.463.022-.047.043-.095.066-.142.392-.842.777-1.691,1.152-2.546.018-.04.036-.081.054-.121.371-.846.732-1.698,1.087-2.554.04-.097.081-.193.121-.29.339-.824.67-1.652.994-2.482.05-.127.1-.254.149-.381.316-.815.624-1.633.924-2.452.051-.138.101-.275.151-.413.298-.819.589-1.639.872-2.458.045-.13.089-.259.133-.389.285-.83.562-1.661.832-2.489.036-.112.072-.223.108-.335.274-.851.542-1.7.8-2.547.021-.069.041-.137.062-.206.544-1.792,1.051-3.57,1.521-5.324.013-.048.026-.095.039-.143.226-.848.443-1.69.652-2.526.021-.085.043-.169.064-.254.203-.816.397-1.624.583-2.425.022-.095.044-.19.066-.284.183-.796.358-1.584.525-2.362.019-.089.038-.178.057-.267.167-.785.325-1.562.475-2.326.014-.069.027-.137.04-.206.152-.784.296-1.557.43-2.316.006-.033.011-.066.017-.099.421-2.4.752-4.67.988-6.765,0-.003,0-.006.001-.009.078-.689.145-1.358.202-2.008.002-.024.004-.048.007-.072.056-.639.102-1.259.138-1.857.002-.025.003-.051.005-.076.035-.597.061-1.172.077-1.725,0-.02.001-.04.002-.061.015-.558.02-1.094.015-1.603,0-.005,0-.01,0-.015-.023-2.081-.218-3.743-.587-4.882-4.066,2.907-11.036,12.027-20.201,30.43-4.044,8.123-10.375,15.076-16.498,21.801-4.523,4.966-8.794,9.658-12.157,14.729-2.724,4.108-5.344,7.653-7.757,10.679-.254.484-.519.956-.786,1.426-.121.213-.241.426-.364.636-.254.434-.513.862-.778,1.283-.153.243-.31.481-.466.72-.256.392-.511.785-.776,1.165-.391.561-.792,1.11-1.202,1.645-.199.259-.406.505-.609.758-.287.357-.575.711-.871,1.055-.2.233-.403.461-.607.687-.331.369-.668.729-1.01,1.081-.175.181-.348.364-.526.54-.525.521-1.057,1.029-1.603,1.511,3.82,2.157,8.384,3.053,13.425,2.603,10.53-.951,21.635-7.713,29.703-18.09.525-.675,1.04-1.37,1.549-2.079.043-.06.086-.118.129-.178Z"/>
    <path class="cls-2" d="m72.243,82.984c-.038.82-.101,1.63-.169,2.438-.014.16-.02.323-.035.483-.177,1.934-.443,3.829-.785,5.685,3.23-4.385,7.021-8.562,10.716-12.62,5.892-6.471,11.983-13.162,15.717-20.659,5.452-10.949,12.733-23.883,19.4-30.255-.152.011-.303.02-.465.035-10.956.989-32.439,10.671-48.716,23.946,2.838,10.19,4.407,19.886,4.407,27.922,0,1.016-.025,2.025-.072,3.025Z"/>
    <path class="cls-1" d="m12.786,107.815c-.043-.066-.086-.131-.128-.198.042.067.086.131.128.198Z"/>
    <path class="cls-1" d="m10.351,103.519c-.058-.116-.113-.235-.17-.352.057.117.112.235.17.352Z"/>
    <path class="cls-1" d="m14.119,109.771c-.055-.076-.109-.153-.164-.23.055.077.109.154.164.23Z"/>
    <path class="cls-1" d="m18.666,115.011c-.05-.048-.101-.096-.151-.145.05.049.1.097.151.145Z"/>
    <path class="cls-1" d="m9.352,101.373c-.066-.152-.133-.302-.198-.455.065.153.132.304.198.455Z"/>
    <path class="cls-1" d="m7.484,96.406c-.048-.15-.091-.304-.137-.455.046.151.089.304.137.455Z"/>
    <path class="cls-1" d="m6.815,94.089c-.059-.222-.117-.445-.173-.669.056.224.114.447.173.669Z"/>
    <path class="cls-1" d="m8.316,98.825c-.013-.036-.028-.071-.042-.107.013.036.028.071.042.107Z"/>
    <polygon class="cls-1" points="43.895 121.784 43.895 121.784 43.895 121.784 43.895 121.784"/>
    <polygon class="cls-1" points="20.253 116.44 20.253 116.44 20.253 116.44 20.253 116.44"/>
    <path class="cls-1" d="m72.243,82.984c-.039.819-.1,1.63-.169,2.438-.014.16-.02.323-.035.483-.179,1.932-.443,3.829-.785,5.685,3.23-4.385,7.021-8.562,10.716-12.62,5.892-6.471,11.983-13.162,15.717-20.659,5.452-10.949,12.733-23.883,19.4-30.255-.152.011-.303.02-.465.035-10.956.989-32.439,10.671-48.716,23.946,2.838,10.19,4.407,19.886,4.407,27.922,0,1.016-.025,2.025-.072,3.025Z"/>
    <path class="cls-1" d="m6.21,91.558c-.039-.182-.082-.362-.119-.544.037.183.08.362.119.544Z"/>
    <path class="cls-1" d="m42.462,122.227s-.004,0-.006.001c.002,0,.004,0,.006-.001Z"/>
    <polygon class="cls-1" points="28.022 121.192 28.023 121.193 28.022 121.192 28.022 121.192"/>
    <path class="cls-1" d="m39.529,122.808h-.005s.003,0,.005,0Z"/>
    <path class="cls-1" d="m41.006,122.569s-.005,0-.007.001c.002,0,.005,0,.007-.001Z"/>
    <path class="cls-1" d="m66.638,88.722c-.025.166-.056.33-.083.496.027-.166.058-.329.083-.496Z"/>
    <path class="cls-1" d="m63.864,99.494c-.05.135-.098.273-.149.407.051-.135.099-.272.149-.407Z"/>
    <path class="cls-1" d="m57.652,111.093c-.036.048-.071.097-.107.145.036-.048.071-.097.107-.145Z"/>
    <path class="cls-1" d="m54.374,114.924c.042-.042.083-.084.125-.127-.042.043-.083.085-.125.127Z"/>
    <path class="cls-1" d="m62.754,102.257c-.012.027-.025.054-.037.081.012-.027.025-.054.037-.081Z"/>
    <path class="cls-1" d="m61.701,104.49c-.061.122-.123.244-.185.365.062-.121.124-.243.185-.365Z"/>
    <path class="cls-1" d="m5.655,88.585c-.022-.142-.038-.286-.059-.428.021.142.037.286.059.428Z"/>
    <path class="cls-1" d="m122.373,30.118c-4.066,2.907-11.036,12.027-20.201,30.43-4.044,8.123-10.375,15.076-16.498,21.801-4.523,4.966-8.794,9.658-12.157,14.729-2.724,4.108-5.344,7.653-7.757,10.679h0c-.254.484-.519.956-.786,1.426-.121.213-.241.426-.364.636-.254.434-.514.862-.778,1.283-.153.243-.31.481-.466.72-.256.392-.511.785-.776,1.165-.391.561-.792,1.11-1.202,1.645-.199.259-.406.505-.609.758-.287.357-.575.711-.871,1.055-.2.233-.404.461-.607.687-.331.369-.668.729-1.01,1.081-.175.181-.348.364-.526.54-.525.521-1.057,1.029-1.603,1.511,3.82,2.157,8.384,3.053,13.425,2.603,10.53-.951,21.635-7.713,29.703-18.09.525-.675,1.04-1.37,1.549-2.079.043-.06.086-.118.129-.178.483-.678.958-1.372,1.426-2.077.063-.094.126-.188.188-.282.453-.689.899-1.392,1.337-2.105.071-.115.142-.23.213-.346.432-.709.856-1.428,1.273-2.157.07-.122.139-.245.209-.367.416-.735.826-1.478,1.228-2.231.062-.116.124-.234.185-.35.407-.768.807-1.544,1.199-2.329.047-.094.093-.189.14-.284.404-.814.801-1.635,1.188-2.463.022-.047.043-.095.066-.142.392-.842.777-1.691,1.152-2.546.018-.04.036-.081.054-.121.371-.846.732-1.698,1.087-2.554.04-.097.081-.193.121-.29.339-.824.67-1.652.994-2.482.05-.127.1-.254.149-.381.316-.815.624-1.633.924-2.452.051-.138.101-.275.151-.413.298-.819.589-1.639.872-2.458.045-.13.089-.259.133-.389.285-.83.562-1.661.832-2.489.036-.112.072-.223.108-.335.274-.851.542-1.7.8-2.547.021-.069.041-.137.062-.206.544-1.792,1.051-3.57,1.521-5.324.013-.048.026-.095.039-.143.226-.848.443-1.69.652-2.526.021-.085.043-.169.064-.254.203-.816.397-1.624.583-2.425.022-.095.044-.189.066-.284.183-.796.358-1.584.525-2.362.019-.089.038-.178.057-.267.167-.785.325-1.562.475-2.326.014-.069.027-.137.04-.206.152-.784.296-1.557.43-2.316.006-.033.011-.066.017-.099.421-2.4.752-4.67.988-6.765,0-.003,0-.006.001-.009.078-.689.145-1.358.202-2.008.002-.024.004-.048.007-.072.056-.639.102-1.259.138-1.857.002-.025.003-.051.005-.076.035-.597.061-1.172.077-1.725,0-.02.001-.04.002-.061.015-.558.02-1.094.015-1.603,0-.005,0-.01,0-.015-.023-2.081-.218-3.743-.587-4.882Z"/>
    <path class="cls-1" d="m59.062,109.085c-.036.054-.072.106-.108.16.036-.054.072-.106.108-.16Z"/>
    <path class="cls-1" d="m67.234,82.659c-.012.251-.027.5-.042.75.015-.25.03-.499.042-.75Z"/>
    <path class="cls-1" d="m5.121,83.527c-.015-.253-.033-.504-.045-.758.012.254.029.505.045.758Z"/>
    <path class="cls-1" d="m5.337,86.123c-.028-.261-.053-.523-.077-.785.025.262.049.524.077.785Z"/>
    <path class="cls-1" d="m67.03,85.514c-.019.203-.035.408-.057.611.022-.203.037-.407.057-.611Z"/>
    <path class="cls-1" d="m64.731,96.964c-.054.172-.111.341-.166.512.056-.171.112-.34.166-.512Z"/>
    <path class="cls-1" d="m66.171,91.333c-.045.223-.09.447-.138.669.047-.222.093-.445.138-.669Z"/>
    <path class="cls-1" d="m65.472,94.393c-.008.031-.015.063-.023.095.008-.031.015-.063.023-.095Z"/>
    <path class="cls-3" d="m57.545,111.239c.036-.048.071-.097.107-.145.446-.598.88-1.214,1.302-1.848.036-.054.072-.106.108-.16.879-1.336,1.697-2.75,2.455-4.23.062-.121.124-.243.185-.365.352-.703.693-1.419,1.016-2.151.012-.027.025-.054.037-.081.338-.77.657-1.557.96-2.356.051-.135.099-.272.149-.407.246-.663.479-1.337.701-2.018.055-.171.112-.34.166-.512.256-.814.498-1.638.718-2.476.008-.031.015-.063.023-.095.205-.787.389-1.586.562-2.392.047-.222.093-.445.138-.669.141-.699.268-1.404.384-2.115.027-.166.058-.329.083-.496.131-.857.242-1.724.335-2.597.022-.202.037-.407.057-.611.067-.697.121-1.399.163-2.104.015-.25.03-.499.042-.75.041-.895.07-1.794.07-2.701,0-13.388-4.624-31.754-12.369-49.13-7.935-17.804-15.286-25.812-17.97-25.812-2.806,0-10.496,7.825-18.806,25.222-8.233,17.237-13.148,35.925-13.148,49.99,0,.853.026,1.699.065,2.541.012.254.029.506.045.758.037.607.082,1.211.139,1.811.025.262.049.524.077.785.074.683.161,1.361.26,2.034.021.142.037.286.059.428.127.818.273,1.627.436,2.428.037.183.08.363.119.544.134.626.277,1.247.432,1.862.056.224.114.447.173.669.167.627.344,1.247.532,1.861.046.151.089.305.137.455.247.781.509,1.553.79,2.312.013.036.028.071.042.107.264.709.545,1.406.837,2.093.065.153.132.304.198.455.266.607.542,1.206.829,1.795.057.117.112.235.17.352.71,1.425,1.48,2.794,2.307,4.098.042.067.086.131.128.198.378.589.768,1.164,1.168,1.726.055.077.109.154.164.23,1.35,1.865,2.822,3.573,4.397,5.095.05.048.101.097.151.145.519.496,1.047.974,1.586,1.429h0s-3.149-6.706-3.149-6.706c-2.848-6.064-2.959-13.072-.306-19.23l1.224-2.84c1.731-4.018,1.973-8.538.68-12.73l-1.445-4.687c-1.304-4.228-1.388-8.722-.243-12.998l3.438-12.844c.358-1.338,1.731-2.133,3.069-1.773,1.337.358,2.13,1.734,1.772,3.071l-3.438,12.844c-.9,3.362-.834,6.896.19,10.22l1.445,4.687c1.644,5.331,1.336,11.083-.867,16.196l-1.224,2.84c-2.085,4.839-1.997,10.346.24,15.109l6.383,13.592s0,0,.001,0c1.619.656,3.288,1.137,4.993,1.433l2.037-14.465c.621-4.404.484-8.843-.404-13.196l-1.064-5.21c-1.2-5.878-1.189-11.837.033-17.711l1.041-5.002c.883-4.246,1.049-8.581.494-12.888l-3.303-25.617c-.177-1.374.792-2.631,2.164-2.808,1.371-.177,2.628.793,2.806,2.167l3.303,25.617c.627,4.862.439,9.758-.558,14.552l-1.041,5.002c-1.082,5.201-1.092,10.479-.029,15.683l1.064,5.211c1.003,4.915,1.157,9.929.457,14.9l-1.983,14.081c.5-.026.997-.07,1.491-.132h.005c.493-.062.983-.142,1.47-.238.002,0,.005,0,.007-.001.487-.097.971-.211,1.451-.341.002,0,.004,0,.006-.001.481-.131.959-.279,1.432-.443,0,0,0,0,0,0l6.153-14.473c2.288-5.382,2.377-11.603.245-17.07l-1.224-3.138c-2.163-5.545-2.466-11.781-.853-17.561l1.446-5.178c1.049-3.758,1.116-7.754.194-11.556l-3.438-14.186c-.326-1.346.5-2.702,1.844-3.029,1.342-.323,2.699.5,3.026,1.846l3.438,14.186c1.123,4.634,1.041,9.505-.238,14.088l-1.446,5.178c-1.323,4.738-1.076,9.847.694,14.386l1.224,3.138c2.605,6.678,2.495,14.28-.301,20.858l-3.678,8.651h0c1.178-.896,2.31-1.902,3.393-3.003.042-.042.083-.084.125-.127,1.067-1.095,2.085-2.284,3.046-3.559Z"/>
    <path class="cls-4" d="m125.124,25.168c-.01-.011-.021-.02-.031-.031-.061-.06-.118-.126-.181-.182-.026-.023-.057-.041-.083-.064-.044-.036-.088-.07-.134-.103-1.818-1.487-4.599-2.049-8.521-1.694-11.175,1.009-32.719,10.259-49.82,23.725-1.891-5.987-4.184-12.073-6.842-18.035C56.502,22.032,45.981,0,36.965,0,27.526,0,15.878,23.386,13.638,28.074,5.099,45.953,0,65.45,0,80.228c0,24.739,15.454,45.795,34.306,47.625.155.055.318.096.488.12.119.017.236.024.353.024.159,0,.316-.017.468-.046.449.022.898.046,1.35.046,5.333,0,10.391-1.623,14.929-4.509,4.308,2.963,9.445,4.512,15.142,4.512.984,0,1.986-.046,3.001-.137,11.888-1.074,24.302-8.552,33.207-20.005,17.398-22.374,30.886-73.646,21.88-82.689Zm-8.501,2.922c.162-.015.313-.025.465-.035-6.667,6.372-13.948,19.306-19.4,30.255-3.734,7.498-9.825,14.188-15.717,20.659-3.696,4.058-7.487,8.235-10.716,12.62.341-1.856.605-3.753.785-5.685.015-.16.021-.323.035-.483.069-.808.131-1.618.169-2.438.047-1,.072-2.009.072-3.025,0-8.035-1.57-17.731-4.407-27.922,16.277-13.275,37.76-22.958,48.716-23.946Zm-62.249,86.834c-1.083,1.1-2.216,2.106-3.393,3.003h0l3.678-8.651c2.797-6.578,2.907-14.181.301-20.858l-1.224-3.138c-1.771-4.539-2.017-9.648-.694-14.386l1.446-5.178c1.279-4.583,1.361-9.455.238-14.088l-3.438-14.186c-.326-1.347-1.683-2.169-3.026-1.846-1.345.327-2.17,1.683-1.844,3.029l3.438,14.186c.921,3.802.854,7.798-.194,11.556l-1.446,5.178c-1.613,5.779-1.311,12.015.853,17.561l1.224,3.138c2.132,5.467,2.043,11.688-.245,17.07l-6.153,14.473h0s0,0,0,0c-.474.164-.951.312-1.432.443-.002,0-.004,0-.006.001-.48.131-.964.244-1.451.341-.002,0-.005,0-.007.001-.487.097-.977.176-1.47.238-.002,0-.003,0-.005,0-.494.062-.991.106-1.491.132l1.983-14.081c.7-4.971.547-9.984-.457-14.9l-1.064-5.211c-1.062-5.204-1.053-10.482.029-15.683l1.041-5.002c.997-4.795,1.185-9.69.558-14.552l-3.303-25.617c-.177-1.374-1.435-2.344-2.806-2.167-1.373.177-2.342,1.435-2.164,2.808l3.303,25.617c.555,4.306.389,8.642-.494,12.888l-1.041,5.002c-1.222,5.874-1.233,11.833-.033,17.711l1.064,5.21c.888,4.353,1.024,8.792.404,13.196l-2.037,14.465c-1.706-.296-3.374-.777-4.993-1.433,0,0,0,0-.001,0h0l-6.383-13.592c-2.237-4.763-2.324-10.27-.24-15.109l1.224-2.84c2.204-5.113,2.511-10.865.867-16.196l-1.445-4.687c-1.025-3.324-1.091-6.858-.19-10.22l3.438-12.844c.358-1.338-.435-2.713-1.772-3.071-1.338-.36-2.711.435-3.069,1.773l-3.438,12.844c-1.145,4.276-1.06,8.77.243,12.998l1.445,4.687c1.292,4.191,1.051,8.712-.68,12.73l-1.224,2.84c-2.653,6.158-2.542,13.167.306,19.23l3.149,6.706h0c-.54-.455-1.068-.934-1.586-1.429-.05-.048-.101-.096-.151-.145-1.575-1.523-3.046-3.23-4.397-5.095-.055-.076-.109-.153-.164-.23-.401-.561-.79-1.137-1.168-1.726-.043-.066-.086-.131-.128-.198-.827-1.304-1.597-2.673-2.307-4.098-.058-.116-.113-.235-.17-.352-.287-.589-.563-1.188-.829-1.795-.066-.152-.133-.302-.198-.455-.292-.687-.573-1.384-.837-2.093-.013-.036-.028-.071-.042-.107-.281-.758-.543-1.53-.79-2.312-.048-.151-.091-.304-.137-.455-.188-.614-.365-1.235-.532-1.861-.059-.222-.117-.445-.173-.669-.155-.615-.298-1.236-.432-1.862-.039-.182-.082-.362-.119-.544-.162-.801-.309-1.611-.436-2.428-.022-.142-.038-.286-.059-.428-.099-.673-.186-1.351-.26-2.034-.028-.261-.053-.523-.077-.785-.056-.6-.102-1.205-.139-1.811-.015-.253-.033-.504-.045-.758-.039-.842-.065-1.688-.065-2.541,0-14.065,4.915-32.753,13.148-49.99C26.469,12.841,34.158,5.016,36.965,5.016c2.685,0,10.035,8.008,17.97,25.812,7.745,17.376,12.369,35.742,12.369,49.13,0,.907-.028,1.806-.07,2.701-.012.251-.027.5-.042.75-.042.706-.096,1.407-.163,2.104-.02.203-.035.408-.057.611-.093.874-.204,1.74-.335,2.597-.025.166-.056.33-.083.496-.115.711-.243,1.417-.384,2.115-.045.223-.09.447-.138.669-.172.806-.357,1.605-.562,2.392-.008.031-.015.063-.023.095-.22.838-.462,1.662-.718,2.476-.054.172-.111.341-.166.512-.222.682-.455,1.355-.701,2.018-.05.136-.098.273-.149.407-.304.799-.623,1.586-.96,2.356-.012.027-.025.054-.037.081-.323.732-.664,1.448-1.016,2.151-.061.122-.123.244-.185.365-.757,1.48-1.576,2.894-2.455,4.23-.036.054-.072.106-.108.16-.421.634-.855,1.25-1.302,1.848-.036.048-.071.097-.107.145-.961,1.275-1.979,2.464-3.046,3.559-.042.043-.083.085-.125.127ZM122.946,36.618c0,.02,0,.04-.002.061-.016.553-.041,1.128-.077,1.725-.002.025-.003.051-.005.076-.036.598-.082,1.217-.138,1.857-.002.024-.004.048-.007.072-.057.65-.125,1.319-.202,2.008,0,.003,0,.006-.001.009-.236,2.095-.567,4.365-.988,6.765-.006.033-.011.066-.017.099-.134.759-.278,1.532-.43,2.316-.013.069-.026.137-.04.206-.149.765-.308,1.541-.475,2.326-.019.089-.038.178-.057.267-.167.779-.342,1.566-.525,2.362-.022.095-.044.189-.066.284-.186.801-.38,1.609-.583,2.425-.021.084-.043.169-.064.254-.209.836-.426,1.677-.652,2.526-.013.048-.026.095-.039.143-.47,1.754-.977,3.533-1.521,5.324-.021.069-.041.137-.062.206-.258.846-.526,1.696-.8,2.547-.036.112-.071.223-.108.335-.269.829-.547,1.659-.832,2.489-.044.13-.089.259-.133.389-.283.82-.574,1.64-.872,2.458-.05.138-.101.275-.151.413-.301.819-.609,1.637-.924,2.452-.049.127-.099.254-.149.381-.324.83-.655,1.658-.994,2.482-.04.097-.081.193-.121.29-.354.855-.716,1.708-1.087,2.554-.018.04-.036.081-.054.121-.376.855-.76,1.703-1.152,2.546-.022.047-.043.095-.066.142-.387.829-.784,1.649-1.188,2.463-.047.095-.093.19-.14.284-.392.785-.792,1.561-1.199,2.329-.062.117-.123.234-.185.35-.402.753-.812,1.496-1.228,2.231-.069.123-.139.245-.209.367-.417.729-.842,1.448-1.273,2.157-.071.116-.142.231-.213.346-.439.713-.884,1.416-1.337,2.105-.062.095-.126.188-.188.282-.468.705-.942,1.399-1.426,2.077-.043.06-.086.118-.129.178-.508.708-1.024,1.404-1.549,2.079-8.069,10.376-19.173,17.138-29.703,18.09-5.04.45-9.604-.446-13.425-2.603.546-.482,1.078-.99,1.603-1.511.177-.176.351-.359.526-.54.341-.353.678-.712,1.01-1.081.204-.227.407-.454.607-.687.295-.344.584-.698.871-1.055.203-.253.41-.499.609-.758.41-.535.811-1.084,1.202-1.645.265-.38.52-.773.776-1.165.156-.239.313-.477.466-.72.265-.422.524-.849.778-1.283.123-.21.243-.423.364-.636.266-.47.532-.942.786-1.426h0c2.413-3.026,5.033-6.571,7.757-10.679,3.363-5.071,7.634-9.763,12.157-14.729,6.123-6.725,12.454-13.678,16.498-21.801,9.164-18.403,16.134-27.522,20.201-30.43.37,1.139.564,2.801.587,4.882,0,.005,0,.01,0,.015.005.509,0,1.045-.015,1.603Z"/>
  </g>
</svg>