<svg xmlns="http://www.w3.org/2000/svg" viewBox="0 0 120.76 120.76">
  <defs>
    <style>
      .cls-1 {
        fill: #7d4e24;
      }

      .cls-2 {
        fill: #fff;
      }
    </style>
  </defs>
  <title>mandel</title>
  <g id="Ebene_2" data-name="Ebene 2">
    <g id="Ebene_1-2" data-name="Ebene 1">
      <path class="cls-1" d="M60.38,0a60.38,60.38,0,1,0,60.38,60.38h0A60.38,60.38,0,0,0,60.38,0Z"/>
      <path class="cls-2" d="M93,37.5l-.53.13-1.13.31c-1.77.49-3.54,1-5.28,1.65-3.5,1.21-7,2.58-10.39,4.06a112.522,112.522,0,0,0-10.15,4.92,37.4,37.4,0,0,1,9.09-7,59.673,59.673,0,0,1,10.47-4.8c1.62-.54,3.26-1,4.92-1.41a10.968,10.968,0,0,0-1.4-.16,26.911,26.911,0,0,0-6.68.58,58.526,58.526,0,0,0-6.57,1.77c-2.16.71-4.31,1.49-6.4,2.4s-4.18,1.84-6.21,2.87-4,2.16-6,3.33a52.559,52.559,0,0,0-10.9,8.45A32.861,32.861,0,0,1,55.4,44.2a54.485,54.485,0,0,1,6-3.89c2.07-1.16,4.21-2.19,6.39-3.14a50.278,50.278,0,0,1,13.79-3.7,24.9,24.9,0,0,1,5.39,0c.56.07,1.13.16,1.69.27-7.29-4.33-17.81-2.41-31.4,5.76-28.15,16.93-28.87,40-28.87,40.28v.37l.34.17c.2.11,21,10.31,49.11-6.61,18.13-10.9,23.86-22.19,17-33.54A21.054,21.054,0,0,0,93,37.5Z"/>
    </g>
  </g>
</svg>
