<?xml version="1.0" encoding="UTF-8"?>
<svg id="Ebene_1" data-name="Ebene 1" xmlns="http://www.w3.org/2000/svg" viewBox="0 0 128 128">
  <defs>
    <style>
      .cls-1 {
        fill: #fd0;
      }

      .cls-2 {
        fill: #444;
      }
    </style>
  </defs>
  <path class="cls-1" d="m69.23,65.83c2.5.18,5,.47,7.33.84,1.16-.67,2.34-1.57,3.53-2.76,4.6-4.59,9.07-20.49,9.18-24.9-3.91-.15-16,3.19-22.58,7.17.26,1.13.53,2.36.8,3.73.66,3.29,1.94,10.53,1.73,15.94Z"/>
  <path class="cls-1" d="m49.09,68.39c1.07-.63,2.3-1.21,3.76-1.71,2.44-.83,6.68-1.15,11.39-1.07.33-7.44-2.86-21.89-4.71-25.9-3.42,1.85-12.44,11.08-14.11,17.37.52,1.39,1.07,2.96,1.67,4.73.43,1.28,1.21,3.72,2.01,6.59Z"/>
  <path class="cls-1" d="m54.46,71.42c-1.66.56-3.02,1.28-4.07,2.14.55,2.47.98,4.95,1.12,7.1,6.37.89,14.75,2.88,21.18,5.14,4.59-3.89,9.25-9.92,10.43-12.51-3.19-1.25-13.1-2.74-20.84-2.74-3.18,0-5.99.25-7.82.87Z"/>
  <path class="cls-1" d="m45.55,96.37c5.61,1.29,10.9,2.95,13.15,3.69,1.43.47,2.77.93,4.04,1.39,5.74-2.56,11.76-6.45,14.04-8.62-4.1-2.17-16.53-5.99-25.5-7.26-.72,4.95-2.64,8.57-5.73,10.79Z"/>
  <path class="cls-1" d="m35.12,92.83c.54.33.89.5.91.5h0c1.19.39,4.08.7,6.45-.91,2.41-1.64,3.78-4.9,4.06-9.7.42-7.15-6.38-26.86-9.25-31.65-2.23,1.9-6.59,8.18-9.32,14.32.74,2.03,1.56,4.41,2.44,7.25,1.02,3.24,3.87,12.79,4.7,20.18Z"/>
  <path class="cls-1" d="m19.85,59.27c-3.72,3.17-13.12,18.61-13.66,27.86-.68,11.51,4.68,18.12,8.42,21.29.1-2.06.65-4.39,2.02-6.53,2.57-4.02,7.16-6.39,13.65-7.06-.7-10.2-7.51-30.7-10.43-35.56Z"/>
  <path class="cls-1" d="m33.17,99.66c-6.11.19-10.37,1.89-12.32,4.93-1.85,2.89-1.16,6.14-.95,6.62,1.37,3.2,8.74,12.21,24.15,11.77,8.57-.26,24.07-8.5,27.94-12.05-5.38-3.35-28.19-11.28-38.28-11.28-.18,0-.36,0-.54,0Z"/>
  <path class="cls-2" d="m57.81,34.99c-4.09,1.89-11.24,9.07-15.06,15.76-2.1-4.27-3.29-4.73-3.8-4.93-1.16-.44-2.43-.23-3.78.63-2.66,1.7-6.62,6.91-9.75,12.75-2.15-4.49-3.37-4.96-3.91-5.17-.8-.31-2.11-.45-3.77.62-3.22,2.06-7.32,8.31-10.09,13.46-1.81,3.37-6.07,11.95-6.47,18.74-.8,13.53,5.73,21.77,10.64,25.79L.81,123.61c-.95.94-1.12,2.49-.25,3.51.5.59,1.21.88,1.91.88.64,0,1.28-.24,1.77-.73l11.89-11.86c.13.05.25.1.36.14h0s.11.03.16.04c3.32,4.89,11.6,12.42,26.24,12.42.44,0,.88,0,1.32-.02,10.31-.31,29.46-10.34,32.69-15.1.96-1.41.84-2.57.58-3.3-.58-1.6-3.4-3.5-8.39-5.65.64-.34,1.2-.65,1.65-.9,4.37-2.46,9.6-6,11.17-8.57.85-1.39.69-2.51.41-3.2-.44-1.06-2.08-2.22-4.46-3.37,4.83-4.56,9.1-10.41,10.18-13.45.06-.16.15-.43.23-.75l36.71-36.64c.93-.93,1.1-2.44.27-3.45-.96-1.17-2.68-1.23-3.72-.19l-35.04,34.97c-.43.43-1.06.56-1.62.33s-1.2-.45-1.88-.65c.22-.2.44-.41.66-.63,3.99-3.98,7.08-13.04,8.22-16.75,1.98-6.43,2.47-10.13,2.37-12.3-.02-.42.14-.82.43-1.11L127.2,4.57c.93-.93,1.1-2.44.26-3.46-.96-1.16-2.69-1.22-3.72-.18l-32.54,32.74c-.31.31-.73.48-1.16.44-2.78-.24-7.01.5-12.68,2.23-2.03.62-7.42,2.38-11.98,4.86-.54-1.73-1.04-2.98-1.49-3.89-.23-.47-.15-1.03.22-1.4l31.6-31.54c.93-.93,1.1-2.44.27-3.45-.96-1.17-2.68-1.23-3.72-.19l-33.89,33.82m1.16,5.15c1.85,4.02,5.04,18.47,4.71,25.9-4.71-.08-8.94.24-11.39,1.07-1.45.49-2.69,1.07-3.76,1.71-.8-2.87-1.58-5.31-2.01-6.59-.59-1.77-1.15-3.33-1.67-4.73,1.66-6.29,10.68-15.52,14.11-17.37Zm-22.23,11.38c2.86,4.79,9.67,24.5,9.25,31.65-.28,4.8-1.65,8.06-4.06,9.7-2.37,1.61-5.25,1.3-6.45.91h0s-.36-.17-.91-.5c-.83-7.4-3.68-16.94-4.7-20.18-.89-2.83-1.7-5.22-2.44-7.25,2.73-6.14,7.08-12.42,9.32-14.32Zm-20.66,50.81c-1.37,2.14-1.93,4.47-2.02,6.53-3.73-3.17-9.09-9.78-8.42-21.29.54-9.25,9.94-24.7,13.66-27.86,2.92,4.86,9.73,25.36,10.43,35.56-6.49.67-11.08,3.04-13.65,7.06Zm55.37,9.03c-3.86,3.55-19.36,11.79-27.94,12.05-15.41.44-22.78-8.57-24.15-11.77-.2-.48-.9-3.73.95-6.62,1.95-3.04,6.2-4.75,12.32-4.93.18,0,.36,0,.54,0,10.09,0,32.9,7.93,38.28,11.28Zm-9.25-9.47c-1.27-.45-2.61-.92-4.04-1.39-2.25-.74-7.54-2.41-13.15-3.69,3.09-2.22,5.01-5.85,5.73-10.79,8.97,1.27,21.4,5.1,25.5,7.26-2.28,2.16-8.3,6.06-14.04,8.62Zm20.38-28.16c-1.18,2.59-5.83,8.62-10.43,12.51-6.43-2.27-14.81-4.26-21.18-5.14-.14-2.15-.58-4.63-1.12-7.1,1.05-.86,2.41-1.57,4.07-2.14,1.83-.62,4.64-.87,7.82-.87,7.74,0,17.65,1.49,20.84,2.74Zm-3.03-9.38c-1.19,1.19-2.38,2.09-3.53,2.76-2.33-.37-4.83-.66-7.33-.84.22-5.41-1.07-12.65-1.73-15.94-.27-1.37-.54-2.6-.8-3.73,6.58-3.98,18.66-7.31,22.58-7.17-.12,4.42-4.58,20.31-9.18,24.9Z"/>
</svg>