<svg xmlns="http://www.w3.org/2000/svg" viewBox="0 0 118.987 120.71">
  <defs>
    <style>
      .cls-1 {
        fill: #f5c500;
      }

      .cls-2 {
        fill: #fff;
      }
    </style>
  </defs>
  <title>gerste</title>
  <g id="Ebene_2" data-name="Ebene 2">
    <g id="Ebene_1-2" data-name="Ebene 1">
      <ellipse class="cls-1" cx="59.494" cy="60.355" rx="59.494" ry="60.355"/>
      <path class="cls-2" d="M66.185,47.96c-.84,0-16.16,43.85-25.1,69.64,1.43.48,2.87.92,4.35,1.29C53.775,91.63,66.975,47.98,66.185,47.96Z"/>
      <path class="cls-2" d="M34.975,88.1c-.28-1-.56-2.09-.82-3.14a35.186,35.186,0,0,1-.85-4.93,9.6,9.6,0,0,1,.08-2.46,4.524,4.524,0,0,1,1-2.25,4.222,4.222,0,0,0-1.55,2.1,9.246,9.246,0,0,0-.53,2.6,25.3,25.3,0,0,0,.3,5.23c.13.85.27,1.68.43,2.52-2.57,2.64-7.41,9.17-5.62,17.08.59,2.62,1.27,5.11,2,7.38a60.011,60.011,0,0,0,9.26,4.51,16.852,16.852,0,0,0,1.6-11.41A146.738,146.738,0,0,0,34.975,88.1Z"/>
      <path class="cls-2" d="M55.975,61.38a141.663,141.663,0,0,0-5.15-16.86c-.33-1.22-.65-2.43-1-3.65a33.741,33.741,0,0,1-.85-4.93,9.6,9.6,0,0,1,.08-2.46,4.473,4.473,0,0,1,1-2.25,4.26,4.26,0,0,0-1.54,2.1,9.324,9.324,0,0,0-.53,2.6,25.3,25.3,0,0,0,.3,5.23c.13.89.28,1.76.45,2.63-2.56,2.63-7.44,9.17-5.64,17.11,2.34,10.37,6.11,18.85,5.72,18.83C49.275,79.75,58.335,71.75,55.975,61.38Z"/>
      <path class="cls-2" d="M48.055,83.17a146.706,146.706,0,0,0-5.28-17.19c-.28-1-.56-2.09-.81-3.14a33.764,33.764,0,0,1-.86-4.93,9.6,9.6,0,0,1,.08-2.46,4.524,4.524,0,0,1,1-2.25,4.222,4.222,0,0,0-1.55,2.1,9.246,9.246,0,0,0-.53,2.6,25.3,25.3,0,0,0,.3,5.23c.13.85.27,1.68.43,2.52-2.57,2.64-7.41,9.17-5.62,17.09,2.35,10.36,6.12,18.84,5.72,18.83C41.355,101.58,50.405,93.58,48.055,83.17Z"/>
      <path class="cls-2" d="M97.975,25.66a9.626,9.626,0,0,1-1.46,2,32.1,32.1,0,0,1-3.71,3.36c-1.33,1.05-2.7,2.08-4.07,3.1a136.621,136.621,0,0,0-13.54,9.45c-8.22,6.69-6.11,18.6-5.79,18.81-.32-.21,7.89-4.56,16.15-11.21,6.39-5.17,6.55-13.45,6.14-17.05.72-.61,1.43-1.24,2.13-1.9a26.55,26.55,0,0,0,3.46-3.93,9.145,9.145,0,0,0,1.19-2.42,4.324,4.324,0,0,0,.08-2.61A4.485,4.485,0,0,1,97.975,25.66Z"/>
      <path class="cls-2" d="M90.235,47.72a8.788,8.788,0,0,1-1.45,2,32.108,32.108,0,0,1-3.72,3.36c-1.4,1.11-2.83,2.19-4.28,3.27a132.747,132.747,0,0,0-13.32,9.33c-8.26,6.69-6.1,18.58-5.79,18.81-.31-.23,7.89-4.56,16.15-11.25,6.41-5.21,6.55-13.51,6.15-17.07.72-.62,1.43-1.25,2.13-1.91a24.972,24.972,0,0,0,3.46-3.93,9.148,9.148,0,0,0,1.19-2.38,4.234,4.234,0,0,0,.08-2.61A4.48,4.48,0,0,1,90.235,47.72Z"/>
      <path class="cls-2" d="M83.115,69.68a9.467,9.467,0,0,1-1.46,2,33.946,33.946,0,0,1-3.68,3.35c-1.42,1.14-2.84,2.14-4.27,3.22a137.782,137.782,0,0,0-13.53,9.46c-8.26,6.7-6.1,18.58-5.78,18.82-.32-.24,7.89-4.56,16.15-11.25,6.38-5.17,6.54-13.44,6.14-17,.78-.66,1.54-1.33,2.28-2a25.035,25.035,0,0,0,3.47-3.93,9.307,9.307,0,0,0,1.19-2.38,4.276,4.276,0,0,0,.08-2.6A4.453,4.453,0,0,1,83.115,69.68Z"/>
      <path class="cls-2" d="M76.725,90.91a9.467,9.467,0,0,1-1.46,2,32.009,32.009,0,0,1-3.71,3.35c-1.33,1.06-2.7,2.08-4.07,3.11a135.649,135.649,0,0,0-13.51,9.45,17.113,17.113,0,0,0-6,10.67,60.084,60.084,0,0,0,10.56,1.22c1.84-1.29,3.79-2.74,5.74-4.32,6.39-5.18,6.55-13.45,6.14-17,.72-.62,1.43-1.25,2.13-1.91a25.558,25.558,0,0,0,3.46-3.93,9.025,9.025,0,0,0,1.23-2.38,4.276,4.276,0,0,0,.08-2.6A4.471,4.471,0,0,1,76.725,90.91Z"/>
      <path class="cls-2" d="M56.505,11.49a9.386,9.386,0,0,0-.53,2.61,24.621,24.621,0,0,0,.3,5.23c.13.88.28,1.76.45,2.63-2.56,2.63-7.44,9.21-5.64,17.11,2.35,10.37,6.12,18.84,5.73,18.83.39,0,9.44-8,7.1-18.36a141.936,141.936,0,0,0-5.15-16.85c-.33-1.22-.66-2.44-.95-3.65a32.393,32.393,0,0,1-.84-4.94,9.174,9.174,0,0,1,.08-2.46,4.473,4.473,0,0,1,1-2.25A4.368,4.368,0,0,0,56.505,11.49Z"/>
      <path class="cls-2" d="M77.1,8.47c-.11.88-.19,1.77-.25,2.65-3.17,1.86-9.6,6.89-10,15-.47,10.62.94,19.79.57,19.67.37.12,11.21-5.22,11.67-15.84a141.632,141.632,0,0,0-.48-17.6V8.58a32.871,32.871,0,0,1,.47-5c.014-.074.041-.144.057-.217-.278-.1-.555-.2-.835-.287-.033.093-.081.18-.112.274A25.228,25.228,0,0,0,77.1,8.47Z"/>
    </g>
  </g>
</svg>
