<?xml version="1.0" encoding="UTF-8"?>
<svg id="Ebene_1" data-name="Ebene 1" xmlns="http://www.w3.org/2000/svg" viewBox="0 0 128 128">
  <defs>
    <style>
      .cls-1 {
        fill: #eaccad;
      }

      .cls-2 {
        fill: #444;
      }

      .cls-3 {
        fill: #9b6150;
      }
    </style>
  </defs>
  <path class="cls-3" d="m114.993,8.355c-5.952-3.522-13.113-4.277-20.711-2.185-13.567,3.74-27.246,16.244-36.591,33.449-2.946,5.424-6.265,10.028-9.762,14.018l.122.004c-.078,2.298.851,4.386,2.838,6.381,4.785,4.801,11.053,7.973,12.307,7.346-.006-.004.08-.129.145-.467.452-2.349-.22-5.542-.813-8.36-.776-3.688-1.389-6.602.059-8.669.659-.94,1.643-1.529,2.847-1.702,3.303-.476,5.111-3.686,6.859-6.789,1.606-2.851,3.122-5.543,5.972-6.126,2.904-.593,3.55-3.524,4.148-7.6.135-.923.263-1.795.451-2.563.795-3.262,6.34-10.356,11.532-11.112,2.601-.379,4.902.796,6.32,3.221,1.186,2.028,1.855,4.603,2.563,7.328.944,3.636,2.015,7.757,4.207,8.788,1.26.592,3.17.301,5.681-.869,4.145-1.932,7.19,2.009,9.342,5.984.694-6.462.639-12.473-.324-17.518-1.187-6.213-3.606-10.438-7.191-12.559Z"/>
  <path class="cls-1" d="m121.551,45.136c.002-.009.004-.019.005-.029-.002.009-.006.02-.008.028h.003Z"/>
  <path class="cls-1" d="m115.243,37.004c-3.962,1.835-7.194,2.109-9.893.841-4.32-2.031-5.704-7.359-6.925-12.06-.618-2.381-1.202-4.63-2.039-6.06-.525-.9-.917-.841-1.265-.792-2.85.415-6.975,5.67-7.384,7.343-.131.54-.243,1.299-.36,2.103-.572,3.903-1.529,10.435-8.103,11.779-.607.124-1.909,2.435-2.608,3.676-1.944,3.451-4.583,8.134-9.945,9.192-.016,1.005.416,3.056.717,4.486.69,3.279,1.471,6.996.83,10.332-.57,2.968-2.517,3.98-3.627,4.318-.551.168-1.138.246-1.748.246-5.463,0-12.901-6.192-15.557-8.857-1.702-1.708-2.885-3.553-3.578-5.508-6.618,6.493-13.58,11.181-19.692,15.292-11.058,7.436-19.049,12.81-19.049,23.786,0,7.228,2.592,13.151,7.386,17.501.893-4.94,3.11-12.206,8.507-13.744,2.278-.649,4.358-.829,6.371-1.004,3.853-.334,6.896-.598,10.244-4.134,4.817-5.088,20.551-9.419,30.047-6.866,5.896,1.583,7.918,5.232,8.577,8.015,2.013,8.519-3.21,11.485-6.665,13.447-2.994,1.701-3.436,2.209-3.153,3.629.349,1.753.389,3.244.229,4.519,13.679-4.849,25.661-13.511,34.979-25.525,9.246-11.922,16.489-29.653,19.674-46.003-.489-.743-.95-1.713-1.496-2.874-2.064-4.384-3.568-6.764-4.473-7.079Z"/>
  <path class="cls-3" d="m61.411,114.943c-1.035-5.193,2.794-7.368,5.591-8.957,3.26-1.852,5.415-3.076,4.263-7.947-.186-.79-.754-3.193-4.998-4.332-3.633-.976-8.883-.739-14.408.645-5.546,1.39-9.366,3.425-10.691,4.824-4.658,4.92-9.332,5.326-13.455,5.684-1.858.161-3.613.314-5.428.831-2.882.821-4.743,7.283-5.309,12.227,5.767,3.298,13.465,5.075,22.774,5.075,7.018,0,13.806-.854,20.273-2.515h0c.55-.326,2.228-1.317,1.387-5.536Z"/>
  <path class="cls-2" d="m127.109,19.976c-1.468-7.683-4.684-13.042-9.558-15.927-7.157-4.235-15.664-5.17-24.605-2.704-15.076,4.155-29.534,17.236-39.665,35.888-8.917,16.418-21.19,24.67-32.019,31.95C9.853,76.856,0,83.481,0,97.122c.002,19.335,14.862,30.878,39.751,30.878,26.408,0,49.759-11.356,65.751-31.976,15.717-20.264,25.61-55.089,21.607-76.047ZM39.751,122.995c-9.31,0-17.007-1.777-22.774-5.075.566-4.945,2.427-11.407,5.309-12.227,1.815-.517,3.57-.67,5.428-.831,4.123-.358,8.797-.764,13.455-5.684,1.325-1.4,5.145-3.434,10.691-4.824,5.525-1.384,10.775-1.621,14.408-.645,4.244,1.139,4.812,3.542,4.998,4.332,1.152,4.871-1.003,6.095-4.263,7.947-2.797,1.589-6.627,3.764-5.591,8.957.841,4.219-.836,5.211-1.387,5.536h0c-6.467,1.661-13.254,2.515-20.273,2.515Zm61.787-30.035c-9.318,12.014-21.3,20.676-34.979,25.525.16-1.275.12-2.766-.229-4.519-.283-1.419.159-1.928,3.153-3.629,3.455-1.962,8.678-4.928,6.665-13.447-.658-2.783-2.681-6.433-8.577-8.015-9.496-2.553-25.23,1.777-30.047,6.866-3.348,3.536-6.391,3.8-10.244,4.134-2.013.175-4.093.355-6.371,1.004-5.398,1.538-7.614,8.804-8.507,13.744-4.794-4.35-7.386-10.273-7.386-17.501,0-10.976,7.991-16.35,19.049-23.786,6.113-4.11,13.075-8.798,19.692-15.292.693,1.955,1.876,3.8,3.578,5.508,2.656,2.665,10.094,8.857,15.557,8.857.61,0,1.197-.078,1.748-.246,1.11-.338,3.057-1.35,3.627-4.318.642-3.337-.14-7.053-.83-10.332-.301-1.43-.733-3.481-.717-4.486,5.362-1.058,8.001-5.741,9.945-9.192.699-1.241,2.001-3.552,2.608-3.676,6.574-1.344,7.531-7.876,8.103-11.779.118-.804.229-1.563.36-2.103.408-1.673,4.534-6.928,7.384-7.343.349-.049.74-.108,1.265.792.837,1.43,1.421,3.679,2.039,6.06,1.221,4.701,2.605,10.029,6.925,12.06,2.699,1.268,5.931.994,9.893-.841.905.315,2.409,2.695,4.473,7.079.546,1.161,1.007,2.131,1.496,2.874-3.185,16.35-10.428,34.081-19.674,46.003Zm20.013-47.824h-.003c.002-.009.006-.02.008-.029-.002.01-.004.019-.005.029Zm.957-6.704c-2.152-3.975-5.197-7.916-9.342-5.984-2.51,1.17-4.421,1.461-5.681.869-2.192-1.031-3.262-5.151-4.207-8.788-.708-2.726-1.377-5.301-2.563-7.328-1.418-2.425-3.719-3.6-6.32-3.221-5.192.756-10.736,7.85-11.532,11.112-.187.768-.315,1.64-.451,2.563-.597,4.076-1.244,7.006-4.148,7.6-2.85.583-4.366,3.275-5.972,6.126-1.748,3.103-3.556,6.313-6.859,6.789-1.204.173-2.188.762-2.847,1.702-1.448,2.067-.834,4.98-.059,8.669.593,2.818,1.264,6.011.813,8.36-.065.338-.151.463-.145.467-1.255.627-7.522-2.545-12.307-7.346-1.987-1.996-2.917-4.083-2.838-6.381l-.122-.004c3.497-3.99,6.816-8.594,9.762-14.018,9.345-17.205,23.024-29.709,36.591-33.449,7.598-2.093,14.76-1.337,20.711,2.185,3.585,2.121,6.004,6.346,7.191,12.559.964,5.045,1.019,11.057.324,17.518Z"/>
</svg>