<svg xmlns="http://www.w3.org/2000/svg" viewBox="0 0 120.76 120.76"><defs><style>.cls-1{fill:#7d4e24;}.cls-2{fill:#fff;}</style></defs><title>3Element 19</title><g id="Ebene_2" data-name="Ebene 2"><g id="Ebene_1-2" data-name="Ebene 1"><path class="cls-1" d="M120.76,60.38A60.38,60.38,0,1,1,60.38,0,60.39,60.39,0,0,1,120.76,60.38Z"/><path class="cls-2" d="M67.78,47.49c-20-11.53-41.1-15.67-44.33-18-9.68-2.45-7.55,17.31,9.18,35a31.59,31.59,0,0,1,6-1.16c4.39-.56,9.86-1.26,19.3-6.71A124.46,124.46,0,0,1,72,49.76C70.66,49.1,69.26,48.35,67.78,47.49Z"/><path class="cls-2" d="M94,71.53c-3.53,0-21.58-6-21.58-8.57s6.09-7.23,9.59-7.23,20,.2,20.14,2.78c3.83-8.85,3.24-15.67-1.29-15.67a5.51,5.51,0,0,0-1.39.19c-2,1.44-11.92,3.71-23.83,8.46a126.2,126.2,0,0,0-15.29,7.25c.56,2.52,2.2,9.38,3.76,10.38,1.91,1.23-.93,3.25-.55,5.44s3.77,2,2.56,3.49.59,2.17,2.72.27c1.77.52,1.23-.86,2.86,4.58a5.49,5.49,0,0,1-.16,2.85A21.82,21.82,0,0,1,69.88,90,55.22,55.22,0,0,0,77,86.25l.37-.23A69.78,69.78,0,0,0,94,71.53Z"/><path class="cls-2" d="M45.31,77.88a5.82,5.82,0,0,0,2-1.2c3.08-3-.92-8.26-3.47-11.08-3.55.74-6.26.83-8.8,1.41-3.35.77-6.43,2.42-10.81,7.63-7.7,9.17,5.85,19.74,24.65,19.74.89,0,1.81,0,2.73-.08C47.32,86.92,43.15,78.7,45.31,77.88Z"/><path class="cls-2" d="M106.65,64.47c-.92-1.09-1.78-2-2.6-2.85-.59,1.2-1.23,2.42-2,3.64A68.39,68.39,0,0,1,82.49,86.21C101.63,85.12,114.74,74.1,106.65,64.47Z"/></g></g></svg>