<?xml version="1.0" encoding="UTF-8"?>
<svg id="Ebene_1" data-name="Ebene 1" xmlns="http://www.w3.org/2000/svg" viewBox="0 0 128 128">
  <defs>
    <style>
      .cls-1 {
        fill: #eaccad;
      }

      .cls-2 {
        fill: #444;
      }
    </style>
  </defs>
  <g>
    <path class="cls-1" d="m44.893,49.313c-7.59-7.561-10.234-14.254-2.49-27.946,2.444-4.321,2.104-8.262,1.083-9.68-.247-.344-.361-.318-.398-.312-2.026.396-5.14.102-8.469-3.56-.161-.177-.319-.361-.48-.547-1.098-1.275-1.891-2.195-5.578-1.983-5.056.292-10.276,3.955-14.701,10.312-6.79,9.757-11.578,26.346-6.966,41.413,3.549,11.593,10.661,18.745,18.248,23.156,6.359-5.363,14.769-5.376,22.409-5.384,7.392-.008,14.375-.015,19.945-4.038,4.408-3.184,7.357-6.043,8.594-9.851-2.973-2.679-7.355-3.551-13.21-4.49-6.073-.974-12.956-2.078-17.986-7.089Z"/>
    <path class="cls-1" d="m116.428,92.672c8.646-17.67,6.003-39.061-.451-52.423-4.213-8.722-9.947-14.273-16.146-15.631-.711-.156-1.347-.227-1.923-.227-2.539,0-3.901,1.368-5.328,2.8-.485.488-.944.949-1.455,1.357-2.252,1.802-4.643,1.923-6.562,2.021-1.221.062-2.274.116-3.201.566-2.87,1.394-4.944,2.401-1.849,10.707,6.064,16.272,3.919,24.792-8.504,33.764-7.142,5.158-15.808,5.167-23.453,5.175-11.068.011-18.074.456-22.462,9.091-2.377,4.676-2.396,9.349-.058,13.888,4.353,8.448,16.186,15.262,30.146,17.359,7.362,1.106,44.912,4.931,61.246-28.447Z"/>
    <path class="cls-2" d="m121.379,37.64c-5.031-10.416-12.228-17.122-20.263-18.883-7.063-1.546-10.787,2.192-12.787,4.201-.362.364-.705.708-.952.906-.708.567-1.557.635-3.119.714-1.557.079-3.493.178-5.518,1.161-6.996,3.398-8.401,8.671-4.851,18.2,1.703,4.568,2.617,8.223,2.816,11.287-3.93-2.288-8.641-3.055-13.035-3.76-5.844-.938-11.362-1.823-15.249-5.694-6.351-6.326-7.985-10.773-1.668-21.942,3.016-5.33,3.339-11.525.788-15.065-1.326-1.84-3.343-2.699-5.414-2.296-1.115.216-2.396-.46-3.811-2.016-.132-.145-.26-.294-.391-.446-1.395-1.621-3.494-4.074-9.656-3.712-6.62.382-13.196,4.803-18.516,12.446C2.273,23.49-2.992,41.8,2.111,58.473c3.367,11.001,9.955,19.543,19.586,25.446-.695.972-1.348,2.045-1.953,3.234-3.253,6.401-3.267,13.094-.042,19.354,5.207,10.105,18.784,18.17,34.589,20.545,2.803.421,6.741.834,11.406.834,6.766,0,15.062-.869,23.636-3.841,14.72-5.101,25.648-14.77,32.483-28.737,9.532-19.479,6.648-43-.438-57.669ZM6.893,57.009c-4.612-15.067.176-31.656,6.966-41.413,4.425-6.357,9.646-10.019,14.701-10.312,3.688-.211,4.48.708,5.578,1.983.161.187.319.371.48.547,3.329,3.661,6.442,3.955,8.469,3.56.037-.006.151-.032.398.312,1.021,1.417,1.361,5.358-1.083,9.68-7.744,13.692-5.1,20.385,2.49,27.946,5.03,5.011,11.913,6.115,17.986,7.089,5.855.939,10.238,1.811,13.21,4.49-1.237,3.808-4.186,6.667-8.594,9.851-5.57,4.023-12.554,4.03-19.945,4.038-7.64.007-16.049.021-22.409,5.384-7.587-4.411-14.7-11.563-18.248-23.156Zm109.535,35.663c-16.334,33.378-53.884,29.554-61.246,28.447-13.96-2.098-25.793-8.911-30.146-17.359-2.338-4.539-2.319-9.212.058-13.888,4.388-8.635,11.394-9.08,22.462-9.091,7.646-.008,16.312-.017,23.453-5.175,12.423-8.972,14.568-17.492,8.504-33.764-3.096-8.306-1.021-9.313,1.849-10.707.927-.45,1.98-.503,3.201-.566,1.92-.097,4.311-.219,6.562-2.021.511-.409.97-.87,1.455-1.357,1.427-1.433,2.789-2.8,5.328-2.8.576,0,1.212.07,1.923.227,6.198,1.358,11.933,6.91,16.146,15.631,6.454,13.362,9.097,34.753.451,52.423Z"/>
  </g>
  <path class="cls-2" d="m26.937,65.748c-.322,0-.65-.063-.967-.197-.165-.069-16.44-7.226-9.775-29.407.397-1.322,1.789-2.073,3.114-1.675,1.322.397,2.072,1.791,1.675,3.113-5.34,17.768,6.44,23.148,6.944,23.368,1.26.551,1.846,2.018,1.303,3.281-.406.947-1.325,1.517-2.294,1.517Z"/>
  <path class="cls-2" d="m102.995,94.271c-.754,0-1.508-.282-2.091-.849-1.188-1.155-1.215-3.055-.061-4.242,5.377-5.531,7.357-13.125,5.887-22.571-.255-1.638.865-3.171,2.502-3.426,1.64-.253,3.171.866,3.426,2.502,1.777,11.41-.751,20.722-7.512,27.677-.588.605-1.37.909-2.151.909Z"/>
  <path class="cls-2" d="m69.092,113.046c-6.4,0-10.945-1.718-11.317-1.862-1.544-.603-2.307-2.343-1.704-3.886.603-1.541,2.336-2.303,3.879-1.707.647.249,15.278,5.637,28.185-5.987,1.231-1.109,3.128-1.008,4.237.222,1.108,1.231,1.009,3.128-.222,4.237-7.968,7.175-16.489,8.983-23.058,8.983Z"/>
</svg>