<svg xmlns="http://www.w3.org/2000/svg" viewBox="0 0 120.76 120.76"><defs><style>.cls-1{fill:#7d4e24;}.cls-2{fill:none;}.cls-3{fill:#fff;}</style></defs><title>cashew</title><g id="Ebene_2" data-name="Ebene 2"><g id="Ebene_1-2" data-name="Ebene 1"><path class="cls-1" d="M120.76,60.38A60.38,60.38,0,1,1,60.38,0h0A60.4,60.4,0,0,1,120.76,60.38Z"/><path class="cls-2" d="M84.08,29.18a3.47,3.47,0,0,0-.85.1c-2,1.45-.78,2.51-2.53,2.51a24.37,24.37,0,0,1-3.7-.5C66.68,32.9,86.7,56,69.26,66c-5.11,3-9.36,4-13,4C49.37,70,44.62,66.54,40,66.54c-2.65,0-5.23,1.12-8.23,4.65C23.49,81,42.66,98,64.88,98a40.5,40.5,0,0,0,21.75-6.17C112.25,75.73,94.75,29.24,84.08,29.18Z"/><path class="cls-3" d="M84.08,29.18a3.47,3.47,0,0,0-.85.1c-2,1.45-.78,2.51-2.53,2.51a24.37,24.37,0,0,1-3.7-.5c-8.8,1.37,4.45,18.37-2.27,29.56A14.65,14.65,0,0,1,69.26,66c-5.11,3-9.36,4-13,4C49.37,70,44.62,66.54,40,66.54c-2.65,0-5.23,1.12-8.23,4.65a8,8,0,0,0-1.94,5.39C30,86.19,46.36,98,64.88,98a40.5,40.5,0,0,0,21.75-6.17C112.25,75.73,94.75,29.24,84.08,29.18Zm3.21,56.73a25.49,25.49,0,0,1-12,6.62,32.17,32.17,0,0,1-13.57.07,47.15,47.15,0,0,1-12.56-4.51A70.18,70.18,0,0,1,38,81a100.53,100.53,0,0,0,11.72,5.81A51.13,51.13,0,0,0,62.08,90.3a31.66,31.66,0,0,0,12.49-.51,23,23,0,0,0,10.62-6,26.09,26.09,0,0,0,3.9-4.8c.51-.9,1-1.81,1.49-2.74l.62-1.44.57-1.46a36.13,36.13,0,0,0,2.06-12.41,42.56,42.56,0,0,0-7.93-24.2,38.39,38.39,0,0,1,10.27,24.1,36.41,36.41,0,0,1-1.72,13.43A28.88,28.88,0,0,1,87.29,85.91Z"/><path class="cls-3" d="M40,63.54a23.57,23.57,0,0,1,7.46,1.62A27.07,27.07,0,0,0,56.26,67a23.23,23.23,0,0,0,11.53-3.5c7.51-4.35,6.54-11.24,4.34-20.5-.77-3.3-1.47-6.27-1.22-8.78-2.74-5.71-6.23-9.36-9-8.66-2.27,1.57.54,2.59-5,1.58-8.3,1.29,7.84,19.94-6.19,28-16.46,9.5-21.48-6.36-30.29,4.13-3.79,4.51-.41,10.9,6.51,15.58a11.2,11.2,0,0,1,2.53-5.59C32.75,65.35,36.1,63.54,40,63.54Z"/></g></g></svg>