<svg xmlns="http://www.w3.org/2000/svg" viewBox="0 0 120.76 120.76">
  <defs>
    <style>
      .cls-1 {
        fill: #7d4e24;
      }

      .cls-2 {
        fill: none;
      }

      .cls-3 {
        fill: #fff;
      }
    </style>
  </defs>
  <title>haselnuss</title>
  <g id="Ebene_2" data-name="Ebene 2">
    <g id="Ebene_1-2" data-name="Ebene 1">
      <path class="cls-1" d="M120.76,60.38A60.38,60.38,0,1,1,60.38,0h0A60.39,60.39,0,0,1,120.76,60.38Z"/>
      <path class="cls-2" d="M70,42.19A36.8,36.8,0,0,0,33.23,31.08C19.72,35,86,59.81,70,42.19Z"/>
      <path class="cls-2" d="M44.03,80.64c-1.15.47-8.76,1.08-8.6.47.1-.388,1.5-1.234,2.155-1.608a4.618,4.618,0,0,1-3.964.011,4.253,4.253,0,0,1-1.461-1.8l-.027-.086c.187.636.638,2.294.417,2.616-.32.465-5.118-4.357-5.867-5.644a33.085,33.085,0,0,0,3.155,5.421L20.8,72.19,31.44,83.6A6.7,6.7,0,0,1,32,85.35a.854.854,0,0,0,.1-.146c-.005.032-.007.056,0,.056a7.4,7.4,0,0,1,1.71-.92L50,82.74l-12.408-.093A40.282,40.282,0,0,0,44.03,80.64Z"/>
      <path class="cls-3" d="M60.461,71.035a34.545,34.545,0,0,1,1.053-5c.732-5.825,6.09-10.461,6.671-10.946a26.6,26.6,0,0,1,6.52-4.561C74.328,35.966,56.29,30.24,56.29,30.24s-21-9.29-31.28,6c-2.14,3.17-12.71,23.87-6.76,33.33S32,85.07,31.61,86.08c.46-1,10.63-.22,22-3.12a16.607,16.607,0,0,0,7.061-4.232A22.478,22.478,0,0,1,60.461,71.035ZM33.81,84.34a7.4,7.4,0,0,0-1.71.92s0-.024,0-.056a.854.854,0,0,1-.1.146,6.7,6.7,0,0,0-.56-1.75L20.8,72.19l9.038,7.827A33.085,33.085,0,0,1,26.683,74.6c-.025-.042-.058-.092-.073-.126-.314-.692-.233-.5.073.126.749,1.287,5.547,6.109,5.867,5.644.221-.322-.23-1.98-.417-2.616-.113-.358-.085-.289,0,0l.027.086a4.253,4.253,0,0,0,1.461,1.8,4.618,4.618,0,0,0,3.964-.011c.375-.215.508-.275.005,0l-.005,0c-.654.374-2.053,1.22-2.155,1.608-.16.61,7.45,0,8.6-.47a40.282,40.282,0,0,1-6.438,2.007L50,82.74Zm-.58-53.26A36.8,36.8,0,0,1,70,42.19C86,59.81,19.72,35,33.23,31.08Z"/>
      <path class="cls-3" d="M98.532,81.882A73.546,73.546,0,0,1,86.87,85.065a10.7,10.7,0,0,1-1.834.151c-8.547,0-19.1-9.087-20.515-10.591-.035-.037-.063-.075-.1-.111a12.091,12.091,0,0,1-2-2.888,21.964,21.964,0,0,0-.021,5.315,12.487,12.487,0,0,0,4.679,8.638c2.766,2.136,15.772,9,21.92,4.748a68.326,68.326,0,0,0,9.6-8.363l.16-.161Z"/>
      <path class="cls-1" d="M32.133,77.624c-.085-.289-.113-.358,0,0Z"/>
      <path class="cls-1" d="M26.61,74.47c.015.034.048.084.073.126C26.377,73.969,26.3,73.778,26.61,74.47Z"/>
      <path class="cls-1" d="M37.585,79.5l.005,0C38.093,79.227,37.96,79.287,37.585,79.5Z"/>
      <path class="cls-3" d="M90.156,51.806l-.008,0a14.892,14.892,0,0,0-6.5-1.5,18.816,18.816,0,0,0-9.033,2.543,24.373,24.373,0,0,0-5.034,3.681l-.082.075a22.362,22.362,0,0,0-4.123,4.789q-.263.42-.5.866a11.341,11.341,0,0,0-1.4,4.266c-.01.095-.029.189-.035.284a8.273,8.273,0,0,0,2.2,6.051c.114.132.221.266.344.4,2.2,2.344,13.346,11.086,20.551,9.838a71.672,71.672,0,0,0,11.352-3.1l.622-.213c.532-.182.981-.331,1.362-.448.242-.073.467-.139.66-.185.041-.162.095-.341.155-.53.142-.443.33-.961.558-1.583a42.561,42.561,0,0,0,2.568-9.612C104.515,61.6,92.966,53.121,90.156,51.806ZM91.05,72.44c-12.66,1.1-14-8.8-14-8.8a10.319,10.319,0,0,1-.53-3.13c.09-1.13-.29-.07,2.09,0,10.55.35,11.78,3.4,12.32,10.67C91.05,72.53,92.2,72.34,91.05,72.44Z"/>
    </g>
  </g>
</svg>
