<?xml version="1.0" encoding="UTF-8"?>
<svg id="Ebene_1" data-name="Ebene 1" xmlns="http://www.w3.org/2000/svg" viewBox="0 0 128 128">
  <defs>
    <style>
      .cls-1 {
        fill: none;
      }

      .cls-2 {
        fill: #eaccad;
      }

      .cls-3 {
        fill: #9e7964;
      }

      .cls-4 {
        fill: #444;
      }

      .cls-5 {
        fill: #9b6150;
      }
    </style>
  </defs>
  <path class="cls-1" d="m17.737,94.92c-.236-.186-.47-.375-.7-.569.23.194.464.383.7.569Z"/>
  <path class="cls-1" d="m19.597,96.27c-.42-.276-.83-.564-1.233-.862.403.298.813.587,1.233.862Z"/>
  <path class="cls-1" d="m16.427,93.823c-.247-.221-.487-.45-.726-.681.239.231.479.46.726.681Z"/>
  <path class="cls-1" d="m11.58,88.122c-.309-.477-.605-.97-.893-1.473.288.502.584.996.893,1.473Z"/>
  <path class="cls-1" d="m15.155,92.609c-.346-.354-.683-.719-1.012-1.094.329.375.666.74,1.012,1.094Z"/>
  <path class="cls-1" d="m89.705,77.985c-.099.2-.203.397-.306.595.104-.198.208-.395.306-.595Z"/>
  <path class="cls-1" d="m13.675,90.958c-.22-.264-.437-.533-.649-.807.212.274.429.543.649.807Z"/>
  <path class="cls-1" d="m12.583,89.566c-.246-.335-.485-.68-.719-1.029.235.35.473.694.719,1.029Z"/>
  <path class="cls-1" d="m92.408,68.365c-.052.54-.121,1.074-.201,1.602.08-.529.149-1.062.201-1.602Z"/>
  <path class="cls-1" d="m92.526,66.543c-.015.389-.041.773-.07,1.156.029-.383.054-.768.07-1.156Z"/>
  <path class="cls-1" d="m92.064,70.786c-.053.293-.109.585-.17.874.062-.289.117-.581.17-.874Z"/>
  <path class="cls-1" d="m91.082,74.632c-.103.31-.205.621-.32.926.115-.305.216-.616.32-.926Z"/>
  <path class="cls-1" d="m91.696,72.524c-.066.267-.139.53-.212.793.073-.263.147-.527.212-.793Z"/>
  <path class="cls-1" d="m90.398,76.455c-.089.214-.179.429-.274.64.095-.212.184-.426.274-.64Z"/>
  <path class="cls-1" d="m7.818,80.258c-.161-.467-.317-.942-.465-1.425.149.483.304.957.465,1.425Z"/>
  <path class="cls-1" d="m92.415,62.064c.055.623.09,1.238.113,1.848-.023-.61-.058-1.225-.113-1.848Z"/>
  <polygon class="cls-1" points="88.921 79.467 88.921 79.467 88.921 79.467 88.921 79.467"/>
  <path class="cls-1" d="m92.186,60.089c.076.549.139,1.093.192,1.632-.052-.539-.116-1.083-.192-1.632Z"/>
  <path class="cls-1" d="m92.545,65.781c.006-.389.005-.782-.002-1.177.007.395.008.787.002,1.177Z"/>
  <path class="cls-1" d="m91.842,57.996c.091.483.173.962.246,1.437-.073-.476-.155-.955-.246-1.437Z"/>
  <path class="cls-1" d="m10.374,86.082c-.2-.366-.396-.737-.585-1.116.19.379.385.75.585,1.116Z"/>
  <path class="cls-1" d="m9.498,84.38c-.237-.495-.465-.999-.684-1.515.219.516.448,1.02.684,1.515Z"/>
  <path class="cls-1" d="m8.717,82.645c-.246-.589-.477-1.196-.7-1.812.223.616.454,1.223.7,1.812Z"/>
  <path class="cls-1" d="m7.173,78.246c-.195-.663-.382-1.336-.553-2.027.171.691.358,1.364.553,2.027Z"/>
  <g>
    <path class="cls-1" d="m64.6,113.276c-1.497-.171-2.895-.328-4.216-.452,1.32.124,2.719.281,4.216.452Z"/>
    <path class="cls-1" d="m114.768,99.054c-.264.275-.539.552-.818.83.279-.278.553-.555.818-.83Z"/>
    <path class="cls-1" d="m60.371,112.823c-.68-.064-1.334-.114-1.967-.154.636.041,1.287.09,1.967.154Z"/>
    <path class="cls-1" d="m113.528,100.306c-.431.421-.875.844-1.339,1.271.464-.427.908-.85,1.339-1.271Z"/>
    <path class="cls-1" d="m58.14,112.65c-.696-.04-1.368-.065-2.008-.065.639,0,1.309.024,2.008.065Z"/>
    <path class="cls-1" d="m114.505,65.346c.106.12.207.239.312.358-.104-.119-.206-.239-.312-.358Z"/>
    <path class="cls-1" d="m117.949,95.371c-.177.232-.353.463-.541.697.188-.234.364-.465.541-.697Z"/>
    <path class="cls-1" d="m119.816,92.668c-.088.144-.183.29-.275.435.092-.145.187-.29.275-.435Z"/>
    <path class="cls-1" d="m115.915,97.819c-.219.244-.444.49-.675.736.231-.246.456-.492.675-.736Z"/>
    <path class="cls-1" d="m119.09,93.798c-.123.181-.256.365-.386.547.129-.183.263-.366.386-.547Z"/>
    <path class="cls-1" d="m120.452,91.567c-.069.126-.14.253-.213.38.072-.127.144-.253.213-.38Z"/>
    <path class="cls-1" d="m116.97,96.597c-.193.232-.388.464-.591.698.203-.234.398-.466.591-.698Z"/>
    <path class="cls-1" d="m115.55,66.556c.113.134.222.267.333.401-.111-.134-.22-.267-.333-.401Z"/>
    <path class="cls-1" d="m118.496,70.39c.036.052.073.103.108.155-.035-.052-.073-.103-.108-.155Z"/>
    <path class="cls-1" d="m122.9,83.392c0,.005,0,.01,0,.015,0-.005,0-.01,0-.015Z"/>
    <path class="cls-1" d="m122.629,85.687c-.004.019-.008.039-.011.059.004-.02.008-.039.011-.059Z"/>
    <path class="cls-1" d="m116.552,67.778c.103.129.204.257.305.386-.101-.129-.202-.257-.305-.386Z"/>
    <path class="cls-1" d="m120.805,74.284c.016.033.032.067.048.1-.016-.033-.032-.067-.048-.1Z"/>
    <path class="cls-1" d="m120.99,90.525c-.046.095-.091.189-.138.284.048-.095.092-.189.138-.284Z"/>
    <path class="cls-1" d="m117.523,69.035c.08.107.162.215.24.323-.079-.107-.16-.215-.24-.323Z"/>
    <path class="cls-1" d="m121.885,76.84c.006.018.013.036.019.054-.006-.018-.013-.036-.019-.054Z"/>
    <path class="cls-1" d="m121.379,75.536c.017.039.033.078.049.117-.016-.039-.033-.078-.049-.117Z"/>
    <path class="cls-3" d="m26.911,99.727c6.092,1.906,13.349,2.264,21.651,1.079.329-3.703.732-7.964,1.614-12.495-13.428,3.463-21.739,8.137-25.491,10.616.724.289,1.462.561,2.225.8Z"/>
    <path class="cls-5" d="m73.736,27.546c.013,1.381-.265,2.49-.627,3.336-.77,1.795-2.253,3.12-3.967,3.543-3.079.767-6.266-1.836-9.645-4.585-.978-.795-2.344-1.906-3.216-2.444-.226.756-.368,2.087-.461,2.96-.301,2.81-.712,6.659-4.103,7.496-3.014.748-5.247-1.293-7.037-2.932-1.661-1.521-2.754-2.434-3.902-2.188-.743.157-1.201,2.917-1.474,4.566-.593,3.571-1.329,8.015-5.564,9.061-3.9.967-6.502-2.803-8.406-5.554-.491-.71-1.167-1.687-1.677-2.26-.463.569-1.066,1.489-1.508,2.162-1.869,2.852-4.191,6.392-7.908,6.392-.048,0-.096,0-.145-.002-1.653-.041-2.994-.644-3.982-1.793-.384-.446-.695-.973-.952-1.569-3.911,8.807-5.721,19.414-2.47,32.545.171.691.358,1.364.553,2.027.058.198.119.392.179.587.149.483.304.957.465,1.425.066.192.131.385.2.574.223.617.454,1.223.7,1.812.031.075.066.146.097.22.219.516.448,1.02.684,1.515.095.198.192.392.29.586.19.379.385.75.585,1.116.104.19.206.381.313.568.288.503.584.995.893,1.473.092.142.19.276.283.415.235.35.473.694.719,1.029.145.198.294.392.443.585.212.274.429.543.649.807.155.187.309.375.469.557.329.375.666.74,1.012,1.094.178.182.363.356.546.532.239.231.479.46.726.681.2.18.404.355.609.528.23.194.464.383.7.569.208.164.415.33.628.488.402.298.813.587,1.233.862.001,0,.002.002.003.002,2.466-1.912,12.092-8.65,30.462-13.185l1.342-.332c2.39-8.447,6.861-17.386,15.808-25.121,6.97-6.026,14.348-9.27,21.668-9.78-3.63-9.151-9.097-15.595-15.218-20.369Z"/>
    <path class="cls-3" d="m14.704,41.806c1.749-1.264,2.393-2.535,3.251-3.843,1.466-2.237,2.734-4.169,4.729-4.662,3.04-.748,5.025,2.123,6.777,4.657.578.836,1.626,2.351,2.421,3.099.409.385,1.077.298,1.356-.189.55-.96.858-2.817,1.118-4.388.464-2.797,1.023-6.141,3.366-7.786.564-.396,1.228-.696,2.023-.863.774-.163,1.497-.184,2.18-.108,2.631.292,4.613,2.103,6.146,3.507.399.366.991.908,1.506,1.295.349.262.854.082.939-.346.145-.734.247-1.683.319-2.355.145-1.361.32-2.959.835-4.353.564-1.529,1.538-2.813,3.348-3.26,1.507-.371,2.969.256,4.639,1.414.924.641,1.91,1.439,3.009,2.332,1.503,1.222,4.589,3.833,5.597,3.253.56-.457.903-2.142-.904-5.527-.21-.393-.532-.716-.916-.943l-.83-.492c-5.388-2.957-10.872-5.077-15.756-6.96-6.402-2.468-11.46-4.418-14.237-7.48l-1.329-1.467-.493,1.917c-1.028,4.001-4.592,8.08-9.105,13.244-3.225,3.69-6.82,7.805-10.046,12.523l-.373.675c-.188.34-.31.718-.356,1.104-.419,3.547-.397,5.004-.188,5.68.139.448.594.596.975.321Z"/>
    <path class="cls-2" d="m122.899,83.408c0-.005,0-.01,0-.015.103-2.213-.255-4.37-.995-6.499-.006-.018-.013-.036-.019-.054-.139-.396-.292-.792-.457-1.187-.016-.039-.033-.078-.049-.117-.163-.385-.339-.769-.526-1.153-.016-.033-.032-.067-.048-.1-.616-1.25-1.355-2.494-2.201-3.739-.035-.052-.073-.103-.108-.155-.236-.344-.481-.688-.733-1.032-.079-.107-.16-.215-.24-.323-.217-.29-.438-.581-.666-.871-.101-.129-.202-.257-.305-.386-.218-.274-.442-.547-.669-.822-.111-.134-.22-.267-.333-.401-.239-.283-.485-.567-.733-.851-.104-.119-.206-.239-.312-.358-.354-.4-.714-.8-1.084-1.201-17.73-19.225-34.459-9.921-42.851-2.663-14.609,12.629-16.026,28.631-17.061,40.315-.393,4.424-.731,8.245-1.769,11.022-.026.072-.057.18-.089.312.132-.023.241-.045.317-.067,1.218-.343,2.606-.478,4.164-.478.639,0,1.311.025,2.008.065.085.005.178.014.264.02.633.04,1.287.09,1.967.154,0,0,0,0,0,0,.004,0,.009,0,.013.001,1.32.123,2.719.281,4.216.452,13.091,1.495,31.018,3.541,47.588-11.7.464-.427.908-.85,1.339-1.271.145-.141.282-.281.423-.422.279-.278.553-.555.818-.83.161-.167.316-.333.472-.499.231-.246.456-.492.675-.736.157-.175.313-.35.465-.524.203-.234.398-.466.591-.698.147-.176.297-.354.438-.529.188-.234.364-.465.541-.697.263-.344.515-.686.755-1.026.129-.183.263-.366.386-.547.158-.233.304-.464.451-.696.092-.145.187-.29.275-.435.148-.242.288-.482.424-.722.072-.127.143-.253.213-.38.139-.254.273-.506.399-.758.048-.095.092-.189.138-.284.791-1.631,1.328-3.221,1.628-4.78.004-.02.008-.039.011-.059.06-.317.111-.633.152-.947h0c.058-.446.097-.89.118-1.332Zm-19.25-11.437c-2.909,24.208-20.492,27.092-28.696,27.092-1.482,0-2.658-.094-3.386-.173-.939-.102-1.787-.61-2.322-1.394-.534-.785-.697-1.757-.447-2.67,8.397-30.664,28.481-27.355,32.425-26.381,1.581.39,2.623,1.907,2.425,3.526Z"/>
    <path class="cls-5" d="m115.586,105.261c-12.453,11.455-25.737,14.033-37.131,14.033-5.31,0-10.209-.56-14.424-1.041-1.352-.154-2.639-.299-3.853-.415,1.372.57,2.886,1.14,4.515,1.685.157.053.31.106.469.158.41.134.834.263,1.258.393.291.089.583.176.881.262.393.114.79.226,1.194.336.381.103.772.202,1.163.3.357.09.708.182,1.073.268.734.172,1.483.335,2.249.487.276.055.562.102.842.154.56.104,1.124.204,1.699.295.326.052.658.099.99.147.571.082,1.149.156,1.734.224.317.037.633.075.954.107.736.075,1.485.136,2.242.187.175.012.344.029.52.039.933.055,1.883.087,2.847.101.267.004.541-.001.811,0,.715.002,1.437-.007,2.168-.03.339-.011.68-.025,1.022-.042.712-.034,1.432-.082,2.158-.141.32-.026.637-.048.96-.079,1.038-.1,2.086-.218,3.15-.373,12.659-1.847,21.193-8.792,25.365-20.643.27-.766.506-1.528.724-2.285,0,0,0,0,0,0-1.584,1.946-3.438,3.901-5.582,5.874Z"/>
    <path class="cls-4" d="m127.922,80.894c-.688-8.207-6.14-15.076-10.812-20.142-6.958-7.543-14.754-11.797-22.761-12.724-8.663-24.278-28.927-32.107-42.688-37.412-5.552-2.141-10.347-3.989-12.324-6.169l-2.947-3.25c-.908-1-2.307-1.417-3.644-1.084-1.34.331-2.38,1.349-2.716,2.656l-1.091,4.247c-.732,2.849-4.111,6.717-8.025,11.195C10.436,30.198-5.396,48.315,1.826,77.483c3.498,14.129,11.433,23.22,23.587,27.024,4.235,1.325,8.932,1.987,14.059,1.987,2.742,0,5.611-.196,8.595-.575-.244,2.087-.546,3.865-1.025,5.146-.338.902-.573,2.383-.667,3.049-.287,1.112.006,2.294.802,3.158.771.835,3.315,1.387,3.528,1.51,5.289,3.038,18.135,9.218,35.062,9.218,3.206,0,6.562-.222,10.036-.729,34.989-5.105,32.184-45.592,32.118-46.378ZM13.917,35.805c.046-.386.168-.764.356-1.104l.373-.675c3.226-4.717,6.821-8.832,10.046-12.523,4.513-5.164,8.077-9.243,9.105-13.244l.493-1.917,1.329,1.467c2.777,3.062,7.834,5.011,14.237,7.48,4.885,1.883,10.368,4.003,15.756,6.96l.83.492c.383.227.706.55.916.943,1.807,3.385,1.464,5.07.904,5.527-1.007.58-4.094-2.031-5.597-3.253-1.099-.894-2.085-1.691-3.009-2.332-1.671-1.158-3.132-1.786-4.639-1.414-1.81.447-2.783,1.731-3.348,3.26-.515,1.395-.69,2.993-.835,4.353-.072.672-.173,1.621-.319,2.355-.085.428-.59.608-.939.346-.515-.387-1.107-.93-1.506-1.295-1.533-1.404-3.516-3.214-6.146-3.507-.682-.076-1.406-.055-2.18.108-.794.167-1.459.467-2.023.863-2.343,1.645-2.902,4.99-3.366,7.786-.26,1.572-.568,3.428-1.118,4.388-.279.487-.947.574-1.356.189-.795-.749-1.843-2.263-2.421-3.099-1.751-2.533-3.737-5.405-6.777-4.657-1.995.493-3.263,2.425-4.729,4.662-.858,1.308-1.503,2.58-3.251,3.843-.38.275-.836.127-.975-.321-.209-.676-.231-2.134.188-5.68Zm34.645,65.001c-8.302,1.186-15.559.827-21.651-1.079-.763-.239-1.501-.511-2.225-.8,3.751-2.479,12.062-7.153,25.491-10.616-.882,4.531-1.285,8.792-1.614,12.495Zm1.574-17.658c-18.37,4.536-27.996,11.274-30.462,13.185-.001,0-.002-.002-.003-.002-.42-.276-.83-.564-1.233-.862-.213-.158-.42-.324-.628-.488-.236-.186-.47-.375-.7-.569-.205-.173-.409-.348-.609-.528-.247-.221-.487-.45-.726-.681-.183-.177-.368-.35-.546-.532-.346-.354-.683-.719-1.012-1.094-.159-.182-.313-.37-.469-.557-.22-.264-.437-.533-.649-.807-.149-.193-.298-.387-.443-.585-.246-.335-.485-.68-.719-1.029-.094-.139-.192-.273-.283-.415-.309-.477-.605-.97-.893-1.473-.107-.186-.209-.378-.313-.568-.2-.366-.396-.737-.585-1.116-.097-.194-.195-.388-.29-.586-.237-.495-.465-.999-.684-1.515-.032-.074-.066-.145-.097-.22-.246-.589-.477-1.196-.7-1.812-.068-.189-.133-.382-.2-.574-.161-.467-.317-.942-.465-1.425-.06-.195-.121-.389-.179-.587-.195-.663-.382-1.336-.553-2.027-3.251-13.131-1.441-23.738,2.47-32.545.257.596.568,1.123.952,1.569.988,1.149,2.328,1.752,3.982,1.793.049.001.097.002.145.002,3.717,0,6.039-3.54,7.908-6.392.442-.673,1.044-1.593,1.508-2.162.51.573,1.186,1.55,1.677,2.26,1.903,2.751,4.506,6.521,8.406,5.554,4.235-1.046,4.971-5.49,5.564-9.061.273-1.649.731-4.41,1.474-4.566,1.148-.245,2.24.667,3.902,2.188,1.79,1.639,4.023,3.68,7.037,2.932,3.391-.837,3.803-4.686,4.103-7.496.093-.873.235-2.204.461-2.96.872.538,2.238,1.649,3.216,2.444,3.378,2.749,6.566,5.351,9.645,4.585,1.714-.424,3.197-1.748,3.967-3.543.362-.846.64-1.955.627-3.336,6.121,4.774,11.589,11.217,15.218,20.369-7.319.51-14.698,3.754-21.668,9.78-8.948,7.736-13.419,16.675-15.808,25.121l-1.342.332Zm71.032,16.24c-.218.756-.454,1.518-.724,2.285-4.173,11.851-12.707,18.796-25.365,20.643-1.064.155-2.112.274-3.15.373-.322.031-.64.053-.96.079-.726.059-1.446.107-2.158.141-.342.016-.683.031-1.022.042-.731.023-1.453.032-2.168.03-.27,0-.543.005-.811,0-.963-.014-1.914-.047-2.847-.101-.176-.01-.346-.028-.52-.039-.758-.051-1.506-.112-2.242-.187-.321-.033-.637-.07-.954-.107-.585-.068-1.164-.142-1.734-.224-.332-.048-.663-.095-.99-.147-.576-.091-1.14-.191-1.699-.295-.28-.052-.566-.099-.842-.154-.766-.152-1.515-.315-2.249-.487-.365-.086-.717-.178-1.073-.268-.391-.098-.782-.197-1.163-.3-.404-.11-.802-.222-1.194-.336-.297-.086-.59-.174-.881-.262-.425-.13-.848-.259-1.258-.393-.159-.052-.312-.105-.469-.158-1.629-.545-3.143-1.115-4.515-1.685,1.213.117,2.501.261,3.853.415,4.215.481,9.114,1.041,14.424,1.041,11.394,0,24.678-2.578,37.131-14.033,2.145-1.973,3.999-3.929,5.582-5.874,0,0,0,0,0,0Zm1.731-15.98c-.021.442-.06.886-.118,1.332-.041.314-.092.63-.152.947-.004.02-.008.039-.011.059-.3,1.558-.837,3.149-1.628,4.78-.046.095-.091.189-.138.284-.126.251-.26.504-.399.758-.069.126-.14.253-.213.38-.136.24-.276.48-.424.722-.088.144-.183.29-.275.435-.147.231-.293.463-.451.696-.123.181-.257.365-.386.547-.24.34-.492.682-.755,1.026-.177.232-.353.463-.541.697-.141.175-.291.352-.438.529-.193.232-.388.464-.591.698-.151.174-.308.349-.465.524-.219.244-.444.49-.675.736-.155.166-.311.332-.472.499-.264.275-.539.552-.818.83-.141.141-.278.28-.423.422-.431.421-.875.844-1.339,1.271-16.57,15.241-34.498,13.194-47.588,11.7-1.497-.171-2.895-.328-4.216-.452-.004,0-.009,0-.013-.001,0,0,0,0,0,0-.681-.064-1.331-.113-1.967-.154-.086-.006-.179-.015-.264-.02-.698-.041-1.369-.065-2.008-.065-1.558,0-2.946.135-4.164.478-.076.022-.185.044-.317.067.032-.132.063-.24.089-.312,1.038-2.776,1.376-6.598,1.769-11.022,1.034-11.684,2.452-27.685,17.061-40.315,8.393-7.258,25.122-16.561,42.851,2.663.37.401.731.802,1.084,1.201.106.12.207.239.312.358.248.284.494.568.733.851.113.134.223.267.333.401.227.274.451.548.669.822.103.129.204.257.305.386.227.291.449.581.666.871.08.108.162.215.24.323.252.344.496.688.733,1.032.036.052.073.103.108.155.846,1.245,1.585,2.489,2.201,3.739.016.033.032.067.048.1.187.384.363.768.526,1.153.016.039.033.078.049.117.165.395.318.79.457,1.187.006.018.013.036.019.054.74,2.13,1.098,4.286.995,6.499,0,.005,0,.01,0,.015Z"/>
    <path class="cls-5" d="m88.552,74.466c-6.379,2.91-11.186,9.496-14.308,19.593,6.862.22,21.125-1.728,24.197-21.044-2.172-.291-5.909-.365-9.889,1.452Z"/>
    <path class="cls-4" d="m101.224,68.445c-3.944-.974-24.028-4.283-32.425,26.381-.251.913-.087,1.885.447,2.67.535.784,1.382,1.292,2.322,1.394.728.079,1.904.173,3.386.173,8.204,0,25.787-2.884,28.696-27.092.198-1.619-.844-3.135-2.425-3.526Zm-26.98,25.614c3.122-10.096,7.929-16.682,14.308-19.593,3.98-1.817,7.717-1.742,9.889-1.452-3.072,19.317-17.335,21.264-24.197,21.044Z"/>
  </g>
</svg>