<?xml version="1.0" encoding="UTF-8"?>
<svg id="Ebene_1" data-name="Ebene 1" xmlns="http://www.w3.org/2000/svg" viewBox="0 0 128 128">
  <defs>
    <style>
      .cls-1 {
        fill: #eaccad;
      }

      .cls-2 {
        fill: #996a50;
      }

      .cls-3 {
        fill: #444;
      }
    </style>
  </defs>
  <path class="cls-2" d="m76.214,25.749c-6.578-13.138-19.878-20.744-33.667-20.744-5.644,0-11.369,1.273-16.752,3.964-8.976,4.487-15.665,12.199-18.837,21.714-3.172,9.515-2.445,19.695,2.045,28.664,6.662,13.304,20.213,20.929,34.187,20.731.815-6.32,3.044-12.402,6.513-17.767l-14.72-29.4c-.619-1.236-.118-2.74,1.119-3.358,1.235-.618,2.742-.117,3.36,1.118l13.584,27.133c3.591-4.21,8.065-7.782,13.319-10.409,4.455-2.227,9.118-3.589,13.801-4.167.118-5.878-1.142-11.866-3.952-17.48Z"/>
  <path class="cls-3" d="m36.102,29.553c-1.238.618-1.739,2.122-1.119,3.358l14.72,29.4c1.013-1.566,2.123-3.076,3.344-4.507l-13.584-27.133c-.618-1.236-2.125-1.736-3.36-1.118Z"/>
  <path class="cls-2" d="m85.358,47.908c-5.645,0-11.37,1.274-16.752,3.964-18.529,9.263-26.063,31.862-16.792,50.379,9.268,18.513,31.883,26.043,50.419,16.779,18.528-9.262,26.06-31.864,16.792-50.379-6.578-13.137-19.878-20.743-33.666-20.743Zm27.394,51.585c-2.123,4.525-9.114,16.372-23.912,16.372-4.493,0-9.704-1.091-15.719-3.812-8.431-3.812-13.886-9.26-16.21-16.194-3.678-10.963,1.947-21.476,2.188-21.918l.068-.115c6.717-10.887,15.869-13.061,23.945-14.98,3.413-.811,6.636-1.576,9.54-2.931,2.355-1.097,4.21-.818,5.353-.393,2.308.862,3.511,2.914,4.022,4.061.339.759,1.396,2.248,2.515,3.825,5.29,7.452,15.138,21.322,8.212,36.085Z"/>
  <path class="cls-3" d="m123.503,66.413c-7.482-14.946-22.638-23.566-38.329-23.501.067-6.531-1.361-13.17-4.481-19.402h0C70.187,2.525,44.551-6.005,23.554,4.493,13.38,9.578,5.798,18.318,2.204,29.102s-2.771,22.321,2.319,32.486c7.455,14.891,22.525,23.509,38.155,23.509.058,0,.116-.005.174-.005-.066,6.53,1.362,13.168,4.481,19.399,7.455,14.891,22.526,23.51,38.155,23.51,6.396,0,12.886-1.443,18.984-4.492,21.001-10.498,29.538-36.112,19.031-57.095Zm-80.314,13.666c-13.975.197-27.526-7.427-34.187-20.731-4.49-8.969-5.217-19.149-2.045-28.664,3.172-9.515,9.861-17.227,18.837-21.714,5.383-2.691,11.108-3.964,16.752-3.964,13.789,0,27.089,7.607,33.667,20.744,2.81,5.614,4.07,11.602,3.952,17.48-4.683.577-9.346,1.939-13.801,4.167-5.254,2.626-9.728,6.199-13.319,10.409-1.221,1.431-2.331,2.941-3.344,4.507-3.469,5.365-5.698,11.448-6.513,17.767Zm59.043,38.952c-18.536,9.263-41.15,1.733-50.419-16.779-9.27-18.517-1.737-41.116,16.792-50.379,5.382-2.691,11.107-3.964,16.752-3.964,13.788,0,27.088,7.607,33.666,20.743,9.268,18.516,1.736,41.117-16.792,50.379Z"/>
  <path class="cls-1" d="m97.449,61.622c-.249-.558-.695-1.221-1.201-1.41-.358-.133-.854-.054-1.48.24-3.368,1.57-6.994,2.431-10.5,3.264-7.802,1.854-15.172,3.604-20.795,12.665-.38.736-4.683,9.399-1.8,17.926,1.71,5.058,5.654,9.193,11.723,12.316l7.914-16.87c.586-1.25,2.075-1.792,3.331-1.203,1.252.587,1.791,2.077,1.204,3.329l-7.86,16.754c8.075,2.948,22.482,5.253,30.23-11.266,5.688-12.121-2.732-23.978-7.762-31.063-1.43-2.015-2.464-3.471-3.005-4.683Z"/>
  <path class="cls-3" d="m102.024,59.584c-.512-1.147-1.714-3.199-4.022-4.061-1.143-.425-2.998-.704-5.353.393-2.904,1.355-6.127,2.12-9.54,2.931-8.076,1.918-17.228,4.092-23.945,14.98l-.068.115c-.241.442-5.866,10.955-2.188,21.918,2.325,6.934,7.779,12.382,16.21,16.194,6.015,2.721,11.226,3.812,15.719,3.812,14.798,0,21.789-11.847,23.912-16.372,6.926-14.763-2.922-28.633-8.212-36.085-1.119-1.576-2.177-3.066-2.515-3.825Zm6.191,37.784c-7.748,16.519-22.155,14.213-30.23,11.266l7.86-16.754c.587-1.252.048-2.742-1.204-3.329-1.256-.589-2.745-.047-3.331,1.203l-7.914,16.87c-6.069-3.123-10.013-7.257-11.723-12.316-2.882-8.527,1.421-17.19,1.8-17.926,5.623-9.062,12.993-10.812,20.795-12.665,3.507-.833,7.133-1.694,10.5-3.264.626-.293,1.122-.372,1.48-.24.506.189.952.852,1.201,1.41.541,1.212,1.574,2.668,3.005,4.683,5.03,7.085,13.449,18.942,7.762,31.063Z"/>
</svg>