<svg id="Ebene_1" data-name="Ebene 1" xmlns="http://www.w3.org/2000/svg" viewBox="0 0 120.76 120.76"><defs><style>.cls-1{fill:#7d4e24;}.cls-2{fill:#fff;}</style></defs><title>Unterallergen_SVG</title><path class="cls-1" d="M120.76,60.38A60.38,60.38,0,1,1,60.38,0,60.39,60.39,0,0,1,120.76,60.38Z"/><path class="cls-2" d="M53.55,70a25.48,25.48,0,0,1,26.3-20,12.89,12.89,0,0,0,3.42-.74,23.67,23.67,0,0,0-1.48-4.89c-5.62-13.22-22-18.9-36.68-12.68s-21.95,22-16.33,35.2C33,76.85,43.43,82.52,54.57,82A21.1,21.1,0,0,1,53.55,70Z"/><path class="cls-2" d="M92.78,59.91h0c-1.06-1.42-1.32-3.33-1.56-5.18C91,53,90.76,51.3,90,50.93s-3.54.49-5.2,1l-1.12.33a12.24,12.24,0,0,1-4,.71c-.48,0-1-.05-1.44-.05A22.16,22.16,0,0,0,65,57.39,21.87,21.87,0,0,0,56.49,70.6a17.92,17.92,0,0,0,1.22,11.12,17,17,0,0,0,1.77,3c6.13,8.22,18.58,9.35,27.76,2.52S98.9,68.14,92.78,59.91Zm-20,6a17.6,17.6,0,0,0-2.27,3.86,18.18,18.18,0,0,0-1.23,4.3A26.28,26.28,0,0,0,69,79a8.74,8.74,0,0,1-2.09-4.92,10.92,10.92,0,0,1,4.22-9.81,8.79,8.79,0,0,1,5-1.88A26.28,26.28,0,0,0,72.78,66Z"/></svg>