<svg id="Ebene_1" data-name="Ebene 1" xmlns="http://www.w3.org/2000/svg" viewBox="0 0 120.76 120.76"><defs><style>.cls-1{fill:#f5c500;}.cls-2{fill:#fff;}.cls-3{fill:none;}</style></defs><title>Unterallergen_SVG</title><path class="cls-1" d="M36.83,85.2C40.22,64.81,48.93,34,71,1a60.38,60.38,0,0,0-36.59,114A166.68,166.68,0,0,1,36.83,85.2Z"/><path class="cls-1" d="M75.25,1.85c-34.84,51.31-37.19,98-36.71,114.82A60.38,60.38,0,1,0,75.25,1.85Z"/><path class="cls-2" d="M75.25,1.85C73.87,1.5,72.46,1.21,71,1,48.93,34,40.22,64.81,36.83,85.2a166.68,166.68,0,0,0-2.38,29.72c1.34.63,2.7,1.21,4.09,1.75C38.06,99.89,40.41,53.16,75.25,1.85Z"/><path class="cls-3" d="M29.21,34.17h0c-7,7.18-7.73,12.38-7.73,12.38s2.63.18,7.17-1.65h0c-4.53,1.82-7.15,1.64-7.15,1.64S22.19,41.35,29.21,34.17Z"/><path class="cls-2" d="M39.28,23.12a51.35,51.35,0,0,0-5.28.51c-14.5,2.07-19.12,7.82-19.12,7.82s3.31,2.31,10.89,2.68A54.37,54.37,0,0,1,32.2,28,44.53,44.53,0,0,1,39.28,23.12Z"/><path class="cls-2" d="M33.83,30a34.71,34.71,0,0,1,8.32-5.4h0A34.71,34.71,0,0,0,33.81,30a53.48,53.48,0,0,0-4.61,4.19h0A53.71,53.71,0,0,1,33.83,30Z"/><path class="cls-2" d="M47.28,24.57l.2.16A1.56,1.56,0,0,0,47.28,24.57Z"/><path class="cls-2" d="M46.93,24.32Z"/><path class="cls-2" d="M28.64,44.9a45.46,45.46,0,0,0,11.55-7.11c5.31-4.33,7.6-7.41,8.17-9.61a3.29,3.29,0,0,0-.56-3.11,3.4,3.4,0,0,0-.32-.34l-.2-.16a2.22,2.22,0,0,0-.35-.25h0c-1-.59-2.55-.65-4.78.25A34.71,34.71,0,0,0,33.83,30a53.71,53.71,0,0,0-4.62,4.2c-7,7.18-7.72,12.37-7.72,12.37S24.11,46.72,28.64,44.9Z"/><path class="cls-1" d="M48.52,26.66a3.22,3.22,0,0,0-.19-.74,3.59,3.59,0,0,1,.11,2A3.22,3.22,0,0,0,48.52,26.66Z"/><path class="cls-1" d="M48.36,28.18c-.57,2.2-2.86,5.28-8.17,9.61A45.46,45.46,0,0,1,28.64,44.9h0a45.08,45.08,0,0,0,11.55-7.1c5.52-4.51,7.78-7.65,8.24-9.86A1.44,1.44,0,0,1,48.36,28.18Z"/><path class="cls-1" d="M46.93,24.32a3.12,3.12,0,0,1,.35.25,1.56,1.56,0,0,1,.2.16,3.17,3.17,0,0,1,.85,1.19,3.37,3.37,0,0,0-.51-.86,3.19,3.19,0,0,0-1-.81l.11.07Z"/><path class="cls-1" d="M47.8,25.07a3.29,3.29,0,0,1,.56,3.11,1.44,1.44,0,0,0,.08-.25,3.59,3.59,0,0,0-.11-2,3.17,3.17,0,0,0-.85-1.19A3.4,3.4,0,0,1,47.8,25.07Z"/><path class="cls-1" d="M42.16,24.57h0c2.23-.9,3.75-.84,4.78-.25l-.11-.07C45.79,23.73,44.31,23.7,42.16,24.57Z"/><path class="cls-1" d="M46.93,24.32a2.22,2.22,0,0,1,.35.25A3.12,3.12,0,0,0,46.93,24.32Z"/><path class="cls-3" d="M86.24,30.22h0c7.75,6.4,13,6.66,13,6.66s0-2.63-2.25-7h0c2.2,4.36,2.24,7,2.24,7S94,36.61,86.24,30.22Z"/><path class="cls-2" d="M74.38,21.12a51.63,51.63,0,0,0,1,5.21c3.27,14.28,9.4,18.4,9.4,18.4s2-3.49,1.76-11.08a53.53,53.53,0,0,1-6.65-5.89A44.71,44.71,0,0,1,74.38,21.12Z"/><path class="cls-2" d="M81.67,26a34.8,34.8,0,0,1-6.08-7.84h0A34.61,34.61,0,0,0,81.68,26a55,55,0,0,0,4.56,4.24h0A56.61,56.61,0,0,1,81.67,26Z"/><path class="cls-2" d="M75.15,13l.15-.21Z"/><path class="cls-2" d="M74.93,13.39h0Z"/><path class="cls-2" d="M97,29.88a45.42,45.42,0,0,0-8-10.9c-4.77-4.93-8-7-10.27-7.34a3.29,3.29,0,0,0-3,.82,3.38,3.38,0,0,0-.31.35l-.15.21a2.71,2.71,0,0,0-.21.37h0c-.49,1.08-.42,2.6.66,4.75A34.8,34.8,0,0,0,81.67,26a56.61,56.61,0,0,0,4.57,4.24c7.74,6.39,13,6.65,13,6.65S99.18,34.24,97,29.88Z"/><path class="cls-1" d="M77.13,11.61a3.1,3.1,0,0,0-.72.26,3.43,3.43,0,0,1,2-.28A3,3,0,0,0,77.13,11.61Z"/><path class="cls-1" d="M78.66,11.64c2.24.39,5.5,2.41,10.27,7.34a45.42,45.42,0,0,1,8,10.9h0a45.16,45.16,0,0,0-8-10.91c-5-5.12-8.28-7.1-10.52-7.37Z"/><path class="cls-1" d="M74.94,13.39c.06-.13.14-.25.21-.37l.15-.21a3.06,3.06,0,0,1,1.11-.94,3,3,0,0,0-.81.57,3.16,3.16,0,0,0-.72,1.07.61.61,0,0,0,.05-.12Z"/><path class="cls-1" d="M75.61,12.46a3.29,3.29,0,0,1,3-.82l-.26-.05a3.43,3.43,0,0,0-2,.28,3.06,3.06,0,0,0-1.11.94A3.38,3.38,0,0,1,75.61,12.46Z"/><path class="cls-1" d="M75.58,18.13h0c-1.08-2.15-1.15-3.67-.66-4.75a.61.61,0,0,1-.05.12C74.44,14.58,74.54,16.06,75.58,18.13Z"/><path class="cls-1" d="M74.94,13.39a2.71,2.71,0,0,1,.21-.37C75.08,13.14,75,13.26,74.94,13.39Z"/><path class="cls-3" d="M71.07,59.69v0c7.74,6.39,13,6.65,13,6.65s0-2.63-2.25-7h0c2.19,4.35,2.24,7,2.24,7S78.82,66.08,71.07,59.69Z"/><path class="cls-2" d="M59.21,50.59c.2,1.51.51,3.24,1,5.22,3.28,14.27,9.4,18.39,9.4,18.39s2-3.49,1.76-11.07a54.5,54.5,0,0,1-6.64-5.9A44.86,44.86,0,0,1,59.21,50.59Z"/><path class="cls-2" d="M66.5,55.45a34.69,34.69,0,0,1-6.07-7.84h0a34.51,34.51,0,0,0,6.08,7.85,56.61,56.61,0,0,0,4.57,4.24v0A56.61,56.61,0,0,1,66.5,55.45Z"/><path class="cls-2" d="M60,42.5l.15-.22A1.7,1.7,0,0,0,60,42.5Z"/><path class="cls-2" d="M59.77,42.87Z"/><path class="cls-2" d="M81.82,59.36a45.72,45.72,0,0,0-8-10.91c-4.78-4.93-8-7-10.27-7.34a3.31,3.31,0,0,0-3.06.82,3.27,3.27,0,0,0-.3.35L60,42.5a2.16,2.16,0,0,0-.22.36h0c-.5,1.07-.43,2.59.66,4.74a34.69,34.69,0,0,0,6.07,7.84,56.61,56.61,0,0,0,4.57,4.24c7.75,6.39,13,6.65,13,6.65S84,63.71,81.82,59.36Z"/><path class="cls-1" d="M62,41.08a3.1,3.1,0,0,0-.72.26,3.41,3.41,0,0,1,2-.28A3.19,3.19,0,0,0,62,41.08Z"/><path class="cls-1" d="M63.5,41.11c2.23.39,5.49,2.41,10.27,7.34a45.72,45.72,0,0,1,8,10.91h0a45.26,45.26,0,0,0-8-10.92c-5-5.12-8.28-7.1-10.52-7.37Z"/><path class="cls-1" d="M59.77,42.86A3.13,3.13,0,0,1,60,42.5a1.7,1.7,0,0,1,.15-.22,3.06,3.06,0,0,1,1.11-.94,3.17,3.17,0,0,0-.82.57A3.31,3.31,0,0,0,59.71,43l.06-.11Z"/><path class="cls-1" d="M60.44,41.93a3.31,3.31,0,0,1,3.06-.82l-.26,0a3.41,3.41,0,0,0-2,.28,3.06,3.06,0,0,0-1.11.94A3.27,3.27,0,0,1,60.44,41.93Z"/><path class="cls-1" d="M60.42,47.6h0c-1.09-2.15-1.16-3.67-.66-4.74l-.06.11C59.28,44.05,59.37,45.53,60.42,47.6Z"/><path class="cls-1" d="M59.77,42.86A2.16,2.16,0,0,1,60,42.5,3.13,3.13,0,0,0,59.77,42.86Z"/><path class="cls-3" d="M59.79,96.52v0c7.75,6.39,13,6.65,13,6.65s0-2.63-2.24-7h0c2.2,4.36,2.24,7,2.24,7S67.54,102.91,59.79,96.52Z"/><path class="cls-2" d="M47.93,87.42c.19,1.51.51,3.24,1,5.22,3.28,14.27,9.4,18.39,9.4,18.39s2-3.49,1.76-11.07a54.52,54.52,0,0,1-6.65-5.9A44.71,44.71,0,0,1,47.93,87.42Z"/><path class="cls-2" d="M55.22,92.28a34.8,34.8,0,0,1-6.08-7.84h0a34.51,34.51,0,0,0,6.08,7.85,56.59,56.59,0,0,0,4.56,4.24v0A56.61,56.61,0,0,1,55.22,92.28Z"/><path class="cls-2" d="M48.7,79.33l.15-.22Z"/><path class="cls-2" d="M48.49,79.7Z"/><path class="cls-2" d="M70.53,96.19a45.16,45.16,0,0,0-8.05-10.91c-4.77-4.93-8-7-10.27-7.34a3.32,3.32,0,0,0-3.05.82c-.11.11-.21.23-.31.35l-.15.22a2.57,2.57,0,0,0-.21.37h0c-.5,1.07-.43,2.59.65,4.74a34.8,34.8,0,0,0,6.08,7.84,56.61,56.61,0,0,0,4.57,4.24c7.75,6.39,13,6.65,13,6.65S72.73,100.55,70.53,96.19Z"/><path class="cls-1" d="M50.69,77.91a3.1,3.1,0,0,0-.72.26,3.41,3.41,0,0,1,2-.28A3.19,3.19,0,0,0,50.69,77.91Z"/><path class="cls-1" d="M52.21,77.94c2.24.39,5.5,2.41,10.27,7.34a45.16,45.16,0,0,1,8.05,10.91h0a45.35,45.35,0,0,0-8.06-10.92c-4.95-5.12-8.27-7.1-10.51-7.37Z"/><path class="cls-1" d="M48.49,79.7a4.07,4.07,0,0,1,.21-.37l.15-.22A3.08,3.08,0,0,1,50,78.17a3.1,3.1,0,0,0-1.54,1.64l.06-.11Z"/><path class="cls-1" d="M49.16,78.76a3.32,3.32,0,0,1,3.05-.82l-.25,0a3.41,3.41,0,0,0-2,.28,3.08,3.08,0,0,0-1.12.94C49,79,49.05,78.87,49.16,78.76Z"/><path class="cls-1" d="M49.14,84.43h0c-1.08-2.15-1.15-3.67-.65-4.74l-.06.11C48,80.88,48.09,82.36,49.14,84.43Z"/><path class="cls-1" d="M48.49,79.7a2.57,2.57,0,0,1,.21-.37A4.07,4.07,0,0,0,48.49,79.7Z"/></svg>