<?xml version="1.0" encoding="UTF-8"?>
<svg id="Ebene_1" data-name="Ebene 1" xmlns="http://www.w3.org/2000/svg" viewBox="0 0 128 128">
  <defs>
    <style>
      .cls-1 {
        fill: none;
      }

      .cls-2 {
        fill: #fd0;
      }

      .cls-3 {
        fill: #444;
      }
    </style>
  </defs>
  <path class="cls-1" d="m91.67,43.47s.08.01.12.02c-.06-.01-.12-.03-.17-.04.02,0,.04.01.06.02Z"/>
  <path class="cls-1" d="m92.41,43.6c-.12-.02-.23-.04-.34-.06.11.02.22.04.34.06Z"/>
  <path class="cls-1" d="m78.5,60.14s-.03.04-.04.06c.01-.02.03-.04.04-.06,0,0,0,0,0,0Z"/>
  <path class="cls-1" d="m88.34,39.97c.01.07.04.14.05.21-.02-.08-.04-.16-.05-.24,0,.01,0,.02,0,.04Z"/>
  <path class="cls-1" d="m93.87,43.73c-.14,0-.28,0-.42-.02.14,0,.27.01.42.02Z"/>
  <path class="cls-1" d="m93.11,43.68c-.13-.01-.26-.02-.38-.04.12.02.25.03.38.04Z"/>
  <path class="cls-1" d="m89.31,87.29c-.38-.45-.76-.91-1.16-1.39.39.48.78.94,1.16,1.39Z"/>
  <path class="cls-1" d="m92.55,90.88h0c-.67-.68-1.46-1.54-2.3-2.5.84.96,1.63,1.82,2.3,2.5Z"/>
  <path class="cls-1" d="m94.71,43.72c-.15,0-.3,0-.45,0,.15,0,.3,0,.45,0Z"/>
  <path class="cls-1" d="m94.37,87.19c-.17.87-.34,1.68-.53,2.41.18-.73.36-1.54.53-2.41Z"/>
  <path class="cls-1" d="m95.04,82.93c-.13,1-.27,1.98-.43,2.91.16-.93.3-1.9.43-2.91Z"/>
  <path class="cls-1" d="m99.82,42.64c-.21.08-.42.16-.62.23.2-.07.41-.15.62-.23Z"/>
  <path class="cls-1" d="m106.47,38.77c-.31.24-.63.49-.93.71.31-.22.62-.47.93-.71Z"/>
  <path class="cls-1" d="m104.98,39.87c-.27.19-.55.38-.81.55.27-.17.54-.36.81-.55Z"/>
  <path class="cls-1" d="m103.6,40.77c-.25.15-.5.31-.75.45.25-.14.5-.29.75-.45Z"/>
  <path class="cls-1" d="m108.42,37.16c-.5.44-.98.85-1.46,1.24.48-.39.97-.8,1.46-1.24Z"/>
  <path class="cls-1" d="m95.6,43.66c-.16.02-.33.03-.49.04.16-.01.32-.03.49-.04Z"/>
  <path class="cls-1" d="m102.28,41.52c-.23.12-.47.25-.7.36.23-.11.47-.24.7-.36Z"/>
  <path class="cls-1" d="m96.57,43.53c-.18.03-.35.06-.52.08.17-.02.34-.05.52-.08Z"/>
  <path class="cls-1" d="m97.59,43.32c-.19.04-.37.09-.55.12.18-.04.37-.08.55-.12Z"/>
  <path class="cls-1" d="m98.67,43.03c-.2.06-.39.12-.59.17.19-.05.39-.11.59-.17Z"/>
  <path class="cls-1" d="m78.98,59.5s.07-.1.1-.14c-.04.04-.07.09-.1.14Z"/>
  <path class="cls-1" d="m101.02,42.14c-.22.1-.44.2-.66.29.22-.09.44-.19.66-.29Z"/>
  <path class="cls-1" d="m85.77,57.95c.11.04.22.09.33.13-.11-.04-.22-.09-.33-.13Z"/>
  <path class="cls-1" d="m92.76,63.97c.1.17.19.35.29.52-.1-.17-.19-.36-.29-.52Z"/>
  <path class="cls-1" d="m93.32,64.99c.07.14.14.29.2.43-.07-.14-.13-.3-.2-.43Z"/>
  <path class="cls-1" d="m93.85,66.12c.03.07.05.14.08.21-.03-.07-.05-.14-.08-.21Z"/>
  <path class="cls-1" d="m93.41,90.9c.08-.07.14-.17.17-.28.09-.32.18-.66.27-1.02-.09.36-.18.71-.27,1.02-.03.11-.09.21-.17.28Z"/>
  <path class="cls-1" d="m92.17,63.04c.13.18.25.38.37.58-.12-.2-.24-.4-.37-.58Z"/>
  <path class="cls-1" d="m91.55,62.21c.12.16.25.33.37.5-.12-.17-.24-.34-.37-.5Z"/>
  <path class="cls-1" d="m100.46,80.62c.07-.8.12-1.59.15-2.39-.04.79-.09,1.59-.15,2.39Z"/>
  <path class="cls-1" d="m90.91,61.45c.11.12.22.26.33.38-.11-.13-.22-.26-.33-.38Z"/>
  <path class="cls-1" d="m100.92,73.24c-.17.11-.28.29-.28.53,0-.24.11-.43.28-.53Z"/>
  <path class="cls-1" d="m101.8,73.46c2.28,4.22,4.22,8.84,5.25,12.02.02.06.03.13.03.19,0-.06-.01-.12-.03-.19-1.03-3.18-2.96-7.8-5.25-12.02-.08-.14-.19-.23-.31-.28.13.05.24.14.31.28Z"/>
  <path class="cls-1" d="m101.49,73.18c-.19-.07-.4-.04-.57.06.17-.11.38-.13.57-.06Z"/>
  <path class="cls-1" d="m86.36,58.18c.11.05.23.11.35.16-.12-.05-.24-.11-.35-.16Z"/>
  <path class="cls-1" d="m85.2,57.75s0,0,0,0c.12.04.25.08.38.13-.13-.04-.26-.09-.38-.13Z"/>
  <path class="cls-1" d="m86.98,58.47c.13.06.26.13.39.2-.13-.07-.26-.14-.39-.2Z"/>
  <path class="cls-1" d="m87.62,58.8c.11.06.21.13.32.19-.11-.06-.21-.13-.32-.19Z"/>
  <path class="cls-1" d="m90.26,60.78c.11.11.22.22.33.34-.11-.11-.22-.23-.33-.34Z"/>
  <path class="cls-1" d="m88.94,59.66c.12.09.24.19.36.28-.12-.1-.24-.2-.36-.28Z"/>
  <path class="cls-1" d="m88.28,59.2c.1.06.2.14.3.21-.1-.07-.2-.14-.3-.21Z"/>
  <path class="cls-1" d="m89.6,60.18c.11.09.22.2.33.3-.11-.1-.22-.2-.33-.3Z"/>
  <path class="cls-2" d="m6.05,65.17c2.77,3.38,10.85,10.35,17.94,14.43-2.99-3.83-6.01-9.81-8.31-15.59-4.03.29-7.56.72-9.63,1.17Z"/>
  <path class="cls-2" d="m16.94,50.6c.86,5.4,6.62,21.28,12.2,27.08,4.07,4.23,8.27,6.48,12.14,6.52,3.75.06,5.81-1.92,6.04-2.14.07-.07,6.77-7.04-3.8-18.03-5.17-5.37-21.08-12.12-26.57-13.42Z"/>
  <path class="cls-2" d="m44.19,22.68c1.38-3.78-.05-7.1-.35-7.73-.19-.39-4.7-9.46-17.53-3.68-6.31,2.85-16.67,15.76-18.87,20.14,4.8,1.5,21.77,2.07,28.21-.84,4.49-2.03,7.36-4.68,8.53-7.89Z"/>
  <path class="cls-2" d="m107.72,14.52c-.17-3.51-.52-6.63-.92-8.51-3.95,2.97-12.81,12.5-16.72,19.21.38-.37.77-.74,1.19-1.11,4.19-3.73,12.02-7.57,16.45-9.59Z"/>
  <path class="cls-2" d="m88.39,40.18c.35,1.63,1.59,2.89,3.23,3.27.06.01.11.03.17.04.09.02.19.04.28.05.11.02.22.04.34.06.1.02.21.03.32.04.12.02.25.03.38.04.11.01.23.02.35.03.14,0,.27.01.42.02.12,0,.25,0,.38,0,.15,0,.3,0,.45,0,.14,0,.27-.01.41-.02.16-.01.32-.03.49-.04.15-.01.29-.03.44-.05.17-.02.34-.05.52-.08.16-.03.31-.05.47-.08.18-.04.37-.08.55-.12.16-.04.33-.08.5-.12.19-.05.39-.11.59-.17.17-.05.35-.1.52-.16.2-.07.41-.15.62-.23.18-.07.36-.13.54-.21.22-.09.44-.19.66-.29.19-.08.37-.16.56-.26.23-.11.47-.24.7-.36.19-.1.38-.19.57-.3.25-.14.5-.29.75-.45.19-.12.38-.22.57-.35.27-.17.54-.36.81-.55.19-.13.37-.25.56-.38.31-.22.62-.47.93-.71.16-.13.32-.24.49-.37.48-.39.97-.8,1.46-1.24,5.14-4.58,11.83-17.21,13.83-22.68-6.28,1.66-21.83,8.39-27.55,13.49-4.26,3.8-6.49,7.58-6.46,10.95,0,.37.04.71.09,1.03.01.09.04.16.05.24Z"/>
  <path class="cls-2" d="m100.56,83.55c.53.27,1.05.53,1.55.78,1.52.75,2.92,1.4,4.1,1.91.18.08.37.06.52-.01.2-.1.35-.31.34-.55,0-.06-.01-.12-.03-.19-1.03-3.18-2.96-7.8-5.25-12.02-.08-.14-.19-.23-.31-.28-.19-.07-.4-.04-.57.06-.17.11-.28.29-.28.53.05,1.43.04,2.94-.03,4.45-.04.79-.09,1.59-.15,2.39-.06.77-.14,1.55-.23,2.31-.03.26.1.5.33.62Z"/>
  <path class="cls-2" d="m93.94,66.32c-.03-.07-.05-.14-.08-.21-.1-.24-.21-.46-.32-.69-.07-.14-.13-.3-.2-.43-.09-.18-.18-.33-.28-.5-.1-.17-.19-.36-.29-.52-.07-.12-.15-.23-.22-.35-.12-.2-.24-.4-.37-.58-.08-.12-.17-.23-.25-.34-.12-.17-.24-.34-.37-.5-.1-.13-.21-.25-.31-.37-.11-.13-.22-.26-.33-.38-.11-.12-.22-.22-.33-.34-.11-.11-.22-.23-.33-.34-.11-.11-.22-.2-.33-.3-.11-.1-.22-.2-.33-.3-.1-.09-.2-.16-.3-.24-.12-.1-.24-.2-.36-.28-.12-.09-.24-.17-.36-.25-.1-.07-.2-.14-.3-.21-.11-.07-.22-.13-.33-.2-.11-.06-.21-.13-.32-.19-.09-.05-.17-.09-.25-.13-.13-.07-.26-.14-.39-.2-.09-.04-.18-.08-.27-.12-.12-.05-.24-.11-.35-.16-.09-.04-.18-.07-.27-.11-.11-.04-.22-.09-.33-.13-.06-.02-.12-.04-.18-.06-.13-.04-.26-.09-.38-.13-2.2-.68-4.61-.06-6.11,1.61-.04.04-.07.09-.1.14-.17.2-.34.41-.48.64-.01.02-.03.04-.04.06-1.46,2.39-1.56,5.91-.28,10.16.2.68.52,1.45.91,2.27.99,2.06,2.52,4.5,4.24,6.95,1.03,1.47,2.14,2.95,3.24,4.36.53.68,1.06,1.33,1.58,1.97.39.48.78.94,1.16,1.39.32.38.64.74.94,1.09.84.96,1.63,1.82,2.3,2.5.25.25.63.23.86.02.08-.07.14-.17.17-.28.09-.32.18-.66.27-1.02.18-.73.36-1.54.53-2.41.08-.44.17-.89.24-1.35.16-.93.3-1.9.43-2.91.63-5.02.8-10.72-.26-14.25-.25-.85-.54-1.62-.85-2.35Z"/>
  <path class="cls-3" d="m92.6,56.01c-3.21-2.17-6.33-3.35-8.66-3.74,1.74-1.37,3.64-2.58,5.74-3.56.16-.08.31-.17.45-.27,1.16.29,2.49.47,3.99.47.56,0,1.15-.03,1.75-.08,5.35-.49,10.73-3.12,15.99-7.81,6.46-5.77,16.26-24.1,16.14-28.85-.03-1.33-.64-2.09-1.14-2.5-.9-.72-2.51-2.03-14.08,2.67-.33-4.64-1-8.58-1.88-10.28-.54-1.04-1.28-1.69-2.21-1.94-1.07-.28-3.56-.94-13.21,9.6-2.15,2.35-9.36,10.5-11.65,16.53-2.55,6.7-1.66,11.33-.73,14.57.51,1.76,1.2,3.32,1.97,4.48-8.03,4.59-14.29,12.56-18.38,23.39v-27.92c.14-16.6-5.55-25.23-17.38-25.83-.29-1.03-.63-1.79-.83-2.22-2.33-4.87-10.41-12.43-24.3-6.15-5.54,2.5-12.55,10.54-14.57,12.95C.63,30.23,1.71,32.65,2.18,33.68c.41.92,1.67,3.72,15.77,4.11.55.02,1.33.03,2.28.03,4.48,0,12.66-.33,17.54-2.54,5.81-2.62,9.6-6.26,11.26-10.83.55-1.51.8-2.96.88-4.31,10.62,1.06,11.7,11.46,11.62,20.57v.2c-.01,19.86-.02,34.92-.02,46.79-1.77-2.85-4.23-5.36-7.61-6.97.85-2.57,1.12-5.79.05-9.44-.97-3.32-3.02-6.99-6.74-10.85-4.51-4.69-14.84-9.45-17.9-10.8-13.7-6.04-15.55-4.37-16.44-3.56-1.13,1.02-1.18,2.52-1.2,3.01-.07,2.02.76,5.66,2.14,9.84-12.2.96-13.06,2.8-13.53,3.82-.43.94-.39,1.99.13,3.15,2.4,5.36,18.89,18.57,27.85,21.32,3.06.94,5.84,1.36,8.36,1.44,1.53.45,3.06.69,4.6.71.05,0,.09,0,.14,0,4.38,0,7.82-1.88,9.59-3.66h0c.14-.14.27-.31.41-.47,9.7,4.33,10.14,20.07,10.14,20.25,0,.07,0,.14,0,.21,0,5.04,0,13.72.01,19.69,0,1.43,1.12,2.6,2.55,2.62h.03c1.41,0,2.58-1.14,2.58-2.55v-29.61c.53-5.68,1.94-18.95,5.7-27.68.18,1.18.46,2.4.84,3.68,1.6,5.33,7.76,13.41,9.61,15.76,7.24,9.2,9.79,10.11,11,10.11.17,0,.31-.02.44-.03,1.05-.13,1.94-.75,2.66-1.84.79-1.21,1.56-3.5,2.19-6.31.09-.39.52-.6.88-.42,5.81,2.86,8.49,3.57,9.89,3.57.79,0,1.18-.23,1.49-.41.49-.29,1.36-1,1.56-2.5.63-4.67-6.79-21.64-13.02-28.01-2.52-2.58-5.12-4.22-7.35-5.73Zm14.21-50c.4,1.87.75,5,.92,8.51-4.43,2.01-12.26,5.85-16.45,9.59-.42.37-.81.74-1.19,1.11,3.91-6.71,12.77-16.23,16.72-19.21Zm-12.1,21.96c5.72-5.1,21.27-11.83,27.55-13.49-2,5.48-8.69,18.1-13.83,22.68-.5.44-.98.85-1.46,1.24-.16.13-.32.25-.49.37-.31.24-.63.49-.93.71-.19.14-.37.26-.56.38-.27.19-.54.38-.81.55-.19.12-.38.23-.57.35-.25.15-.5.31-.75.45-.19.11-.38.2-.57.3-.23.12-.47.25-.7.36-.19.09-.37.17-.56.26-.22.1-.44.2-.66.29-.18.08-.36.14-.54.21-.21.08-.42.16-.62.23-.18.06-.35.11-.52.16-.2.06-.39.12-.59.17-.17.05-.33.08-.5.12-.19.04-.37.09-.55.12-.16.03-.32.06-.47.08-.18.03-.35.06-.52.08-.15.02-.3.04-.44.05-.16.02-.33.03-.49.04-.14,0-.28.02-.41.02-.15,0-.3,0-.45,0-.13,0-.26,0-.38,0-.14,0-.28,0-.42-.02-.12,0-.23-.02-.35-.03-.13-.01-.26-.02-.38-.04-.11-.01-.21-.03-.32-.04-.12-.02-.23-.04-.34-.06-.1-.02-.19-.03-.28-.05-.04,0-.08-.01-.12-.02-.02,0-.04-.01-.06-.02-1.63-.38-2.88-1.64-3.23-3.27-.02-.07-.04-.14-.05-.21,0-.01,0-.02,0-.04-.05-.32-.08-.66-.09-1.03-.03-3.36,2.2-7.15,6.46-10.95ZM7.44,31.41c2.2-4.38,12.56-17.29,18.87-20.14,12.82-5.79,17.34,3.29,17.53,3.68.3.63,1.73,3.95.35,7.73-1.17,3.21-4.04,5.87-8.53,7.89-6.44,2.91-23.41,2.34-28.21.84Zm-1.39,33.76c2.07-.44,5.59-.88,9.63-1.17,2.3,5.78,5.32,11.76,8.31,15.59-7.09-4.08-15.17-11.05-17.94-14.43Zm41.26,16.88c-.23.23-2.29,2.2-6.04,2.14-3.88-.04-8.08-2.29-12.14-6.52-5.58-5.8-11.34-21.68-12.2-27.08,5.5,1.31,21.4,8.05,26.57,13.42,10.57,10.99,3.88,17.95,3.8,18.03Zm47.73.88c-.13,1-.27,1.98-.43,2.91-.08.46-.16.91-.24,1.35-.17.87-.34,1.68-.53,2.41-.09.36-.18.71-.27,1.02-.03.11-.09.21-.17.28-.23.22-.61.23-.86-.02h0c-.67-.68-1.46-1.54-2.3-2.5-.31-.35-.62-.71-.94-1.09-.38-.45-.76-.91-1.16-1.39-.52-.64-1.05-1.29-1.58-1.97-1.1-1.41-2.2-2.88-3.24-4.36-1.72-2.45-3.25-4.89-4.24-6.95-.4-.82-.71-1.59-.91-2.27-1.28-4.25-1.18-7.76.28-10.16.01-.02.03-.04.04-.06,0,0,0,0,0,0,.14-.23.31-.44.48-.64.04-.04.07-.1.1-.14,1.5-1.66,3.92-2.29,6.11-1.61,0,0,0,0,0,0,.12.04.25.08.38.13.06.02.12.04.18.06.11.04.22.09.33.13.09.04.18.07.27.11.11.05.23.11.35.16.09.04.18.08.27.12.13.06.26.13.39.2.08.05.17.09.25.13.11.06.21.13.32.19.11.07.22.13.33.2.1.06.2.14.3.21.12.08.24.16.36.25.12.09.24.19.36.28.1.08.2.16.3.24.11.09.22.2.33.3.11.1.22.19.33.3.11.11.22.22.33.34.11.11.22.22.33.34.11.12.22.26.33.38.1.12.21.24.31.37.12.16.25.33.37.5.08.11.17.22.25.34.13.18.25.38.37.58.07.12.15.23.22.35.1.17.19.35.29.52.09.17.19.33.28.5.07.14.14.29.2.43.11.23.22.45.32.69.03.07.05.14.08.21.31.73.59,1.5.85,2.35,1.06,3.54.89,9.23.26,14.25Zm5.41-2.31c.07-.8.12-1.59.15-2.39.07-1.52.09-3.02.03-4.45,0-.24.11-.43.28-.53.17-.11.38-.13.57-.06.13.05.24.14.31.28,2.28,4.22,4.22,8.84,5.25,12.02.02.06.03.13.03.19,0,.24-.14.45-.34.55-.15.08-.34.09-.52.01-1.19-.52-2.59-1.17-4.1-1.91-.51-.25-1.02-.51-1.55-.78-.23-.12-.36-.36-.33-.62.09-.76.16-1.54.23-2.31Z"/>
</svg>