<svg xmlns="http://www.w3.org/2000/svg" viewBox="0 0 120.76 120.76">
  <defs>
    <style>
      .cls-1 {
        fill: #7d4e24;
      }

      .cls-2 {
        fill: #fff;
      }
    </style>
  </defs>
  <title>pekanuss</title>
  <g id="Ebene_2" data-name="Ebene 2">
    <g id="Ebene_1-2" data-name="Ebene 1">
      <path class="cls-1" d="M120.76,60.38A60.38,60.38,0,1,1,60.38,0h0A60.39,60.39,0,0,1,120.76,60.38Z"/>
      <path class="cls-2" d="M67.56,22.88l-.13-.32h-.35c-.21,0-21.38,1.45-38.92,29.21C16.85,69.68,16.12,81.91,26,88.14a13.871,13.871,0,0,0,12.93,1.41L38,89.31c-7.63-2.21-13.89-6.9-14.67-16.23A17,17,0,0,1,30,57.73c5.6-4.46,14.39-7.14,26.9-8.19,2.69-.22,5.37-.34,8-.34h2.56C71.64,33.23,67.62,23,67.56,22.88Z"/>
      <path class="cls-2" d="M66.05,52.2H64.84q-3.66,0-7.7.33c-25.56,2.15-31.58,11.2-30.81,20.3.54,6.48,5.25,12.61,16.76,14.68a56.932,56.932,0,0,0,9.12.66c2.43,0,5.07-.11,7.95-.35C94,84.84,105,66.21,105,66.21S93.15,52.74,66.05,52.2Zm-2.8,32.14c-3.36.28-6.41.41-9.16.41A69.551,69.551,0,0,1,47,84.42c-12.63-1.4-16.93-6.14-17.09-8.04-.22-2.58,3.67-4.16,3.67-4.16s-4.1-.91-4.31-3.49,5-11.05,31.52-13.28c1.48-.12,2.89-.21,4.26-.25.78,0,2.06.03,2.81.03,20.83,0,27,8.75,25.73,10.37a1.239,1.239,0,0,1-1,.4c-1.81,0-5-1.87-6.7-1.87a1,1,0,0,0-1,.54c-.89,2.08,4.08,3,4.08,3s-4.75,1.72-3.52,3.63a.841.841,0,0,0,.77.38c1.69,0,5.1-3,6.94-3a1.087,1.087,0,0,1,.75.26C95.61,70.46,89.76,82.11,63.25,84.34Z"/>
    </g>
  </g>
</svg>
