<?xml version="1.0" encoding="UTF-8"?>
<svg id="Ebene_1" data-name="Ebene 1" xmlns="http://www.w3.org/2000/svg" viewBox="0 0 128 128">
  <defs>
    <style>
      .cls-1 {
        fill: #a06b47;
      }

      .cls-2 {
        fill: #444;
      }
    </style>
  </defs>
  <path class="cls-1" d="m112.848,60.185c9.902-14.751,11.295-22.103,9.48-23.916-2.159-2.156-7.974-1.222-12.348.749-.426.201-1.93,1.321-3.224,2.403-10.96,10.17-59.151,54.68-59.654,55.144-.483.446-1.095.666-1.704.666-.676,0-1.35-.27-1.846-.806-.941-1.017-.879-2.605.139-3.546.5-.462,48.336-44.643,59.52-55.018,2.425-3.365,2.161-9.661.604-11.215-1.161-1.06-7.899-1.522-10.731.94-8.992,9.695-54.745,60.335-55.214,60.854-.497.549-1.179.828-1.866.828-.6,0-1.201-.214-1.682-.646-1.03-.928-1.112-2.515-.183-3.544.47-.519,46.357-51.309,55.297-60.944.687-.841,1.395-1.801,1.701-2.296.031-.073.062-.146.097-.23.031-.076.076-.142.114-.213,1.923-4.938,2.692-11.378.325-13.743-1.311-1.309-7.18-1.18-20.851,7.63-10.489,6.76-22.848,16.877-33.094,27.088-5.999,6.016-16.001,18.758-23.602,31.59-9.224,15.572-10.279,23.312-8.381,25.208,3.433,3.427,6.708,2.681,10.493,1.817,1.567-.357,3.307-.754,5.072-.754,2.145,0,4.326.585,6.281,2.538,3.637,3.633,2.684,8.199,1.917,11.867-.885,4.239-1.294,6.973,1.353,9.617,4.092,4.077,33.726-8.219,57.158-31.556,6.41-6.422,16.871-18.661,24.828-30.515Zm-83.924,11.46c-1.443.548-2.732,1.719-3.447,3.134l-4.915,9.73c-.443.875-1.327,1.38-2.245,1.38-.381,0-.766-.087-1.129-.269-1.239-.624-1.736-2.133-1.112-3.37l4.916-9.73c1.284-2.542,3.526-4.57,6.148-5.564l8.1-3.073c1.973-.748,3.595-2.637,3.945-4.592l.679-3.812c.488-2.741,2.154-5.305,4.57-7.037l8.801-6.305c1.221-.875,2.121-2.138,2.47-3.463l1.232-4.68c.726-2.756,2.689-5.305,5.25-6.817l10.671-6.301c1.193-.707,2.735-.311,3.441.882.706,1.193.31,2.731-.884,3.436l-10.671,6.301c-1.449.856-2.551,2.267-2.948,3.774l-1.232,4.68c-.641,2.435-2.245,4.718-4.4,6.263l-8.801,6.306c-1.341.961-2.296,2.397-2.553,3.84l-.679,3.812c-.663,3.72-3.453,7.018-7.106,8.403l-8.1,3.073Zm57.236,3.375l-6.313,8.787c-1.733,2.414-4.302,4.079-7.045,4.566l-3.818.678c-1.957.349-3.848,1.969-4.598,3.94l-3.076,8.09c-.997,2.62-3.027,4.858-5.571,6.14l-9.743,4.911c-.363.182-.749.269-1.129.269-.918,0-1.803-.505-2.245-1.38-.624-1.237-.127-2.746,1.112-3.37l9.743-4.91c1.416-.713,2.589-2,3.138-3.442l3.076-8.09c1.388-3.649,4.691-6.435,8.414-7.097l3.818-.678c1.443-.257,2.881-1.21,3.844-2.551l6.313-8.788c1.547-2.153,3.833-3.754,6.272-4.395l4.686-1.231c1.509-.396,2.922-1.497,3.78-2.944l6.308-10.657c.707-1.192,2.248-1.588,3.441-.882,1.194.705,1.59,2.244.884,3.436l-6.309,10.657c-1.516,2.559-4.067,4.518-6.826,5.243l-4.686,1.231c-1.328.348-2.591,1.248-3.468,2.468Z"/>
  <path class="cls-2" d="m125.88,32.721c-3.78-3.774-10.554-3.065-15.961-1.092.51-4.099-.332-8.311-2.553-10.529-1.949-1.947-6.346-2.76-10.537-2.176,1.799-5.842,2.262-12.957-1.604-16.818-4.309-4.303-13.183-2.025-27.127,6.962-10.744,6.924-23.373,17.254-33.841,27.674-.029.029-.058.057-.087.087-.05.05-.099.099-.149.149h0c-7.338,7.4-17.255,20.673-24.219,32.429C.193,85.63-2.367,96.164,2.193,100.718c5.396,5.389,11.041,4.1,15.164,3.161,3.611-.823,5.226-1.014,6.682.44,1.638,1.636,1.296,3.731.551,7.294-.883,4.23-1.983,9.493,2.719,14.189,1.516,1.515,3.743,2.197,6.492,2.197,14.071,0,41.796-17.896,57.666-33.648l.236-.236c6.588-6.624,17.228-19.084,25.318-31.137,10.574-15.753,13.471-25.651,8.859-30.258ZM30.861,122.255c-2.647-2.644-2.238-5.377-1.353-9.617.766-3.668,1.72-8.234-1.917-11.867-1.955-1.953-4.136-2.538-6.281-2.538-1.765,0-3.505.397-5.072.754-3.786.864-7.06,1.61-10.493-1.817-1.899-1.896-.843-9.636,8.381-25.208,7.601-12.832,17.602-25.575,23.602-31.59,10.246-10.211,22.605-20.328,33.094-27.088,13.672-8.81,19.54-8.939,20.851-7.63,2.367,2.365,1.597,8.805-.325,13.743-.038.071-.083.137-.114.213-.035.084-.066.157-.097.23-.305.494-1.014,1.454-1.701,2.296-8.939,9.635-54.827,60.424-55.297,60.944-.929,1.029-.848,2.616.183,3.544.481.432,1.082.646,1.682.646.687,0,1.37-.279,1.866-.828.468-.519,46.222-51.159,55.214-60.854,2.832-2.462,9.569-1.999,10.731-.94,1.557,1.554,1.822,7.85-.604,11.215-11.184,10.375-59.019,54.556-59.52,55.018-1.019.941-1.08,2.528-.139,3.546.496.535,1.17.806,1.846.806.609,0,1.222-.22,1.704-.666.503-.465,48.695-44.974,59.654-55.144,1.295-1.082,2.798-2.202,3.224-2.403,4.374-1.971,10.189-2.905,12.348-.749,1.815,1.813.422,9.164-9.48,23.916-7.957,11.854-18.418,24.093-24.828,30.515-23.432,23.336-53.066,35.632-57.158,31.556Z"/>
  <path class="cls-2" d="m94.314,71.321c2.759-.725,5.31-2.684,6.826-5.243l6.309-10.657c.706-1.193.31-2.731-.884-3.436-1.193-.706-2.734-.31-3.441.882l-6.308,10.657c-.858,1.447-2.271,2.548-3.78,2.944l-4.686,1.231c-2.439.641-4.725,2.242-6.272,4.395l-6.313,8.788c-.963,1.341-2.4,2.294-3.844,2.551l-3.818.678c-3.723.662-7.026,3.448-8.414,7.097l-3.076,8.09c-.549,1.442-1.722,2.728-3.138,3.442l-9.743,4.91c-1.238.624-1.736,2.133-1.112,3.37.443.875,1.327,1.38,2.245,1.38.381,0,.766-.087,1.129-.269l9.743-4.911c2.544-1.282,4.575-3.52,5.571-6.14l3.076-8.09c.75-1.971,2.642-3.591,4.598-3.94l3.818-.678c2.744-.487,5.312-2.152,7.045-4.566l6.313-8.787c.876-1.22,2.14-2.12,3.468-2.468l4.686-1.231Z"/>
  <path class="cls-2" d="m44.131,60.169l.679-3.812c.257-1.443,1.212-2.878,2.553-3.84l8.801-6.306c2.155-1.545,3.759-3.828,4.4-6.263l1.232-4.68c.396-1.508,1.498-2.919,2.948-3.774l10.671-6.301c1.194-.705,1.59-2.244.884-3.436-.706-1.193-2.248-1.589-3.441-.882l-10.671,6.301c-2.561,1.513-4.524,4.061-5.25,6.817l-1.232,4.68c-.348,1.325-1.249,2.588-2.47,3.463l-8.801,6.305c-2.416,1.732-4.082,4.297-4.57,7.037l-.679,3.812c-.349,1.956-1.971,3.844-3.945,4.592l-8.1,3.073c-2.623.995-4.864,3.022-6.148,5.564l-4.916,9.73c-.624,1.237-.128,2.746,1.112,3.37.363.182.749.269,1.129.269.918,0,1.803-.505,2.245-1.38l4.915-9.73c.715-1.415,2.004-2.586,3.447-3.134l8.1-3.073c3.653-1.385,6.443-4.683,7.106-8.403Z"/>
</svg>