<svg id="Ebene_1" data-name="Ebene 1" xmlns="http://www.w3.org/2000/svg" viewBox="0 0 120.76 120.76"><defs><style>.cls-1{fill:#7d4e24;}.cls-2{fill:#fff;}</style></defs><title>Unterallergen_SVG</title><path class="cls-1" d="M120.76,60.38A60.38,60.38,0,1,1,60.38,0,60.39,60.39,0,0,1,120.76,60.38Z"/><path class="cls-2" d="M40.55,60.58a1.84,1.84,0,0,1,1-1.25c.51-.25,1.2-.58,4.62.44-2-6-1.1-10.31.64-11.93s6-2.81,12.11-1.34c-1.09-2.44-1.63-4.29-1.36-5.21A1.94,1.94,0,0,1,58.69,40c3-1.25,10.31,1.83,17.11,6.19,2.4-11.68-.66-19-3.73-21.23-4.82-3.53-21.69-.41-38,25.43-12.31,19.47-8,29.38.13,34.51,5.52,3.49,12.27,4.43,19.88-1.4C46.71,76.23,39.67,64.42,40.55,60.58Z"/><path class="cls-2" d="M95.13,74.63C93.86,68.34,89.48,61.55,82.44,55a58.17,58.17,0,0,0-7.37-5.75c-6.15-4.07-12.17-6.55-14.52-6.59a27.23,27.23,0,0,0,2.25,5c3.37,6.4,9.92,16.9,16.36,26.45l3.1,4.59-5-2.4c-11-5.28-23-10.58-29.65-13a31.05,31.05,0,0,0-4.07-1.23c.74,3.27,5.83,12.6,12.81,19.4.25.24.49.49.74.72,16,14.83,28.54,12.63,34.47,6.25C95,84.86,96.22,80.05,95.13,74.63Z"/></svg>