<?xml version="1.0" encoding="UTF-8"?>
<svg id="Ebene_1" data-name="Ebene 1" xmlns="http://www.w3.org/2000/svg" viewBox="0 0 128 128">
  <defs>
    <style>
      .cls-1 {
        fill: #ceb29b;
      }

      .cls-2 {
        fill: #444;
      }

      .cls-3 {
        fill: #a1db46;
      }
    </style>
  </defs>
  <g>
    <path class="cls-3" d="m28.149,32.621c.024.282.048.554.072.832.57,1.186,1.155,2.413,1.772,3.72,6.061,12.838,11.61,25.679,11.665,25.807l1.412,3.048-.175-3.446c-.006-.073-1.074-14.019-1.689-28.201-.068-1.573-.126-3.051-.177-4.471-.198-.486-.396-.971-.597-1.465h0c-7.669-18.827-10.781-20.011-11.437-20.011-.019,0-.036,0-.05.002-.309.117-2.746,1.712-.892,23.122l.093,1.063Z"/>
    <path class="cls-1" d="m68.444,35.455c-5.956-17.439-13.673-28.497-21.198-30.398-.175.037-.439.138-.63.239-1.597,4.205-.602,31.983,1.321,56.964l.766,15.106c.067,1.352-.824,2.563-2.119,2.881-1.296.315-2.646-.343-3.213-1.571l-6.321-13.638C27.085,41.959,15.021,16.892,11.658,13.937c-.201.003-.488.037-.664.087-5.776,5.183-7.456,18.557-4.607,36.761,2.456,15.7,8.104,32.873,13.733,41.76,14.504,22.899,30.449,18.512,31.12,18.314l.412-.089c.354-.044,1.416-.201,2.068-.381l.289-.062c.366-.056,1.154-.306,1.572-.457l.382-.106c.099-.02.525-.116,1.175-.333,4.13-14.525,10.792-25.5,18.721-33.509.178-10.668-2.72-26.721-7.415-40.466Z"/>
    <path class="cls-3" d="m116.636,62.981c-33.256,1.117-50.895,28.923-56.313,54.572-.315,1.49.032,2.873.974,3.892,1.057,1.143,2.742,1.693,4.515,1.458,30.967-4.023,49.073-21.201,56.98-54.06.357-1.484.11-2.76-.733-3.794-1.12-1.372-3.152-2.139-5.425-2.068Z"/>
    <path class="cls-2" d="m125.974,61.86c-2.111-2.585-5.673-4.06-9.507-3.922-11.701.394-24.564,4.451-35.662,13.491C79.556,47.669,67.508,4.589,48.206.099c-1.908-.444-4.234.698-5.204,1.611-.914.865-2.176,2.067-2.227,14.927-4.766-9.902-8.398-13.623-12.34-13.22-.464.047-.918.157-1.357.328-3.692,1.448-5.116,6.431-4.713,17.99-6.237-11.816-7.943-12.302-9.172-12.646-1.28-.36-3.87-.292-5.356.992-16.84,14.54-2.918,67.901,8.017,85.163,11.506,18.166,24.297,21.113,31.389,21.113,2.705,0,4.582-.43,5.241-.607.452-.062,1.546-.226,2.45-.462.25-.045.512-.108.771-.176-.105.469-.222.924-.322,1.399-.653,3.09.152,6.137,2.207,8.36,1.859,2.009,4.565,3.131,7.437,3.13.475,0,.957-.031,1.438-.093,32.862-4.27,52.894-23.204,61.239-57.885.724-3.011.11-5.909-1.73-8.163ZM28.948,8.437c.015-.001.032-.002.05-.002.656,0,3.768,1.184,11.437,20.01h0c.201.495.399.98.597,1.466.051,1.42.109,2.898.177,4.471.614,14.182,1.683,28.128,1.689,28.201l.175,3.446-1.412-3.048c-.055-.128-5.604-12.969-11.665-25.807-.617-1.307-1.203-2.534-1.772-3.72-.024-.278-.048-.55-.072-.832l-.093-1.063c-1.854-21.41.583-23.005.892-23.122Zm28.19,100.993c-.65.217-1.076.313-1.175.333l-.382.106c-.418.151-1.206.401-1.572.457l-.289.062c-.652.18-1.714.337-2.068.381l-.412.089c-.671.198-16.616,4.585-31.12-18.314-5.629-8.887-11.277-26.06-13.733-41.76-2.849-18.204-1.169-31.579,4.607-36.761.176-.049.463-.083.664-.087,3.363,2.955,15.427,28.022,25.391,51.102l6.321,13.638c.567,1.228,1.917,1.886,3.213,1.571,1.295-.318,2.186-1.529,2.119-2.881l-.766-15.106c-1.922-24.981-2.918-52.759-1.321-56.964.191-.101.456-.202.63-.239,7.526,1.901,15.242,12.959,21.198,30.398,4.694,13.745,7.593,29.798,7.415,40.466-7.929,8.008-14.59,18.984-18.721,33.509Zm65.656-40.587c-7.907,32.859-26.014,50.038-56.98,54.06-1.773.235-3.458-.315-4.515-1.458-.943-1.019-1.289-2.402-.974-3.892,5.418-25.65,23.056-53.456,56.313-54.572,2.273-.071,4.304.696,5.425,2.068.843,1.034,1.09,2.31.733,3.794Z"/>
  </g>
  <path class="cls-2" d="m74.14,114.742c-1.249,0-2.329-.935-2.479-2.205-.163-1.37.815-2.612,2.185-2.777.208-.026,12.853-1.714,21.268-11.883.881-1.065,2.458-1.212,3.52-.332,1.063.88,1.213,2.456.332,3.52-9.752,11.785-23.928,13.589-24.526,13.66-.101.012-.2.018-.298.018Z"/>
</svg>