<svg id="Ebene_1" data-name="Ebene 1" xmlns="http://www.w3.org/2000/svg" viewBox="0 0 120.76 120.76"><defs><style>.cls-1{fill:#f5c500;}.cls-2{fill:#fff;}</style></defs><title>Unterallergen_SVG</title><path class="cls-1" d="M89.48,35.58c-2.23,1.36-4.47,2.69-6.67,4.08-1.11.69-2.2,1.39-3.27,2.14-.53.37-1.05.76-1.55,1.17a5.75,5.75,0,0,0-1.32,1.42,9.93,9.93,0,0,1,2.53-3c1-.89,2-1.7,3-2.51,2.09-1.59,4.23-3.11,6.39-4.58,4.32-3,8.72-5.78,13.06-8.67,1.8-1.16,3.56-2.36,5.33-3.56A60.47,60.47,0,0,0,77.47,2.47c.22,3.62.44,7.25.57,10.89.11,2.62.17,5.24.14,7.87,0,1.31-.06,2.63-.19,3.94A10.11,10.11,0,0,1,77.07,29a5.66,5.66,0,0,0,.35-1.91c0-.65,0-1.29,0-1.94,0-1.3-.12-2.6-.23-3.9-.19-2.6-.47-5.19-.71-7.79-.38-3.84-.7-7.7-1-11.56A60.3,60.3,0,0,0,60.38,0,61.82,61.82,0,0,0,51.6.64c.1.32.19.65.29,1,.77,2.48,1.56,5,2.4,7.43,1.62,5,3.33,9.89,4.88,14.89.79,2.5,1.53,5,2.18,7.56.31,1.28.62,2.56.84,3.86a10.06,10.06,0,0,1,.12,3.94,5.46,5.46,0,0,0-.17-1.93c-.13-.63-.3-1.26-.49-1.88-.37-1.25-.79-2.48-1.23-3.7-.87-2.46-1.81-4.9-2.72-7.34-1.85-4.89-3.64-9.8-5.31-14.77C51.45,6.79,50.56,3.88,49.76,1a60.54,60.54,0,0,0-9.35,2.44,10.28,10.28,0,0,0-.19,1.06,17.52,17.52,0,0,0,.07,3.83,56.76,56.76,0,0,0,1.51,7.6c.67,2.5,1.37,5,2.16,7.48s1.57,5,2.4,7.43c1.62,5,3.33,9.89,4.88,14.89.79,2.5,1.53,5,2.18,7.56.31,1.28.62,2.56.84,3.86A10.06,10.06,0,0,1,54.38,61a5.7,5.7,0,0,0-.16-1.93c-.14-.63-.3-1.26-.49-1.88-.38-1.25-.8-2.48-1.24-3.7-.87-2.46-1.81-4.9-2.72-7.34-1.85-4.89-3.64-9.8-5.31-14.77a133.88,133.88,0,0,1-4.18-15.2,45,45,0,0,1-1-7.88,17.2,17.2,0,0,1,.36-4c.07-.27.15-.53.24-.79A60.38,60.38,0,0,0,29.48,112.25c-.69-2.3-1.39-4.83-2-7.49-2.35-10.37,6.7-18.37,7.1-18.35-.4,0,3.37,8.46,5.72,18.83a16.85,16.85,0,0,1-1.64,11.48c.81.31,1.62.6,2.44.88C50.05,91.81,65.37,47.94,66.21,48S53.8,91.63,45.46,118.89q1.27.33,2.58.6a17.1,17.1,0,0,1,6-10.66c8.27-6.69,16.48-11,16.16-11.23.32.23,2.47,12.12-5.8,18.8-1.95,1.58-3.9,3-5.73,4.31.58,0,1.17.05,1.76.05a60.38,60.38,0,0,0,53.94-87.51q-.43.61-.9,1.2A45.11,45.11,0,0,1,107.78,40a133.55,133.55,0,0,1-12.7,9.33c-4.39,2.87-8.85,5.61-13.32,8.3-2.23,1.36-4.48,2.69-6.68,4.08-1.11.68-2.2,1.39-3.27,2.14-.53.37-1,.76-1.55,1.17a5.89,5.89,0,0,0-1.32,1.41,10,10,0,0,1,2.53-3c1-.89,2-1.7,3-2.51,2.09-1.59,4.23-3.11,6.4-4.59,4.31-3,8.72-5.77,13.06-8.66q3.27-2.13,6.49-4.35c2.15-1.45,4.25-3,6.33-4.53a56.53,56.53,0,0,0,5.89-5c.42-.43.83-.88,1.22-1.34a61.11,61.11,0,0,0-5.69-8.9q-2.68,1.9-5.42,3.72C98.42,30.15,94,32.9,89.48,35.58Z"/><path class="cls-2" d="M66.21,48c-.84,0-16.16,43.85-25.1,69.64,1.43.48,2.87.92,4.35,1.29C53.8,91.63,67,48,66.21,48Z"/><path class="cls-2" d="M35.05,88.06c-.16-.49-.31-1-.47-1.46,0-.12,0-.2,0-.19a.1.1,0,0,0-.06,0c-1.27-3.92-2.59-7.8-3.87-11.7-.83-2.47-1.63-4.94-2.4-7.43s-1.49-5-2.16-7.48a56.93,56.93,0,0,1-1.51-7.59,18.18,18.18,0,0,1-.07-3.83A5.11,5.11,0,0,1,26.05,45,5.07,5.07,0,0,0,24,48.3a17.29,17.29,0,0,0-.37,4,45.26,45.26,0,0,0,1,7.88,131.16,131.16,0,0,0,4.19,15.19c1.38,4.13,2.86,8.21,4.38,12.28-2.56,2.62-7.46,9.17-5.66,17.12.6,2.66,1.3,5.19,2,7.49a60.5,60.5,0,0,0,9.19,4.47,16.85,16.85,0,0,0,1.64-11.48A145.24,145.24,0,0,0,35.05,88.06Z"/><path class="cls-2" d="M56.78,21.94c-2.57,2.62-7.47,9.18-5.67,17.13,2.35,10.37,6.12,18.84,5.73,18.83.39,0,9.44-8,7.1-18.36a145.4,145.4,0,0,0-5.27-17.18c-.15-.48-.31-1-.46-1.46,0-.11,0-.19,0-.19l-.06,0C56.89,16.82,55.56,12.94,54.29,9c-.84-2.47-1.63-4.95-2.4-7.43-.1-.32-.19-.65-.29-1-.62.09-1.23.2-1.84.31.8,2.93,1.69,5.84,2.63,8.72C53.77,13.79,55.26,17.88,56.78,21.94Z"/><path class="cls-2" d="M44.46,31.42c1.39,4.12,2.87,8.21,4.39,12.27-2.56,2.62-7.47,9.18-5.66,17.13,2.34,10.37,6.11,18.84,5.72,18.83.39,0,9.45-8,7.1-18.36a143.49,143.49,0,0,0-5.27-17.18c-.15-.48-.3-1-.46-1.46,0-.11,0-.19,0-.19l-.05,0c-1.27-3.91-2.6-7.79-3.87-11.69q-1.24-3.7-2.4-7.43c-.79-2.48-1.49-5-2.16-7.48a56.76,56.76,0,0,1-1.51-7.6,17.52,17.52,0,0,1-.07-3.83,10.28,10.28,0,0,1,.19-1.06l-.5.18c-.09.26-.17.52-.24.79a17.2,17.2,0,0,0-.36,4,45,45,0,0,0,1,7.88A133.88,133.88,0,0,0,44.46,31.42Z"/><path class="cls-2" d="M113.91,32.46c-.39.46-.8.91-1.22,1.34a56.53,56.53,0,0,1-5.89,5c-2.08,1.56-4.18,3.08-6.33,4.53S96.16,46.28,94,47.7C90.56,50,87.12,52.21,83.7,54.5c0,0,0-.06,0-.07h0l0,0c.32.23-7.89,4.55-16.15,11.25-5.22,4.22-6.28,10.51-6.27,14.63a12.85,12.85,0,0,0,.48,4.18h0c-.09-.07.61-.52,1.84-1.3a141.49,141.49,0,0,0,14.32-9.93C84.2,68.11,84.42,59.93,84,56.29c3.71-2.25,7.4-4.54,11-6.92A133.55,133.55,0,0,0,107.78,40a45.11,45.11,0,0,0,5.64-5.59q.47-.59.9-1.2Z"/><path class="cls-2" d="M69,58.21a12.76,12.76,0,0,0,.48,4.17h0c-.09-.07.6-.52,1.84-1.29a140.3,140.3,0,0,0,14.32-9.94C91.93,46,92.15,37.84,91.76,34.2c3.71-2.25,7.4-4.54,11-6.92q2.73-1.82,5.42-3.72c-.39-.51-.78-1-1.19-1.51-1.77,1.2-3.53,2.4-5.33,3.56-3.41,2.27-6.85,4.51-10.27,6.8a.21.21,0,0,0,0-.07h0s0,0,0,0c.32.23-7.88,4.56-16.14,11.25C70,47.79,68.94,54.08,69,58.21Z"/><path class="cls-2" d="M66.91,45.64c.37.12,11.21-5.22,11.67-15.84S77.64,10,78,10.12l-.12,0c-.12-2.56-.27-5.11-.42-7.67-.65-.19-1.3-.39-2-.56q.34,4.53.76,9.05c-3.18,1.87-9.57,6.9-9.92,15C65.87,36.59,67.28,45.76,66.91,45.64Z"/><path class="cls-2" d="M48.08,83.21A145.24,145.24,0,0,0,42.82,66l-.47-1.46c0-.11,0-.19,0-.19l-.06,0c-1.27-3.91-2.59-7.8-3.87-11.69Q37.19,49,36,45.27c-.79-2.47-1.49-5-2.16-7.48a56.61,56.61,0,0,1-1.51-7.59,18.18,18.18,0,0,1-.07-3.83A5.11,5.11,0,0,1,33.82,23a5.07,5.07,0,0,0-2.07,3.32,17.29,17.29,0,0,0-.37,4,46.25,46.25,0,0,0,1,7.88,131.16,131.16,0,0,0,4.19,15.19c1.38,4.13,2.86,8.21,4.38,12.28-2.56,2.62-7.46,9.17-5.66,17.12,2.35,10.37,6.12,18.85,5.72,18.84C41.38,101.58,50.43,93.58,48.08,83.21Z"/><path class="cls-2" d="M107.83,52.89a17.17,17.17,0,0,1-2.43,3,55.49,55.49,0,0,1-5.88,5c-2.08,1.55-4.18,3.08-6.34,4.53s-4.3,2.93-6.49,4.35c-3.41,2.27-6.85,4.51-10.27,6.8,0,0,0-.07,0-.07h0l0,0c.32.24-7.89,4.56-16.15,11.25-5.21,4.23-6.27,10.51-6.27,14.64a12.74,12.74,0,0,0,.49,4.18h0c-.09-.07.59-.52,1.81-1.28a140.39,140.39,0,0,0,14.35-10c6.34-5.12,6.55-13.3,6.17-17,3.71-2.25,7.4-4.53,11-6.91a132.39,132.39,0,0,0,12.7-9.34,45.11,45.11,0,0,0,5.65-5.58,17.67,17.67,0,0,0,2.18-3.35,5.14,5.14,0,0,0,.44-3.9A5.1,5.1,0,0,1,107.83,52.89Z"/><path class="cls-2" d="M101.6,74a17.17,17.17,0,0,1-2.43,3,56.69,56.69,0,0,1-5.88,5c-2.08,1.55-4.18,3.07-6.34,4.53s-4.3,2.92-6.49,4.35c-3.41,2.27-6.85,4.51-10.27,6.8,0,0,0-.07,0-.07s-.05.11-.24.26-.56.36-.83.55A148.92,148.92,0,0,0,54,108.83a17.1,17.1,0,0,0-6,10.66,60.45,60.45,0,0,0,10.58,1.22c1.83-1.29,3.78-2.73,5.73-4.31,6.34-5.12,6.55-13.31,6.17-17,3.71-2.25,7.4-4.53,11-6.92A132,132,0,0,0,94.27,83.2a46.43,46.43,0,0,0,5.64-5.58,17,17,0,0,0,2.18-3.36,5.11,5.11,0,0,0,.44-3.89A5.1,5.1,0,0,1,101.6,74Z"/></svg>