<?xml version="1.0" encoding="UTF-8"?>
<svg id="Ebene_1" data-name="Ebene 1" xmlns="http://www.w3.org/2000/svg" viewBox="0 0 128 128">
  <defs>
    <style>
      .cls-1 {
        fill: #fd0;
      }

      .cls-2 {
        fill: #444;
      }
    </style>
  </defs>
  <path class="cls-1" d="m103.91,23.82c-5.22.69-21.36,7.09-26.46,12.38-1.12,1.16-2.04,2.34-2.79,3.52.97,3.45,2.26,8.61,2.79,13.26,3.15.42,6.35,1.1,9.02,1.75,1.95-.89,4.06-2.35,6.26-4.63,5.01-5.19,10.49-21.17,11.18-26.27Z"/>
  <path class="cls-1" d="m69.5,52.66c.9-.09,1.87-.12,2.88-.1-1.22-8.98-5.61-21.82-7.83-25.81-3.61,3.75-11.76,18.23-13.3,26.81.73,1.61,1.75,3.93,2.76,6.53,2.38-3.03,6.95-6.55,15.48-7.43Z"/>
  <path class="cls-1" d="m70.01,57.63c-5.78.6-9.92,2.58-12.32,5.88-.71.98-1.18,1.96-1.49,2.86.46,1.54.86,3.07,1.15,4.51,7.32,1.16,16.38,4.72,19.31,5.93.94.39,1.82.76,2.65,1.12,8.24-2.69,19.52-9.46,22.9-12.47-4.89-2.79-23.4-8.73-32.2-7.83Z"/>
  <path class="cls-1" d="m52.75,91.73c-.17.18-.34.34-.51.51,3.56.94,6.9,2.01,9.41,2.87,8.7-1.59,20.23-5.86,24.34-8.15-4.54-3.05-18.79-9.1-28.18-10.93.04,6.61-1.65,11.9-5.07,15.7Z"/>
  <path class="cls-1" d="m45.94,90.8c1.01-.53,2.09-1.3,3.09-2.41,2.83-3.15,4.1-7.89,3.75-14.08-.47-8.41-9.47-26.6-12.98-31.2-2.37,3.33-6.52,13.61-8.46,22.34,2.07,3.95,8.43,16.59,9.47,24.64,1.62.12,3.35.37,5.12.7Z"/>
  <path class="cls-1" d="m35.77,90.1c-1.7-10.46-12.9-30.71-16.98-35.51-3.25,5.44-9.28,27.52-7.97,38.11.63,5.09,1.98,8.87,3.63,11.7.52-2.04,1.61-4.48,3.58-6.76,2.75-3.18,8.03-6.91,17.74-7.54Z"/>
  <path class="cls-1" d="m38.54,95c-7.54.03-13.3,2.04-16.64,5.82-2.62,2.96-2.88,5.96-2.83,6.44.45,3.2,5.51,12.3,22.26,12.3h.16c10.06-.04,30.54-8.64,35.69-12.18-5.45-3.81-27.91-12.38-38.58-12.38h-.07Z"/>
  <path class="cls-2" d="m124.41,60.31l-17.87,2.16c-1.62-1.44-5.24-3.43-13.5-5.95,1.09-.84,2.19-1.82,3.29-2.96,4.35-4.5,8.26-14.69,9.36-17.71,2.78-7.66,3.38-11.54,3.24-13.62l18.37-18.18c.93-.92.94-2.42.02-3.35-.92-.93-2.42-.94-3.35-.02l-18.34,18.15c-2.09-.2-6.06.4-13.99,3.58-3,1.2-13.13,5.5-17.78,10.31-.35.37-.69.73-1.01,1.1-2.39-7.14-4.17-10.22-5.44-11.58l1.72-18.45c.13-1.37-.88-2.59-2.26-2.72-1.36-.12-2.59.88-2.72,2.26l-1.74,18.69c-.05.04-.1.08-.14.11-3.75,2.92-10.87,14.91-14.31,24.72-2.77-5.21-4.65-7.54-5.95-8.59l.28-23.76c.02-1.38-1.09-2.51-2.47-2.53-1.42-.05-2.51,1.09-2.53,2.47l-.29,24.29s-.09.09-.12.12c-2.63,2.74-6.51,11.48-9.04,20.24-3.05-5.2-5.13-7.78-6.58-9.05l-.45-26.7c-.02-1.37-1.14-2.46-2.5-2.46h-.04c-1.38.02-2.48,1.16-2.46,2.54l.44,26.39c-.22.19-.43.4-.63.65-4.34,5.18-11.27,30.61-9.76,42.83,1.04,8.37,4,14.08,7.45,17.85L.73,123.73c-.98.98-.98,2.56,0,3.53.49.49,1.13.73,1.77.73s1.28-.24,1.77-.73l12.79-12.79c3.57,4.87,10.83,10.07,24.27,10.07h.18c7.3-.03,18.44-3.96,22.89-5.64,6.51-2.47,15-6.3,17.48-8.98.06-.06.1-.13.15-.19,0,0,0,0,0,0l27.15-1.62c1.38-.08,2.43-1.27,2.35-2.64-.08-1.38-1.25-2.45-2.64-2.35l-27.15,1.62s-.02,0-.03,0c-1.46-1.48-4.64-3.57-11.64-6.47,2.17-.6,4.04-1.19,5.3-1.6,2.09-.68,12.65-4.25,15.54-7.12.03-.03.04-.06.07-.08l24.22-2.93c1.37-.17,2.35-1.41,2.18-2.78-.17-1.37-1.41-2.35-2.78-2.18l-23.84,2.88c-.92-.93-2.5-2.1-5.26-3.58,9.01-3.81,19.12-10.09,21.55-13.3.04-.05.06-.1.1-.16l17.86-2.16c1.37-.17,2.35-1.41,2.18-2.78-.17-1.37-1.41-2.35-2.78-2.18Zm-46.96-24.11c5.11-5.29,21.25-11.69,26.46-12.38-.69,5.09-6.16,21.08-11.18,26.27-2.21,2.28-4.31,3.74-6.26,4.63-2.67-.65-5.87-1.32-9.02-1.75-.53-4.65-1.82-9.81-2.79-13.26.75-1.19,1.67-2.36,2.79-3.52Zm-12.9-9.45c2.22,3.99,6.61,16.82,7.83,25.81-1.01-.02-1.98.01-2.88.1-8.54.88-13.1,4.4-15.48,7.43-1.01-2.6-2.03-4.93-2.76-6.53,1.54-8.58,9.69-23.06,13.3-26.81Zm-24.74,16.37c3.51,4.6,12.5,22.78,12.98,31.2.35,6.19-.91,10.92-3.75,14.08-1,1.12-2.09,1.88-3.09,2.41-1.77-.33-3.5-.58-5.12-.7-1.05-8.05-7.4-20.69-9.47-24.64,1.94-8.74,6.09-19.01,8.46-22.34Zm-25.36,61.29c-1.65-2.83-3-6.61-3.63-11.7-1.31-10.59,4.72-32.67,7.97-38.11,4.08,4.8,15.28,25.05,16.98,35.51-9.71.63-14.99,4.36-17.74,7.54-1.97,2.28-3.07,4.72-3.58,6.76Zm62.73,2.98c-5.16,3.54-25.63,12.14-35.69,12.18h-.16c-16.75,0-21.81-9.1-22.26-12.3-.06-.47.21-3.48,2.83-6.44,3.34-3.78,9.1-5.79,16.64-5.82h.07c10.66,0,33.13,8.56,38.58,12.38Zm8.82-20.42c-4.12,2.29-15.64,6.57-24.34,8.15-2.52-.86-5.86-1.93-9.41-2.87.17-.17.35-.33.51-.51,3.42-3.8,5.1-9.08,5.07-15.7,9.39,1.83,23.64,7.88,28.18,10.93Zm-6.68-9.03c-.83-.36-1.71-.73-2.65-1.12-2.93-1.21-12-4.77-19.31-5.93-.28-1.44-.68-2.97-1.15-4.51.31-.89.78-1.88,1.49-2.86,2.4-3.3,6.54-5.28,12.32-5.88,8.81-.9,27.32,5.04,32.2,7.83-3.38,3-14.66,9.78-22.9,12.47Z"/>
</svg>