<svg id="Ebene_1" data-name="Ebene 1" xmlns="http://www.w3.org/2000/svg" viewBox="0 0 120.76 120.76"><defs><style>.cls-1{fill:#7d4e24;}.cls-2{fill:#fff;}</style></defs><title>Unterallergen_SVG</title><path class="cls-1" d="M120.76,60.38A60.38,60.38,0,1,1,60.38,0,60.39,60.39,0,0,1,120.76,60.38Z"/><path class="cls-2" d="M88.59,32.17C86.81,30.39,87,26.69,85,25.36s-6.3-.3-8.52-1.19c-14-5.62-31-2.41-42.89,9.43C18,49.18,17.38,73.8,32.17,88.59s39.4,14.14,55-1.44S103.38,47,88.59,32.17ZM74,74c-13.26,13.26-32.52,15.5-43,5s-8.27-29.76,5-43c11.24-11.23,26.78-14.55,37.65-8.92,2,1,6.66,0,8.26,1.56,1.84,1.83.38,6.3,1.45,8.59C88.39,48,85,63.07,74,74Z"/><path class="cls-2" d="M47.43,77.44a5.27,5.27,0,0,1-1-1.19c-.82-1.31-2.51-4-2-6.09.4-1.58,1.91-2.68,3.12-3.57l.42-.31c.75-.56,3-2.27,3.64-4a14.48,14.48,0,0,0,.5-2,12.05,12.05,0,0,1,.92-3l.16-.33-.3.21A11.79,11.79,0,0,1,50,58.39a16.65,16.65,0,0,0-1.92.76c-1.66.82-3.08,3.3-3.54,4.11l-.25.45c-.73,1.31-1.64,2.95-3.15,3.55-2,.77-4.89-.56-6.29-1.21a5.17,5.17,0,0,1-1.31-.85h0a4,4,0,0,1-1.3-4.35c.91-2.84,3.9-3.27,5.5-3.5.87-.13.91-.44,1.06-1.38a6.17,6.17,0,0,1,.36-1.49,2.6,2.6,0,0,1,1.48-1.64c1.15-.38,2.34.55,3.29,1.31l.37.29c.85.65,1.52.89,2.07.73s1.07-.73,1.61-1.77a13,13,0,0,1,1.86-2.91,13.26,13.26,0,0,1,1.08-1,11.53,11.53,0,0,0,1.26-1.26c.4-.52.52-.89.43-1a2.17,2.17,0,0,0-1.94.43,10.38,10.38,0,0,0-1.75,1.66c-1,1.13-2.1,2.3-3.7,2.55a5.81,5.81,0,0,1-4.65-1.38,4.54,4.54,0,0,1-1.35-2A3.22,3.22,0,0,1,42.82,44l.4,0a8.15,8.15,0,0,0,3.87-.17c1.45-.56,3.13-1.92,3.45-3.23a4.54,4.54,0,0,0-.29-2.38,5.69,5.69,0,0,1-.31-3.06,3.84,3.84,0,0,1,4.4-3.09,5.18,5.18,0,0,0,3.33-.42c1.47-.69,4-.69,5.21.4a2.41,2.41,0,0,1,.75,2.33,3.12,3.12,0,0,1-1.42,1.9c-.17.13-.34.26-.49.39-1.16,1.06-2.93,3.12-1.72,5a3.16,3.16,0,0,0,.48.55c1.54,1.36,4.08.57,4.83.3l.62.55c-.18.77-.64,3.4.9,4.75a2.83,2.83,0,0,0,.61.41c2,1,3.79-1,4.7-2.33.12-.17.22-.35.33-.53a3.08,3.08,0,0,1,1.71-1.65,2.42,2.42,0,0,1,2.4.45c1.24,1.09,1.55,3.58,1,5.12a5,5,0,0,0,0,3.3,3.87,3.87,0,0,1-2.5,4.81,5.68,5.68,0,0,1-3.08.08,4.54,4.54,0,0,0-2.4,0c-1.26.48-2.4,2.33-2.77,3.83a8.07,8.07,0,0,0,.31,3.86l.1.4a3.23,3.23,0,0,1-4,4.11,4.49,4.49,0,0,1-2.16-1.09,5.83,5.83,0,0,1-1.95-4.44c0-1.62,1.08-2.82,2.08-4a10.65,10.65,0,0,0,1.42-1.94,2.18,2.18,0,0,0,.19-2c-.1-.08-.45.08-.91.55a9.66,9.66,0,0,0-1.09,1.4A13.65,13.65,0,0,1,60,59.43a12.65,12.65,0,0,1-2.59,2.17c-1,.71-1.53,1.3-1.62,1.86s.24,1.2,1,2l.34.33c.86.85,1.94,1.91,1.71,3.1a2.65,2.65,0,0,1-1.45,1.68,6.07,6.07,0,0,1-1.43.54c-.91.26-1.22.35-1.24,1.22,0,1.62-.08,4.64-2.78,5.9A4,4,0,0,1,47.43,77.44Z"/></svg>