<?xml version="1.0" encoding="UTF-8"?>
<svg id="Ebene_1" data-name="Ebene 1" xmlns="http://www.w3.org/2000/svg" viewBox="0 0 128 128">
  <defs>
    <style>
      .cls-1 {
        fill: #efc38e;
      }

      .cls-2 {
        fill: #c69b6b;
      }

      .cls-3 {
        fill: #444;
      }
    </style>
  </defs>
  <path class="cls-2" d="m59.455,121.098c-6.284,0-12.101-.649-17.018-1.198-.75-.084-1.479-.164-2.195-.241,15.649,3.769,43.966,7.473,61.989-8.544,16.897-15.018,21.43-30.728,20.975-43.947-1.714,7.457-5.26,15.865-11.404,25.45-15.261,23.808-35.489,28.479-52.348,28.479Z"/>
  <path class="cls-2" d="m26.752,115.426l2.381-.732c1.241-.382,2.728-.53,4.439-.53,2.632,0,5.795.353,9.422.757,18.045,2.01,45.316,5.054,64.585-25.003,21.89-34.15,8.756-51.387-1.797-65.236-4.326-5.676-8.062-10.579-8.763-15.899l-.306-2.315-2.371.8c-5.191,1.752-11.382.718-18.547-.479C58.179,3.849,36.262.19,14.32,34.422c-19.22,29.984-4.266,52.113,5.63,66.755,3.304,4.889,5.914,8.751,6.43,11.95l.371,2.299Zm-7.291-26.262c-8.153-7.52-1.996-14.184.964-17.387.075-.082.155-.168.236-.256-1.624-.129-3.595-.519-5.209-2.022-2.002-1.864-2.985-5.003-2.506-7.997.533-3.331,2.743-6.053,6.224-7.663.63-.291,1.284-.462,1.947-.54-1.468-1.479-2.682-3.301-3.077-5.58-.547-3.156.599-6.606,3.405-10.255,4.549-5.916,9.261-6.653,13.116-5.783-.323-1.522-.114-3.334,1.031-5.478,1.096-2.056,4.046-5.507,8.217-5.339,2.801.105,4.679,1.286,5.947,2.654,1.88-5.383,4.658-10.807,9.34-12.633,3.105-1.21,6.558-.701,10.261,1.51,2.576,1.537,4.259,3.523,5.003,5.902,1.496,4.782-1.807,8.722-5.304,12.894-1.922,2.292-4.1,4.891-5.742,7.883-.658,1.2-.99,2.015-1.156,2.542,1.756-.492,5.333-2.674,8.233-5.128l6.771-5.739c1.124-.953,2.702-1.071,3.925-.293,1.206.767,1.761,2.22,1.38,3.615l-2.299,8.41c-.964,3.541-1.397,7.573-1.067,9.292.425-.367,1.079-1.041,1.987-2.266,2.042-2.754,3.478-5.793,4.745-8.475,2.298-4.862,4.467-9.454,9.474-10.282,2.496-.412,5.052.152,7.606,1.677,3.702,2.21,5.732,4.975,6.034,8.218.457,4.896-3.121,9.587-7.39,13.736,1.776.509,3.63,1.616,4.946,3.932,2.046,3.601.167,7.756-1.266,9.645-1.448,1.906-3.006,2.875-4.534,3.266,2.503,2.973,3.868,7.396.408,13.977-2.111,4.017-4.758,6.526-7.866,7.458-2.324.697-4.602.429-6.662-.218.226.622.362,1.279.373,1.973.059,3.637-1.388,6.717-4.077,8.67-2.546,1.849-5.92,2.456-8.59,1.542-2.195-.75-3.458-2.379-4.311-3.77-.078.187-.154.371-.225.542-1.35,3.266-3.909,9.447-10.654,9.447-1.417,0-3.018-.272-4.831-.902-3.953-1.372-6.556-3.616-7.735-6.669-.924-2.394-1.358-6.47,1.827-12.295,2.898-5.304,4.416-9.519,3.439-14.763-5.402,1.503-8.666,4.719-12.325,9.637-3.988,5.358-7.939,6.772-10.551,7.016-3.294.308-6.465-.943-9.463-3.707Z"/>
  <path class="cls-3" d="m122.138,42.4c-3.303-8.169-7.959-14.97-12.365-20.752-3.893-5.108-7.253-9.519-7.781-13.52l-.544-4.125c-.116-.882-.512-1.729-1.2-2.295-.935-.769-2.168-.99-3.292-.611l-4.219,1.422c-4,1.349-9.616.412-16.117-.673C58.558-1.169,33.822-5.295,10.095,31.721c-20.998,32.759-4.288,57.486,5.696,72.26,2.841,4.205,5.296,7.836,5.637,9.945l.506,3.131v.002c.196,1.207.91,2.272,1.961,2.924.619.384,1.317.597,2.03.639.46.027.908.162,1.339.324,3.086,1.16,14.665,5.072,28.186,6.476,3.553.369,6.998.552,10.329.552,16.429,0,30.052-4.461,39.788-13.115,30.909-27.471,22.877-56.864,16.571-72.457ZM26.38,113.128c-.516-3.199-3.127-7.061-6.43-11.95-9.896-14.643-24.849-36.771-5.63-66.755C36.262.19,58.179,3.849,75.794,6.789c7.165,1.197,13.356,2.23,18.547.479l2.371-.8.306,2.315c.702,5.321,4.437,10.223,8.763,15.899,10.553,13.85,23.687,31.086,1.797,65.236-19.269,30.058-46.54,27.013-64.585,25.003-3.626-.404-6.79-.757-9.422-.757-1.712,0-3.198.149-4.439.53l-2.381.732-.371-2.299Zm75.851-2.012c-18.023,16.017-46.341,12.313-61.989,8.544.715.077,1.445.157,2.195.241,4.917.549,10.734,1.198,17.018,1.198,16.859,0,37.087-4.671,52.348-28.479,6.144-9.585,9.689-17.993,11.404-25.45.455,13.219-4.079,28.929-20.975,43.947Z"/>
  <path class="cls-1" d="m28.457,87.883c1.597-.149,4.106-1.139,6.992-5.015,3.534-4.752,8.013-9.978,16.461-11.837.282-.063.564-.092.841-.092,1.698,0,3.215,1.127,3.644,2.83,2.065,8.187-.792,14.418-3.631,19.614-2.264,4.142-2.093,6.686-1.55,8.091.624,1.616,2.206,2.873,4.702,3.74,5.57,1.935,7.196-.873,9.203-5.726.962-2.327,1.794-4.336,3.803-4.956,2.738-.844,4.187,1.701,4.88,2.926.59,1.041,1.201,2.119,2.112,2.43.935.319,2.662.128,4.016-.854,1.367-.993,2.044-2.52,2.011-4.537-.019-1.181-2.507-3.125-3.704-4.058-1.68-1.311-3.268-2.55-2.683-4.546.205-.702.857-1.907,2.917-2.102,1.626-.15,3.206.711,5.196,1.808,2.463,1.357,5.526,3.046,8.137,2.263,1.768-.529,3.405-2.208,4.866-4.988,3.522-6.698.385-9.128-4.433-11.83-1.913-1.074-3.424-1.921-3.778-3.641-.185-.897.033-1.809.613-2.567,1.825-2.38,4.591-.766,6.078.102,3.219,1.875,4.478,2.121,6.09-.005.583-.768,1.62-2.879.9-4.145-1.06-1.866-2.834-1.894-4.868-1.746-1.014.074-2.9.212-3.669-1.611-.799-1.895.761-3.272,1.794-4.184,2.213-1.956,8.948-7.907,8.555-12.135-.147-1.584-1.33-3.018-3.612-4.381-1.528-.913-2.907-1.251-4.213-1.035-2.3.38-3.62,2.956-5.755,7.476-1.366,2.892-2.915,6.169-5.251,9.319-2.246,3.03-4.101,4.472-6.016,4.677-1.14.121-2.24-.231-3.109-.992-3.472-3.044-1.624-11.512-.667-15.012l.814-2.978-2.506,2.124c-2.789,2.365-9.739,7.695-14.022,6.087-1.117-.419-1.956-1.25-2.36-2.341-.668-1.798-.156-4.077,1.661-7.389,1.877-3.424,4.224-6.222,6.294-8.692,3.126-3.728,5.008-6.118,4.362-8.184-.37-1.184-1.282-2.195-2.788-3.094-2.341-1.396-4.259-1.771-5.864-1.144-3.703,1.443-6.027,8.008-7.452,12.82-.385,1.299-.967,3.261-2.995,3.375-1.935.117-2.666-1.591-3.052-2.504-.786-1.86-1.565-3.289-3.801-3.373-1.605-.049-3.12,1.785-3.601,2.689-1.199,2.245-.469,3.141,2.663,5.054,1.402.857,4.32,2.639,2.859,5.409-.432.818-1.144,1.394-2.008,1.623-1.673.447-3.119-.472-4.949-1.632-4.571-2.9-8.443-4.632-13.162,1.504-1.916,2.492-2.738,4.629-2.44,6.348.435,2.515,3.337,4.387,5.669,5.89,1.92,1.238,3.437,2.217,4.044,3.747.744,1.879-.02,3-.541,3.502-1.491,1.435-3.343.619-5.304-.243-1.53-.673-4.379-1.928-5.573-1.375-1.945.9-3.114,2.251-3.378,3.907-.241,1.506.308,2.923.974,3.543.7.652,2.051.701,3.242.745,1.441.053,4.441.163,4.898,3.009.333,2.083-1.166,3.707-2.903,5.587-3.885,4.205-5.274,6.593-1.246,10.307,1.935,1.785,3.756,2.575,5.593,2.4Z"/>
  <path class="cls-3" d="m28.924,92.872c2.612-.244,6.564-1.658,10.551-7.016,3.659-4.918,6.923-8.134,12.325-9.637.977,5.244-.541,9.459-3.439,14.763-3.185,5.826-2.751,9.901-1.827,12.295,1.18,3.053,3.782,5.297,7.735,6.669,1.814.63,3.415.902,4.831.902,6.745,0,9.304-6.182,10.654-9.447.072-.171.147-.355.225-.542.853,1.391,2.116,3.02,4.311,3.77,2.67.914,6.043.306,8.59-1.542,2.689-1.953,4.136-5.033,4.077-8.67-.012-.694-.147-1.35-.373-1.973,2.06.647,4.338.915,6.662.218,3.108-.932,5.754-3.441,7.866-7.458,3.461-6.581,2.096-11.004-.408-13.977,1.528-.39,3.086-1.359,4.534-3.266,1.432-1.889,3.312-6.044,1.266-9.645-1.316-2.316-3.17-3.422-4.946-3.932,4.269-4.149,7.846-8.84,7.39-13.736-.302-3.243-2.332-6.008-6.034-8.218-2.554-1.525-5.111-2.089-7.606-1.677-5.007.827-7.176,5.419-9.474,10.282-1.267,2.682-2.703,5.721-4.745,8.475-.908,1.225-1.562,1.899-1.987,2.266-.33-1.719.103-5.752,1.067-9.292l2.299-8.41c.381-1.395-.173-2.848-1.38-3.615-1.223-.778-2.801-.66-3.925.293l-6.771,5.739c-2.9,2.454-6.477,4.636-8.233,5.128.167-.527.498-1.343,1.156-2.542,1.641-2.992,3.819-5.59,5.742-7.883,3.497-4.172,6.8-8.112,5.304-12.894-.744-2.379-2.427-4.365-5.003-5.902-3.704-2.211-7.156-2.72-10.261-1.51-4.682,1.826-7.46,7.25-9.34,12.633-1.268-1.368-3.146-2.55-5.947-2.654-4.171-.167-7.12,3.284-8.217,5.339-1.144,2.144-1.354,3.956-1.031,5.478-3.855-.87-8.567-.133-13.116,5.783-2.806,3.649-3.951,7.099-3.405,10.255.395,2.28,1.609,4.101,3.077,5.58-.663.078-1.317.249-1.947.54-3.48,1.61-5.691,4.332-6.224,7.663-.479,2.994.505,6.133,2.506,7.997,1.614,1.503,3.585,1.893,5.209,2.022-.081.088-.161.174-.236.256-2.96,3.203-9.117,9.867-.964,17.387,2.998,2.764,6.169,4.015,9.463,3.707Zm-4.813-17.695c1.737-1.88,3.236-3.503,2.903-5.587-.457-2.846-3.457-2.956-4.898-3.009-1.191-.044-2.543-.093-3.242-.745-.666-.62-1.215-2.037-.974-3.543.265-1.656,1.433-3.007,3.378-3.907,1.194-.553,4.043.702,5.573,1.375,1.961.863,3.812,1.678,5.304.243.521-.502,1.285-1.623.541-3.502-.606-1.531-2.123-2.509-4.044-3.747-2.332-1.504-5.234-3.375-5.669-5.89-.298-1.719.523-3.856,2.44-6.348,4.72-6.136,8.592-4.404,13.162-1.504,1.83,1.161,3.276,2.079,4.949,1.632.863-.229,1.576-.805,2.008-1.623,1.461-2.77-1.457-4.552-2.859-5.409-3.132-1.914-3.862-2.809-2.663-5.054.481-.903,1.996-2.738,3.601-2.689,2.236.084,3.015,1.513,3.801,3.373.386.913,1.117,2.622,3.052,2.504,2.028-.114,2.61-2.076,2.995-3.375,1.426-4.812,3.75-11.376,7.452-12.82,1.605-.627,3.523-.252,5.864,1.144,1.506.899,2.417,1.911,2.788,3.094.646,2.066-1.236,4.456-4.362,8.184-2.07,2.469-4.417,5.268-6.294,8.692-1.817,3.312-2.329,5.591-1.661,7.389.405,1.091,1.243,1.922,2.36,2.341,4.283,1.608,11.232-3.722,14.022-6.087l2.506-2.124-.814,2.978c-.956,3.499-2.805,11.968.667,15.012.869.761,1.968,1.113,3.109.992,1.915-.205,3.77-1.647,6.016-4.677,2.336-3.15,3.885-6.427,5.251-9.319,2.135-4.52,3.456-7.096,5.755-7.476,1.306-.216,2.685.122,4.213,1.035,2.283,1.363,3.466,2.796,3.612,4.381.394,4.228-6.341,10.179-8.555,12.135-1.033.912-2.593,2.29-1.794,4.184.769,1.823,2.655,1.685,3.669,1.611,2.034-.147,3.807-.12,4.868,1.746.719,1.266-.317,3.377-.9,4.145-1.613,2.126-2.872,1.881-6.09.005-1.486-.868-4.252-2.482-6.078-.102-.58.757-.799,1.669-.613,2.567.354,1.72,1.866,2.568,3.778,3.641,4.818,2.702,7.955,5.132,4.433,11.83-1.461,2.78-3.098,4.458-4.866,4.988-2.611.784-5.674-.905-8.137-2.263-1.99-1.097-3.569-1.958-5.196-1.808-2.06.195-2.712,1.4-2.917,2.102-.585,1.995,1.002,3.234,2.683,4.546,1.196.934,3.685,2.877,3.704,4.058.033,2.017-.644,3.543-2.011,4.537-1.354.983-3.081,1.173-4.016.854-.911-.311-1.523-1.389-2.112-2.43-.694-1.225-2.143-3.77-4.88-2.926-2.009.619-2.84,2.629-3.803,4.956-2.008,4.853-3.633,7.66-9.203,5.726-2.497-.867-4.078-2.125-4.702-3.74-.543-1.405-.714-3.949,1.55-8.091,2.839-5.196,5.696-11.427,3.631-19.614-.429-1.703-1.946-2.83-3.644-2.83-.276,0-.558.029-.841.092-8.449,1.859-12.927,7.085-16.461,11.837-2.885,3.876-5.395,4.867-6.992,5.015-1.837.175-3.658-.615-5.593-2.4-4.028-3.714-2.639-6.102,1.246-10.307Z"/>
</svg>