<?xml version="1.0" encoding="UTF-8"?>
<svg id="Ebene_1" data-name="Ebene 1" xmlns="http://www.w3.org/2000/svg" viewBox="0 0 128 128">
  <defs>
    <style>
      .cls-1 {
        fill: #fd0;
      }

      .cls-2 {
        fill: #444;
      }
    </style>
  </defs>
  <path class="cls-1" d="m93.38,41.17c2.21,0,4.02.07,5.12.12,2.72.12,5.06.3,7.08.51,1.22-.87,2.46-1.91,3.72-3.18,6.59-6.63,13.48-28.17,13.68-33.57h-.01c-4.31,0-19.59,4.6-28.92,10.16.13,1.57.24,3.31.32,5.25.15,3.36.42,13.28-.99,20.71Z"/>
  <path class="cls-1" d="m66.22,47.22c1.79-1.27,3.94-2.47,6.56-3.5,4.12-1.62,10.11-2.25,15.4-2.46,2.28-10.05.98-30.56-.74-35.63-4.76,2.1-20.98,16.36-24.8,25.91.59,2.05,1.2,4.42,1.85,7.17.39,1.65,1.09,4.8,1.74,8.51Z"/>
  <path class="cls-1" d="m74.62,48.49c-3.11,1.22-5.6,2.75-7.5,4.56.47,3.64.77,7.38.63,10.59,7.78.23,16.13,1.64,19.24,2.21,3.63.67,6.61,1.32,9.07,1.96,7.58-6.26,15.69-15.85,17.41-19.36-5.48-2.17-29.63-3.59-38.85.04Z"/>
  <path class="cls-1" d="m57.21,85.34c-.26.18-.53.33-.8.49,7.77.94,15.22,2.58,18.3,3.31,1.97.46,3.82.93,5.55,1.39,9.24-4.84,19.16-12.15,21.98-15.31-4.87-2.43-22.76-6.2-35.16-6.47-1.6,7.66-4.91,13.24-9.87,16.59Z"/>
  <path class="cls-1" d="m43.9,82.76c.5.25.91.41,1.18.47,1.58.36,5.56.39,9.29-2.14,4.17-2.82,6.89-7.95,8.07-15.23,1.77-10.93-5.24-37.03-8.15-42.34-3.18,2.3-11.13,12.63-16.2,22.51.74,2.71,1.52,5.94,2.35,9.81.92,4.29,3.43,17.02,3.46,26.91Z"/>
  <path class="cls-1" d="m38.73,85.83c1.05-13.94-5.77-42.95-9.11-48.67-5,3.54-21.64,27.5-23.93,41.63-2.81,17.34,5.07,26.1,9.8,29.31,0-2.84.73-6.62,3-10.3,2.67-4.33,8.34-9.79,20.24-11.96Z"/>
  <path class="cls-1" d="m41.75,90.53c-9.14,1.25-15.69,4.69-18.94,9.96-2.77,4.5-2.26,8.72-2.04,9.37.06.18,6.08,15.98,31.15,12.55,12.61-1.72,36.94-17,41.27-21.86-6.01-3.76-37.88-11.88-51.44-10.02Z"/>
  <path class="cls-2" d="m124.21,20.6c5.75-16.34,3.46-18.64,2.7-19.4-2.2-2.21-8.82-1.38-19.69,2.47-2.36.84-8.31,3.06-13.79,6.04-1.16-7.87-2.89-8.74-3.58-9.08-1.07-.54-2.36-.5-3.94.12-5.9,2.3-19.16,14.2-25.49,24.11-2.34-6.03-3.96-6.51-4.64-6.71-1.16-.34-2.42-.07-3.83.82-3.94,2.5-10.71,11.14-15.97,20.29-2.46-6.73-4.17-7.23-4.9-7.45-1.17-.35-2.43-.08-3.84.81-4.29,2.72-10.83,11.94-15.13,19.01-2.95,4.84-9.96,17.11-11.46,26.32-3.31,20.38,6.43,30.72,12.57,34.66l-8.12,7.18c-1.05.93-1.16,2.55-.23,3.61.5.58,1.21.87,1.91.87.6,0,1.19-.21,1.68-.64l9.45-8.35c3.67,5.49,12.06,12.7,27.33,12.7,2.29,0,4.75-.16,7.36-.52,13.66-1.87,41.09-18.36,45.33-24.78.77-1.16,1.02-2.28.74-3.33-.58-2.2-4.47-4.5-11.58-6.84,9.27-5.39,18.17-12.22,20.18-15.6.66-1.12.85-2.19.54-3.17-.21-.68-.71-2.23-5.96-4.18,7.59-6.73,14.94-15.54,16.6-19.86.2-.52.8-2.09.07-3.55-.32-.64-1.07-2.13-6.26-3.33.21-.2.42-.4.63-.61,5.32-5.36,10.01-17.91,11.31-21.63Zm-36.78-14.97c1.73,5.07,3.02,25.58.74,35.63-5.29.21-11.28.85-15.4,2.46-2.62,1.03-4.77,2.22-6.56,3.5-.66-3.72-1.36-6.86-1.74-8.51-.64-2.75-1.26-5.11-1.85-7.17,3.83-9.54,20.04-23.81,24.8-25.91Zm-33.13,17.89c2.9,5.3,9.92,31.41,8.15,42.34-1.18,7.28-3.9,12.4-8.07,15.23-3.73,2.53-7.71,2.5-9.29,2.14-.27-.06-.68-.22-1.18-.47-.02-9.89-2.54-22.62-3.46-26.91-.83-3.87-1.61-7.1-2.35-9.81,5.07-9.88,13.02-20.22,16.2-22.51ZM5.69,78.78c2.29-14.13,18.93-38.09,23.93-41.63,3.34,5.72,10.16,34.73,9.11,48.67-11.9,2.17-17.56,7.63-20.24,11.96-2.27,3.68-3.01,7.46-3,10.3-4.73-3.21-12.61-11.97-9.8-29.31Zm87.5,21.76c-4.33,4.85-28.66,20.14-41.27,21.86-25.07,3.43-31.09-12.37-31.15-12.55-.22-.65-.73-4.87,2.04-9.37,3.25-5.27,9.8-8.71,18.94-9.96,13.56-1.86,45.42,6.26,51.44,10.02Zm9.05-25.34c-2.81,3.16-12.74,10.47-21.98,15.31-1.73-.46-3.58-.92-5.55-1.39-3.07-.72-10.53-2.37-18.3-3.31.27-.16.53-.31.8-.49,4.95-3.35,8.26-8.93,9.87-16.59,12.41.27,30.29,4.04,35.16,6.47Zm11.23-26.76c-1.73,3.51-9.84,13.1-17.41,19.36-2.46-.63-5.44-1.29-9.07-1.96-3.11-.57-11.46-1.98-19.24-2.21.13-3.21-.16-6.95-.63-10.59,1.9-1.81,4.4-3.34,7.5-4.56,9.22-3.62,33.37-2.21,38.85-.04Zm-4.17-9.84c-1.26,1.27-2.5,2.31-3.72,3.18-2.02-.21-4.36-.38-7.08-.51-1.1-.05-2.92-.11-5.12-.12,1.4-7.43,1.13-17.35.99-20.71-.08-1.94-.19-3.68-.32-5.25,9.33-5.56,24.61-10.16,28.92-10.16h.01c-.19,5.4-7.09,26.94-13.68,33.57Z"/>
</svg>