<svg id="Ebene_1" data-name="Ebene 1" xmlns="http://www.w3.org/2000/svg" viewBox="0 0 120.76 120.76"><defs><style>.cls-1{fill:#f5c500;}.cls-2{fill:#fff;}</style></defs><title>Unterallergen_SVG</title><path class="cls-1" d="M60.38,0A60.37,60.37,0,0,0,26.07,110.05c-.87-2.73-1.77-5.87-2.53-9.21-2.35-10.38,6.71-18.38,7.1-18.36-.39,0,3.38,8.46,5.73,18.83a17.58,17.58,0,0,1-2.64,13.25c.8.39,1.61.77,2.43,1.13.25-.88.52-1.76.81-2.66,3.26-10.11,15.13-12.38,15.46-12.17-.32-.21-1.38,8.69-4.51,18.6.94.2,1.89.37,2.84.53-.09-4.1.82-10.77,6.27-15.19,8.26-6.69,16.47-11,16.15-11.25.32.24,2.48,12.12-5.79,18.82a126.69,126.69,0,0,1-11.53,8.2c1.49.11,3,.19,4.52.19A60.38,60.38,0,0,0,60.38,0Z"/><path class="cls-2" d="M73.18,93.55c.32.24-7.89,4.56-16.15,11.25-5.45,4.42-6.36,11.09-6.27,15.19,1.68.26,3.38.45,5.1.58a126.69,126.69,0,0,0,11.53-8.2C75.66,105.67,73.5,93.79,73.18,93.55Z"/><path class="cls-2" d="M36.37,101.31C34,90.94,30.25,82.46,30.64,82.48c-.39,0-9.45,8-7.1,18.36.76,3.34,1.66,6.48,2.53,9.21a59.86,59.86,0,0,0,7.66,4.51A17.58,17.58,0,0,0,36.37,101.31Z"/><path class="cls-2" d="M52.43,100.86c-.33-.21-12.2,2.06-15.46,12.17-.29.9-.56,1.78-.81,2.66a59.78,59.78,0,0,0,11.76,3.77C51.05,109.55,52.11,100.65,52.43,100.86Z"/><path class="cls-2" d="M39.24,56.88C41.59,67.25,45.36,75.73,45,75.71c.4,0,9.45-8,7.1-18.35s-6.12-18.85-5.72-18.83C45.94,38.51,36.89,46.51,39.24,56.88Z"/><path class="cls-2" d="M31.31,78.72C33.66,89.09,37.43,97.56,37,97.55c.39,0,9.44-8,7.1-18.36S38,60.34,38.41,60.36C38,60.34,29,68.35,31.31,78.72Z"/><path class="cls-2" d="M88.64,47.11c-8.27,6.7-16.47,11-16.15,11.25-.32-.23-2.48-12.12,5.78-18.81s16.47-11,16.15-11.25C94.74,28.53,96.9,40.42,88.64,47.11Z"/><path class="cls-2" d="M80.91,69.2c-8.26,6.69-16.47,11-16.15,11.25-.32-.23-2.48-12.12,5.78-18.81S87,50.62,86.69,50.39C87,50.62,89.17,62.51,80.91,69.2Z"/><path class="cls-2" d="M73.62,91.26c-8.26,6.69-16.46,11-16.14,11.25-.32-.23-2.48-12.12,5.78-18.82s16.47-11,16.15-11.25C79.73,72.68,81.89,84.56,73.62,91.26Z"/><path class="cls-2" d="M47.17,35.05c2.34,10.37,6.11,18.84,5.72,18.83.39,0,9.45-8,7.1-18.36s-6.12-18.84-5.72-18.83C53.87,16.68,44.82,24.68,47.17,35.05Z"/><path class="cls-2" d="M46.59,83c-3.27,10.12-4.34,19.33-4.68,19.12.34.21,12.2-2,15.47-12.17s4.35-19.33,4.68-19.12C61.73,70.59,49.86,72.85,46.59,83Z"/><path class="cls-2" d="M57.13,52.91C53.86,63,52.78,72.24,52.45,72c.33.21,12.2-2.06,15.47-12.18s4.34-19.33,4.68-19.11C72.26,40.52,60.4,42.79,57.13,52.91Z"/><path class="cls-2" d="M67.75,22.85C64.49,33,63.41,42.18,63.08,42c.33.22,12.2-2.05,15.46-12.17s4.35-19.33,4.68-19.12C82.89,10.46,71,12.73,67.75,22.85Z"/></svg>